<?xml version="1.0" encoding="utf-8" standalone="no"?>
<!DOCTYPE svg PUBLIC "-//W3C//DTD SVG 1.1//EN"
  "http://www.w3.org/Graphics/SVG/1.1/DTD/svg11.dtd">
<svg xmlns:xlink="http://www.w3.org/1999/xlink" width="460.8pt" height="345.6pt" viewBox="0 0 460.8 345.6" xmlns="http://www.w3.org/2000/svg" version="1.1">
 <metadata>
  <rdf:RDF xmlns:dc="http://purl.org/dc/elements/1.1/" xmlns:cc="http://creativecommons.org/ns#" xmlns:rdf="http://www.w3.org/1999/02/22-rdf-syntax-ns#">
   <cc:Work>
    <dc:type rdf:resource="http://purl.org/dc/dcmitype/StillImage"/>
    <dc:date>2024-06-18T10:51:26.205731</dc:date>
    <dc:format>image/svg+xml</dc:format>
    <dc:creator>
     <cc:Agent>
      <dc:title>Matplotlib v3.5.3, https://matplotlib.org/</dc:title>
     </cc:Agent>
    </dc:creator>
   </cc:Work>
  </rdf:RDF>
 </metadata>
 <defs>
  <style type="text/css">*{stroke-linejoin: round; stroke-linecap: butt}</style>
 </defs>
 <g id="figure_1">
  <g id="patch_1">
   <path d="M 0 345.6 
L 460.8 345.6 
L 460.8 0 
L 0 0 
z
" style="fill: #ffffff"/>
  </g>
  <g id="axes_1">
   <g id="patch_2">
    <path d="M 57.6 307.584 
L 414.72 307.584 
L 414.72 41.472 
L 57.6 41.472 
z
" style="fill: #ffffff"/>
   </g>
   <g id="matplotlib.axis_1">
    <g id="xtick_1">
     <g id="line2d_1">
      <defs>
       <path id="m2a296a015a" d="M 0 0 
L 0 3.5 
" style="stroke: #000000; stroke-width: 0.8"/>
      </defs>
      <g>
       <use xlink:href="#m2a296a015a" x="73.670319" y="307.584" style="stroke: #000000; stroke-width: 0.8"/>
      </g>
     </g>
     <g id="text_1">
      <!-- 0 -->
      <g transform="translate(70.489069 322.182437)scale(0.1 -0.1)">
       <defs>
        <path id="DejaVuSans-30" d="M 2034 4250 
Q 1547 4250 1301 3770 
Q 1056 3291 1056 2328 
Q 1056 1369 1301 889 
Q 1547 409 2034 409 
Q 2525 409 2770 889 
Q 3016 1369 3016 2328 
Q 3016 3291 2770 3770 
Q 2525 4250 2034 4250 
z
M 2034 4750 
Q 2819 4750 3233 4129 
Q 3647 3509 3647 2328 
Q 3647 1150 3233 529 
Q 2819 -91 2034 -91 
Q 1250 -91 836 529 
Q 422 1150 422 2328 
Q 422 3509 836 4129 
Q 1250 4750 2034 4750 
z
" transform="scale(0.015625)"/>
       </defs>
       <use xlink:href="#DejaVuSans-30"/>
      </g>
     </g>
    </g>
    <g id="xtick_2">
     <g id="line2d_2">
      <g>
       <use xlink:href="#m2a296a015a" x="114.272438" y="307.584" style="stroke: #000000; stroke-width: 0.8"/>
      </g>
     </g>
     <g id="text_2">
      <!-- 250 -->
      <g transform="translate(104.728688 322.182437)scale(0.1 -0.1)">
       <defs>
        <path id="DejaVuSans-32" d="M 1228 531 
L 3431 531 
L 3431 0 
L 469 0 
L 469 531 
Q 828 903 1448 1529 
Q 2069 2156 2228 2338 
Q 2531 2678 2651 2914 
Q 2772 3150 2772 3378 
Q 2772 3750 2511 3984 
Q 2250 4219 1831 4219 
Q 1534 4219 1204 4116 
Q 875 4013 500 3803 
L 500 4441 
Q 881 4594 1212 4672 
Q 1544 4750 1819 4750 
Q 2544 4750 2975 4387 
Q 3406 4025 3406 3419 
Q 3406 3131 3298 2873 
Q 3191 2616 2906 2266 
Q 2828 2175 2409 1742 
Q 1991 1309 1228 531 
z
" transform="scale(0.015625)"/>
        <path id="DejaVuSans-35" d="M 691 4666 
L 3169 4666 
L 3169 4134 
L 1269 4134 
L 1269 2991 
Q 1406 3038 1543 3061 
Q 1681 3084 1819 3084 
Q 2600 3084 3056 2656 
Q 3513 2228 3513 1497 
Q 3513 744 3044 326 
Q 2575 -91 1722 -91 
Q 1428 -91 1123 -41 
Q 819 9 494 109 
L 494 744 
Q 775 591 1075 516 
Q 1375 441 1709 441 
Q 2250 441 2565 725 
Q 2881 1009 2881 1497 
Q 2881 1984 2565 2268 
Q 2250 2553 1709 2553 
Q 1456 2553 1204 2497 
Q 953 2441 691 2322 
L 691 4666 
z
" transform="scale(0.015625)"/>
       </defs>
       <use xlink:href="#DejaVuSans-32"/>
       <use xlink:href="#DejaVuSans-35" x="63.623047"/>
       <use xlink:href="#DejaVuSans-30" x="127.246094"/>
      </g>
     </g>
    </g>
    <g id="xtick_3">
     <g id="line2d_3">
      <g>
       <use xlink:href="#m2a296a015a" x="154.874557" y="307.584" style="stroke: #000000; stroke-width: 0.8"/>
      </g>
     </g>
     <g id="text_3">
      <!-- 500 -->
      <g transform="translate(145.330807 322.182437)scale(0.1 -0.1)">
       <use xlink:href="#DejaVuSans-35"/>
       <use xlink:href="#DejaVuSans-30" x="63.623047"/>
       <use xlink:href="#DejaVuSans-30" x="127.246094"/>
      </g>
     </g>
    </g>
    <g id="xtick_4">
     <g id="line2d_4">
      <g>
       <use xlink:href="#m2a296a015a" x="195.476677" y="307.584" style="stroke: #000000; stroke-width: 0.8"/>
      </g>
     </g>
     <g id="text_4">
      <!-- 750 -->
      <g transform="translate(185.932927 322.182437)scale(0.1 -0.1)">
       <defs>
        <path id="DejaVuSans-37" d="M 525 4666 
L 3525 4666 
L 3525 4397 
L 1831 0 
L 1172 0 
L 2766 4134 
L 525 4134 
L 525 4666 
z
" transform="scale(0.015625)"/>
       </defs>
       <use xlink:href="#DejaVuSans-37"/>
       <use xlink:href="#DejaVuSans-35" x="63.623047"/>
       <use xlink:href="#DejaVuSans-30" x="127.246094"/>
      </g>
     </g>
    </g>
    <g id="xtick_5">
     <g id="line2d_5">
      <g>
       <use xlink:href="#m2a296a015a" x="236.078796" y="307.584" style="stroke: #000000; stroke-width: 0.8"/>
      </g>
     </g>
     <g id="text_5">
      <!-- 1000 -->
      <g transform="translate(223.353796 322.182437)scale(0.1 -0.1)">
       <defs>
        <path id="DejaVuSans-31" d="M 794 531 
L 1825 531 
L 1825 4091 
L 703 3866 
L 703 4441 
L 1819 4666 
L 2450 4666 
L 2450 531 
L 3481 531 
L 3481 0 
L 794 0 
L 794 531 
z
" transform="scale(0.015625)"/>
       </defs>
       <use xlink:href="#DejaVuSans-31"/>
       <use xlink:href="#DejaVuSans-30" x="63.623047"/>
       <use xlink:href="#DejaVuSans-30" x="127.246094"/>
       <use xlink:href="#DejaVuSans-30" x="190.869141"/>
      </g>
     </g>
    </g>
    <g id="xtick_6">
     <g id="line2d_6">
      <g>
       <use xlink:href="#m2a296a015a" x="276.680915" y="307.584" style="stroke: #000000; stroke-width: 0.8"/>
      </g>
     </g>
     <g id="text_6">
      <!-- 1250 -->
      <g transform="translate(263.955915 322.182437)scale(0.1 -0.1)">
       <use xlink:href="#DejaVuSans-31"/>
       <use xlink:href="#DejaVuSans-32" x="63.623047"/>
       <use xlink:href="#DejaVuSans-35" x="127.246094"/>
       <use xlink:href="#DejaVuSans-30" x="190.869141"/>
      </g>
     </g>
    </g>
    <g id="xtick_7">
     <g id="line2d_7">
      <g>
       <use xlink:href="#m2a296a015a" x="317.283034" y="307.584" style="stroke: #000000; stroke-width: 0.8"/>
      </g>
     </g>
     <g id="text_7">
      <!-- 1500 -->
      <g transform="translate(304.558034 322.182437)scale(0.1 -0.1)">
       <use xlink:href="#DejaVuSans-31"/>
       <use xlink:href="#DejaVuSans-35" x="63.623047"/>
       <use xlink:href="#DejaVuSans-30" x="127.246094"/>
       <use xlink:href="#DejaVuSans-30" x="190.869141"/>
      </g>
     </g>
    </g>
    <g id="xtick_8">
     <g id="line2d_8">
      <g>
       <use xlink:href="#m2a296a015a" x="357.885153" y="307.584" style="stroke: #000000; stroke-width: 0.8"/>
      </g>
     </g>
     <g id="text_8">
      <!-- 1750 -->
      <g transform="translate(345.160153 322.182437)scale(0.1 -0.1)">
       <use xlink:href="#DejaVuSans-31"/>
       <use xlink:href="#DejaVuSans-37" x="63.623047"/>
       <use xlink:href="#DejaVuSans-35" x="127.246094"/>
       <use xlink:href="#DejaVuSans-30" x="190.869141"/>
      </g>
     </g>
    </g>
    <g id="xtick_9">
     <g id="line2d_9">
      <g>
       <use xlink:href="#m2a296a015a" x="398.487273" y="307.584" style="stroke: #000000; stroke-width: 0.8"/>
      </g>
     </g>
     <g id="text_9">
      <!-- 2000 -->
      <g transform="translate(385.762273 322.182437)scale(0.1 -0.1)">
       <use xlink:href="#DejaVuSans-32"/>
       <use xlink:href="#DejaVuSans-30" x="63.623047"/>
       <use xlink:href="#DejaVuSans-30" x="127.246094"/>
       <use xlink:href="#DejaVuSans-30" x="190.869141"/>
      </g>
     </g>
    </g>
   </g>
   <g id="matplotlib.axis_2">
    <g id="ytick_1">
     <g id="line2d_10">
      <defs>
       <path id="m309da8a94e" d="M 0 0 
L -3.5 0 
" style="stroke: #000000; stroke-width: 0.8"/>
      </defs>
      <g>
       <use xlink:href="#m309da8a94e" x="57.6" y="221.515122" style="stroke: #000000; stroke-width: 0.8"/>
      </g>
     </g>
     <g id="text_10">
      <!-- $\mathdefault{10^{-1}}$ -->
      <g transform="translate(27.1 225.314341)scale(0.1 -0.1)">
       <defs>
        <path id="DejaVuSans-2212" d="M 678 2272 
L 4684 2272 
L 4684 1741 
L 678 1741 
L 678 2272 
z
" transform="scale(0.015625)"/>
       </defs>
       <use xlink:href="#DejaVuSans-31" transform="translate(0 0.684375)"/>
       <use xlink:href="#DejaVuSans-30" transform="translate(63.623047 0.684375)"/>
       <use xlink:href="#DejaVuSans-2212" transform="translate(128.203125 38.965625)scale(0.7)"/>
       <use xlink:href="#DejaVuSans-31" transform="translate(186.855469 38.965625)scale(0.7)"/>
      </g>
     </g>
    </g>
    <g id="ytick_2">
     <g id="line2d_11">
      <g>
       <use xlink:href="#m309da8a94e" x="57.6" y="59.013462" style="stroke: #000000; stroke-width: 0.8"/>
      </g>
     </g>
     <g id="text_11">
      <!-- $\mathdefault{10^{0}}$ -->
      <g transform="translate(33 62.812681)scale(0.1 -0.1)">
       <use xlink:href="#DejaVuSans-31" transform="translate(0 0.765625)"/>
       <use xlink:href="#DejaVuSans-30" transform="translate(63.623047 0.765625)"/>
       <use xlink:href="#DejaVuSans-30" transform="translate(128.203125 39.046875)scale(0.7)"/>
      </g>
     </g>
    </g>
    <g id="ytick_3">
     <g id="line2d_12">
      <defs>
       <path id="m9336e26155" d="M 0 0 
L -2 0 
" style="stroke: #000000; stroke-width: 0.6"/>
      </defs>
      <g>
       <use xlink:href="#m9336e26155" x="57.6" y="306.483787" style="stroke: #000000; stroke-width: 0.6"/>
      </g>
     </g>
    </g>
    <g id="ytick_4">
     <g id="line2d_13">
      <g>
       <use xlink:href="#m9336e26155" x="57.6" y="286.181034" style="stroke: #000000; stroke-width: 0.6"/>
      </g>
     </g>
    </g>
    <g id="ytick_5">
     <g id="line2d_14">
      <g>
       <use xlink:href="#m9336e26155" x="57.6" y="270.432996" style="stroke: #000000; stroke-width: 0.6"/>
      </g>
     </g>
    </g>
    <g id="ytick_6">
     <g id="line2d_15">
      <g>
       <use xlink:href="#m9336e26155" x="57.6" y="257.565912" style="stroke: #000000; stroke-width: 0.6"/>
      </g>
     </g>
    </g>
    <g id="ytick_7">
     <g id="line2d_16">
      <g>
       <use xlink:href="#m9336e26155" x="57.6" y="246.686948" style="stroke: #000000; stroke-width: 0.6"/>
      </g>
     </g>
    </g>
    <g id="ytick_8">
     <g id="line2d_17">
      <g>
       <use xlink:href="#m9336e26155" x="57.6" y="237.26316" style="stroke: #000000; stroke-width: 0.6"/>
      </g>
     </g>
    </g>
    <g id="ytick_9">
     <g id="line2d_18">
      <g>
       <use xlink:href="#m9336e26155" x="57.6" y="228.950791" style="stroke: #000000; stroke-width: 0.6"/>
      </g>
     </g>
    </g>
    <g id="ytick_10">
     <g id="line2d_19">
      <g>
       <use xlink:href="#m9336e26155" x="57.6" y="172.597248" style="stroke: #000000; stroke-width: 0.6"/>
      </g>
     </g>
    </g>
    <g id="ytick_11">
     <g id="line2d_20">
      <g>
       <use xlink:href="#m9336e26155" x="57.6" y="143.982126" style="stroke: #000000; stroke-width: 0.6"/>
      </g>
     </g>
    </g>
    <g id="ytick_12">
     <g id="line2d_21">
      <g>
       <use xlink:href="#m9336e26155" x="57.6" y="123.679374" style="stroke: #000000; stroke-width: 0.6"/>
      </g>
     </g>
    </g>
    <g id="ytick_13">
     <g id="line2d_22">
      <g>
       <use xlink:href="#m9336e26155" x="57.6" y="107.931336" style="stroke: #000000; stroke-width: 0.6"/>
      </g>
     </g>
    </g>
    <g id="ytick_14">
     <g id="line2d_23">
      <g>
       <use xlink:href="#m9336e26155" x="57.6" y="95.064252" style="stroke: #000000; stroke-width: 0.6"/>
      </g>
     </g>
    </g>
    <g id="ytick_15">
     <g id="line2d_24">
      <g>
       <use xlink:href="#m9336e26155" x="57.6" y="84.185288" style="stroke: #000000; stroke-width: 0.6"/>
      </g>
     </g>
    </g>
    <g id="ytick_16">
     <g id="line2d_25">
      <g>
       <use xlink:href="#m9336e26155" x="57.6" y="74.7615" style="stroke: #000000; stroke-width: 0.6"/>
      </g>
     </g>
    </g>
    <g id="ytick_17">
     <g id="line2d_26">
      <g>
       <use xlink:href="#m9336e26155" x="57.6" y="66.44913" style="stroke: #000000; stroke-width: 0.6"/>
      </g>
     </g>
    </g>
   </g>
   <g id="line2d_27">
    <path d="M 73.832727 59.667309 
L 74.807178 132.416365 
L 74.969587 130.550528 
L 75.131995 131.231089 
L 75.781629 151.937146 
L 76.106446 155.119166 
L 76.268854 156.819519 
L 76.75608 168.438817 
L 77.080897 173.167408 
L 77.405714 170.418705 
L 77.568122 172.5659 
L 78.055348 184.46653 
L 78.542573 185.684999 
L 78.86739 188.906374 
L 79.354615 194.493307 
L 79.841841 198.056218 
L 80.166658 200.612146 
L 80.491475 201.399328 
L 80.653883 201.697755 
L 80.9787 203.600403 
L 81.303517 205.677047 
L 81.628334 206.522463 
L 81.790743 206.825858 
L 83.252419 211.752059 
L 83.739644 212.716562 
L 84.22687 214.096786 
L 84.876504 215.393932 
L 85.850955 217.322687 
L 87.799856 220.230273 
L 89.423941 222.06121 
L 95.433055 228.447948 
L 97.544365 231.238401 
L 99.818084 234.651913 
L 104.203112 241.81363 
L 106.476831 245.224245 
L 108.263324 247.521811 
L 110.049818 249.467953 
L 112.161128 251.428939 
L 114.922072 253.693066 
L 117.033382 255.151028 
L 119.307101 256.447034 
L 121.58082 257.498086 
L 122.230453 257.69969 
L 122.392862 257.639711 
L 122.55527 257.332842 
L 122.717679 256.340707 
L 123.204904 249.642066 
L 123.529721 257.854003 
L 123.69213 253.516475 
L 123.854538 254.267881 
L 124.016947 258.281331 
L 124.341764 255.134075 
L 124.504172 258.290163 
L 124.828989 256.152932 
L 124.991398 258.477859 
L 125.316214 256.997382 
L 125.478623 258.691617 
L 125.641031 257.834911 
L 125.80344 257.679406 
L 125.965848 258.861103 
L 126.128257 258.08832 
L 126.290665 258.21115 
L 126.453074 258.979971 
L 126.615482 258.335957 
L 126.940299 259.07296 
L 127.102708 258.58275 
L 127.427525 259.160079 
L 127.589933 258.817852 
L 127.91475 259.254328 
L 128.077159 259.034366 
L 128.239567 259.319882 
L 128.401976 259.358335 
L 128.564384 259.226733 
L 128.726792 259.460412 
L 129.538835 259.545915 
L 129.863652 259.6981 
L 130.02606 259.680643 
L 130.350877 259.810213 
L 130.675694 259.89755 
L 132.462187 260.236796 
L 134.573498 260.643647 
L 140.582611 261.687428 
L 159.259586 264.698524 
L 159.584403 264.619433 
L 159.746812 264.431891 
L 159.90922 263.966704 
L 160.071629 262.891436 
L 160.234037 260.669677 
L 160.558854 253.225873 
L 160.721262 253.832121 
L 161.046079 265.007076 
L 161.370896 258.212706 
L 161.695713 265.058063 
L 161.858122 261.850592 
L 162.02053 261.015089 
L 162.182939 264.490352 
L 162.345347 264.422156 
L 162.507756 262.122923 
L 162.832573 265.238886 
L 162.994981 263.567685 
L 163.15739 263.559876 
L 163.319798 265.248246 
L 163.644615 263.89627 
L 163.807024 265.088192 
L 163.969432 265.21259 
L 164.13184 264.395795 
L 164.456657 265.490312 
L 164.619066 264.875773 
L 164.781474 265.015261 
L 164.943883 265.585818 
L 165.2687 265.134682 
L 165.431108 265.60641 
L 165.593517 265.555163 
L 165.755925 265.320107 
L 166.080742 265.740773 
L 166.243151 265.529582 
L 166.567968 265.845236 
L 166.892785 265.718912 
L 167.055193 265.903968 
L 167.542418 265.948058 
L 167.704827 266.019603 
L 168.029644 266.006046 
L 168.354461 266.092991 
L 168.679278 266.165436 
L 170.62818 266.494738 
L 172.577081 266.82471 
L 190.442014 270.17931 
L 190.604422 270.073839 
L 190.766831 269.786913 
L 190.929239 269.09142 
L 191.091648 267.532527 
L 191.416465 259.621258 
L 191.578873 255.417751 
L 191.741282 256.922034 
L 192.066099 269.4935 
L 192.390915 262.879114 
L 192.715732 269.523839 
L 192.878141 265.959926 
L 193.040549 266.220596 
L 193.202958 270.297103 
L 193.365366 269.318011 
L 193.527775 266.786645 
L 193.852592 270.756597 
L 194.015 268.71718 
L 194.177409 268.996731 
L 194.339817 270.768604 
L 194.664634 269.351584 
L 194.827043 270.883036 
L 194.989451 270.639959 
L 195.15186 269.73888 
L 195.476677 271.102265 
L 195.639085 270.383203 
L 195.963902 271.24742 
L 196.12631 270.770327 
L 196.288719 270.84392 
L 196.451127 271.405592 
L 196.775944 270.988887 
L 196.938353 271.396983 
L 197.100761 271.431581 
L 197.26317 271.233724 
L 197.587987 271.607845 
L 197.750395 271.426429 
L 198.237621 271.654958 
L 198.400029 271.634417 
L 198.724846 271.806884 
L 198.887255 271.757495 
L 199.212071 271.950934 
L 199.536888 271.94482 
L 199.861705 272.043137 
L 200.511339 272.162566 
L 203.109875 272.702119 
L 209.931031 273.911392 
L 210.255848 273.850049 
L 210.580665 273.532006 
L 210.743073 273.134842 
L 211.06789 271.211801 
L 211.555116 264.986069 
L 211.717524 265.079954 
L 212.20475 274.352634 
L 212.529567 270.092517 
L 212.691975 270.305464 
L 213.016792 274.487878 
L 213.341609 271.980467 
L 213.504017 272.353748 
L 213.828834 274.57733 
L 214.153651 273.031829 
L 214.478468 274.652324 
L 214.640877 274.52023 
L 214.803285 273.874591 
L 214.965694 273.901914 
L 215.290511 274.852323 
L 215.615328 274.270972 
L 216.102553 274.9113 
L 216.264962 274.674891 
L 216.42737 274.681597 
L 216.752187 275.098434 
L 217.077004 274.906364 
L 217.564229 275.218442 
L 217.889046 275.135261 
L 218.376272 275.345463 
L 218.701089 275.332611 
L 219.188314 275.482771 
L 219.67554 275.557989 
L 220.64999 275.73759 
L 228.283189 276.987482 
L 235.266753 278.022753 
L 235.59157 277.798179 
L 235.753979 277.482499 
L 235.916387 276.86476 
L 236.078796 275.712075 
L 236.403613 270.522146 
L 236.72843 263.691571 
L 236.890838 264.699159 
L 237.215655 276.871989 
L 237.378064 276.617577 
L 237.540472 272.218025 
L 237.702881 270.958611 
L 238.027697 278.46322 
L 238.352514 273.972727 
L 238.514923 275.209006 
L 238.677331 278.136681 
L 238.83974 277.887372 
L 239.002148 275.915809 
L 239.164557 276.37204 
L 239.326965 278.386957 
L 239.489374 278.382578 
L 239.651782 276.986634 
L 239.814191 277.197252 
L 239.976599 278.553688 
L 240.139008 278.589518 
L 240.301416 277.700835 
L 240.463825 277.891591 
L 240.626233 278.795444 
L 240.788642 278.772119 
L 240.95105 278.175955 
L 241.113459 278.334049 
L 241.275867 278.932913 
L 241.438276 278.905137 
L 241.600684 278.536983 
L 241.763092 278.682376 
L 241.925501 279.088326 
L 242.087909 279.0628 
L 242.250318 278.81831 
L 242.412726 278.91492 
L 242.575135 279.188278 
L 242.737543 279.187069 
L 242.899952 279.038757 
L 243.06236 279.108218 
L 243.224769 279.302703 
L 243.387177 279.323341 
L 243.549586 279.230417 
L 246.797755 279.881951 
L 248.584248 280.131548 
L 249.396291 280.11002 
L 249.721108 279.89074 
L 250.045925 279.187653 
L 250.370742 277.314949 
L 251.020376 271.766904 
L 251.182784 273.800633 
L 251.507601 280.067654 
L 251.67001 280.138299 
L 251.994827 276.873982 
L 252.157235 277.348752 
L 252.482052 280.535163 
L 252.64446 280.090489 
L 252.806869 279.004075 
L 252.969277 278.70884 
L 253.294094 280.626511 
L 253.456503 280.608063 
L 253.78132 279.652081 
L 254.268545 280.868902 
L 254.593362 280.251805 
L 255.080588 281.059596 
L 255.405405 280.671008 
L 256.055038 281.112337 
L 256.217447 280.992493 
L 256.379855 281.032687 
L 256.704672 281.309205 
L 257.354306 281.310953 
L 257.679123 281.447145 
L 258.166349 281.447447 
L 258.653574 281.5845 
L 259.303208 281.668056 
L 260.440067 281.843825 
L 264.825096 282.43272 
L 265.312322 282.399109 
L 265.637139 282.192739 
L 265.799547 281.967125 
L 266.124364 280.924667 
L 266.611589 278.126512 
L 267.423632 281.140102 
L 267.748449 281.846026 
L 267.910857 282.439239 
L 268.073266 282.453328 
L 268.398083 281.48549 
L 268.560491 281.506716 
L 268.885308 282.700003 
L 269.047717 282.881884 
L 269.372534 282.505281 
L 269.69735 282.707724 
L 270.022167 282.778307 
L 270.184576 282.730791 
L 270.509393 283.017167 
L 270.83421 283.200662 
L 271.321435 283.025777 
L 271.971069 283.290091 
L 272.458295 283.412652 
L 272.94552 283.470363 
L 273.432745 283.491846 
L 274.407196 283.633066 
L 275.219239 283.651833 
L 275.544056 283.494105 
L 275.868873 283.076254 
L 276.19369 282.054996 
L 276.518507 279.983678 
L 276.843323 277.547921 
L 277.005732 277.291998 
L 277.16814 278.369785 
L 277.655366 283.513469 
L 277.817774 282.728325 
L 278.142591 280.661385 
L 278.305 281.260859 
L 278.629817 283.681396 
L 278.792225 283.614328 
L 279.117042 282.479543 
L 279.279451 282.872332 
L 279.604268 284.261512 
L 279.766676 284.147762 
L 280.091493 283.553042 
L 280.578718 284.467331 
L 281.065944 284.026321 
L 281.553169 284.495428 
L 282.040395 284.190855 
L 282.365212 284.28833 
L 282.52762 284.197411 
L 283.014846 283.245621 
L 283.339663 282.224469 
L 283.826888 280.580342 
L 283.989296 280.51723 
L 284.63893 283.909411 
L 284.801339 283.817561 
L 285.126156 283.274156 
L 285.77579 284.933332 
L 286.100607 284.371915 
L 286.263015 284.0843 
L 286.587832 284.546145 
L 286.912649 285.104333 
L 287.237466 284.945705 
L 287.399874 284.868283 
L 288.211917 285.249961 
L 288.536734 285.128877 
L 288.861551 285.242599 
L 289.348776 285.446758 
L 290.160819 285.501776 
L 290.972861 285.645977 
L 292.10972 285.521217 
L 292.434537 285.212946 
L 292.759354 284.422357 
L 293.084171 282.709182 
L 293.571397 278.587901 
L 293.733805 278.306313 
L 293.896214 279.164929 
L 294.383439 285.637804 
L 294.545847 285.51759 
L 294.870664 283.35836 
L 295.033073 283.304716 
L 295.520298 285.912502 
L 295.682707 285.568004 
L 295.845115 284.905802 
L 296.007524 284.79489 
L 296.494749 286.225429 
L 296.657158 286.060445 
L 296.981975 285.470712 
L 297.306792 286.10989 
L 297.4692 286.412682 
L 297.631609 286.414568 
L 297.956425 286.041341 
L 298.118834 286.042567 
L 298.606059 286.572312 
L 299.255693 286.432085 
L 299.742919 286.689101 
L 300.554961 286.748125 
L 301.042187 286.84482 
L 301.69182 286.881792 
L 302.666271 287.032941 
L 304.127948 287.097074 
L 304.452765 286.900933 
L 304.615173 286.677841 
L 304.93999 285.58554 
L 305.264807 282.570697 
L 305.752032 273.682487 
L 305.914441 274.45584 
L 306.076849 277.745367 
L 306.401666 286.528011 
L 306.564075 285.210112 
L 306.888892 281.390966 
L 307.213709 286.269876 
L 307.376117 286.38981 
L 307.700934 284.116598 
L 308.025751 286.982367 
L 308.18816 286.765738 
L 308.350568 285.871996 
L 308.512976 285.604189 
L 308.837793 287.529926 
L 309.16261 286.427296 
L 309.325019 286.486418 
L 309.649836 287.766264 
L 309.974653 286.95402 
L 310.137061 287.099098 
L 310.461878 287.842984 
L 310.786695 287.389349 
L 310.949104 287.520788 
L 311.273921 287.895377 
L 311.598738 287.692898 
L 312.085963 287.990003 
L 312.41078 287.88189 
L 312.898005 288.114095 
L 313.385231 288.081725 
L 313.872456 288.211897 
L 314.359682 288.246236 
L 314.846907 288.317923 
L 315.983766 288.440619 
L 318.257485 288.623637 
L 318.582302 288.533316 
L 318.907119 288.215584 
L 319.231936 287.269661 
L 319.556753 284.777497 
L 320.206387 275.815475 
L 320.368795 277.569536 
L 320.856021 288.661642 
L 321.180838 283.621059 
L 321.343246 283.534572 
L 321.668063 288.699067 
L 321.830472 288.512015 
L 322.155289 285.749403 
L 322.642514 289.004073 
L 322.967331 287.278593 
L 323.454556 289.129305 
L 323.779373 288.098607 
L 324.266599 289.239637 
L 324.591416 288.667647 
L 325.078641 289.365872 
L 325.403458 289.028815 
L 325.890684 289.459028 
L 326.2155 289.263616 
L 326.702726 289.538052 
L 327.027543 289.416181 
L 327.677177 289.474205 
L 328.164402 289.197444 
L 328.489219 288.597759 
L 328.814036 287.178342 
L 329.301262 283.166205 
L 329.626078 283.501932 
L 330.113304 288.760997 
L 330.275712 288.83884 
L 330.600529 287.853072 
L 330.762938 287.753682 
L 331.087755 289.113367 
L 331.250163 289.26536 
L 331.57498 288.59278 
L 331.737389 288.671609 
L 331.899797 289.015595 
L 332.224614 290.011038 
L 332.387023 289.952495 
L 332.71184 289.282322 
L 332.874248 289.284465 
L 333.523882 290.172782 
L 334.011107 289.892747 
L 334.82315 290.208492 
L 335.147967 290.175383 
L 336.284826 290.427745 
L 336.772051 290.440003 
L 337.908911 290.612217 
L 339.695404 290.621834 
L 340.020221 290.444137 
L 340.345038 290.0065 
L 340.669855 289.014349 
L 340.994672 287.030147 
L 341.481897 282.983679 
L 341.644306 282.768199 
L 341.806714 283.966364 
L 342.29394 290.820109 
L 342.456348 290.768817 
L 342.781165 288.350443 
L 342.943574 288.017049 
L 343.268391 289.945492 
L 343.430799 290.831691 
L 343.593208 290.944072 
L 344.080433 289.891382 
L 344.730067 291.02841 
L 345.217292 290.721922 
L 345.704518 290.845031 
L 345.866926 290.75554 
L 346.191743 290.093329 
L 346.51656 288.492792 
L 347.003786 283.946022 
L 347.328602 285.550974 
L 347.653419 290.810149 
L 347.815828 291.464332 
L 347.978236 290.572749 
L 348.140645 289.018783 
L 348.303053 288.595732 
L 348.465462 288.779215 
L 348.790279 291.45086 
L 348.952687 291.562083 
L 349.277504 290.065497 
L 349.439913 290.120638 
L 349.927138 291.765609 
L 350.089547 291.534877 
L 350.414364 290.82338 
L 350.73918 291.456427 
L 350.901589 291.805466 
L 351.063997 291.851178 
L 351.551223 291.389151 
L 352.200857 291.964175 
L 352.688082 291.745999 
L 353.500125 292.073323 
L 353.98735 292.013816 
L 355.124209 292.214871 
L 355.936252 292.312227 
L 357.23552 292.438676 
L 359.834055 292.535845 
L 360.158872 292.380525 
L 360.483689 291.969754 
L 360.808506 290.977726 
L 361.133323 288.944036 
L 361.295732 286.879462 
L 361.45814 286.331092 
L 361.620548 284.568524 
L 362.270182 292.29842 
L 362.432591 292.281291 
L 362.919816 289.06812 
L 363.082225 289.26696 
L 363.407042 291.535941 
L 363.56945 291.455308 
L 364.056676 289.331362 
L 364.219084 289.60747 
L 364.543901 290.814192 
L 364.70631 290.665322 
L 365.031126 289.872535 
L 365.355943 290.66654 
L 365.68076 291.358207 
L 366.005577 291.097069 
L 366.167986 291.215428 
L 366.655211 292.681388 
L 366.81762 292.818956 
L 367.304845 292.762656 
L 367.629662 292.937341 
L 367.954479 292.821469 
L 368.279296 292.733527 
L 368.604113 293.02322 
L 368.92893 293.355786 
L 369.253747 293.432947 
L 371.04024 293.399994 
L 371.852283 293.433872 
L 372.177099 293.282816 
L 372.501916 292.901431 
L 372.826733 292.068322 
L 373.15155 290.39078 
L 373.963593 284.639611 
L 374.126001 285.91478 
L 374.613227 293.574011 
L 374.775635 293.737725 
L 375.262861 290.421226 
L 375.425269 291.075326 
L 375.750086 293.719241 
L 375.912494 294.018378 
L 376.39972 292.364567 
L 376.562128 292.740191 
L 376.886945 294.056221 
L 377.049354 294.132636 
L 377.536579 293.356834 
L 378.186213 294.24747 
L 378.673439 293.88536 
L 379.323072 294.365524 
L 379.810298 294.182722 
L 380.62234 294.363295 
L 381.109566 294.042495 
L 381.434383 293.596392 
L 381.596791 293.214743 
L 381.921608 291.528014 
L 382.408834 285.87108 
L 382.571242 286.501609 
L 382.73365 286.086466 
L 383.058467 292.386137 
L 383.220876 294.343318 
L 383.383284 294.293641 
L 383.87051 290.668144 
L 384.357735 294.404491 
L 384.520144 294.393407 
L 384.844961 292.93065 
L 385.007369 292.654987 
L 385.494595 294.3943 
L 385.657003 294.177989 
L 385.98182 293.289416 
L 386.144228 293.1864 
L 386.469045 293.689349 
L 386.631454 293.672157 
L 387.281088 292.616081 
L 387.605905 293.113489 
L 388.905173 295.158475 
L 389.22999 295.009869 
L 389.717215 294.686019 
L 390.042032 294.796463 
L 390.854074 295.207854 
L 391.990934 295.400883 
L 395.56392 295.311943 
L 396.051146 294.93258 
L 396.375963 294.408228 
L 396.700779 293.490463 
L 397.025596 291.959302 
L 397.512822 288.753669 
L 397.67523 286.947502 
L 397.837639 287.266197 
L 398.000047 286.404974 
L 398.487273 292.764863 
L 398.487273 292.764863 
" clip-path="url(#pe6f2882af1)" style="fill: none; stroke: #1f77b4; stroke-width: 1.5; stroke-linecap: square"/>
   </g>
   <g id="line2d_28">
    <path d="M 73.832727 53.568 
L 74.157544 77.761426 
L 74.64477 89.487375 
L 75.619221 131.043367 
L 76.268854 146.900046 
L 76.431263 149.008932 
L 76.593671 149.281566 
L 77.080897 145.61911 
L 77.243305 146.545935 
L 77.568122 152.341769 
L 78.055348 160.543085 
L 78.542573 163.988226 
L 79.029799 166.297078 
L 79.517024 167.959076 
L 79.841841 170.289968 
L 80.329066 174.337164 
L 80.653883 175.490269 
L 81.141109 176.459646 
L 81.465926 177.55041 
L 82.602785 182.597466 
L 83.09001 183.859089 
L 85.038912 190.552152 
L 86.013363 193.509934 
L 88.611899 200.214249 
L 90.235983 203.654834 
L 92.022477 206.86823 
L 93.646561 209.345121 
L 95.433055 211.663378 
L 97.381956 213.802164 
L 99.493267 215.759948 
L 101.766985 217.556986 
L 104.527929 219.450369 
L 109.400184 222.465443 
L 114.434847 225.675115 
L 118.170241 228.330085 
L 121.743228 231.152462 
L 125.641031 234.535755 
L 136.035174 243.763925 
L 139.283343 246.198046 
L 142.531513 248.344011 
L 145.942091 250.319543 
L 149.352669 252.040811 
L 152.925656 253.59764 
L 156.661051 254.983342 
L 160.721262 256.245622 
L 165.106291 257.373444 
L 170.303363 258.469568 
L 176.637293 259.566531 
L 185.082534 260.788069 
L 199.049663 262.544457 
L 244.686445 268.003376 
L 245.011262 267.74107 
L 245.498487 266.796343 
L 245.660896 266.9427 
L 245.985713 268.129605 
L 246.148121 268.249284 
L 246.472938 267.643312 
L 246.635347 267.75539 
L 246.960164 268.372522 
L 247.447389 268.073034 
L 247.772206 268.464694 
L 248.259432 268.311537 
L 248.584248 268.558533 
L 249.071474 268.490584 
L 249.396291 268.651441 
L 250.045925 268.69876 
L 250.53315 268.733142 
L 263.688237 270.265239 
L 269.859759 270.856392 
L 270.184576 270.689306 
L 270.509393 270.15645 
L 270.996618 268.892975 
L 271.159027 269.197334 
L 271.483844 270.937827 
L 271.646252 271.10914 
L 271.971069 270.203761 
L 272.133478 270.287091 
L 272.458295 271.212785 
L 272.620703 271.12365 
L 272.94552 270.721188 
L 273.270337 271.280321 
L 273.432745 271.289762 
L 273.757562 271.032274 
L 274.244788 271.398886 
L 274.569605 271.25134 
L 275.05683 271.494454 
L 275.381647 271.416383 
L 276.031281 271.565563 
L 276.356098 271.580173 
L 276.843323 271.671796 
L 277.492957 271.753948 
L 283.177254 272.342942 
L 295.682707 273.579217 
L 296.169932 273.438568 
L 296.494749 273.008271 
L 296.819566 271.93398 
L 297.144383 270.79716 
L 297.306792 271.131392 
L 297.794017 273.80991 
L 298.118834 272.578647 
L 298.281242 272.602214 
L 298.606059 273.868358 
L 298.768468 273.785126 
L 299.093285 273.188108 
L 299.418102 273.932032 
L 299.58051 273.949461 
L 299.905327 273.578794 
L 300.392553 274.051006 
L 300.71737 273.839216 
L 301.204595 274.140531 
L 301.529412 274.025047 
L 302.016637 274.226481 
L 302.341454 274.167558 
L 302.991088 274.293511 
L 303.478314 274.361583 
L 304.777582 274.481797 
L 308.675385 274.867249 
L 323.779373 276.255139 
L 324.10419 276.163017 
L 324.429007 275.821082 
L 324.753824 274.841442 
L 325.24105 272.639464 
L 325.403458 273.171822 
L 325.728275 276.17958 
L 325.890684 276.435352 
L 326.2155 274.826712 
L 326.377909 275.018789 
L 326.702726 276.573888 
L 326.865134 276.319849 
L 327.027543 275.749291 
L 327.189951 275.690976 
L 327.514768 276.643129 
L 327.677177 276.533511 
L 327.839585 276.188183 
L 328.001994 276.150894 
L 328.326811 276.730039 
L 328.489219 276.655481 
L 328.651628 276.455026 
L 328.814036 276.455891 
L 329.138853 276.810586 
L 329.626078 276.665847 
L 329.950895 276.886898 
L 330.438121 276.818161 
L 330.925346 276.950859 
L 331.250163 276.937533 
L 331.737389 277.039829 
L 332.224614 277.076828 
L 333.199065 277.185951 
L 341.481897 277.973716 
L 343.268391 278.051572 
L 343.593208 277.833243 
L 343.918024 277.043109 
L 344.40525 274.744154 
L 344.567658 275.194446 
L 344.892475 278.103601 
L 345.054884 278.132447 
L 345.379701 276.622037 
L 345.542109 277.179899 
L 345.704518 278.137461 
L 345.866926 278.328197 
L 346.191743 277.418938 
L 346.678969 278.364548 
L 346.841377 277.985583 
L 347.003786 277.916609 
L 347.328602 278.522204 
L 347.653419 278.191525 
L 347.815828 278.276056 
L 348.140645 278.586059 
L 348.465462 278.397257 
L 348.952687 278.638914 
L 349.277504 278.575814 
L 349.602321 278.736817 
L 350.089547 278.716409 
L 350.414364 278.81005 
L 350.901589 278.827145 
L 351.388814 278.879156 
L 353.337716 279.086495 
L 356.585886 279.405675 
L 364.381493 280.088095 
L 364.70631 279.929373 
L 365.031126 279.355036 
L 365.355943 277.724945 
L 365.68076 275.217333 
L 365.843169 275.045335 
L 366.330394 280.353231 
L 366.492803 279.619786 
L 366.655211 278.196549 
L 366.81762 277.933226 
L 367.142437 280.339677 
L 367.304845 280.166293 
L 367.467254 279.260538 
L 367.629662 279.065284 
L 367.954479 280.495748 
L 368.116888 280.255793 
L 368.279296 279.726054 
L 368.441704 279.787706 
L 368.766521 280.586778 
L 369.091338 280.074019 
L 369.578564 280.624555 
L 369.903381 280.370118 
L 370.228198 280.726537 
L 370.715423 280.600805 
L 371.04024 280.803058 
L 371.365057 280.705557 
L 372.014691 280.83688 
L 372.339508 280.890425 
L 372.826733 280.932837 
L 377.049354 281.377721 
L 383.058467 281.918877 
L 383.545693 281.796743 
L 383.87051 281.688386 
L 384.520144 281.746691 
L 385.332186 280.936308 
L 385.657003 281.010767 
L 385.98182 281.614929 
L 386.306637 282.238776 
L 386.469045 282.260931 
L 386.956271 281.855953 
L 387.281088 282.023225 
L 387.768313 282.371018 
L 388.255539 282.294614 
L 388.580356 282.288779 
L 389.392398 282.534773 
L 390.042032 282.544061 
L 391.3413 282.708581 
L 394.102244 282.99121 
L 398.162456 283.337505 
L 398.487273 283.318234 
L 398.487273 283.318234 
" clip-path="url(#pe6f2882af1)" style="fill: none; stroke: #ff7f0e; stroke-width: 1.5; stroke-linecap: square"/>
   </g>
   <g id="line2d_29">
    <path d="M 73.832727 59.536515 
L 74.482361 69.311243 
L 75.131995 74.958186 
L 76.593671 86.042353 
L 78.86739 104.174 
L 80.9787 119.50754 
L 82.440377 128.469107 
L 83.739644 135.054616 
L 85.038912 140.46218 
L 86.33818 144.918317 
L 87.799856 149.09961 
L 89.261533 152.614452 
L 90.885617 155.942283 
L 92.834519 159.407045 
L 95.433055 163.54858 
L 100.305309 170.818103 
L 108.425733 182.557611 
L 113.460396 189.459169 
L 117.520608 194.653386 
L 121.093594 198.868576 
L 124.341764 202.369381 
L 127.427525 205.384046 
L 130.513286 208.092932 
L 133.599047 210.507232 
L 136.847216 212.755638 
L 140.257794 214.832552 
L 143.830781 216.748746 
L 147.890993 218.674852 
L 152.763247 220.73637 
L 159.584403 223.358553 
L 190.279605 234.645997 
L 197.750395 237.138746 
L 204.896368 239.284175 
L 212.529567 241.33633 
L 221.137216 243.414802 
L 231.206541 245.611008 
L 242.737543 247.891427 
L 254.755771 250.039738 
L 266.124364 251.850672 
L 276.843323 253.337377 
L 287.562283 254.598567 
L 299.093285 255.726082 
L 312.735597 256.827924 
L 330.925346 258.058159 
L 361.133323 259.841961 
L 383.545693 261.244493 
L 398.487273 262.433599 
L 398.487273 262.433599 
" clip-path="url(#pe6f2882af1)" style="fill: none; stroke: #2ca02c; stroke-width: 1.5; stroke-linecap: square"/>
   </g>
   <g id="patch_3">
    <path d="M 57.6 307.584 
L 57.6 41.472 
" style="fill: none; stroke: #000000; stroke-width: 0.8; stroke-linejoin: miter; stroke-linecap: square"/>
   </g>
   <g id="patch_4">
    <path d="M 414.72 307.584 
L 414.72 41.472 
" style="fill: none; stroke: #000000; stroke-width: 0.8; stroke-linejoin: miter; stroke-linecap: square"/>
   </g>
   <g id="patch_5">
    <path d="M 57.6 307.584 
L 414.72 307.584 
" style="fill: none; stroke: #000000; stroke-width: 0.8; stroke-linejoin: miter; stroke-linecap: square"/>
   </g>
   <g id="patch_6">
    <path d="M 57.6 41.472 
L 414.72 41.472 
" style="fill: none; stroke: #000000; stroke-width: 0.8; stroke-linejoin: miter; stroke-linecap: square"/>
   </g>
   <g id="legend_1">
    <g id="patch_7">
     <path d="M 259.087188 93.506375 
L 407.72 93.506375 
Q 409.72 93.506375 409.72 91.506375 
L 409.72 48.472 
Q 409.72 46.472 407.72 46.472 
L 259.087188 46.472 
Q 257.087188 46.472 257.087188 48.472 
L 257.087188 91.506375 
Q 257.087188 93.506375 259.087188 93.506375 
z
" style="fill: #ffffff; opacity: 0.8; stroke: #cccccc; stroke-linejoin: miter"/>
    </g>
    <g id="line2d_30">
     <path d="M 261.087188 54.570438 
L 271.087188 54.570438 
L 281.087188 54.570438 
" style="fill: none; stroke: #1f77b4; stroke-width: 1.5; stroke-linecap: square"/>
    </g>
    <g id="text_12">
     <!-- Learning rate = 0.001 -->
     <g transform="translate(289.087188 58.070438)scale(0.1 -0.1)">
      <defs>
       <path id="DejaVuSans-4c" d="M 628 4666 
L 1259 4666 
L 1259 531 
L 3531 531 
L 3531 0 
L 628 0 
L 628 4666 
z
" transform="scale(0.015625)"/>
       <path id="DejaVuSans-65" d="M 3597 1894 
L 3597 1613 
L 953 1613 
Q 991 1019 1311 708 
Q 1631 397 2203 397 
Q 2534 397 2845 478 
Q 3156 559 3463 722 
L 3463 178 
Q 3153 47 2828 -22 
Q 2503 -91 2169 -91 
Q 1331 -91 842 396 
Q 353 884 353 1716 
Q 353 2575 817 3079 
Q 1281 3584 2069 3584 
Q 2775 3584 3186 3129 
Q 3597 2675 3597 1894 
z
M 3022 2063 
Q 3016 2534 2758 2815 
Q 2500 3097 2075 3097 
Q 1594 3097 1305 2825 
Q 1016 2553 972 2059 
L 3022 2063 
z
" transform="scale(0.015625)"/>
       <path id="DejaVuSans-61" d="M 2194 1759 
Q 1497 1759 1228 1600 
Q 959 1441 959 1056 
Q 959 750 1161 570 
Q 1363 391 1709 391 
Q 2188 391 2477 730 
Q 2766 1069 2766 1631 
L 2766 1759 
L 2194 1759 
z
M 3341 1997 
L 3341 0 
L 2766 0 
L 2766 531 
Q 2569 213 2275 61 
Q 1981 -91 1556 -91 
Q 1019 -91 701 211 
Q 384 513 384 1019 
Q 384 1609 779 1909 
Q 1175 2209 1959 2209 
L 2766 2209 
L 2766 2266 
Q 2766 2663 2505 2880 
Q 2244 3097 1772 3097 
Q 1472 3097 1187 3025 
Q 903 2953 641 2809 
L 641 3341 
Q 956 3463 1253 3523 
Q 1550 3584 1831 3584 
Q 2591 3584 2966 3190 
Q 3341 2797 3341 1997 
z
" transform="scale(0.015625)"/>
       <path id="DejaVuSans-72" d="M 2631 2963 
Q 2534 3019 2420 3045 
Q 2306 3072 2169 3072 
Q 1681 3072 1420 2755 
Q 1159 2438 1159 1844 
L 1159 0 
L 581 0 
L 581 3500 
L 1159 3500 
L 1159 2956 
Q 1341 3275 1631 3429 
Q 1922 3584 2338 3584 
Q 2397 3584 2469 3576 
Q 2541 3569 2628 3553 
L 2631 2963 
z
" transform="scale(0.015625)"/>
       <path id="DejaVuSans-6e" d="M 3513 2113 
L 3513 0 
L 2938 0 
L 2938 2094 
Q 2938 2591 2744 2837 
Q 2550 3084 2163 3084 
Q 1697 3084 1428 2787 
Q 1159 2491 1159 1978 
L 1159 0 
L 581 0 
L 581 3500 
L 1159 3500 
L 1159 2956 
Q 1366 3272 1645 3428 
Q 1925 3584 2291 3584 
Q 2894 3584 3203 3211 
Q 3513 2838 3513 2113 
z
" transform="scale(0.015625)"/>
       <path id="DejaVuSans-69" d="M 603 3500 
L 1178 3500 
L 1178 0 
L 603 0 
L 603 3500 
z
M 603 4863 
L 1178 4863 
L 1178 4134 
L 603 4134 
L 603 4863 
z
" transform="scale(0.015625)"/>
       <path id="DejaVuSans-67" d="M 2906 1791 
Q 2906 2416 2648 2759 
Q 2391 3103 1925 3103 
Q 1463 3103 1205 2759 
Q 947 2416 947 1791 
Q 947 1169 1205 825 
Q 1463 481 1925 481 
Q 2391 481 2648 825 
Q 2906 1169 2906 1791 
z
M 3481 434 
Q 3481 -459 3084 -895 
Q 2688 -1331 1869 -1331 
Q 1566 -1331 1297 -1286 
Q 1028 -1241 775 -1147 
L 775 -588 
Q 1028 -725 1275 -790 
Q 1522 -856 1778 -856 
Q 2344 -856 2625 -561 
Q 2906 -266 2906 331 
L 2906 616 
Q 2728 306 2450 153 
Q 2172 0 1784 0 
Q 1141 0 747 490 
Q 353 981 353 1791 
Q 353 2603 747 3093 
Q 1141 3584 1784 3584 
Q 2172 3584 2450 3431 
Q 2728 3278 2906 2969 
L 2906 3500 
L 3481 3500 
L 3481 434 
z
" transform="scale(0.015625)"/>
       <path id="DejaVuSans-20" transform="scale(0.015625)"/>
       <path id="DejaVuSans-74" d="M 1172 4494 
L 1172 3500 
L 2356 3500 
L 2356 3053 
L 1172 3053 
L 1172 1153 
Q 1172 725 1289 603 
Q 1406 481 1766 481 
L 2356 481 
L 2356 0 
L 1766 0 
Q 1100 0 847 248 
Q 594 497 594 1153 
L 594 3053 
L 172 3053 
L 172 3500 
L 594 3500 
L 594 4494 
L 1172 4494 
z
" transform="scale(0.015625)"/>
       <path id="DejaVuSans-3d" d="M 678 2906 
L 4684 2906 
L 4684 2381 
L 678 2381 
L 678 2906 
z
M 678 1631 
L 4684 1631 
L 4684 1100 
L 678 1100 
L 678 1631 
z
" transform="scale(0.015625)"/>
       <path id="DejaVuSans-2e" d="M 684 794 
L 1344 794 
L 1344 0 
L 684 0 
L 684 794 
z
" transform="scale(0.015625)"/>
      </defs>
      <use xlink:href="#DejaVuSans-4c"/>
      <use xlink:href="#DejaVuSans-65" x="53.962891"/>
      <use xlink:href="#DejaVuSans-61" x="115.486328"/>
      <use xlink:href="#DejaVuSans-72" x="176.765625"/>
      <use xlink:href="#DejaVuSans-6e" x="216.128906"/>
      <use xlink:href="#DejaVuSans-69" x="279.507812"/>
      <use xlink:href="#DejaVuSans-6e" x="307.291016"/>
      <use xlink:href="#DejaVuSans-67" x="370.669922"/>
      <use xlink:href="#DejaVuSans-20" x="434.146484"/>
      <use xlink:href="#DejaVuSans-72" x="465.933594"/>
      <use xlink:href="#DejaVuSans-61" x="507.046875"/>
      <use xlink:href="#DejaVuSans-74" x="568.326172"/>
      <use xlink:href="#DejaVuSans-65" x="607.535156"/>
      <use xlink:href="#DejaVuSans-20" x="669.058594"/>
      <use xlink:href="#DejaVuSans-3d" x="700.845703"/>
      <use xlink:href="#DejaVuSans-20" x="784.634766"/>
      <use xlink:href="#DejaVuSans-30" x="816.421875"/>
      <use xlink:href="#DejaVuSans-2e" x="880.044922"/>
      <use xlink:href="#DejaVuSans-30" x="911.832031"/>
      <use xlink:href="#DejaVuSans-30" x="975.455078"/>
      <use xlink:href="#DejaVuSans-31" x="1039.078125"/>
     </g>
    </g>
    <g id="line2d_31">
     <path d="M 261.087188 69.248563 
L 271.087188 69.248563 
L 281.087188 69.248563 
" style="fill: none; stroke: #ff7f0e; stroke-width: 1.5; stroke-linecap: square"/>
    </g>
    <g id="text_13">
     <!-- Learning rate = 0.0005 -->
     <g transform="translate(289.087188 72.748563)scale(0.1 -0.1)">
      <use xlink:href="#DejaVuSans-4c"/>
      <use xlink:href="#DejaVuSans-65" x="53.962891"/>
      <use xlink:href="#DejaVuSans-61" x="115.486328"/>
      <use xlink:href="#DejaVuSans-72" x="176.765625"/>
      <use xlink:href="#DejaVuSans-6e" x="216.128906"/>
      <use xlink:href="#DejaVuSans-69" x="279.507812"/>
      <use xlink:href="#DejaVuSans-6e" x="307.291016"/>
      <use xlink:href="#DejaVuSans-67" x="370.669922"/>
      <use xlink:href="#DejaVuSans-20" x="434.146484"/>
      <use xlink:href="#DejaVuSans-72" x="465.933594"/>
      <use xlink:href="#DejaVuSans-61" x="507.046875"/>
      <use xlink:href="#DejaVuSans-74" x="568.326172"/>
      <use xlink:href="#DejaVuSans-65" x="607.535156"/>
      <use xlink:href="#DejaVuSans-20" x="669.058594"/>
      <use xlink:href="#DejaVuSans-3d" x="700.845703"/>
      <use xlink:href="#DejaVuSans-20" x="784.634766"/>
      <use xlink:href="#DejaVuSans-30" x="816.421875"/>
      <use xlink:href="#DejaVuSans-2e" x="880.044922"/>
      <use xlink:href="#DejaVuSans-30" x="911.832031"/>
      <use xlink:href="#DejaVuSans-30" x="975.455078"/>
      <use xlink:href="#DejaVuSans-30" x="1039.078125"/>
      <use xlink:href="#DejaVuSans-35" x="1102.701172"/>
     </g>
    </g>
    <g id="line2d_32">
     <path d="M 261.087188 83.926688 
L 271.087188 83.926688 
L 281.087188 83.926688 
" style="fill: none; stroke: #2ca02c; stroke-width: 1.5; stroke-linecap: square"/>
    </g>
    <g id="text_14">
     <!-- Learning rate = 0.0001 -->
     <g transform="translate(289.087188 87.426688)scale(0.1 -0.1)">
      <use xlink:href="#DejaVuSans-4c"/>
      <use xlink:href="#DejaVuSans-65" x="53.962891"/>
      <use xlink:href="#DejaVuSans-61" x="115.486328"/>
      <use xlink:href="#DejaVuSans-72" x="176.765625"/>
      <use xlink:href="#DejaVuSans-6e" x="216.128906"/>
      <use xlink:href="#DejaVuSans-69" x="279.507812"/>
      <use xlink:href="#DejaVuSans-6e" x="307.291016"/>
      <use xlink:href="#DejaVuSans-67" x="370.669922"/>
      <use xlink:href="#DejaVuSans-20" x="434.146484"/>
      <use xlink:href="#DejaVuSans-72" x="465.933594"/>
      <use xlink:href="#DejaVuSans-61" x="507.046875"/>
      <use xlink:href="#DejaVuSans-74" x="568.326172"/>
      <use xlink:href="#DejaVuSans-65" x="607.535156"/>
      <use xlink:href="#DejaVuSans-20" x="669.058594"/>
      <use xlink:href="#DejaVuSans-3d" x="700.845703"/>
      <use xlink:href="#DejaVuSans-20" x="784.634766"/>
      <use xlink:href="#DejaVuSans-30" x="816.421875"/>
      <use xlink:href="#DejaVuSans-2e" x="880.044922"/>
      <use xlink:href="#DejaVuSans-30" x="911.832031"/>
      <use xlink:href="#DejaVuSans-30" x="975.455078"/>
      <use xlink:href="#DejaVuSans-30" x="1039.078125"/>
      <use xlink:href="#DejaVuSans-31" x="1102.701172"/>
     </g>
    </g>
   </g>
  </g>
 </g>
 <defs>
  <clipPath id="pe6f2882af1">
   <rect x="57.6" y="41.472" width="357.12" height="266.112"/>
  </clipPath>
 </defs>
</svg>
