<?xml version="1.0" encoding="utf-8" standalone="no"?>
<!DOCTYPE svg PUBLIC "-//W3C//DTD SVG 1.1//EN"
  "http://www.w3.org/Graphics/SVG/1.1/DTD/svg11.dtd">
<svg xmlns:xlink="http://www.w3.org/1999/xlink" width="460.8pt" height="345.6pt" viewBox="0 0 460.8 345.6" xmlns="http://www.w3.org/2000/svg" version="1.1">
 <metadata>
  <rdf:RDF xmlns:dc="http://purl.org/dc/elements/1.1/" xmlns:cc="http://creativecommons.org/ns#" xmlns:rdf="http://www.w3.org/1999/02/22-rdf-syntax-ns#">
   <cc:Work>
    <dc:type rdf:resource="http://purl.org/dc/dcmitype/StillImage"/>
    <dc:date>2024-06-18T13:12:44.782378</dc:date>
    <dc:format>image/svg+xml</dc:format>
    <dc:creator>
     <cc:Agent>
      <dc:title>Matplotlib v3.5.3, https://matplotlib.org/</dc:title>
     </cc:Agent>
    </dc:creator>
   </cc:Work>
  </rdf:RDF>
 </metadata>
 <defs>
  <style type="text/css">*{stroke-linejoin: round; stroke-linecap: butt}</style>
 </defs>
 <g id="figure_1">
  <g id="patch_1">
   <path d="M 0 345.6 
L 460.8 345.6 
L 460.8 0 
L 0 0 
z
" style="fill: #ffffff"/>
  </g>
  <g id="axes_1">
   <g id="patch_2">
    <path d="M 57.6 307.584 
L 414.72 307.584 
L 414.72 41.472 
L 57.6 41.472 
z
" style="fill: #ffffff"/>
   </g>
   <g id="matplotlib.axis_1">
    <g id="xtick_1">
     <g id="line2d_1">
      <defs>
       <path id="mf58dd6a557" d="M 0 0 
L 0 3.5 
" style="stroke: #000000; stroke-width: 0.8"/>
      </defs>
      <g>
       <use xlink:href="#mf58dd6a557" x="73.670319" y="307.584" style="stroke: #000000; stroke-width: 0.8"/>
      </g>
     </g>
     <g id="text_1">
      <!-- 0 -->
      <g transform="translate(70.489069 322.182437)scale(0.1 -0.1)">
       <defs>
        <path id="DejaVuSans-30" d="M 2034 4250 
Q 1547 4250 1301 3770 
Q 1056 3291 1056 2328 
Q 1056 1369 1301 889 
Q 1547 409 2034 409 
Q 2525 409 2770 889 
Q 3016 1369 3016 2328 
Q 3016 3291 2770 3770 
Q 2525 4250 2034 4250 
z
M 2034 4750 
Q 2819 4750 3233 4129 
Q 3647 3509 3647 2328 
Q 3647 1150 3233 529 
Q 2819 -91 2034 -91 
Q 1250 -91 836 529 
Q 422 1150 422 2328 
Q 422 3509 836 4129 
Q 1250 4750 2034 4750 
z
" transform="scale(0.015625)"/>
       </defs>
       <use xlink:href="#DejaVuSans-30"/>
      </g>
     </g>
    </g>
    <g id="xtick_2">
     <g id="line2d_2">
      <g>
       <use xlink:href="#mf58dd6a557" x="114.272438" y="307.584" style="stroke: #000000; stroke-width: 0.8"/>
      </g>
     </g>
     <g id="text_2">
      <!-- 250 -->
      <g transform="translate(104.728688 322.182437)scale(0.1 -0.1)">
       <defs>
        <path id="DejaVuSans-32" d="M 1228 531 
L 3431 531 
L 3431 0 
L 469 0 
L 469 531 
Q 828 903 1448 1529 
Q 2069 2156 2228 2338 
Q 2531 2678 2651 2914 
Q 2772 3150 2772 3378 
Q 2772 3750 2511 3984 
Q 2250 4219 1831 4219 
Q 1534 4219 1204 4116 
Q 875 4013 500 3803 
L 500 4441 
Q 881 4594 1212 4672 
Q 1544 4750 1819 4750 
Q 2544 4750 2975 4387 
Q 3406 4025 3406 3419 
Q 3406 3131 3298 2873 
Q 3191 2616 2906 2266 
Q 2828 2175 2409 1742 
Q 1991 1309 1228 531 
z
" transform="scale(0.015625)"/>
        <path id="DejaVuSans-35" d="M 691 4666 
L 3169 4666 
L 3169 4134 
L 1269 4134 
L 1269 2991 
Q 1406 3038 1543 3061 
Q 1681 3084 1819 3084 
Q 2600 3084 3056 2656 
Q 3513 2228 3513 1497 
Q 3513 744 3044 326 
Q 2575 -91 1722 -91 
Q 1428 -91 1123 -41 
Q 819 9 494 109 
L 494 744 
Q 775 591 1075 516 
Q 1375 441 1709 441 
Q 2250 441 2565 725 
Q 2881 1009 2881 1497 
Q 2881 1984 2565 2268 
Q 2250 2553 1709 2553 
Q 1456 2553 1204 2497 
Q 953 2441 691 2322 
L 691 4666 
z
" transform="scale(0.015625)"/>
       </defs>
       <use xlink:href="#DejaVuSans-32"/>
       <use xlink:href="#DejaVuSans-35" x="63.623047"/>
       <use xlink:href="#DejaVuSans-30" x="127.246094"/>
      </g>
     </g>
    </g>
    <g id="xtick_3">
     <g id="line2d_3">
      <g>
       <use xlink:href="#mf58dd6a557" x="154.874557" y="307.584" style="stroke: #000000; stroke-width: 0.8"/>
      </g>
     </g>
     <g id="text_3">
      <!-- 500 -->
      <g transform="translate(145.330807 322.182437)scale(0.1 -0.1)">
       <use xlink:href="#DejaVuSans-35"/>
       <use xlink:href="#DejaVuSans-30" x="63.623047"/>
       <use xlink:href="#DejaVuSans-30" x="127.246094"/>
      </g>
     </g>
    </g>
    <g id="xtick_4">
     <g id="line2d_4">
      <g>
       <use xlink:href="#mf58dd6a557" x="195.476677" y="307.584" style="stroke: #000000; stroke-width: 0.8"/>
      </g>
     </g>
     <g id="text_4">
      <!-- 750 -->
      <g transform="translate(185.932927 322.182437)scale(0.1 -0.1)">
       <defs>
        <path id="DejaVuSans-37" d="M 525 4666 
L 3525 4666 
L 3525 4397 
L 1831 0 
L 1172 0 
L 2766 4134 
L 525 4134 
L 525 4666 
z
" transform="scale(0.015625)"/>
       </defs>
       <use xlink:href="#DejaVuSans-37"/>
       <use xlink:href="#DejaVuSans-35" x="63.623047"/>
       <use xlink:href="#DejaVuSans-30" x="127.246094"/>
      </g>
     </g>
    </g>
    <g id="xtick_5">
     <g id="line2d_5">
      <g>
       <use xlink:href="#mf58dd6a557" x="236.078796" y="307.584" style="stroke: #000000; stroke-width: 0.8"/>
      </g>
     </g>
     <g id="text_5">
      <!-- 1000 -->
      <g transform="translate(223.353796 322.182437)scale(0.1 -0.1)">
       <defs>
        <path id="DejaVuSans-31" d="M 794 531 
L 1825 531 
L 1825 4091 
L 703 3866 
L 703 4441 
L 1819 4666 
L 2450 4666 
L 2450 531 
L 3481 531 
L 3481 0 
L 794 0 
L 794 531 
z
" transform="scale(0.015625)"/>
       </defs>
       <use xlink:href="#DejaVuSans-31"/>
       <use xlink:href="#DejaVuSans-30" x="63.623047"/>
       <use xlink:href="#DejaVuSans-30" x="127.246094"/>
       <use xlink:href="#DejaVuSans-30" x="190.869141"/>
      </g>
     </g>
    </g>
    <g id="xtick_6">
     <g id="line2d_6">
      <g>
       <use xlink:href="#mf58dd6a557" x="276.680915" y="307.584" style="stroke: #000000; stroke-width: 0.8"/>
      </g>
     </g>
     <g id="text_6">
      <!-- 1250 -->
      <g transform="translate(263.955915 322.182437)scale(0.1 -0.1)">
       <use xlink:href="#DejaVuSans-31"/>
       <use xlink:href="#DejaVuSans-32" x="63.623047"/>
       <use xlink:href="#DejaVuSans-35" x="127.246094"/>
       <use xlink:href="#DejaVuSans-30" x="190.869141"/>
      </g>
     </g>
    </g>
    <g id="xtick_7">
     <g id="line2d_7">
      <g>
       <use xlink:href="#mf58dd6a557" x="317.283034" y="307.584" style="stroke: #000000; stroke-width: 0.8"/>
      </g>
     </g>
     <g id="text_7">
      <!-- 1500 -->
      <g transform="translate(304.558034 322.182437)scale(0.1 -0.1)">
       <use xlink:href="#DejaVuSans-31"/>
       <use xlink:href="#DejaVuSans-35" x="63.623047"/>
       <use xlink:href="#DejaVuSans-30" x="127.246094"/>
       <use xlink:href="#DejaVuSans-30" x="190.869141"/>
      </g>
     </g>
    </g>
    <g id="xtick_8">
     <g id="line2d_8">
      <g>
       <use xlink:href="#mf58dd6a557" x="357.885153" y="307.584" style="stroke: #000000; stroke-width: 0.8"/>
      </g>
     </g>
     <g id="text_8">
      <!-- 1750 -->
      <g transform="translate(345.160153 322.182437)scale(0.1 -0.1)">
       <use xlink:href="#DejaVuSans-31"/>
       <use xlink:href="#DejaVuSans-37" x="63.623047"/>
       <use xlink:href="#DejaVuSans-35" x="127.246094"/>
       <use xlink:href="#DejaVuSans-30" x="190.869141"/>
      </g>
     </g>
    </g>
    <g id="xtick_9">
     <g id="line2d_9">
      <g>
       <use xlink:href="#mf58dd6a557" x="398.487273" y="307.584" style="stroke: #000000; stroke-width: 0.8"/>
      </g>
     </g>
     <g id="text_9">
      <!-- 2000 -->
      <g transform="translate(385.762273 322.182437)scale(0.1 -0.1)">
       <use xlink:href="#DejaVuSans-32"/>
       <use xlink:href="#DejaVuSans-30" x="63.623047"/>
       <use xlink:href="#DejaVuSans-30" x="127.246094"/>
       <use xlink:href="#DejaVuSans-30" x="190.869141"/>
      </g>
     </g>
    </g>
   </g>
   <g id="matplotlib.axis_2">
    <g id="ytick_1">
     <g id="line2d_10">
      <defs>
       <path id="m231b3c526d" d="M 0 0 
L -3.5 0 
" style="stroke: #000000; stroke-width: 0.8"/>
      </defs>
      <g>
       <use xlink:href="#m231b3c526d" x="57.6" y="225.28316" style="stroke: #000000; stroke-width: 0.8"/>
      </g>
     </g>
     <g id="text_10">
      <!-- $\mathdefault{10^{-1}}$ -->
      <g transform="translate(27.1 229.082378)scale(0.1 -0.1)">
       <defs>
        <path id="DejaVuSans-2212" d="M 678 2272 
L 4684 2272 
L 4684 1741 
L 678 1741 
L 678 2272 
z
" transform="scale(0.015625)"/>
       </defs>
       <use xlink:href="#DejaVuSans-31" transform="translate(0 0.684375)"/>
       <use xlink:href="#DejaVuSans-30" transform="translate(63.623047 0.684375)"/>
       <use xlink:href="#DejaVuSans-2212" transform="translate(128.203125 38.965625)scale(0.7)"/>
       <use xlink:href="#DejaVuSans-31" transform="translate(186.855469 38.965625)scale(0.7)"/>
      </g>
     </g>
    </g>
    <g id="ytick_2">
     <g id="line2d_11">
      <g>
       <use xlink:href="#m231b3c526d" x="57.6" y="72.427228" style="stroke: #000000; stroke-width: 0.8"/>
      </g>
     </g>
     <g id="text_11">
      <!-- $\mathdefault{10^{0}}$ -->
      <g transform="translate(33 76.226447)scale(0.1 -0.1)">
       <use xlink:href="#DejaVuSans-31" transform="translate(0 0.765625)"/>
       <use xlink:href="#DejaVuSans-30" transform="translate(63.623047 0.765625)"/>
       <use xlink:href="#DejaVuSans-30" transform="translate(128.203125 39.046875)scale(0.7)"/>
      </g>
     </g>
    </g>
    <g id="ytick_3">
     <g id="line2d_12">
      <defs>
       <path id="m40556018c5" d="M 0 0 
L -2 0 
" style="stroke: #000000; stroke-width: 0.6"/>
      </defs>
      <g>
       <use xlink:href="#m40556018c5" x="57.6" y="305.208277" style="stroke: #000000; stroke-width: 0.6"/>
      </g>
     </g>
    </g>
    <g id="ytick_4">
     <g id="line2d_13">
      <g>
       <use xlink:href="#m40556018c5" x="57.6" y="286.11065" style="stroke: #000000; stroke-width: 0.6"/>
      </g>
     </g>
    </g>
    <g id="ytick_5">
     <g id="line2d_14">
      <g>
       <use xlink:href="#m40556018c5" x="57.6" y="271.29738" style="stroke: #000000; stroke-width: 0.6"/>
      </g>
     </g>
    </g>
    <g id="ytick_6">
     <g id="line2d_15">
      <g>
       <use xlink:href="#m40556018c5" x="57.6" y="259.194057" style="stroke: #000000; stroke-width: 0.6"/>
      </g>
     </g>
    </g>
    <g id="ytick_7">
     <g id="line2d_16">
      <g>
       <use xlink:href="#m40556018c5" x="57.6" y="248.960843" style="stroke: #000000; stroke-width: 0.6"/>
      </g>
     </g>
    </g>
    <g id="ytick_8">
     <g id="line2d_17">
      <g>
       <use xlink:href="#m40556018c5" x="57.6" y="240.09643" style="stroke: #000000; stroke-width: 0.6"/>
      </g>
     </g>
    </g>
    <g id="ytick_9">
     <g id="line2d_18">
      <g>
       <use xlink:href="#m40556018c5" x="57.6" y="232.277464" style="stroke: #000000; stroke-width: 0.6"/>
      </g>
     </g>
    </g>
    <g id="ytick_10">
     <g id="line2d_19">
      <g>
       <use xlink:href="#m40556018c5" x="57.6" y="179.268939" style="stroke: #000000; stroke-width: 0.6"/>
      </g>
     </g>
    </g>
    <g id="ytick_11">
     <g id="line2d_20">
      <g>
       <use xlink:href="#m40556018c5" x="57.6" y="152.352346" style="stroke: #000000; stroke-width: 0.6"/>
      </g>
     </g>
    </g>
    <g id="ytick_12">
     <g id="line2d_21">
      <g>
       <use xlink:href="#m40556018c5" x="57.6" y="133.254719" style="stroke: #000000; stroke-width: 0.6"/>
      </g>
     </g>
    </g>
    <g id="ytick_13">
     <g id="line2d_22">
      <g>
       <use xlink:href="#m40556018c5" x="57.6" y="118.441449" style="stroke: #000000; stroke-width: 0.6"/>
      </g>
     </g>
    </g>
    <g id="ytick_14">
     <g id="line2d_23">
      <g>
       <use xlink:href="#m40556018c5" x="57.6" y="106.338125" style="stroke: #000000; stroke-width: 0.6"/>
      </g>
     </g>
    </g>
    <g id="ytick_15">
     <g id="line2d_24">
      <g>
       <use xlink:href="#m40556018c5" x="57.6" y="96.104912" style="stroke: #000000; stroke-width: 0.6"/>
      </g>
     </g>
    </g>
    <g id="ytick_16">
     <g id="line2d_25">
      <g>
       <use xlink:href="#m40556018c5" x="57.6" y="87.240498" style="stroke: #000000; stroke-width: 0.6"/>
      </g>
     </g>
    </g>
    <g id="ytick_17">
     <g id="line2d_26">
      <g>
       <use xlink:href="#m40556018c5" x="57.6" y="79.421532" style="stroke: #000000; stroke-width: 0.6"/>
      </g>
     </g>
    </g>
   </g>
   <g id="line2d_27">
    <path d="M 73.832727 81.49166 
L 73.995136 83.345887 
L 74.319953 108.656525 
L 74.64477 124.053749 
L 74.969587 144.296591 
L 75.294404 153.367881 
L 75.456812 155.090068 
L 75.619221 155.274993 
L 75.944037 151.280422 
L 76.106446 152.746655 
L 76.918488 176.24998 
L 77.080897 179.310424 
L 77.243305 180.090852 
L 77.405714 179.748358 
L 77.568122 179.966479 
L 78.055348 182.97165 
L 78.217756 183.466408 
L 78.380165 184.62265 
L 79.354615 195.187193 
L 79.517024 195.851016 
L 79.679432 195.84727 
L 79.841841 196.167497 
L 80.491475 200.422517 
L 80.9787 204.582909 
L 81.628334 206.908116 
L 81.953151 208.069617 
L 82.765194 211.903361 
L 83.414827 213.777848 
L 84.714095 217.359036 
L 86.662997 220.798798 
L 87.962265 222.503087 
L 89.58635 224.220464 
L 91.372843 225.788374 
L 100.467717 233.313363 
L 104.527929 237.225256 
L 111.349085 243.842385 
L 114.272438 246.324353 
L 117.033382 248.377009 
L 119.956735 250.268487 
L 123.204904 252.095653 
L 126.777891 253.838011 
L 130.513286 255.40454 
L 134.411089 256.798256 
L 138.796118 258.126754 
L 144.155598 259.505899 
L 151.139162 261.06049 
L 158.934769 262.590056 
L 159.421995 262.546291 
L 159.584403 262.344047 
L 159.746812 261.765944 
L 159.90922 260.289437 
L 160.396445 249.42145 
L 160.721262 262.265032 
L 160.883671 260.419719 
L 161.046079 255.355429 
L 161.370896 262.992192 
L 161.695713 258.139824 
L 161.858122 262.258393 
L 162.02053 262.083602 
L 162.182939 259.482614 
L 162.507756 262.949923 
L 162.670164 260.782767 
L 162.994981 263.231284 
L 163.15739 261.729278 
L 163.319798 262.024958 
L 163.482207 263.329182 
L 163.644615 262.381343 
L 163.807024 262.327163 
L 163.969432 263.381381 
L 164.294249 262.619591 
L 164.456657 263.428187 
L 164.781474 262.881203 
L 164.943883 263.478917 
L 165.106291 263.367291 
L 165.2687 263.110599 
L 165.431108 263.535242 
L 165.593517 263.538468 
L 165.755925 263.309279 
L 166.080742 263.670643 
L 166.243151 263.482742 
L 166.567968 263.775569 
L 166.730376 263.635987 
L 167.055193 263.861506 
L 167.217602 263.771285 
L 168.679278 264.086578 
L 169.004095 264.124147 
L 169.816137 264.243098 
L 172.252264 264.592859 
L 176.150068 265.110546 
L 188.168295 266.524159 
L 200.836156 267.788493 
L 201.323382 267.758958 
L 201.48579 267.666179 
L 201.648199 267.42719 
L 201.810607 266.848824 
L 201.973016 265.498758 
L 202.135424 262.622261 
L 202.62265 248.707637 
L 202.947466 266.954599 
L 203.109875 264.106538 
L 203.272283 257.56892 
L 203.434692 261.051394 
L 203.5971 267.269362 
L 203.921917 261.402466 
L 204.084326 266.177227 
L 204.246734 266.505961 
L 204.409143 263.281736 
L 204.73396 267.614254 
L 204.896368 264.839089 
L 205.058777 265.873391 
L 205.221185 268.075503 
L 205.383594 266.104481 
L 205.546002 266.108762 
L 205.708411 268.098443 
L 206.033228 266.558477 
L 206.195636 268.027197 
L 206.520453 267.021717 
L 206.682861 268.053474 
L 207.007678 267.347744 
L 207.170087 268.124278 
L 207.332495 267.978616 
L 207.494904 267.584385 
L 207.657312 268.155754 
L 207.819721 268.156509 
L 207.982129 267.805731 
L 208.144538 268.17481 
L 208.306946 268.260096 
L 208.469355 267.995913 
L 208.794172 268.326508 
L 208.95658 268.131968 
L 209.281397 268.393503 
L 209.443806 268.240868 
L 209.768622 268.446132 
L 210.093439 268.364705 
L 210.255848 268.47834 
L 210.580665 268.420589 
L 210.905482 268.492377 
L 211.230299 268.542204 
L 214.803285 268.804577 
L 218.53868 269.072678 
L 234.941936 270.08817 
L 235.266753 269.926617 
L 235.429162 269.690749 
L 235.59157 269.20509 
L 235.753979 268.234827 
L 235.916387 266.399115 
L 236.403613 255.538282 
L 236.566021 256.331252 
L 236.890838 269.034946 
L 237.053247 268.308604 
L 237.215655 264.056893 
L 237.378064 263.61604 
L 237.702881 268.990423 
L 238.027697 266.70228 
L 238.352514 268.758671 
L 238.514923 268.153471 
L 238.677331 268.561386 
L 238.83974 269.350224 
L 239.164557 268.56131 
L 239.489374 270.037232 
L 239.651782 269.150582 
L 239.814191 269.033436 
L 239.976599 270.092114 
L 240.139008 270.272087 
L 240.301416 269.482988 
L 240.463825 269.536416 
L 240.626233 270.303079 
L 240.788642 270.297534 
L 240.95105 269.823568 
L 241.113459 269.972389 
L 241.275867 270.359736 
L 241.600684 270.125577 
L 241.925501 270.381251 
L 242.087909 270.29465 
L 242.575135 270.422192 
L 242.737543 270.350847 
L 243.06236 270.571961 
L 243.387177 270.437179 
L 243.711994 270.617308 
L 244.036811 270.533861 
L 244.524037 270.620314 
L 245.985713 270.72635 
L 246.960164 270.795601 
L 249.233882 270.921862 
L 256.704672 271.339359 
L 264.662688 271.708871 
L 264.987505 271.555762 
L 265.149913 271.353263 
L 265.312322 270.955998 
L 265.47473 270.211145 
L 265.799547 266.48816 
L 266.286772 256.356404 
L 266.449181 259.139596 
L 266.773998 271.598672 
L 266.936406 269.661827 
L 267.098815 265.010644 
L 267.261223 265.014698 
L 267.58604 271.758906 
L 267.910857 267.277252 
L 268.235674 271.820016 
L 268.560491 269.019312 
L 268.885308 271.881211 
L 269.047717 271.249751 
L 269.210125 270.04328 
L 269.534942 271.933414 
L 269.69735 271.508802 
L 269.859759 270.758236 
L 270.184576 271.987847 
L 270.509393 271.192053 
L 270.83421 272.050048 
L 271.159027 271.504897 
L 271.483844 272.086226 
L 271.808661 271.729602 
L 272.133478 272.114826 
L 272.458295 271.889115 
L 272.783112 272.151996 
L 273.107929 272.001098 
L 273.432745 272.183858 
L 273.919971 272.151435 
L 274.244788 272.192976 
L 274.569605 272.197223 
L 274.894422 272.243022 
L 275.381647 272.276634 
L 288.049508 272.836184 
L 288.374325 272.687052 
L 288.699142 272.190896 
L 289.023959 270.688715 
L 289.348776 267.11377 
L 289.673593 263.456634 
L 289.836002 264.445099 
L 290.160819 271.82698 
L 290.323227 272.646765 
L 290.648044 268.947558 
L 290.810452 269.524486 
L 291.135269 272.546102 
L 291.460086 270.933062 
L 291.622495 271.408842 
L 291.784903 272.441248 
L 291.947312 272.580337 
L 292.10972 271.930857 
L 292.272129 271.754434 
L 292.596946 273.01079 
L 292.759354 272.724109 
L 292.921763 272.197654 
L 293.084171 272.301852 
L 293.408988 273.157243 
L 293.733805 272.580982 
L 293.896214 272.743022 
L 294.058622 273.067709 
L 294.221031 273.118729 
L 294.545847 272.908245 
L 294.870664 273.167544 
L 295.35789 273.093417 
L 295.682707 273.251941 
L 296.007524 273.12972 
L 296.494749 273.295054 
L 296.981975 273.28089 
L 297.4692 273.306681 
L 307.863343 273.795773 
L 308.350568 273.628134 
L 308.675385 273.200462 
L 308.837793 272.749599 
L 309.16261 270.773368 
L 309.812244 262.623063 
L 309.974653 263.421479 
L 310.461878 273.886331 
L 310.949104 269.124394 
L 311.273921 273.647583 
L 311.436329 273.491497 
L 311.761146 271.213404 
L 312.085963 273.778145 
L 312.248371 273.743071 
L 312.573188 272.38789 
L 312.898005 273.983868 
L 313.060414 273.845542 
L 313.222822 273.200834 
L 313.385231 273.095572 
L 313.710048 274.078557 
L 313.872456 273.918337 
L 314.034865 273.545842 
L 314.197273 273.555236 
L 314.52209 274.117994 
L 315.009316 273.838773 
L 315.334133 274.160562 
L 315.658949 273.953406 
L 316.470992 274.082436 
L 318.095077 274.249236 
L 320.206387 274.379164 
L 322.642514 274.499754 
L 328.164402 274.601055 
L 328.489219 274.34766 
L 328.814036 273.615994 
L 329.138853 271.719741 
L 329.788487 266.287757 
L 329.950895 268.235403 
L 330.275712 274.493141 
L 330.438121 274.42273 
L 330.762938 271.004932 
L 330.925346 271.647426 
L 331.250163 274.847814 
L 331.412572 274.274941 
L 331.57498 273.044123 
L 331.737389 272.845367 
L 332.062206 274.822304 
L 332.224614 274.724882 
L 332.549431 273.715202 
L 332.874248 274.860515 
L 333.036657 274.863719 
L 333.361473 274.245394 
L 333.848699 274.949669 
L 334.173516 274.572522 
L 334.660741 275.009395 
L 334.985558 274.785423 
L 335.472784 275.061417 
L 335.797601 274.928958 
L 336.609643 275.032518 
L 341.969123 275.278977 
L 342.456348 275.043638 
L 342.781165 274.48682 
L 343.105982 272.96141 
L 343.430799 269.434273 
L 343.755616 264.609063 
L 343.918024 263.410665 
L 344.080433 265.813357 
L 344.40525 274.468836 
L 344.567658 275.232111 
L 344.892475 270.498632 
L 345.054884 270.628129 
L 345.379701 275.299851 
L 345.542109 274.936429 
L 345.866926 272.617112 
L 346.191743 275.25307 
L 346.354152 275.315744 
L 346.678969 273.851586 
L 347.166194 275.430179 
L 347.491011 274.570459 
L 347.815828 275.504934 
L 347.978236 275.507949 
L 348.303053 275.00439 
L 348.62787 275.57922 
L 348.790279 275.579732 
L 349.115096 275.27685 
L 349.602321 275.640081 
L 349.927138 275.458883 
L 350.414364 275.688784 
L 350.901589 275.622827 
L 351.226406 275.730215 
L 351.87604 275.732901 
L 352.363265 275.747534 
L 353.662533 275.828192 
L 355.449026 275.91188 
L 360.970915 276.164622 
L 365.518352 276.299669 
L 365.843169 276.18032 
L 366.167986 275.785927 
L 366.492803 274.568469 
L 366.81762 271.310334 
L 367.304845 264.252095 
L 367.467254 266.092718 
L 367.792071 275.555068 
L 367.954479 276.032362 
L 368.279296 270.822929 
L 368.441704 271.91171 
L 368.766521 276.450282 
L 369.091338 273.316919 
L 369.253747 273.906782 
L 369.578564 276.451827 
L 369.903381 274.594823 
L 370.390606 276.367221 
L 370.553015 275.583958 
L 370.715423 275.423789 
L 371.04024 276.571222 
L 371.365057 275.866086 
L 371.527466 276.015691 
L 371.689874 276.474313 
L 371.852283 276.590824 
L 372.177099 276.158257 
L 372.501916 276.620731 
L 372.664325 276.580186 
L 372.826733 276.402005 
L 372.989142 276.39307 
L 373.313959 276.673136 
L 373.801184 276.553585 
L 374.126001 276.704507 
L 374.613227 276.654565 
L 374.938044 276.735958 
L 375.425269 276.72183 
L 375.912494 276.752494 
L 377.049354 276.813065 
L 378.348622 276.856042 
L 379.160664 276.70272 
L 379.485481 276.385407 
L 379.810298 275.557093 
L 380.135115 273.507817 
L 380.784749 265.821322 
L 380.947157 266.125551 
L 381.434383 276.843975 
L 381.596791 276.189227 
L 381.921608 272.139181 
L 382.084017 272.91605 
L 382.408834 276.976027 
L 382.571242 276.422477 
L 382.896059 274.390263 
L 383.383284 276.992375 
L 383.708101 275.571418 
L 383.87051 275.919526 
L 384.195327 277.099683 
L 384.520144 276.287511 
L 384.682552 276.346463 
L 385.007369 277.123448 
L 385.169778 277.007628 
L 385.332186 276.714934 
L 385.494595 276.660388 
L 385.819412 277.132558 
L 385.98182 277.137273 
L 386.306637 276.887318 
L 386.956271 277.132234 
L 387.281088 277.06875 
L 387.768313 277.224067 
L 388.255539 277.192741 
L 388.742764 277.259867 
L 389.22999 277.269401 
L 389.879623 277.298414 
L 398.487273 277.670605 
L 398.487273 277.670605 
" clip-path="url(#p3b01563dec)" style="fill: none; stroke: #1f77b4; stroke-width: 1.5; stroke-linecap: square"/>
   </g>
   <g id="line2d_28">
    <path d="M 73.832727 56.201451 
L 73.995136 87.513197 
L 74.157544 83.886528 
L 74.319953 83.305433 
L 74.969587 126.38494 
L 75.131995 124.267821 
L 75.294404 126.585921 
L 75.781629 148.351632 
L 76.106446 143.560267 
L 76.268854 144.856789 
L 76.75608 160.766371 
L 76.918488 159.899572 
L 77.080897 158.027074 
L 77.243305 158.485428 
L 77.892939 170.801525 
L 78.055348 171.467378 
L 78.217756 173.100221 
L 78.704982 181.961932 
L 78.86739 181.828799 
L 79.029799 180.645981 
L 79.192207 180.358655 
L 79.354615 181.845215 
L 79.841841 188.240053 
L 80.166658 188.525051 
L 80.329066 189.316127 
L 80.9787 194.228267 
L 82.927602 202.991936 
L 84.551687 208.861999 
L 86.013363 212.67496 
L 88.124673 216.756178 
L 89.423941 218.718528 
L 90.885617 220.57311 
L 92.834519 222.641809 
L 95.270646 224.859182 
L 104.852746 233.214975 
L 107.776099 236.244894 
L 112.161128 241.167407 
L 116.058931 245.407941 
L 118.819875 248.09812 
L 121.418411 250.322318 
L 123.854538 252.112359 
L 126.290665 253.622245 
L 128.889201 254.956222 
L 131.650145 256.112443 
L 134.735906 257.155073 
L 138.308893 258.122009 
L 142.85633 259.10823 
L 149.190261 260.231578 
L 153.900106 260.938466 
L 154.224923 260.812945 
L 154.387332 260.554805 
L 154.54974 259.949673 
L 155.036966 255.507309 
L 155.199374 256.561091 
L 155.524191 261.148593 
L 155.849008 258.177911 
L 156.173825 261.310132 
L 156.498642 259.359978 
L 156.823459 261.349104 
L 156.985867 260.366743 
L 157.148276 260.282566 
L 157.310684 261.295304 
L 157.473093 261.288664 
L 157.635501 260.637984 
L 157.960318 261.561391 
L 158.285135 260.99551 
L 158.609952 261.612081 
L 158.772361 261.289149 
L 158.934769 261.379392 
L 159.097178 261.70841 
L 159.421995 261.470167 
L 159.746812 261.810423 
L 160.071629 261.680386 
L 160.234037 261.859094 
L 161.858122 262.053938 
L 162.182939 262.14845 
L 162.507756 262.172104 
L 163.15739 262.279016 
L 164.294249 262.442242 
L 166.405559 262.754919 
L 190.604422 266.430188 
L 190.766831 266.312763 
L 190.929239 266.04788 
L 191.091648 265.489137 
L 191.254056 264.427989 
L 191.741282 258.576689 
L 191.90369 259.975742 
L 192.228507 266.818053 
L 192.390915 265.363959 
L 192.553324 262.861986 
L 192.715732 263.471856 
L 192.878141 266.177346 
L 193.040549 266.786017 
L 193.202958 265.016223 
L 193.365366 264.532779 
L 193.690183 267.048374 
L 194.015 265.507284 
L 194.339817 267.171152 
L 194.664634 266.168637 
L 194.989451 267.269022 
L 195.15186 266.74504 
L 195.314268 266.6694 
L 195.476677 267.219564 
L 195.639085 267.367512 
L 195.801493 267.018215 
L 195.963902 267.02801 
L 196.12631 267.415601 
L 196.288719 267.473156 
L 196.451127 267.248605 
L 196.613536 267.303109 
L 196.775944 267.568447 
L 196.938353 267.588711 
L 197.100761 267.452792 
L 197.26317 267.514145 
L 197.425578 267.697486 
L 198.562438 267.834902 
L 198.887255 267.95352 
L 199.212071 267.969513 
L 199.699297 268.069001 
L 210.905482 270.073878 
L 223.735752 272.229874 
L 224.060568 272.132404 
L 224.222977 271.96119 
L 224.385385 271.592814 
L 224.547794 270.859869 
L 224.872611 267.10745 
L 225.197428 261.092284 
L 225.359836 261.331113 
L 225.684653 271.938118 
L 225.847062 271.594503 
L 226.00947 267.690304 
L 226.171879 266.690079 
L 226.496696 272.70066 
L 226.821513 268.954776 
L 227.14633 272.736618 
L 227.471146 270.36373 
L 227.795963 272.852313 
L 228.12078 271.319917 
L 228.445597 272.972989 
L 228.770414 271.935062 
L 229.095231 273.072824 
L 229.420048 272.405344 
L 229.744865 273.158708 
L 230.069682 272.744579 
L 230.394499 273.245116 
L 230.719316 273.005603 
L 231.044133 273.336971 
L 231.36895 273.203338 
L 231.693767 273.433529 
L 232.018584 273.363651 
L 232.343401 273.531722 
L 232.668218 273.49847 
L 232.993035 273.629159 
L 233.317852 273.618709 
L 233.805077 273.72007 
L 234.779528 273.870375 
L 235.916387 274.037226 
L 246.960164 275.57375 
L 260.602476 277.352662 
L 260.927293 277.12327 
L 261.089701 276.786718 
L 261.25211 276.122515 
L 261.414518 274.82004 
L 261.739335 268.885496 
L 262.064152 261.958735 
L 262.226561 264.908673 
L 262.551378 277.581344 
L 262.713786 274.98421 
L 262.876194 270.23835 
L 263.038603 271.039801 
L 263.36342 277.548577 
L 263.688237 273.021495 
L 264.013054 277.810341 
L 264.337871 274.835303 
L 264.662688 277.89206 
L 264.987505 275.95092 
L 265.312322 277.964884 
L 265.637139 276.77974 
L 265.961956 278.040815 
L 266.124364 277.487403 
L 266.286772 277.331274 
L 266.611589 278.115638 
L 266.773998 277.742106 
L 266.936406 277.732733 
L 267.098815 278.124743 
L 267.261223 278.198865 
L 267.423632 277.967974 
L 267.58604 278.008795 
L 267.748449 278.269274 
L 267.910857 278.289884 
L 268.073266 278.152558 
L 269.210125 278.486197 
L 269.534942 278.4949 
L 269.859759 278.583875 
L 270.184576 278.603286 
L 270.509393 278.679238 
L 270.996618 278.753175 
L 279.117042 279.808943 
L 289.348776 281.071804 
L 289.673593 280.903554 
L 289.836002 280.648511 
L 289.99841 280.134374 
L 290.323227 277.559229 
L 290.648044 273.302532 
L 290.810452 272.909218 
L 291.297678 281.361327 
L 291.460086 280.094737 
L 291.622495 277.793986 
L 291.784903 277.466818 
L 292.10972 281.31501 
L 292.272129 281.010165 
L 292.434537 279.541216 
L 292.596946 279.235544 
L 292.921763 281.529375 
L 293.084171 281.186269 
L 293.24658 280.307027 
L 293.408988 280.328558 
L 293.733805 281.670567 
L 294.058622 280.841409 
L 294.221031 281.039285 
L 294.545847 281.744341 
L 294.870664 281.25734 
L 295.35789 281.82473 
L 295.682707 281.57173 
L 296.007524 281.932913 
L 296.657158 281.92644 
L 296.981975 282.041319 
L 297.306792 281.983916 
L 297.794017 282.157371 
L 298.281242 282.179049 
L 298.768468 282.265211 
L 299.418102 282.369709 
L 302.666271 282.773829 
L 308.675385 283.423479 
L 309.000202 283.215738 
L 309.16261 282.928745 
L 309.325019 282.39711 
L 309.649836 279.651527 
L 310.29947 267.882232 
L 310.461878 270.953863 
L 310.786695 283.087101 
L 310.949104 280.846195 
L 311.111512 276.688246 
L 311.273921 276.437001 
L 311.598738 283.656027 
L 311.923555 279.098937 
L 312.085963 280.177725 
L 312.248371 283.258 
L 312.41078 283.534373 
L 312.573188 281.510439 
L 312.735597 281.221002 
L 313.060414 283.885363 
L 313.385231 282.05758 
L 313.710048 284.065465 
L 314.034865 282.877712 
L 314.197273 283.296151 
L 314.359682 284.043054 
L 314.52209 283.916095 
L 314.684499 283.410056 
L 314.846907 283.574921 
L 315.009316 284.110508 
L 315.171724 284.165807 
L 315.334133 283.818399 
L 315.496541 283.782632 
L 315.821358 284.281016 
L 316.146175 284.009142 
L 316.470992 284.378931 
L 316.795809 284.199113 
L 317.283034 284.435563 
L 317.607851 284.376757 
L 317.932668 284.538942 
L 318.419894 284.546544 
L 318.744711 284.619626 
L 319.231936 284.670063 
L 320.368795 284.793764 
L 322.480106 284.91274 
L 322.804922 284.752791 
L 323.129739 284.293485 
L 323.454556 283.070321 
L 323.779373 280.366026 
L 324.10419 276.868133 
L 324.266599 276.380174 
L 324.429007 277.887051 
L 324.753824 284.28584 
L 324.916233 285.273654 
L 325.403458 281.467881 
L 325.890684 285.400162 
L 326.377909 283.437991 
L 326.702726 285.281854 
L 326.865134 285.438476 
L 327.189951 284.396413 
L 327.35236 284.568141 
L 327.677177 285.57037 
L 327.839585 285.454017 
L 328.164402 284.97897 
L 328.651628 285.681232 
L 329.138853 285.38903 
L 329.626078 285.77853 
L 330.113304 285.654406 
L 330.600529 285.889057 
L 331.087755 285.841762 
L 331.737389 286.004311 
L 332.387023 286.061457 
L 333.199065 286.14897 
L 341.481897 287.060763 
L 341.969123 287.008202 
L 342.29394 286.78813 
L 342.618757 286.059727 
L 342.943574 283.956374 
L 343.593208 275.332997 
L 343.755616 275.828245 
L 344.242841 286.001175 
L 344.40525 285.210741 
L 344.567658 283.084272 
L 344.730067 282.607684 
L 345.217292 286.113533 
L 345.542109 284.789697 
L 346.029335 286.888441 
L 346.354152 285.753854 
L 346.51656 286.163571 
L 346.841377 287.4938 
L 347.328602 286.545879 
L 347.653419 287.641448 
L 347.815828 287.568799 
L 348.140645 287.068979 
L 348.62787 287.689194 
L 348.952687 287.478771 
L 349.439913 287.800624 
L 349.927138 287.740092 
L 350.251955 287.941018 
L 351.063997 287.996943 
L 351.388814 288.059652 
L 351.87604 288.069062 
L 352.688082 288.178459 
L 357.073111 288.674744 
L 360.970915 289.002113 
L 361.45814 288.816048 
L 361.782957 288.351226 
L 362.107774 287.095002 
L 362.432591 284.11124 
L 362.919816 277.123481 
L 363.082225 277.051104 
L 363.244633 279.71158 
L 363.56945 287.329646 
L 363.731859 287.143908 
L 364.056676 282.60596 
L 364.219084 283.46548 
L 364.543901 288.869558 
L 364.70631 288.661726 
L 365.031126 286.401397 
L 365.518352 288.990658 
L 365.843169 287.374925 
L 366.005577 287.905552 
L 366.330394 289.359913 
L 366.655211 288.592888 
L 366.81762 288.840304 
L 367.142437 289.619803 
L 367.467254 289.010651 
L 367.629662 289.080744 
L 367.954479 289.593645 
L 368.441704 289.35718 
L 368.766521 289.753782 
L 369.416155 289.768767 
L 369.740972 289.925674 
L 370.065789 289.846775 
L 370.877832 289.997612 
L 372.339508 289.96622 
L 372.664325 289.552785 
L 372.826733 289.158297 
L 373.15155 287.490997 
L 373.638776 282.314578 
L 373.963593 283.23056 
L 374.450818 289.704855 
L 374.613227 289.930028 
L 375.100452 287.125769 
L 375.262861 287.848561 
L 375.587677 290.387289 
L 375.750086 290.390349 
L 376.074903 288.972472 
L 376.237311 289.003024 
L 376.724537 290.490426 
L 377.049354 290.113612 
L 377.211762 289.956955 
L 377.374171 289.970505 
L 377.861396 290.679442 
L 378.023805 290.674363 
L 378.348622 290.380247 
L 378.51103 290.378071 
L 378.998255 290.839522 
L 379.810298 290.780792 
L 380.459932 290.968178 
L 381.271974 291.016175 
L 381.921608 291.121788 
L 383.383284 291.28104 
L 387.281088 291.615654 
L 387.930722 291.493448 
L 388.255539 291.195703 
L 388.417947 290.910478 
L 388.742764 289.683386 
L 389.067581 286.967443 
L 389.554806 280.653249 
L 389.717215 281.254852 
L 389.879623 282.723356 
L 390.366849 290.29592 
L 390.529257 289.807753 
L 390.854074 287.901417 
L 391.016483 288.574805 
L 391.3413 291.324536 
L 391.503708 291.192345 
L 391.828525 289.444215 
L 391.990934 289.821507 
L 392.315751 291.955325 
L 392.478159 292.010393 
L 392.802976 290.810821 
L 392.965385 290.895951 
L 393.290201 291.983235 
L 393.45261 292.020637 
L 393.777427 291.55814 
L 393.939835 291.678092 
L 394.264652 292.186718 
L 394.427061 292.186772 
L 394.751878 291.969329 
L 395.076695 292.113019 
L 395.56392 292.318829 
L 396.700779 292.465884 
L 398.487273 292.644086 
L 398.487273 292.644086 
" clip-path="url(#p3b01563dec)" style="fill: none; stroke: #ff7f0e; stroke-width: 1.5; stroke-linecap: square"/>
   </g>
   <g id="line2d_29">
    <path d="M 73.832727 53.568 
L 73.995136 98.97305 
L 74.157544 107.430466 
L 74.319953 97.030179 
L 74.482361 99.554897 
L 74.969587 150.493432 
L 75.131995 147.680065 
L 75.456812 129.880888 
L 75.619221 131.527363 
L 76.268854 159.425082 
L 76.593671 156.180038 
L 76.75608 157.986113 
L 77.243305 169.69271 
L 77.405714 169.906102 
L 77.568122 168.923005 
L 77.730531 168.804518 
L 77.892939 170.878953 
L 78.380165 183.626928 
L 78.542573 184.304297 
L 78.86739 181.170332 
L 79.029799 181.314258 
L 79.354615 187.01468 
L 79.679432 191.4123 
L 79.841841 191.35457 
L 80.004249 190.912392 
L 80.166658 191.107526 
L 80.491475 193.785274 
L 80.816292 196.098344 
L 81.303517 197.886239 
L 81.790743 200.139289 
L 82.11556 201.062236 
L 82.765194 203.843905 
L 83.09001 204.353594 
L 83.414827 205.586165 
L 83.739644 206.812863 
L 84.22687 207.645274 
L 84.876504 209.437738 
L 85.363729 210.360779 
L 86.013363 211.659637 
L 87.637448 214.323305 
L 89.423941 216.727275 
L 91.535251 219.107312 
L 94.133787 221.638052 
L 97.544365 224.610471 
L 104.690338 230.732432 
L 107.61369 233.594902 
L 110.86186 237.102577 
L 120.119143 247.347609 
L 122.55527 249.58735 
L 124.991398 251.52199 
L 127.427525 253.163449 
L 130.02606 254.630518 
L 132.787004 255.920172 
L 135.710357 257.041407 
L 139.120935 258.111367 
L 143.505964 259.241182 
L 150.002303 260.659934 
L 188.493112 268.503198 
L 210.093439 272.509114 
L 210.743073 272.517164 
L 210.905482 272.417607 
L 211.06789 272.181016 
L 211.230299 271.674589 
L 211.555116 269.326328 
L 211.717524 268.076228 
L 211.879933 268.128776 
L 212.20475 272.606301 
L 212.367158 272.538326 
L 212.529567 270.945139 
L 212.691975 270.490799 
L 213.016792 273.028165 
L 213.341609 271.536033 
L 213.666426 273.079586 
L 213.828834 272.856465 
L 213.991243 272.221944 
L 214.153651 272.51661 
L 214.31606 273.185388 
L 214.478468 273.106097 
L 214.640877 272.687189 
L 214.803285 272.856182 
L 214.965694 273.313641 
L 215.128102 273.276375 
L 215.290511 273.004233 
L 215.452919 273.133483 
L 215.615328 273.441641 
L 215.777736 273.420781 
L 215.940145 273.253092 
L 216.42737 273.554663 
L 216.589779 273.452594 
L 217.077004 273.683176 
L 217.401821 273.68012 
L 217.726638 273.806893 
L 218.051455 273.817403 
L 218.376272 273.92657 
L 218.701089 273.945262 
L 219.188314 274.044556 
L 222.436484 274.622481 
L 242.250318 277.830602 
L 242.412726 277.717449 
L 242.575135 277.457048 
L 242.737543 276.928545 
L 243.06236 274.435646 
L 243.224769 272.742304 
L 243.387177 272.328727 
L 243.549586 273.970829 
L 243.874403 278.086475 
L 244.19922 275.45426 
L 244.361628 275.984972 
L 244.524037 277.710088 
L 244.686445 278.183682 
L 245.011262 276.61855 
L 245.336079 278.403864 
L 245.498487 278.114772 
L 245.660896 277.425005 
L 245.823304 277.608763 
L 245.985713 278.329089 
L 246.148121 278.481098 
L 246.31053 278.056831 
L 246.472938 277.951597 
L 246.797755 278.64187 
L 247.122572 278.251598 
L 247.609798 278.713442 
L 247.772206 278.544569 
L 247.934615 278.587767 
L 248.259432 278.870187 
L 248.584248 278.75095 
L 249.071474 278.971837 
L 249.396291 278.957025 
L 249.721108 279.105034 
L 250.208333 279.137815 
L 250.695559 279.220707 
L 251.832418 279.420299 
L 253.294094 279.646008 
L 257.516715 280.2812 
L 258.166349 280.270175 
L 258.491166 280.097866 
L 258.815983 279.538416 
L 259.140799 278.106393 
L 259.628025 275.309743 
L 259.790433 275.846813 
L 260.277659 280.519992 
L 260.440067 280.036701 
L 260.764884 278.667907 
L 260.927293 279.162032 
L 261.25211 280.440447 
L 261.739335 280.046694 
L 262.064152 280.616626 
L 262.551378 280.47682 
L 262.876194 280.994606 
L 263.038603 280.943859 
L 263.36342 280.692935 
L 263.850645 281.225494 
L 264.337871 281.05662 
L 264.825096 281.326433 
L 265.312322 281.352751 
L 265.799547 281.452075 
L 266.286772 281.540916 
L 266.773998 281.632679 
L 267.423632 281.73141 
L 270.996618 282.223495 
L 271.483844 282.161227 
L 271.808661 281.918163 
L 272.133478 281.197561 
L 272.458295 279.471107 
L 272.94552 276.165176 
L 273.107929 276.441602 
L 273.757562 282.264744 
L 274.082379 280.277395 
L 274.244788 280.220251 
L 274.732013 282.453637 
L 275.219239 281.686488 
L 275.868873 282.633846 
L 276.19369 282.42657 
L 276.356098 282.461227 
L 276.843323 282.910868 
L 277.492957 282.891793 
L 277.980183 283.135352 
L 278.792225 283.231046 
L 279.279451 283.349197 
L 279.929085 283.420166 
L 280.578718 283.538084 
L 281.228352 283.629334 
L 282.365212 283.78576 
L 285.938198 284.272211 
L 286.750241 284.244194 
L 287.075058 284.002985 
L 287.399874 283.239631 
L 287.724691 281.432701 
L 288.211917 277.698551 
L 288.374325 277.29522 
L 288.536734 277.507951 
L 288.699142 278.738113 
L 289.023959 282.727339 
L 289.186368 283.441269 
L 289.511185 282.205655 
L 289.673593 282.245458 
L 289.99841 283.433971 
L 290.323227 283.458654 
L 290.810452 284.156585 
L 291.135269 283.854364 
L 291.622495 284.70895 
L 291.947312 284.356625 
L 292.10972 284.464011 
L 292.434537 284.876822 
L 293.408988 284.989753 
L 293.896214 285.159453 
L 294.221031 285.083388 
L 295.033073 285.304541 
L 295.35789 285.313606 
L 296.007524 285.467553 
L 296.981975 285.594855 
L 301.529412 286.05801 
L 301.854229 285.962387 
L 302.179046 285.625615 
L 302.341454 285.278673 
L 302.666271 283.755184 
L 303.315905 277.734051 
L 303.478314 277.454324 
L 303.640722 278.790893 
L 304.127948 285.036724 
L 304.290356 284.985255 
L 304.615173 283.328503 
L 304.777582 283.52223 
L 305.102398 285.346894 
L 305.264807 285.517989 
L 305.589624 285.111713 
L 306.076849 285.845346 
L 306.239258 285.724036 
L 306.401666 285.771659 
L 306.726483 286.330508 
L 306.888892 286.310289 
L 307.213709 286.083702 
L 307.700934 286.664849 
L 308.025751 286.414892 
L 308.18816 286.473717 
L 308.512976 286.80642 
L 309.974653 286.946366 
L 312.248371 287.281918 
L 314.359682 287.50296 
L 317.932668 287.849729 
L 318.257485 287.759458 
L 318.419894 287.627518 
L 318.744711 286.835828 
L 319.069527 284.251534 
L 319.556753 276.089642 
L 320.043978 278.828612 
L 320.368795 282.348236 
L 320.531204 285.514257 
L 320.693612 286.227023 
L 321.018429 283.448064 
L 321.505655 286.263654 
L 321.668063 285.614888 
L 321.99288 287.277237 
L 322.155289 287.047825 
L 322.317697 286.232213 
L 322.480106 286.488638 
L 322.642514 287.683332 
L 322.804922 288.041273 
L 323.129739 287.062055 
L 323.454556 287.97195 
L 324.429007 288.072342 
L 324.591416 288.384832 
L 324.753824 288.445488 
L 325.078641 288.086932 
L 325.403458 288.563782 
L 325.565867 288.544065 
L 325.890684 288.406717 
L 326.2155 288.608185 
L 326.702726 288.638087 
L 327.677177 288.772131 
L 329.788487 289.030566 
L 336.122418 289.699281 
L 337.096868 289.703229 
L 337.421685 289.552505 
L 337.746502 289.040722 
L 338.071319 287.459745 
L 338.396136 283.167424 
L 338.883362 271.689568 
L 339.04577 272.723548 
L 339.532996 289.597241 
L 340.020221 281.82233 
L 340.345038 289.262724 
L 340.507446 288.712334 
L 340.669855 286.130748 
L 340.832263 285.484179 
L 341.15708 289.713627 
L 341.319489 288.997199 
L 341.481897 287.513903 
L 341.644306 287.675165 
L 341.969123 290.03996 
L 342.29394 288.41893 
L 342.456348 289.009798 
L 342.618757 290.074433 
L 342.781165 290.132494 
L 342.943574 289.392371 
L 343.105982 289.18073 
L 343.430799 290.349431 
L 343.593208 290.182475 
L 343.755616 289.731971 
L 343.918024 289.760627 
L 344.242841 290.44443 
L 344.567658 290.048685 
L 344.730067 290.150502 
L 345.054884 290.513868 
L 345.379701 290.298331 
L 345.866926 290.598757 
L 346.191743 290.486576 
L 346.841377 290.656431 
L 347.166194 290.68031 
L 347.653419 290.772634 
L 348.140645 290.83291 
L 349.439913 290.973566 
L 353.500125 291.412745 
L 358.697196 291.879521 
L 359.022013 291.709444 
L 359.184421 291.492396 
L 359.509238 290.268283 
L 359.834055 286.936186 
L 359.996464 283.421614 
L 360.158872 283.608754 
L 360.321281 283.367466 
L 360.646098 291.575216 
L 360.808506 291.192792 
L 361.133323 286.994442 
L 361.45814 291.554684 
L 361.620548 291.930166 
L 361.945365 289.116986 
L 362.270182 291.93072 
L 362.432591 292.064323 
L 362.757408 290.557816 
L 363.082225 292.26636 
L 363.244633 292.058359 
L 363.407042 291.452006 
L 363.56945 291.344348 
L 363.894267 292.392322 
L 364.219084 291.828827 
L 364.381493 291.891857 
L 364.70631 292.439967 
L 365.031126 292.042247 
L 365.193535 292.113282 
L 365.355943 292.320451 
L 365.518352 292.343075 
L 366.005577 291.832607 
L 366.167986 291.734343 
L 366.330394 291.439095 
L 366.81762 289.402558 
L 367.467254 286.619198 
L 367.629662 287.053488 
L 368.441704 291.691358 
L 368.766521 291.970949 
L 368.92893 291.947797 
L 369.578564 291.443798 
L 369.740972 291.701742 
L 370.228198 292.980434 
L 370.390606 292.980352 
L 370.877832 292.337283 
L 371.202649 292.58575 
L 371.527466 292.941404 
L 372.177099 293.104655 
L 372.664325 293.099489 
L 373.15155 293.056161 
L 374.28841 293.379286 
L 375.587677 293.507477 
L 376.562128 293.47677 
L 377.049354 293.224002 
L 377.374171 292.750751 
L 377.698988 291.650148 
L 378.023805 289.278603 
L 378.673439 281.479423 
L 378.835847 281.994421 
L 378.998255 284.289521 
L 379.323072 292.371108 
L 379.485481 293.792333 
L 379.647889 292.552217 
L 379.972706 289.029622 
L 380.135115 289.515302 
L 380.459932 293.310342 
L 380.62234 293.774123 
L 381.109566 291.673742 
L 381.596791 293.858479 
L 381.7592 293.688868 
L 382.084017 292.93769 
L 382.246425 293.134764 
L 382.571242 293.906423 
L 382.73365 293.967213 
L 383.058467 293.688702 
L 383.220876 293.691738 
L 383.708101 294.084183 
L 391.016483 294.964939 
L 392.315751 295.011398 
L 392.640568 294.874714 
L 392.965385 294.364473 
L 393.290201 292.716295 
L 393.615018 288.629925 
L 393.777427 284.331882 
L 393.939835 284.512736 
L 394.102244 283.48743 
L 394.427061 293.469766 
L 394.589469 294.266013 
L 394.914286 289.190696 
L 395.076695 290.539771 
L 395.401512 294.837819 
L 395.56392 293.873787 
L 395.726329 291.830154 
L 395.888737 292.007258 
L 396.213554 295.188616 
L 396.375963 294.881698 
L 396.538371 293.595031 
L 396.700779 293.445746 
L 397.025596 295.271433 
L 397.188005 295.144391 
L 397.350413 294.425312 
L 397.512822 294.394914 
L 397.837639 295.488 
L 398.000047 295.35522 
L 398.162456 294.893356 
L 398.324864 294.841351 
L 398.487273 295.176672 
L 398.487273 295.176672 
" clip-path="url(#p3b01563dec)" style="fill: none; stroke: #2ca02c; stroke-width: 1.5; stroke-linecap: square"/>
   </g>
   <g id="patch_3">
    <path d="M 57.6 307.584 
L 57.6 41.472 
" style="fill: none; stroke: #000000; stroke-width: 0.8; stroke-linejoin: miter; stroke-linecap: square"/>
   </g>
   <g id="patch_4">
    <path d="M 414.72 307.584 
L 414.72 41.472 
" style="fill: none; stroke: #000000; stroke-width: 0.8; stroke-linejoin: miter; stroke-linecap: square"/>
   </g>
   <g id="patch_5">
    <path d="M 57.6 307.584 
L 414.72 307.584 
" style="fill: none; stroke: #000000; stroke-width: 0.8; stroke-linejoin: miter; stroke-linecap: square"/>
   </g>
   <g id="patch_6">
    <path d="M 57.6 41.472 
L 414.72 41.472 
" style="fill: none; stroke: #000000; stroke-width: 0.8; stroke-linejoin: miter; stroke-linecap: square"/>
   </g>
   <g id="legend_1">
    <g id="patch_7">
     <path d="M 348.0075 93.506375 
L 407.72 93.506375 
Q 409.72 93.506375 409.72 91.506375 
L 409.72 48.472 
Q 409.72 46.472 407.72 46.472 
L 348.0075 46.472 
Q 346.0075 46.472 346.0075 48.472 
L 346.0075 91.506375 
Q 346.0075 93.506375 348.0075 93.506375 
z
" style="fill: #ffffff; opacity: 0.8; stroke: #cccccc; stroke-linejoin: miter"/>
    </g>
    <g id="line2d_30">
     <path d="M 350.0075 54.570438 
L 360.0075 54.570438 
L 370.0075 54.570438 
" style="fill: none; stroke: #1f77b4; stroke-width: 1.5; stroke-linecap: square"/>
    </g>
    <g id="text_12">
     <!-- LHS -->
     <g transform="translate(378.0075 58.070438)scale(0.1 -0.1)">
      <defs>
       <path id="DejaVuSans-4c" d="M 628 4666 
L 1259 4666 
L 1259 531 
L 3531 531 
L 3531 0 
L 628 0 
L 628 4666 
z
" transform="scale(0.015625)"/>
       <path id="DejaVuSans-48" d="M 628 4666 
L 1259 4666 
L 1259 2753 
L 3553 2753 
L 3553 4666 
L 4184 4666 
L 4184 0 
L 3553 0 
L 3553 2222 
L 1259 2222 
L 1259 0 
L 628 0 
L 628 4666 
z
" transform="scale(0.015625)"/>
       <path id="DejaVuSans-53" d="M 3425 4513 
L 3425 3897 
Q 3066 4069 2747 4153 
Q 2428 4238 2131 4238 
Q 1616 4238 1336 4038 
Q 1056 3838 1056 3469 
Q 1056 3159 1242 3001 
Q 1428 2844 1947 2747 
L 2328 2669 
Q 3034 2534 3370 2195 
Q 3706 1856 3706 1288 
Q 3706 609 3251 259 
Q 2797 -91 1919 -91 
Q 1588 -91 1214 -16 
Q 841 59 441 206 
L 441 856 
Q 825 641 1194 531 
Q 1563 422 1919 422 
Q 2459 422 2753 634 
Q 3047 847 3047 1241 
Q 3047 1584 2836 1778 
Q 2625 1972 2144 2069 
L 1759 2144 
Q 1053 2284 737 2584 
Q 422 2884 422 3419 
Q 422 4038 858 4394 
Q 1294 4750 2059 4750 
Q 2388 4750 2728 4690 
Q 3069 4631 3425 4513 
z
" transform="scale(0.015625)"/>
      </defs>
      <use xlink:href="#DejaVuSans-4c"/>
      <use xlink:href="#DejaVuSans-48" x="55.712891"/>
      <use xlink:href="#DejaVuSans-53" x="130.908203"/>
     </g>
    </g>
    <g id="line2d_31">
     <path d="M 350.0075 69.248563 
L 360.0075 69.248563 
L 370.0075 69.248563 
" style="fill: none; stroke: #ff7f0e; stroke-width: 1.5; stroke-linecap: square"/>
    </g>
    <g id="text_13">
     <!-- Grid -->
     <g transform="translate(378.0075 72.748563)scale(0.1 -0.1)">
      <defs>
       <path id="DejaVuSans-47" d="M 3809 666 
L 3809 1919 
L 2778 1919 
L 2778 2438 
L 4434 2438 
L 4434 434 
Q 4069 175 3628 42 
Q 3188 -91 2688 -91 
Q 1594 -91 976 548 
Q 359 1188 359 2328 
Q 359 3472 976 4111 
Q 1594 4750 2688 4750 
Q 3144 4750 3555 4637 
Q 3966 4525 4313 4306 
L 4313 3634 
Q 3963 3931 3569 4081 
Q 3175 4231 2741 4231 
Q 1884 4231 1454 3753 
Q 1025 3275 1025 2328 
Q 1025 1384 1454 906 
Q 1884 428 2741 428 
Q 3075 428 3337 486 
Q 3600 544 3809 666 
z
" transform="scale(0.015625)"/>
       <path id="DejaVuSans-72" d="M 2631 2963 
Q 2534 3019 2420 3045 
Q 2306 3072 2169 3072 
Q 1681 3072 1420 2755 
Q 1159 2438 1159 1844 
L 1159 0 
L 581 0 
L 581 3500 
L 1159 3500 
L 1159 2956 
Q 1341 3275 1631 3429 
Q 1922 3584 2338 3584 
Q 2397 3584 2469 3576 
Q 2541 3569 2628 3553 
L 2631 2963 
z
" transform="scale(0.015625)"/>
       <path id="DejaVuSans-69" d="M 603 3500 
L 1178 3500 
L 1178 0 
L 603 0 
L 603 3500 
z
M 603 4863 
L 1178 4863 
L 1178 4134 
L 603 4134 
L 603 4863 
z
" transform="scale(0.015625)"/>
       <path id="DejaVuSans-64" d="M 2906 2969 
L 2906 4863 
L 3481 4863 
L 3481 0 
L 2906 0 
L 2906 525 
Q 2725 213 2448 61 
Q 2172 -91 1784 -91 
Q 1150 -91 751 415 
Q 353 922 353 1747 
Q 353 2572 751 3078 
Q 1150 3584 1784 3584 
Q 2172 3584 2448 3432 
Q 2725 3281 2906 2969 
z
M 947 1747 
Q 947 1113 1208 752 
Q 1469 391 1925 391 
Q 2381 391 2643 752 
Q 2906 1113 2906 1747 
Q 2906 2381 2643 2742 
Q 2381 3103 1925 3103 
Q 1469 3103 1208 2742 
Q 947 2381 947 1747 
z
" transform="scale(0.015625)"/>
      </defs>
      <use xlink:href="#DejaVuSans-47"/>
      <use xlink:href="#DejaVuSans-72" x="77.490234"/>
      <use xlink:href="#DejaVuSans-69" x="118.603516"/>
      <use xlink:href="#DejaVuSans-64" x="146.386719"/>
     </g>
    </g>
    <g id="line2d_32">
     <path d="M 350.0075 83.926688 
L 360.0075 83.926688 
L 370.0075 83.926688 
" style="fill: none; stroke: #2ca02c; stroke-width: 1.5; stroke-linecap: square"/>
    </g>
    <g id="text_14">
     <!-- Sobol -->
     <g transform="translate(378.0075 87.426688)scale(0.1 -0.1)">
      <defs>
       <path id="DejaVuSans-6f" d="M 1959 3097 
Q 1497 3097 1228 2736 
Q 959 2375 959 1747 
Q 959 1119 1226 758 
Q 1494 397 1959 397 
Q 2419 397 2687 759 
Q 2956 1122 2956 1747 
Q 2956 2369 2687 2733 
Q 2419 3097 1959 3097 
z
M 1959 3584 
Q 2709 3584 3137 3096 
Q 3566 2609 3566 1747 
Q 3566 888 3137 398 
Q 2709 -91 1959 -91 
Q 1206 -91 779 398 
Q 353 888 353 1747 
Q 353 2609 779 3096 
Q 1206 3584 1959 3584 
z
" transform="scale(0.015625)"/>
       <path id="DejaVuSans-62" d="M 3116 1747 
Q 3116 2381 2855 2742 
Q 2594 3103 2138 3103 
Q 1681 3103 1420 2742 
Q 1159 2381 1159 1747 
Q 1159 1113 1420 752 
Q 1681 391 2138 391 
Q 2594 391 2855 752 
Q 3116 1113 3116 1747 
z
M 1159 2969 
Q 1341 3281 1617 3432 
Q 1894 3584 2278 3584 
Q 2916 3584 3314 3078 
Q 3713 2572 3713 1747 
Q 3713 922 3314 415 
Q 2916 -91 2278 -91 
Q 1894 -91 1617 61 
Q 1341 213 1159 525 
L 1159 0 
L 581 0 
L 581 4863 
L 1159 4863 
L 1159 2969 
z
" transform="scale(0.015625)"/>
       <path id="DejaVuSans-6c" d="M 603 4863 
L 1178 4863 
L 1178 0 
L 603 0 
L 603 4863 
z
" transform="scale(0.015625)"/>
      </defs>
      <use xlink:href="#DejaVuSans-53"/>
      <use xlink:href="#DejaVuSans-6f" x="63.476562"/>
      <use xlink:href="#DejaVuSans-62" x="124.658203"/>
      <use xlink:href="#DejaVuSans-6f" x="188.134766"/>
      <use xlink:href="#DejaVuSans-6c" x="249.316406"/>
     </g>
    </g>
   </g>
  </g>
 </g>
 <defs>
  <clipPath id="p3b01563dec">
   <rect x="57.6" y="41.472" width="357.12" height="266.112"/>
  </clipPath>
 </defs>
</svg>
