<?xml version="1.0" encoding="utf-8" standalone="no"?>
<!DOCTYPE svg PUBLIC "-//W3C//DTD SVG 1.1//EN"
  "http://www.w3.org/Graphics/SVG/1.1/DTD/svg11.dtd">
<svg xmlns:xlink="http://www.w3.org/1999/xlink" width="460.8pt" height="345.6pt" viewBox="0 0 460.8 345.6" xmlns="http://www.w3.org/2000/svg" version="1.1">
 <metadata>
  <rdf:RDF xmlns:dc="http://purl.org/dc/elements/1.1/" xmlns:cc="http://creativecommons.org/ns#" xmlns:rdf="http://www.w3.org/1999/02/22-rdf-syntax-ns#">
   <cc:Work>
    <dc:type rdf:resource="http://purl.org/dc/dcmitype/StillImage"/>
    <dc:date>2024-06-19T08:47:40.527801</dc:date>
    <dc:format>image/svg+xml</dc:format>
    <dc:creator>
     <cc:Agent>
      <dc:title>Matplotlib v3.5.3, https://matplotlib.org/</dc:title>
     </cc:Agent>
    </dc:creator>
   </cc:Work>
  </rdf:RDF>
 </metadata>
 <defs>
  <style type="text/css">*{stroke-linejoin: round; stroke-linecap: butt}</style>
 </defs>
 <g id="figure_1">
  <g id="patch_1">
   <path d="M 0 345.6 
L 460.8 345.6 
L 460.8 0 
L 0 0 
z
" style="fill: #ffffff"/>
  </g>
  <g id="axes_1">
   <g id="patch_2">
    <path d="M 57.6 307.584 
L 414.72 307.584 
L 414.72 41.472 
L 57.6 41.472 
z
" style="fill: #ffffff"/>
   </g>
   <g id="matplotlib.axis_1">
    <g id="xtick_1">
     <g id="line2d_1">
      <defs>
       <path id="m46a2612657" d="M 0 0 
L 0 3.5 
" style="stroke: #000000; stroke-width: 0.8"/>
      </defs>
      <g>
       <use xlink:href="#m46a2612657" x="73.670319" y="307.584" style="stroke: #000000; stroke-width: 0.8"/>
      </g>
     </g>
     <g id="text_1">
      <!-- 0 -->
      <g transform="translate(70.489069 322.182437)scale(0.1 -0.1)">
       <defs>
        <path id="DejaVuSans-30" d="M 2034 4250 
Q 1547 4250 1301 3770 
Q 1056 3291 1056 2328 
Q 1056 1369 1301 889 
Q 1547 409 2034 409 
Q 2525 409 2770 889 
Q 3016 1369 3016 2328 
Q 3016 3291 2770 3770 
Q 2525 4250 2034 4250 
z
M 2034 4750 
Q 2819 4750 3233 4129 
Q 3647 3509 3647 2328 
Q 3647 1150 3233 529 
Q 2819 -91 2034 -91 
Q 1250 -91 836 529 
Q 422 1150 422 2328 
Q 422 3509 836 4129 
Q 1250 4750 2034 4750 
z
" transform="scale(0.015625)"/>
       </defs>
       <use xlink:href="#DejaVuSans-30"/>
      </g>
     </g>
    </g>
    <g id="xtick_2">
     <g id="line2d_2">
      <g>
       <use xlink:href="#m46a2612657" x="114.272438" y="307.584" style="stroke: #000000; stroke-width: 0.8"/>
      </g>
     </g>
     <g id="text_2">
      <!-- 250 -->
      <g transform="translate(104.728688 322.182437)scale(0.1 -0.1)">
       <defs>
        <path id="DejaVuSans-32" d="M 1228 531 
L 3431 531 
L 3431 0 
L 469 0 
L 469 531 
Q 828 903 1448 1529 
Q 2069 2156 2228 2338 
Q 2531 2678 2651 2914 
Q 2772 3150 2772 3378 
Q 2772 3750 2511 3984 
Q 2250 4219 1831 4219 
Q 1534 4219 1204 4116 
Q 875 4013 500 3803 
L 500 4441 
Q 881 4594 1212 4672 
Q 1544 4750 1819 4750 
Q 2544 4750 2975 4387 
Q 3406 4025 3406 3419 
Q 3406 3131 3298 2873 
Q 3191 2616 2906 2266 
Q 2828 2175 2409 1742 
Q 1991 1309 1228 531 
z
" transform="scale(0.015625)"/>
        <path id="DejaVuSans-35" d="M 691 4666 
L 3169 4666 
L 3169 4134 
L 1269 4134 
L 1269 2991 
Q 1406 3038 1543 3061 
Q 1681 3084 1819 3084 
Q 2600 3084 3056 2656 
Q 3513 2228 3513 1497 
Q 3513 744 3044 326 
Q 2575 -91 1722 -91 
Q 1428 -91 1123 -41 
Q 819 9 494 109 
L 494 744 
Q 775 591 1075 516 
Q 1375 441 1709 441 
Q 2250 441 2565 725 
Q 2881 1009 2881 1497 
Q 2881 1984 2565 2268 
Q 2250 2553 1709 2553 
Q 1456 2553 1204 2497 
Q 953 2441 691 2322 
L 691 4666 
z
" transform="scale(0.015625)"/>
       </defs>
       <use xlink:href="#DejaVuSans-32"/>
       <use xlink:href="#DejaVuSans-35" x="63.623047"/>
       <use xlink:href="#DejaVuSans-30" x="127.246094"/>
      </g>
     </g>
    </g>
    <g id="xtick_3">
     <g id="line2d_3">
      <g>
       <use xlink:href="#m46a2612657" x="154.874557" y="307.584" style="stroke: #000000; stroke-width: 0.8"/>
      </g>
     </g>
     <g id="text_3">
      <!-- 500 -->
      <g transform="translate(145.330807 322.182437)scale(0.1 -0.1)">
       <use xlink:href="#DejaVuSans-35"/>
       <use xlink:href="#DejaVuSans-30" x="63.623047"/>
       <use xlink:href="#DejaVuSans-30" x="127.246094"/>
      </g>
     </g>
    </g>
    <g id="xtick_4">
     <g id="line2d_4">
      <g>
       <use xlink:href="#m46a2612657" x="195.476677" y="307.584" style="stroke: #000000; stroke-width: 0.8"/>
      </g>
     </g>
     <g id="text_4">
      <!-- 750 -->
      <g transform="translate(185.932927 322.182437)scale(0.1 -0.1)">
       <defs>
        <path id="DejaVuSans-37" d="M 525 4666 
L 3525 4666 
L 3525 4397 
L 1831 0 
L 1172 0 
L 2766 4134 
L 525 4134 
L 525 4666 
z
" transform="scale(0.015625)"/>
       </defs>
       <use xlink:href="#DejaVuSans-37"/>
       <use xlink:href="#DejaVuSans-35" x="63.623047"/>
       <use xlink:href="#DejaVuSans-30" x="127.246094"/>
      </g>
     </g>
    </g>
    <g id="xtick_5">
     <g id="line2d_5">
      <g>
       <use xlink:href="#m46a2612657" x="236.078796" y="307.584" style="stroke: #000000; stroke-width: 0.8"/>
      </g>
     </g>
     <g id="text_5">
      <!-- 1000 -->
      <g transform="translate(223.353796 322.182437)scale(0.1 -0.1)">
       <defs>
        <path id="DejaVuSans-31" d="M 794 531 
L 1825 531 
L 1825 4091 
L 703 3866 
L 703 4441 
L 1819 4666 
L 2450 4666 
L 2450 531 
L 3481 531 
L 3481 0 
L 794 0 
L 794 531 
z
" transform="scale(0.015625)"/>
       </defs>
       <use xlink:href="#DejaVuSans-31"/>
       <use xlink:href="#DejaVuSans-30" x="63.623047"/>
       <use xlink:href="#DejaVuSans-30" x="127.246094"/>
       <use xlink:href="#DejaVuSans-30" x="190.869141"/>
      </g>
     </g>
    </g>
    <g id="xtick_6">
     <g id="line2d_6">
      <g>
       <use xlink:href="#m46a2612657" x="276.680915" y="307.584" style="stroke: #000000; stroke-width: 0.8"/>
      </g>
     </g>
     <g id="text_6">
      <!-- 1250 -->
      <g transform="translate(263.955915 322.182437)scale(0.1 -0.1)">
       <use xlink:href="#DejaVuSans-31"/>
       <use xlink:href="#DejaVuSans-32" x="63.623047"/>
       <use xlink:href="#DejaVuSans-35" x="127.246094"/>
       <use xlink:href="#DejaVuSans-30" x="190.869141"/>
      </g>
     </g>
    </g>
    <g id="xtick_7">
     <g id="line2d_7">
      <g>
       <use xlink:href="#m46a2612657" x="317.283034" y="307.584" style="stroke: #000000; stroke-width: 0.8"/>
      </g>
     </g>
     <g id="text_7">
      <!-- 1500 -->
      <g transform="translate(304.558034 322.182437)scale(0.1 -0.1)">
       <use xlink:href="#DejaVuSans-31"/>
       <use xlink:href="#DejaVuSans-35" x="63.623047"/>
       <use xlink:href="#DejaVuSans-30" x="127.246094"/>
       <use xlink:href="#DejaVuSans-30" x="190.869141"/>
      </g>
     </g>
    </g>
    <g id="xtick_8">
     <g id="line2d_8">
      <g>
       <use xlink:href="#m46a2612657" x="357.885153" y="307.584" style="stroke: #000000; stroke-width: 0.8"/>
      </g>
     </g>
     <g id="text_8">
      <!-- 1750 -->
      <g transform="translate(345.160153 322.182437)scale(0.1 -0.1)">
       <use xlink:href="#DejaVuSans-31"/>
       <use xlink:href="#DejaVuSans-37" x="63.623047"/>
       <use xlink:href="#DejaVuSans-35" x="127.246094"/>
       <use xlink:href="#DejaVuSans-30" x="190.869141"/>
      </g>
     </g>
    </g>
    <g id="xtick_9">
     <g id="line2d_9">
      <g>
       <use xlink:href="#m46a2612657" x="398.487273" y="307.584" style="stroke: #000000; stroke-width: 0.8"/>
      </g>
     </g>
     <g id="text_9">
      <!-- 2000 -->
      <g transform="translate(385.762273 322.182437)scale(0.1 -0.1)">
       <use xlink:href="#DejaVuSans-32"/>
       <use xlink:href="#DejaVuSans-30" x="63.623047"/>
       <use xlink:href="#DejaVuSans-30" x="127.246094"/>
       <use xlink:href="#DejaVuSans-30" x="190.869141"/>
      </g>
     </g>
    </g>
   </g>
   <g id="matplotlib.axis_2">
    <g id="ytick_1">
     <g id="line2d_10">
      <defs>
       <path id="m3c5ec3a708" d="M 0 0 
L -3.5 0 
" style="stroke: #000000; stroke-width: 0.8"/>
      </defs>
      <g>
       <use xlink:href="#m3c5ec3a708" x="57.6" y="221.798663" style="stroke: #000000; stroke-width: 0.8"/>
      </g>
     </g>
     <g id="text_10">
      <!-- $\mathdefault{10^{-1}}$ -->
      <g transform="translate(27.1 225.597882)scale(0.1 -0.1)">
       <defs>
        <path id="DejaVuSans-2212" d="M 678 2272 
L 4684 2272 
L 4684 1741 
L 678 1741 
L 678 2272 
z
" transform="scale(0.015625)"/>
       </defs>
       <use xlink:href="#DejaVuSans-31" transform="translate(0 0.684375)"/>
       <use xlink:href="#DejaVuSans-30" transform="translate(63.623047 0.684375)"/>
       <use xlink:href="#DejaVuSans-2212" transform="translate(128.203125 38.965625)scale(0.7)"/>
       <use xlink:href="#DejaVuSans-31" transform="translate(186.855469 38.965625)scale(0.7)"/>
      </g>
     </g>
    </g>
    <g id="ytick_2">
     <g id="line2d_11">
      <g>
       <use xlink:href="#m3c5ec3a708" x="57.6" y="52.763825" style="stroke: #000000; stroke-width: 0.8"/>
      </g>
     </g>
     <g id="text_11">
      <!-- $\mathdefault{10^{0}}$ -->
      <g transform="translate(33 56.563044)scale(0.1 -0.1)">
       <use xlink:href="#DejaVuSans-31" transform="translate(0 0.765625)"/>
       <use xlink:href="#DejaVuSans-30" transform="translate(63.623047 0.765625)"/>
       <use xlink:href="#DejaVuSans-30" transform="translate(128.203125 39.046875)scale(0.7)"/>
      </g>
     </g>
    </g>
    <g id="ytick_3">
     <g id="line2d_12">
      <defs>
       <path id="m1cb3f8ac26" d="M 0 0 
L -2 0 
" style="stroke: #000000; stroke-width: 0.6"/>
      </defs>
      <g>
       <use xlink:href="#m1cb3f8ac26" x="57.6" y="289.064388" style="stroke: #000000; stroke-width: 0.6"/>
      </g>
     </g>
    </g>
    <g id="ytick_4">
     <g id="line2d_13">
      <g>
       <use xlink:href="#m1cb3f8ac26" x="57.6" y="272.68322" style="stroke: #000000; stroke-width: 0.6"/>
      </g>
     </g>
    </g>
    <g id="ytick_5">
     <g id="line2d_14">
      <g>
       <use xlink:href="#m1cb3f8ac26" x="57.6" y="259.298831" style="stroke: #000000; stroke-width: 0.6"/>
      </g>
     </g>
    </g>
    <g id="ytick_6">
     <g id="line2d_15">
      <g>
       <use xlink:href="#m1cb3f8ac26" x="57.6" y="247.982491" style="stroke: #000000; stroke-width: 0.6"/>
      </g>
     </g>
    </g>
    <g id="ytick_7">
     <g id="line2d_16">
      <g>
       <use xlink:href="#m1cb3f8ac26" x="57.6" y="238.179831" style="stroke: #000000; stroke-width: 0.6"/>
      </g>
     </g>
    </g>
    <g id="ytick_8">
     <g id="line2d_17">
      <g>
       <use xlink:href="#m1cb3f8ac26" x="57.6" y="229.533273" style="stroke: #000000; stroke-width: 0.6"/>
      </g>
     </g>
    </g>
    <g id="ytick_9">
     <g id="line2d_18">
      <g>
       <use xlink:href="#m1cb3f8ac26" x="57.6" y="170.914107" style="stroke: #000000; stroke-width: 0.6"/>
      </g>
     </g>
    </g>
    <g id="ytick_10">
     <g id="line2d_19">
      <g>
       <use xlink:href="#m1cb3f8ac26" x="57.6" y="141.148549" style="stroke: #000000; stroke-width: 0.6"/>
      </g>
     </g>
    </g>
    <g id="ytick_11">
     <g id="line2d_20">
      <g>
       <use xlink:href="#m1cb3f8ac26" x="57.6" y="120.02955" style="stroke: #000000; stroke-width: 0.6"/>
      </g>
     </g>
    </g>
    <g id="ytick_12">
     <g id="line2d_21">
      <g>
       <use xlink:href="#m1cb3f8ac26" x="57.6" y="103.648382" style="stroke: #000000; stroke-width: 0.6"/>
      </g>
     </g>
    </g>
    <g id="ytick_13">
     <g id="line2d_22">
      <g>
       <use xlink:href="#m1cb3f8ac26" x="57.6" y="90.263992" style="stroke: #000000; stroke-width: 0.6"/>
      </g>
     </g>
    </g>
    <g id="ytick_14">
     <g id="line2d_23">
      <g>
       <use xlink:href="#m1cb3f8ac26" x="57.6" y="78.947653" style="stroke: #000000; stroke-width: 0.6"/>
      </g>
     </g>
    </g>
    <g id="ytick_15">
     <g id="line2d_24">
      <g>
       <use xlink:href="#m1cb3f8ac26" x="57.6" y="69.144993" style="stroke: #000000; stroke-width: 0.6"/>
      </g>
     </g>
    </g>
    <g id="ytick_16">
     <g id="line2d_25">
      <g>
       <use xlink:href="#m1cb3f8ac26" x="57.6" y="60.498435" style="stroke: #000000; stroke-width: 0.6"/>
      </g>
     </g>
    </g>
   </g>
   <g id="line2d_26">
    <path d="M 73.832727 64.377144 
L 74.64477 124.424828 
L 75.131995 132.395981 
L 75.294404 131.858514 
L 75.456812 136.571084 
L 75.781629 152.923809 
L 75.944037 154.448502 
L 76.106446 153.444919 
L 76.268854 154.202884 
L 76.593671 158.697905 
L 76.75608 159.307557 
L 76.918488 160.752149 
L 77.405714 171.651154 
L 77.568122 171.808031 
L 77.730531 172.208767 
L 78.704982 183.104384 
L 79.192207 185.927397 
L 79.679432 191.675313 
L 81.141109 199.18267 
L 81.465926 200.234077 
L 83.09001 205.845971 
L 86.013363 212.779908 
L 87.799856 216.03841 
L 89.423941 218.38686 
L 91.210434 220.533577 
L 94.458604 223.993063 
L 98.518816 228.425867 
L 102.741436 233.41326 
L 107.938507 239.522015 
L 110.699452 242.404417 
L 113.297987 244.794139 
L 116.22134 247.165428 
L 119.956735 249.89123 
L 124.991398 253.293111 
L 128.401976 255.350887 
L 131.325328 256.8554 
L 134.411089 258.192613 
L 137.821667 259.427963 
L 142.044288 260.710594 
L 144.480415 261.295331 
L 144.642823 261.210976 
L 144.805232 260.915388 
L 144.96764 260.132498 
L 145.454866 255.385579 
L 145.942091 261.524619 
L 146.266908 258.38284 
L 146.591725 261.835903 
L 146.916542 259.829518 
L 147.07895 260.534009 
L 147.241359 261.908954 
L 147.403767 261.659517 
L 147.566176 260.746241 
L 147.728584 261.09551 
L 147.890993 262.049051 
L 148.053401 261.98221 
L 148.21581 261.3732 
L 148.378218 261.549204 
L 148.540627 262.212808 
L 148.703035 262.219974 
L 148.865444 261.810905 
L 149.027852 261.914834 
L 149.190261 262.369601 
L 149.352669 262.418874 
L 149.515078 262.159739 
L 149.677486 262.200535 
L 150.002303 262.600162 
L 150.164711 262.439403 
L 150.32712 262.442277 
L 150.651937 262.760041 
L 150.976754 262.655926 
L 151.301571 262.90468 
L 151.788796 262.929061 
L 152.113613 263.061112 
L 152.43843 263.075262 
L 152.925656 263.220745 
L 153.412881 263.34511 
L 167.055193 266.116833 
L 167.704827 266.149116 
L 168.029644 265.942227 
L 168.192052 265.638795 
L 168.354461 265.043307 
L 168.679278 262.166398 
L 169.004095 257.55746 
L 169.166503 257.53281 
L 169.653729 266.562622 
L 169.978546 262.123456 
L 170.140954 262.949782 
L 170.465771 266.738994 
L 170.790588 264.063574 
L 171.115405 266.729819 
L 171.277813 266.61448 
L 171.440222 265.492596 
L 171.60263 265.43697 
L 171.927447 267.059545 
L 172.252264 266.035084 
L 172.577081 267.146385 
L 172.73949 267.062195 
L 172.901898 266.631482 
L 173.064307 266.686161 
L 173.389124 267.347519 
L 173.713941 266.972747 
L 174.038758 267.472005 
L 174.201166 267.445553 
L 174.363575 267.293255 
L 174.525983 267.332863 
L 174.8508 267.645446 
L 175.175617 267.53301 
L 175.825251 267.762914 
L 176.150068 267.845475 
L 176.474885 267.962326 
L 176.96211 268.037097 
L 177.449336 268.13982 
L 178.748603 268.436175 
L 183.133632 269.375631 
L 192.066099 271.188943 
L 192.228507 271.055285 
L 192.390915 270.760229 
L 192.553324 270.156707 
L 192.715732 268.971563 
L 193.040549 263.280341 
L 193.365366 255.294637 
L 193.527775 256.833289 
L 193.852592 271.119562 
L 194.015 269.880351 
L 194.177409 264.518877 
L 194.339817 263.859324 
L 194.664634 271.754224 
L 194.989451 266.723026 
L 195.314268 271.820403 
L 195.639085 268.763561 
L 195.963902 271.989491 
L 196.288719 269.992321 
L 196.613536 272.196841 
L 196.938353 270.850991 
L 197.26317 272.365465 
L 197.587987 271.470397 
L 197.912804 272.499192 
L 198.075212 272.027454 
L 198.237621 271.949511 
L 198.400029 272.475555 
L 198.562438 272.62022 
L 198.724846 272.302548 
L 198.887255 272.313639 
L 199.049663 272.679833 
L 199.212071 272.74337 
L 199.37448 272.54563 
L 199.536888 272.595649 
L 199.699297 272.844468 
L 199.861705 272.875319 
L 200.024114 272.758595 
L 201.810607 273.290838 
L 202.135424 273.30338 
L 202.62265 273.426356 
L 203.759509 273.670494 
L 217.726638 276.103878 
L 218.051455 275.896124 
L 218.213863 275.595486 
L 218.376272 275.013251 
L 218.701089 272.22853 
L 219.025906 267.910578 
L 219.188314 267.800964 
L 219.67554 275.098265 
L 220.000357 272.88897 
L 220.325173 275.887598 
L 220.487582 275.267899 
L 220.64999 273.860491 
L 220.812399 274.282171 
L 220.974807 276.097988 
L 221.137216 276.662041 
L 221.462033 275.167586 
L 221.78685 276.509404 
L 222.111667 275.865125 
L 222.436484 276.931148 
L 222.761301 276.225998 
L 223.086118 276.918527 
L 223.410935 276.67999 
L 223.735752 277.114481 
L 224.222977 276.966172 
L 224.547794 277.201204 
L 224.710202 277.135574 
L 225.847062 277.44257 
L 226.334287 277.516022 
L 226.983921 277.604859 
L 228.12078 277.80675 
L 232.505809 278.285642 
L 232.830626 278.092622 
L 233.155443 277.543928 
L 233.48026 276.144404 
L 233.805077 273.116781 
L 234.292303 267.924869 
L 234.454711 269.168465 
L 234.941936 278.764249 
L 235.104345 277.895275 
L 235.429162 274.234705 
L 235.59157 275.066675 
L 235.916387 278.830359 
L 236.078796 278.567509 
L 236.403613 276.544804 
L 236.566021 277.15801 
L 236.890838 279.067281 
L 237.053247 278.665882 
L 237.215655 277.946109 
L 237.378064 277.801102 
L 237.865289 279.162054 
L 238.190106 278.492992 
L 238.352514 278.599321 
L 238.677331 279.28805 
L 238.83974 279.251847 
L 239.164557 278.939197 
L 239.814191 279.390324 
L 240.139008 279.26347 
L 240.788642 279.550711 
L 241.113459 279.502739 
L 241.925501 279.69571 
L 242.412726 279.772772 
L 243.06236 279.865674 
L 245.011262 280.150816 
L 252.64446 281.098613 
L 252.969277 281.008335 
L 253.294094 280.660296 
L 253.78132 279.74326 
L 254.268545 280.598154 
L 254.430954 280.260837 
L 254.918179 277.409581 
L 255.242996 274.245119 
L 255.567813 271.225712 
L 255.730221 272.195597 
L 256.217447 280.329304 
L 256.704672 278.705573 
L 257.029489 279.650458 
L 257.191898 279.52788 
L 257.354306 279.645731 
L 257.679123 281.25099 
L 257.841532 281.23356 
L 258.166349 280.100285 
L 258.328757 280.528955 
L 258.653574 281.751578 
L 259.140799 281.136389 
L 259.465616 281.628575 
L 260.277659 281.80791 
L 260.602476 281.780868 
L 261.089701 282.091379 
L 261.576927 282.039743 
L 262.226561 282.21785 
L 263.688237 282.440881 
L 264.825096 282.568307 
L 268.560491 283.030259 
L 271.646252 283.300576 
L 272.133478 283.11011 
L 272.458295 282.650094 
L 272.783112 281.445308 
L 273.107929 278.674652 
L 273.757562 271.903139 
L 273.919971 273.84363 
L 274.407196 282.277814 
L 274.894422 279.891289 
L 275.381647 282.157599 
L 275.706464 281.873336 
L 276.031281 282.930532 
L 276.19369 283.009978 
L 276.518507 282.553565 
L 277.005732 283.574924 
L 277.492957 283.370788 
L 278.142591 283.810849 
L 278.467408 283.915024 
L 278.792225 283.83197 
L 279.117042 284.067906 
L 279.441859 284.177941 
L 279.766676 284.06795 
L 280.41631 284.302077 
L 280.741127 284.296055 
L 281.390761 284.416206 
L 281.877986 284.490995 
L 282.365212 284.565808 
L 283.177254 284.66421 
L 288.861551 285.225787 
L 289.348776 285.02619 
L 289.673593 284.527891 
L 289.99841 283.228815 
L 290.323227 280.511081 
L 290.648044 277.515824 
L 290.810452 277.511291 
L 291.135269 281.635767 
L 291.297678 283.436343 
L 291.460086 283.571847 
L 291.784903 282.51661 
L 292.272129 284.788256 
L 292.596946 283.379038 
L 292.759354 283.632344 
L 293.084171 285.634322 
L 293.24658 285.615748 
L 293.571397 284.688747 
L 294.058622 285.455265 
L 294.383439 285.192878 
L 294.870664 285.891255 
L 295.195481 285.549112 
L 295.35789 285.584522 
L 295.682707 285.946139 
L 297.306792 286.135471 
L 297.631609 286.190604 
L 298.443651 286.099617 
L 298.768468 285.750118 
L 299.58051 283.74005 
L 300.230144 286.501212 
L 300.392553 286.413843 
L 300.71737 285.506228 
L 300.879778 285.546629 
L 301.042187 285.827796 
L 301.367004 286.631407 
L 301.529412 286.586723 
L 301.854229 286.139735 
L 302.016637 286.196593 
L 302.503863 286.77258 
L 303.153497 286.574079 
L 303.640722 286.893101 
L 304.452765 286.872912 
L 304.93999 287.02634 
L 305.914441 287.090339 
L 306.564075 287.096176 
L 307.0513 286.847183 
L 307.376117 286.274338 
L 307.700934 284.645616 
L 308.025751 280.596393 
L 308.512976 270.777548 
L 308.675385 270.750639 
L 309.000202 281.778287 
L 309.16261 286.748768 
L 309.325019 286.220714 
L 309.649836 280.015915 
L 309.812244 281.562818 
L 310.137061 287.146379 
L 310.461878 283.815088 
L 310.624287 284.009443 
L 310.949104 287.267009 
L 311.111512 286.606754 
L 311.273921 285.472301 
L 311.436329 285.653168 
L 311.761146 287.499574 
L 312.085963 286.325747 
L 312.248371 286.601709 
L 312.573188 287.727003 
L 312.898005 286.893074 
L 313.060414 287.134038 
L 313.385231 287.855485 
L 313.710048 287.350357 
L 313.872456 287.507398 
L 314.197273 287.920863 
L 314.52209 287.667365 
L 315.009316 287.996325 
L 315.334133 287.874728 
L 315.821358 288.102049 
L 316.146175 288.024038 
L 316.958217 288.160631 
L 319.231936 288.400114 
L 319.719161 288.278117 
L 320.043978 287.985525 
L 320.368795 287.197964 
L 320.856021 284.590107 
L 321.180838 285.131114 
L 321.505655 288.0845 
L 321.668063 288.594681 
L 321.830472 288.217711 
L 322.155289 287.124256 
L 322.317697 287.215956 
L 322.642514 288.579391 
L 322.804922 288.691536 
L 323.292148 287.978175 
L 323.941782 288.782648 
L 324.266599 288.486978 
L 324.591416 288.699577 
L 324.916233 288.962317 
L 325.565867 288.830053 
L 326.2155 289.079542 
L 326.702726 289.02448 
L 327.514768 289.181846 
L 328.651628 288.970142 
L 328.976445 288.589722 
L 329.301262 287.792892 
L 330.113304 284.774635 
L 330.275712 285.329119 
L 330.762938 289.231702 
L 330.925346 289.490126 
L 331.412572 287.909313 
L 331.57498 288.053123 
L 332.062206 289.549964 
L 332.224614 289.482274 
L 332.549431 289.032092 
L 332.71184 289.057129 
L 333.199065 289.621609 
L 334.173516 289.742936 
L 335.797601 289.938976 
L 337.421685 289.971169 
L 337.746502 289.71089 
L 338.071319 288.879411 
L 338.396136 286.91722 
L 338.558545 284.961205 
L 338.720953 284.654166 
L 338.883362 283.760483 
L 339.370587 289.669056 
L 339.532996 289.594155 
L 339.857813 287.902832 
L 340.020221 287.943982 
L 340.345038 290.131267 
L 340.507446 290.088991 
L 340.832263 288.952869 
L 341.319489 290.320837 
L 341.481897 290.141396 
L 341.644306 289.71338 
L 341.806714 289.63326 
L 342.29394 290.615461 
L 342.781165 290.170444 
L 343.268391 290.700919 
L 343.755616 290.489367 
L 344.40525 290.733546 
L 344.730067 290.641687 
L 345.379701 290.810677 
L 346.51656 290.394485 
L 346.841377 289.88182 
L 347.166194 288.994037 
L 347.653419 286.649002 
L 347.978236 285.076403 
L 348.140645 284.886194 
L 348.303053 285.327898 
L 349.115096 290.85143 
L 349.277504 290.599102 
L 349.602321 289.761293 
L 349.76473 289.687532 
L 350.089547 290.266552 
L 350.414364 290.78486 
L 351.713631 291.223045 
L 352.200857 291.136176 
L 353.175308 291.612349 
L 353.824942 291.548734 
L 356.585886 291.982681 
L 358.047562 292.007578 
L 358.372379 291.892841 
L 358.697196 291.550969 
L 359.022013 290.66512 
L 359.34683 288.776955 
L 359.509238 286.93246 
L 359.671647 286.392348 
L 359.834055 285.05393 
L 360.483689 290.580485 
L 360.970915 288.035633 
L 361.620548 291.619024 
L 361.945365 290.458353 
L 362.107774 290.433259 
L 362.432591 291.86228 
L 362.594999 291.965289 
L 362.919816 291.348862 
L 363.082225 291.564847 
L 363.407042 292.488889 
L 363.56945 292.579046 
L 363.894267 292.171706 
L 364.056676 292.139759 
L 364.543901 292.594324 
L 365.031126 292.349707 
L 365.68076 292.64394 
L 366.167986 292.452823 
L 366.492803 292.412839 
L 366.81762 292.092763 
L 367.142437 291.412225 
L 367.467254 290.366211 
L 368.279296 287.254387 
L 368.441704 287.69896 
L 369.091338 292.098256 
L 369.253747 292.18257 
L 369.578564 291.547872 
L 369.740972 291.502525 
L 370.065789 292.366275 
L 370.390606 293.006828 
L 370.553015 292.850182 
L 370.877832 292.267437 
L 371.04024 292.235356 
L 371.365057 292.799614 
L 371.689874 293.265426 
L 372.014691 293.146547 
L 372.339508 293.062073 
L 372.989142 293.400598 
L 373.801184 293.319454 
L 374.450818 293.536978 
L 375.587677 293.64559 
L 376.39972 293.689717 
L 377.374171 293.562313 
L 377.698988 293.332945 
L 378.023805 292.810046 
L 378.348622 291.724974 
L 378.835847 288.244561 
L 379.160664 285.868191 
L 379.323072 286.135064 
L 379.485481 286.795128 
L 379.972706 292.72769 
L 380.135115 293.106747 
L 380.62234 291.277499 
L 380.947157 292.706176 
L 381.271974 293.85394 
L 381.7592 292.551689 
L 381.921608 292.734474 
L 382.408834 294.229153 
L 382.571242 294.197501 
L 382.896059 293.689703 
L 383.058467 293.651746 
L 383.708101 294.273486 
L 384.195327 294.056164 
L 384.520144 294.262572 
L 384.844961 294.491718 
L 385.169778 294.46734 
L 385.657003 294.419206 
L 386.469045 294.582497 
L 387.768313 294.381995 
L 388.09313 293.975827 
L 388.255539 293.612762 
L 388.580356 292.210303 
L 389.22999 287.356008 
L 389.392398 286.97475 
L 390.042032 294.602364 
L 390.366849 292.679454 
L 390.529257 291.786421 
L 390.691666 292.293245 
L 391.016483 294.339683 
L 391.178891 294.602725 
L 391.666117 293.474724 
L 392.153342 294.77703 
L 392.315751 294.675168 
L 392.640568 294.225617 
L 392.802976 294.316149 
L 393.127793 294.855349 
L 393.290201 294.860964 
L 393.777427 294.385398 
L 394.264652 294.46085 
L 394.589469 293.898777 
L 395.401512 291.53271 
L 395.888737 290.134972 
L 396.051146 290.292751 
L 396.375963 292.094131 
L 396.863188 295.279402 
L 397.025596 295.45674 
L 397.188005 295.19536 
L 397.67523 294.018237 
L 397.837639 294.052191 
L 398.162456 294.769581 
L 398.487273 295.488 
L 398.487273 295.488 
" clip-path="url(#p170ee625e6)" style="fill: none; stroke: #1f77b4; stroke-width: 1.5; stroke-linecap: square"/>
   </g>
   <g id="line2d_27">
    <path d="M 73.832727 63.311519 
L 74.64477 131.941718 
L 74.807178 131.884499 
L 74.969587 133.289566 
L 75.131995 132.482208 
L 75.294404 132.40307 
L 75.619221 147.206211 
L 75.781629 154.113666 
L 75.944037 155.540351 
L 76.106446 154.298202 
L 76.268854 154.509016 
L 76.75608 160.626142 
L 76.918488 161.541819 
L 77.405714 168.165215 
L 77.568122 168.18195 
L 77.730531 169.311967 
L 78.217756 177.717758 
L 79.029799 181.781028 
L 79.354615 185.151825 
L 79.679432 188.992597 
L 81.790743 198.605069 
L 82.440377 200.692337 
L 83.739644 204.912294 
L 85.038912 208.334878 
L 87.312631 213.12544 
L 88.936716 215.68432 
L 90.398392 217.5539 
L 92.184885 219.48622 
L 96.082689 223.255599 
L 99.655675 226.847776 
L 102.579028 230.118357 
L 105.50238 233.732379 
L 113.785213 244.259381 
L 117.033382 247.713515 
L 121.418411 252.187503 
L 123.529721 253.933077 
L 125.478623 255.269298 
L 127.589933 256.439163 
L 129.863652 257.440836 
L 132.624596 258.398903 
L 136.035174 259.326823 
L 140.582611 260.314024 
L 147.728584 261.608225 
L 163.644615 264.226441 
L 163.969432 264.187953 
L 164.13184 264.028068 
L 164.294249 263.560272 
L 164.456657 262.415364 
L 164.781474 257.833408 
L 164.943883 257.634117 
L 165.2687 264.349486 
L 165.431108 263.149625 
L 165.593517 260.747608 
L 165.755925 261.553119 
L 165.918334 264.10823 
L 166.080742 263.992113 
L 166.243151 262.305535 
L 166.405559 262.697276 
L 166.567968 264.304849 
L 166.730376 264.182039 
L 166.892785 263.161802 
L 167.055193 263.528519 
L 167.217602 264.515241 
L 167.38001 264.308933 
L 167.542418 263.713646 
L 167.867235 264.674133 
L 168.192052 264.126419 
L 168.516869 264.800358 
L 168.841686 264.4224 
L 169.166503 264.90702 
L 169.49132 264.656215 
L 169.816137 265.001019 
L 170.140954 264.837527 
L 170.465771 265.087306 
L 170.790588 264.987636 
L 171.115405 265.170268 
L 171.440222 265.111812 
L 171.765039 265.251 
L 172.252264 265.282177 
L 173.064307 265.404093 
L 175.175617 265.648247 
L 181.184731 266.329557 
L 189.305154 267.117328 
L 189.629971 266.914401 
L 189.79238 266.597492 
L 189.954788 265.944712 
L 190.279605 262.596606 
L 190.604422 258.753874 
L 190.766831 260.095194 
L 190.929239 262.884422 
L 191.091648 263.413204 
L 191.254056 262.337898 
L 191.416465 263.575581 
L 191.578873 266.580075 
L 191.741282 266.263861 
L 191.90369 263.687764 
L 192.066099 264.260746 
L 192.228507 266.901963 
L 192.390915 266.683913 
L 192.553324 265.317804 
L 192.878141 266.942357 
L 193.040549 266.049419 
L 193.202958 266.282832 
L 193.365366 267.431488 
L 193.690183 266.284477 
L 194.015 267.431834 
L 194.177409 266.957618 
L 194.339817 267.094216 
L 194.502226 267.482394 
L 194.827043 267.092493 
L 194.989451 267.570971 
L 195.15186 267.5834 
L 195.314268 267.292798 
L 195.639085 267.631894 
L 195.801493 267.492596 
L 195.963902 267.539577 
L 196.12631 267.739891 
L 196.451127 267.55858 
L 196.775944 267.781459 
L 197.100761 267.746211 
L 197.425578 267.795611 
L 197.587987 267.76539 
L 197.912804 267.896721 
L 198.237621 267.881959 
L 198.724846 267.916186 
L 199.536888 268.0284 
L 208.469355 268.604947 
L 208.794172 268.251213 
L 208.95658 267.767257 
L 209.118989 266.829794 
L 209.443806 262.265682 
L 209.768622 255.973269 
L 209.931031 257.206176 
L 210.255848 268.437812 
L 210.418256 267.183523 
L 210.580665 263.164935 
L 210.743073 262.726417 
L 211.06789 268.65058 
L 211.392707 265.046826 
L 211.717524 268.526485 
L 211.879933 267.896608 
L 212.042341 266.638957 
L 212.20475 267.279336 
L 212.367158 268.502584 
L 212.529567 268.336852 
L 212.691975 267.639819 
L 212.854384 267.90225 
L 213.016792 268.579811 
L 213.179201 268.557036 
L 213.341609 268.230507 
L 213.504017 268.372926 
L 213.666426 268.689425 
L 214.640877 268.843352 
L 214.965694 268.920195 
L 215.290511 268.992459 
L 215.615328 269.032957 
L 215.940145 269.086861 
L 216.264962 269.137037 
L 216.589779 269.151011 
L 216.914595 269.229007 
L 217.239412 269.205325 
L 217.564229 269.301047 
L 217.889046 269.262082 
L 218.376272 269.342213 
L 218.863497 269.387062 
L 224.385385 269.733614 
L 233.48026 270.177626 
L 233.805077 269.983917 
L 233.967486 269.732133 
L 234.129894 269.259837 
L 234.454711 266.941729 
L 234.941936 261.448922 
L 235.104345 263.144937 
L 235.429162 268.483268 
L 235.753979 266.666904 
L 236.078796 269.570964 
L 236.241204 269.306406 
L 236.403613 267.657412 
L 236.566021 267.58813 
L 236.890838 270.363479 
L 237.215655 268.800063 
L 237.540472 270.079868 
L 237.865289 269.375773 
L 238.190106 270.47924 
L 238.514923 269.695994 
L 238.83974 270.385782 
L 239.164557 270.106764 
L 239.489374 270.518305 
L 239.814191 270.201258 
L 240.301416 270.519468 
L 240.463825 270.425116 
L 240.95105 270.564915 
L 241.275867 270.517955 
L 241.600684 270.646381 
L 241.925501 270.614405 
L 242.250318 270.690118 
L 242.737543 270.68644 
L 243.549586 270.767646 
L 249.558699 271.010801 
L 249.883516 270.883503 
L 250.208333 270.424012 
L 250.370742 269.86717 
L 250.53315 268.873465 
L 250.857967 264.463608 
L 251.182784 257.707429 
L 251.345193 257.096756 
L 251.832418 271.049422 
L 252.157235 264.581477 
L 252.319643 265.30189 
L 252.64446 270.920023 
L 252.969277 267.313684 
L 253.294094 270.572488 
L 253.456503 270.520759 
L 253.618911 269.242486 
L 253.78132 269.213547 
L 254.106137 270.82115 
L 254.430954 270.008805 
L 254.755771 270.910492 
L 255.080588 270.516701 
L 255.405405 271.045272 
L 255.730221 270.793079 
L 256.055038 271.209419 
L 256.379855 270.954098 
L 256.704672 271.324874 
L 257.191898 271.174121 
L 257.516715 271.387673 
L 257.841532 271.237193 
L 258.166349 271.444922 
L 258.653574 271.372086 
L 258.978391 271.472355 
L 259.465616 271.465856 
L 260.277659 271.528001 
L 268.073266 271.882599 
L 273.270337 272.016537 
L 273.595154 271.854471 
L 273.919971 271.294888 
L 274.082379 270.643221 
L 274.407196 267.757861 
L 274.732013 263.119897 
L 274.894422 262.54224 
L 275.05683 264.79519 
L 275.381647 270.942672 
L 275.706464 268.383546 
L 275.868873 268.859134 
L 276.031281 270.768872 
L 276.19369 271.324423 
L 276.518507 269.259654 
L 276.843323 272.073373 
L 277.005732 271.84961 
L 277.16814 270.702836 
L 277.330549 270.620302 
L 277.655366 271.945774 
L 277.980183 271.299257 
L 278.305 272.2004 
L 278.629817 271.493373 
L 279.117042 272.162515 
L 279.279451 271.926955 
L 279.441859 271.981435 
L 279.604268 272.211344 
L 279.766676 272.217959 
L 279.929085 272.043209 
L 280.091493 272.035098 
L 280.41631 272.339264 
L 280.741127 272.187458 
L 281.228352 272.313024 
L 281.553169 272.280776 
L 281.877986 272.398873 
L 282.365212 272.382589 
L 282.852437 272.387841 
L 288.211917 272.598648 
L 288.699142 272.500998 
L 289.023959 272.280526 
L 289.348776 271.687507 
L 289.673593 270.168724 
L 289.99841 266.888088 
L 290.323227 262.774635 
L 290.485636 262.240984 
L 290.648044 264.322491 
L 290.972861 271.824079 
L 291.135269 272.564926 
L 291.460086 268.627463 
L 291.622495 268.407118 
L 291.947312 272.214056 
L 292.10972 272.563047 
L 292.434537 270.45191 
L 292.596946 270.771376 
L 292.921763 272.658014 
L 293.084171 272.378591 
L 293.24658 271.709482 
L 293.408988 271.556311 
L 293.733805 272.601336 
L 293.896214 272.669202 
L 294.221031 272.14414 
L 294.383439 272.286123 
L 294.708256 272.750629 
L 295.195481 272.522459 
L 295.682707 272.797703 
L 296.169932 272.746403 
L 296.657158 272.858864 
L 297.794017 272.934459 
L 309.812244 273.226622 
L 310.137061 272.928999 
L 310.461878 271.999043 
L 310.786695 269.379658 
L 311.273921 262.313988 
L 311.436329 262.566091 
L 311.923555 270.799753 
L 312.248371 267.642883 
L 312.41078 269.392626 
L 312.573188 272.548382 
L 312.735597 273.192097 
L 313.060414 269.826172 
L 313.385231 272.883112 
L 313.547639 272.677088 
L 313.710048 271.607961 
L 313.872456 271.885088 
L 314.034865 273.100035 
L 314.197273 273.268858 
L 314.359682 272.354847 
L 314.52209 272.079155 
L 314.846907 273.387535 
L 315.171724 272.730014 
L 315.496541 273.466524 
L 315.821358 272.932264 
L 315.983766 273.084657 
L 316.146175 273.438192 
L 316.308583 273.458453 
L 316.470992 273.260776 
L 316.6334 273.280812 
L 316.958217 273.541691 
L 317.283034 273.331472 
L 317.607851 273.560558 
L 318.095077 273.519216 
L 318.419894 273.604272 
L 318.744711 273.542089 
L 319.231936 273.598978 
L 319.719161 273.651831 
L 323.779373 273.687149 
L 324.266599 273.494839 
L 324.591416 273.134357 
L 324.916233 272.283768 
L 325.24105 270.456579 
L 325.890684 265.277005 
L 326.053092 266.055845 
L 326.540317 273.589154 
L 326.702726 273.564804 
L 327.027543 270.731047 
L 327.189951 270.516436 
L 327.677177 273.859113 
L 327.839585 273.449272 
L 328.164402 272.16415 
L 328.326811 272.560623 
L 328.651628 273.88668 
L 328.814036 273.758507 
L 329.138853 273.004089 
L 329.301262 273.17985 
L 329.626078 273.923696 
L 329.788487 273.889176 
L 330.113304 273.469255 
L 330.275712 273.533568 
L 330.600529 273.952133 
L 330.762938 273.969397 
L 331.250163 273.74577 
L 331.737389 274.017861 
L 332.387023 273.922244 
L 332.874248 274.051076 
L 333.523882 274.0157 
L 334.173516 274.082445 
L 335.147967 274.123274 
L 344.567658 274.321937 
L 344.892475 274.18526 
L 345.217292 273.753817 
L 345.379701 273.27022 
L 345.704518 270.991519 
L 346.029335 265.2567 
L 346.354152 257.405941 
L 346.51656 256.739713 
L 347.003786 273.793171 
L 347.166194 271.358155 
L 347.328602 266.919887 
L 347.491011 266.714312 
L 347.815828 274.09665 
L 348.140645 269.61632 
L 348.303053 270.368095 
L 348.465462 273.474568 
L 348.62787 274.312922 
L 348.952687 271.380333 
L 349.277504 274.418581 
L 349.602321 272.584128 
L 349.76473 273.217707 
L 349.927138 274.369689 
L 350.089547 274.178003 
L 350.251955 273.335092 
L 350.414364 273.480821 
L 350.576772 274.312732 
L 350.73918 274.44772 
L 350.901589 273.898206 
L 351.063997 273.788706 
L 351.388814 274.517887 
L 351.713631 274.037698 
L 352.038448 274.565839 
L 352.363265 274.239565 
L 352.850491 274.536833 
L 353.012899 274.399912 
L 353.175308 274.417573 
L 353.500125 274.603391 
L 353.824942 274.480928 
L 354.312167 274.598512 
L 354.636984 274.578388 
L 354.961801 274.648938 
L 355.449026 274.641961 
L 356.261069 274.684969 
L 358.697196 274.763792 
L 363.244633 274.805363 
L 363.56945 274.657877 
L 363.894267 274.213323 
L 364.219084 272.931611 
L 364.543901 269.758975 
L 364.868718 265.079366 
L 365.031126 264.353305 
L 365.193535 266.253924 
L 365.518352 274.240839 
L 365.68076 274.473239 
L 366.005577 270.33562 
L 366.167986 271.131626 
L 366.492803 274.65686 
L 366.81762 272.718752 
L 366.980028 272.882476 
L 367.304845 274.569116 
L 367.629662 273.724558 
L 367.792071 274.018396 
L 367.954479 274.571036 
L 368.116888 274.62182 
L 368.279296 274.278213 
L 368.441704 274.224354 
L 368.766521 274.90834 
L 369.253747 274.525419 
L 369.578564 275.041152 
L 369.903381 274.681805 
L 370.065789 274.741862 
L 370.390606 275.061319 
L 370.877832 274.91444 
L 371.202649 275.05759 
L 371.689874 275.034612 
L 372.014691 275.084621 
L 372.501916 275.091121 
L 372.989142 275.107428 
L 373.963593 275.147662 
L 383.383284 275.426093 
L 384.844961 275.364322 
L 385.169778 275.187312 
L 385.494595 274.643775 
L 385.657003 274.045237 
L 385.98182 271.308897 
L 386.306637 264.842825 
L 386.631454 257.172481 
L 386.793862 257.45665 
L 387.281088 275.237357 
L 387.605905 267.531898 
L 387.768313 267.647305 
L 388.09313 275.057641 
L 388.417947 270.866122 
L 388.580356 271.510973 
L 388.742764 274.318928 
L 388.905173 275.155553 
L 389.22999 272.49756 
L 389.554806 275.461548 
L 389.717215 274.828472 
L 389.879623 273.644621 
L 390.042032 274.023843 
L 390.20444 275.279526 
L 390.366849 275.43754 
L 390.529257 274.60311 
L 390.691666 274.411782 
L 391.016483 275.5425 
L 391.3413 274.828844 
L 391.666117 275.567128 
L 392.153342 275.235137 
L 392.315751 275.559312 
L 392.478159 275.590626 
L 392.802976 275.327332 
L 393.127793 275.639501 
L 393.45261 275.456095 
L 393.939835 275.635686 
L 394.264652 275.563134 
L 394.589469 275.688499 
L 395.076695 275.646961 
L 395.401512 275.703362 
L 395.888737 275.705271 
L 396.863188 275.754604 
L 398.487273 275.800764 
L 398.487273 275.800764 
" clip-path="url(#p170ee625e6)" style="fill: none; stroke: #ff7f0e; stroke-width: 1.5; stroke-linecap: square"/>
   </g>
   <g id="line2d_28">
    <path d="M 73.832727 53.568 
L 73.995136 78.149753 
L 74.157544 75.328931 
L 74.807178 126.68399 
L 74.969587 131.800743 
L 75.294404 156.02911 
L 75.456812 157.236523 
L 75.781629 140.627765 
L 75.944037 140.931501 
L 76.431263 159.149052 
L 76.75608 165.203067 
L 77.080897 174.674856 
L 77.243305 175.834055 
L 77.568122 173.509857 
L 77.730531 175.145856 
L 78.055348 181.227091 
L 78.217756 181.784351 
L 78.380165 181.521534 
L 78.542573 182.403468 
L 78.86739 186.202662 
L 79.192207 187.659534 
L 79.841841 194.254926 
L 80.004249 193.770625 
L 80.166658 193.721111 
L 80.816292 196.193468 
L 81.465926 200.717598 
L 81.790743 201.244611 
L 83.577236 206.241491 
L 84.551687 208.011562 
L 85.201321 209.320907 
L 87.312631 212.303573 
L 88.611899 213.876628 
L 90.398392 215.732441 
L 92.347294 217.472031 
L 94.783421 219.345239 
L 103.553479 225.815546 
L 106.476831 228.390365 
L 109.400184 231.257593 
L 112.97317 235.099499 
L 121.58082 244.520109 
L 124.504172 247.303518 
L 127.427525 249.780773 
L 130.350877 251.966821 
L 133.436638 253.988124 
L 136.522399 255.746016 
L 139.770569 257.344837 
L 143.343555 258.849964 
L 147.403767 260.304777 
L 152.113613 261.748649 
L 158.447544 263.439115 
L 159.259586 263.594561 
L 159.421995 263.559977 
L 159.584403 263.407844 
L 159.746812 262.957126 
L 159.90922 261.802982 
L 160.234037 254.987386 
L 160.396445 251.039405 
L 160.558854 252.408277 
L 160.883671 263.957944 
L 161.208488 256.518224 
L 161.533305 264.153259 
L 161.858122 259.433319 
L 162.182939 264.022342 
L 162.345347 261.511507 
L 162.507756 261.73929 
L 162.670164 264.133604 
L 162.832573 263.560016 
L 162.994981 262.238222 
L 163.319798 264.429145 
L 163.482207 263.352277 
L 163.644615 263.313291 
L 163.807024 264.443331 
L 163.969432 264.281504 
L 164.13184 263.653243 
L 164.456657 264.719265 
L 164.619066 264.237195 
L 164.781474 264.201157 
L 164.943883 264.773923 
L 165.106291 264.736119 
L 165.2687 264.426046 
L 165.593517 264.996231 
L 165.918334 264.748184 
L 166.080742 265.054856 
L 166.243151 265.087109 
L 166.405559 264.932091 
L 166.892785 265.180835 
L 167.055193 265.142623 
L 167.38001 265.37791 
L 167.704827 265.354895 
L 168.029644 265.499167 
L 168.354461 265.541659 
L 168.679278 265.630438 
L 169.004095 265.704824 
L 169.816137 265.898401 
L 170.790588 266.08587 
L 172.414673 266.442355 
L 180.535097 268.132664 
L 186.381802 269.248447 
L 186.706619 269.012112 
L 186.869027 268.631469 
L 187.031436 267.859088 
L 187.518661 263.025096 
L 187.68107 263.593189 
L 188.005887 269.303288 
L 188.168295 268.871024 
L 188.330704 266.886951 
L 188.493112 266.635239 
L 188.817929 269.689367 
L 189.142746 267.755785 
L 189.467563 269.838699 
L 189.629971 269.618209 
L 189.79238 268.747478 
L 189.954788 268.94222 
L 190.117197 269.833606 
L 190.279605 269.941046 
L 190.442014 269.388589 
L 190.604422 269.39362 
L 190.929239 270.172414 
L 191.254056 269.715259 
L 191.578873 270.323442 
L 191.90369 270.033222 
L 192.228507 270.452441 
L 192.553324 270.275217 
L 193.040549 270.58687 
L 193.365366 270.539136 
L 193.690183 270.738046 
L 194.015 270.698108 
L 194.664634 270.874649 
L 196.613536 271.296836 
L 198.887255 271.739206 
L 201.973016 272.238533 
L 202.297833 272.049488 
L 202.460241 271.756747 
L 202.62265 271.156757 
L 202.785058 269.98515 
L 203.109875 264.26649 
L 203.434692 255.582846 
L 203.5971 256.12053 
L 203.921917 271.042736 
L 204.084326 271.143885 
L 204.246734 265.884091 
L 204.409143 264.232398 
L 204.73396 271.998919 
L 205.058777 267.751519 
L 205.383594 272.161864 
L 205.708411 269.616509 
L 206.033228 272.72684 
L 206.358044 270.690113 
L 206.682861 273.093666 
L 207.007678 271.547327 
L 207.332495 273.194802 
L 207.494904 272.456196 
L 207.657312 272.294115 
L 207.819721 273.039025 
L 207.982129 273.20643 
L 208.144538 272.756361 
L 208.306946 272.859632 
L 208.469355 273.33123 
L 208.631763 273.271273 
L 208.794172 272.999585 
L 209.118989 273.531067 
L 209.443806 273.244096 
L 209.768622 273.64691 
L 210.093439 273.486163 
L 210.418256 273.744522 
L 210.743073 273.673759 
L 211.06789 273.866527 
L 211.392707 273.821785 
L 211.879933 273.969163 
L 212.20475 274.031843 
L 213.016792 274.199363 
L 214.153651 274.375818 
L 215.940145 274.684756 
L 221.299624 275.421971 
L 221.624441 275.179717 
L 221.78685 274.863893 
L 221.949258 274.280427 
L 222.274075 271.579658 
L 222.761301 265.75602 
L 222.923709 267.76628 
L 223.248526 275.483188 
L 223.410935 274.917507 
L 223.735752 271.34093 
L 224.222977 275.404918 
L 224.547794 273.68528 
L 224.872611 275.499918 
L 225.035019 275.405327 
L 225.197428 274.973102 
L 225.359836 275.076145 
L 225.684653 275.650719 
L 225.847062 275.549484 
L 226.00947 275.632674 
L 226.334287 275.921551 
L 226.496696 275.795302 
L 226.659104 275.84396 
L 226.983921 276.272834 
L 227.308738 276.015271 
L 227.795963 276.479297 
L 228.12078 276.268405 
L 228.608006 276.621397 
L 228.932823 276.505474 
L 229.420048 276.74467 
L 229.907274 276.762124 
L 230.394499 276.866651 
L 231.531358 277.054066 
L 233.155443 277.301518 
L 239.976599 278.320544 
L 242.575135 278.613776 
L 242.899952 278.491181 
L 243.224769 277.991757 
L 243.387177 277.380036 
L 243.549586 276.283644 
L 243.874403 271.432306 
L 244.19922 263.7087 
L 244.361628 262.515948 
L 244.524037 266.442556 
L 244.848854 277.325992 
L 245.17367 270.952544 
L 245.336079 271.907609 
L 245.660896 279.023256 
L 245.985713 274.020908 
L 246.31053 278.725506 
L 246.472938 278.060087 
L 246.635347 276.200167 
L 246.797755 276.89913 
L 246.960164 278.929716 
L 247.122572 278.869365 
L 247.284981 277.430257 
L 247.447389 277.535332 
L 247.609798 278.889183 
L 247.772206 279.10867 
L 247.934615 278.24338 
L 248.097023 278.238944 
L 248.259432 279.143979 
L 248.42184 279.35821 
L 248.584248 278.753436 
L 248.746657 278.642778 
L 249.071474 279.451026 
L 249.396291 279.010931 
L 249.721108 279.603666 
L 250.045925 279.271499 
L 250.370742 279.670241 
L 250.695559 279.475417 
L 251.182784 279.753455 
L 251.345193 279.674368 
L 252.64446 279.956774 
L 252.969277 279.988462 
L 253.456503 280.069225 
L 255.405405 280.363018 
L 258.00394 280.665077 
L 258.328757 280.605307 
L 258.653574 280.300265 
L 258.815983 279.902392 
L 258.978391 279.147329 
L 259.140799 277.766328 
L 259.465616 271.707809 
L 259.790433 263.41494 
L 259.952842 263.859101 
L 260.440067 280.170474 
L 260.764884 272.81952 
L 260.927293 274.559285 
L 261.089701 278.50806 
L 261.25211 279.605956 
L 261.576927 277.217475 
L 261.901744 279.290348 
L 262.064152 279.216284 
L 262.226561 279.336115 
L 262.388969 279.820794 
L 262.551378 279.745958 
L 262.713786 279.400327 
L 262.876194 279.892635 
L 263.038603 280.804409 
L 263.201011 280.711056 
L 263.36342 279.936968 
L 263.525828 280.010929 
L 263.850645 281.339844 
L 264.175462 280.370306 
L 264.500279 281.441314 
L 264.662688 281.27566 
L 264.825096 280.919575 
L 264.987505 281.027795 
L 265.312322 281.452229 
L 265.637139 281.331339 
L 265.961956 281.489041 
L 266.286772 281.559312 
L 266.611589 281.62181 
L 266.936406 281.638449 
L 267.261223 281.799011 
L 267.58604 281.723709 
L 268.073266 281.899159 
L 268.560491 281.93439 
L 269.534942 282.071076 
L 272.620703 282.471073 
L 281.390761 283.401036 
L 281.715578 283.141279 
L 281.877986 282.819868 
L 282.040395 282.235796 
L 282.202803 281.180853 
L 282.52762 276.378708 
L 283.014846 263.194017 
L 283.177254 263.748225 
L 283.66448 283.041829 
L 283.989296 274.157944 
L 284.151705 276.244517 
L 284.314113 281.472504 
L 284.476522 282.704625 
L 284.801339 278.297006 
L 285.126156 283.618427 
L 285.450973 280.114615 
L 285.613381 281.37783 
L 285.77579 283.732006 
L 285.938198 283.467726 
L 286.100607 281.810319 
L 286.263015 281.994427 
L 286.425424 283.54586 
L 286.587832 283.813032 
L 286.750241 282.84288 
L 286.912649 282.769531 
L 287.075058 283.737671 
L 287.237466 284.017018 
L 287.399874 283.359616 
L 287.562283 283.196031 
L 287.8871 284.222066 
L 288.211917 283.590857 
L 288.536734 284.256663 
L 288.861551 283.918224 
L 289.348776 284.299611 
L 289.511185 284.133255 
L 289.673593 284.194165 
L 289.99841 284.451941 
L 290.323227 284.336853 
L 290.648044 284.532801 
L 291.135269 284.524973 
L 291.460086 284.628114 
L 291.784903 284.606396 
L 292.272129 284.710754 
L 292.759354 284.785295 
L 296.332341 285.210988 
L 300.879778 285.631471 
L 301.204595 285.447565 
L 301.529412 284.818113 
L 301.69182 284.107439 
L 302.016637 280.919899 
L 302.666271 269.941099 
L 302.82868 273.278143 
L 303.153497 284.856774 
L 303.315905 284.302449 
L 303.640722 279.267084 
L 304.127948 284.461528 
L 304.290356 283.090651 
L 304.452765 282.804711 
L 304.777582 285.254498 
L 305.102398 283.794328 
L 305.264807 284.290878 
L 305.427215 285.524578 
L 305.589624 285.901628 
L 305.914441 284.794938 
L 306.401666 285.95013 
L 306.564075 285.734174 
L 306.726483 285.712707 
L 307.0513 286.013249 
L 307.376117 286.010389 
L 307.863343 286.306484 
L 308.18816 286.233041 
L 309.000202 286.475111 
L 309.974653 286.658516 
L 310.29947 286.749874 
L 310.786695 286.763078 
L 311.273921 286.847495 
L 313.060414 287.068412 
L 317.283034 287.530661 
L 317.932668 287.454452 
L 318.257485 287.210049 
L 318.582302 286.489171 
L 318.907119 284.493487 
L 319.231936 279.661952 
L 319.719161 269.397375 
L 319.88157 270.209031 
L 320.368795 287.703597 
L 320.531204 285.491326 
L 320.693612 281.060053 
L 320.856021 279.765628 
L 321.343246 287.346016 
L 321.668063 283.599417 
L 321.830472 284.912124 
L 321.99288 287.151615 
L 322.155289 287.490539 
L 322.480106 285.503114 
L 322.804922 287.822216 
L 322.967331 287.682117 
L 323.129739 286.724009 
L 323.292148 286.555418 
L 323.616965 288.164879 
L 323.779373 287.908882 
L 323.941782 287.285458 
L 324.10419 287.276456 
L 324.429007 288.260668 
L 324.916233 287.805943 
L 325.24105 288.319471 
L 325.565867 288.056731 
L 325.890684 288.349201 
L 326.053092 288.434968 
L 326.377909 288.264428 
L 327.189951 288.457354 
L 335.960009 289.551334 
L 336.772051 289.534543 
L 337.096868 289.355934 
L 337.421685 288.750127 
L 337.746502 286.919537 
L 338.071319 282.462112 
L 338.558545 274.216842 
L 338.720953 275.262455 
L 339.208179 288.337624 
L 339.695404 283.55956 
L 340.020221 288.678382 
L 340.182629 288.457394 
L 340.345038 286.614139 
L 340.507446 286.072628 
L 340.832263 289.480534 
L 340.994672 289.312894 
L 341.15708 288.096982 
L 341.319489 287.86223 
L 341.644306 289.7241 
L 341.969123 288.738235 
L 342.131531 288.986996 
L 342.456348 290.050689 
L 342.781165 289.305033 
L 343.268391 290.083362 
L 343.430799 289.785178 
L 343.593208 289.747656 
L 343.918024 290.319133 
L 344.40525 290.060738 
L 344.730067 290.399038 
L 345.217292 290.267887 
L 345.542109 290.501163 
L 346.029335 290.446948 
L 346.354152 290.591381 
L 347.003786 290.626956 
L 347.978236 290.743836 
L 349.602321 290.744346 
L 349.927138 290.58415 
L 350.251955 290.141479 
L 350.576772 289.072396 
L 350.901589 286.596691 
L 351.226406 281.841529 
L 351.551223 276.475369 
L 351.713631 275.894341 
L 351.87604 278.21578 
L 352.363265 291.147506 
L 352.525674 289.604899 
L 352.850491 284.886246 
L 353.012899 286.09701 
L 353.337716 291.042955 
L 353.500125 290.694893 
L 353.824942 288.088278 
L 353.98735 288.828594 
L 354.312167 291.241086 
L 354.474575 290.807694 
L 354.636984 289.941951 
L 354.799392 289.719733 
L 355.286618 291.334532 
L 355.611435 290.585078 
L 355.773843 290.673547 
L 356.09866 291.441315 
L 356.261069 291.423874 
L 356.585886 291.079606 
L 357.23552 291.550488 
L 357.560337 291.421636 
L 358.20997 291.687701 
L 358.534787 291.646864 
L 359.184421 291.833705 
L 359.671647 291.84471 
L 360.321281 291.962778 
L 360.970915 292.041695 
L 362.270182 292.187057 
L 363.894267 292.286387 
L 364.219084 292.196053 
L 364.543901 291.897602 
L 364.868718 291.143455 
L 365.193535 290.021218 
L 365.355943 289.443229 
L 366.005577 292.395015 
L 366.330394 291.577673 
L 366.492803 291.237199 
L 367.142437 292.489677 
L 367.467254 291.975382 
L 367.629662 292.031586 
L 367.954479 292.6473 
L 368.116888 292.690544 
L 368.441704 292.39146 
L 368.766521 292.533731 
L 369.091338 292.689796 
L 369.903381 291.991916 
L 370.228198 291.128251 
L 370.553015 289.216607 
L 371.202649 284.620598 
L 371.365057 285.251746 
L 372.014691 293.017506 
L 372.177099 292.217989 
L 372.501916 290.021523 
L 372.664325 290.292195 
L 373.15155 293.129781 
L 373.313959 292.810139 
L 373.638776 291.826556 
L 373.801184 292.038335 
L 374.126001 293.089022 
L 374.28841 293.213674 
L 374.775635 292.732821 
L 375.425269 293.316411 
L 375.750086 293.17425 
L 376.074903 293.344569 
L 376.39972 293.497946 
L 377.049354 293.465831 
L 377.536579 293.648835 
L 378.186213 293.454732 
L 378.51103 293.24002 
L 378.673439 292.963744 
L 378.835847 292.442692 
L 379.160664 289.975835 
L 379.485481 283.754186 
L 379.972706 269.033347 
L 380.135115 269.872655 
L 380.62234 293.93841 
L 380.784749 290.205364 
L 380.947157 283.721466 
L 381.109566 282.402697 
L 381.434383 293.343583 
L 381.596791 292.843056 
L 381.7592 288.644072 
L 381.921608 287.431099 
L 382.246425 293.877676 
L 382.408834 292.898386 
L 382.571242 290.392368 
L 382.73365 290.520116 
L 383.058467 294.124165 
L 383.383284 291.638834 
L 383.87051 293.985419 
L 384.032918 292.953903 
L 384.195327 292.776561 
L 384.520144 294.285326 
L 384.844961 293.352215 
L 385.007369 293.624678 
L 385.169778 294.233063 
L 385.332186 294.315062 
L 385.657003 293.796185 
L 385.98182 294.429076 
L 386.469045 294.156005 
L 386.793862 294.515558 
L 387.118679 294.309878 
L 387.605905 294.587642 
L 387.930722 294.483363 
L 388.417947 294.664726 
L 388.742764 294.620776 
L 389.22999 294.749396 
L 389.717215 294.778708 
L 390.366849 294.838927 
L 391.990934 295.019608 
L 393.290201 295.075402 
L 393.615018 294.945854 
L 393.777427 294.793305 
L 394.102244 294.032619 
L 394.427061 292.207963 
L 394.589469 290.456758 
L 394.751878 290.340939 
L 394.914286 290.04613 
L 395.239103 294.528829 
L 395.401512 295.35122 
L 395.56392 294.56411 
L 395.726329 293.157115 
L 395.888737 292.999781 
L 396.051146 293.621681 
L 396.213554 294.929175 
L 396.375963 295.325267 
L 396.863188 293.614821 
L 397.025596 294.026657 
L 397.188005 294.027915 
L 397.350413 293.004412 
L 397.67523 288.104836 
L 398.162456 277.720873 
L 398.324864 277.543016 
L 398.487273 282.452427 
L 398.487273 282.452427 
" clip-path="url(#p170ee625e6)" style="fill: none; stroke: #2ca02c; stroke-width: 1.5; stroke-linecap: square"/>
   </g>
   <g id="patch_3">
    <path d="M 57.6 307.584 
L 57.6 41.472 
" style="fill: none; stroke: #000000; stroke-width: 0.8; stroke-linejoin: miter; stroke-linecap: square"/>
   </g>
   <g id="patch_4">
    <path d="M 414.72 307.584 
L 414.72 41.472 
" style="fill: none; stroke: #000000; stroke-width: 0.8; stroke-linejoin: miter; stroke-linecap: square"/>
   </g>
   <g id="patch_5">
    <path d="M 57.6 307.584 
L 414.72 307.584 
" style="fill: none; stroke: #000000; stroke-width: 0.8; stroke-linejoin: miter; stroke-linecap: square"/>
   </g>
   <g id="patch_6">
    <path d="M 57.6 41.472 
L 414.72 41.472 
" style="fill: none; stroke: #000000; stroke-width: 0.8; stroke-linejoin: miter; stroke-linecap: square"/>
   </g>
   <g id="legend_1">
    <g id="patch_7">
     <path d="M 278.391875 93.506375 
L 407.72 93.506375 
Q 409.72 93.506375 409.72 91.506375 
L 409.72 48.472 
Q 409.72 46.472 407.72 46.472 
L 278.391875 46.472 
Q 276.391875 46.472 276.391875 48.472 
L 276.391875 91.506375 
Q 276.391875 93.506375 278.391875 93.506375 
z
" style="fill: #ffffff; opacity: 0.8; stroke: #cccccc; stroke-linejoin: miter"/>
    </g>
    <g id="line2d_29">
     <path d="M 280.391875 54.570438 
L 290.391875 54.570438 
L 300.391875 54.570438 
" style="fill: none; stroke: #1f77b4; stroke-width: 1.5; stroke-linecap: square"/>
    </g>
    <g id="text_12">
     <!-- Regularization 1e-4 -->
     <g transform="translate(308.391875 58.070438)scale(0.1 -0.1)">
      <defs>
       <path id="DejaVuSans-52" d="M 2841 2188 
Q 3044 2119 3236 1894 
Q 3428 1669 3622 1275 
L 4263 0 
L 3584 0 
L 2988 1197 
Q 2756 1666 2539 1819 
Q 2322 1972 1947 1972 
L 1259 1972 
L 1259 0 
L 628 0 
L 628 4666 
L 2053 4666 
Q 2853 4666 3247 4331 
Q 3641 3997 3641 3322 
Q 3641 2881 3436 2590 
Q 3231 2300 2841 2188 
z
M 1259 4147 
L 1259 2491 
L 2053 2491 
Q 2509 2491 2742 2702 
Q 2975 2913 2975 3322 
Q 2975 3731 2742 3939 
Q 2509 4147 2053 4147 
L 1259 4147 
z
" transform="scale(0.015625)"/>
       <path id="DejaVuSans-65" d="M 3597 1894 
L 3597 1613 
L 953 1613 
Q 991 1019 1311 708 
Q 1631 397 2203 397 
Q 2534 397 2845 478 
Q 3156 559 3463 722 
L 3463 178 
Q 3153 47 2828 -22 
Q 2503 -91 2169 -91 
Q 1331 -91 842 396 
Q 353 884 353 1716 
Q 353 2575 817 3079 
Q 1281 3584 2069 3584 
Q 2775 3584 3186 3129 
Q 3597 2675 3597 1894 
z
M 3022 2063 
Q 3016 2534 2758 2815 
Q 2500 3097 2075 3097 
Q 1594 3097 1305 2825 
Q 1016 2553 972 2059 
L 3022 2063 
z
" transform="scale(0.015625)"/>
       <path id="DejaVuSans-67" d="M 2906 1791 
Q 2906 2416 2648 2759 
Q 2391 3103 1925 3103 
Q 1463 3103 1205 2759 
Q 947 2416 947 1791 
Q 947 1169 1205 825 
Q 1463 481 1925 481 
Q 2391 481 2648 825 
Q 2906 1169 2906 1791 
z
M 3481 434 
Q 3481 -459 3084 -895 
Q 2688 -1331 1869 -1331 
Q 1566 -1331 1297 -1286 
Q 1028 -1241 775 -1147 
L 775 -588 
Q 1028 -725 1275 -790 
Q 1522 -856 1778 -856 
Q 2344 -856 2625 -561 
Q 2906 -266 2906 331 
L 2906 616 
Q 2728 306 2450 153 
Q 2172 0 1784 0 
Q 1141 0 747 490 
Q 353 981 353 1791 
Q 353 2603 747 3093 
Q 1141 3584 1784 3584 
Q 2172 3584 2450 3431 
Q 2728 3278 2906 2969 
L 2906 3500 
L 3481 3500 
L 3481 434 
z
" transform="scale(0.015625)"/>
       <path id="DejaVuSans-75" d="M 544 1381 
L 544 3500 
L 1119 3500 
L 1119 1403 
Q 1119 906 1312 657 
Q 1506 409 1894 409 
Q 2359 409 2629 706 
Q 2900 1003 2900 1516 
L 2900 3500 
L 3475 3500 
L 3475 0 
L 2900 0 
L 2900 538 
Q 2691 219 2414 64 
Q 2138 -91 1772 -91 
Q 1169 -91 856 284 
Q 544 659 544 1381 
z
M 1991 3584 
L 1991 3584 
z
" transform="scale(0.015625)"/>
       <path id="DejaVuSans-6c" d="M 603 4863 
L 1178 4863 
L 1178 0 
L 603 0 
L 603 4863 
z
" transform="scale(0.015625)"/>
       <path id="DejaVuSans-61" d="M 2194 1759 
Q 1497 1759 1228 1600 
Q 959 1441 959 1056 
Q 959 750 1161 570 
Q 1363 391 1709 391 
Q 2188 391 2477 730 
Q 2766 1069 2766 1631 
L 2766 1759 
L 2194 1759 
z
M 3341 1997 
L 3341 0 
L 2766 0 
L 2766 531 
Q 2569 213 2275 61 
Q 1981 -91 1556 -91 
Q 1019 -91 701 211 
Q 384 513 384 1019 
Q 384 1609 779 1909 
Q 1175 2209 1959 2209 
L 2766 2209 
L 2766 2266 
Q 2766 2663 2505 2880 
Q 2244 3097 1772 3097 
Q 1472 3097 1187 3025 
Q 903 2953 641 2809 
L 641 3341 
Q 956 3463 1253 3523 
Q 1550 3584 1831 3584 
Q 2591 3584 2966 3190 
Q 3341 2797 3341 1997 
z
" transform="scale(0.015625)"/>
       <path id="DejaVuSans-72" d="M 2631 2963 
Q 2534 3019 2420 3045 
Q 2306 3072 2169 3072 
Q 1681 3072 1420 2755 
Q 1159 2438 1159 1844 
L 1159 0 
L 581 0 
L 581 3500 
L 1159 3500 
L 1159 2956 
Q 1341 3275 1631 3429 
Q 1922 3584 2338 3584 
Q 2397 3584 2469 3576 
Q 2541 3569 2628 3553 
L 2631 2963 
z
" transform="scale(0.015625)"/>
       <path id="DejaVuSans-69" d="M 603 3500 
L 1178 3500 
L 1178 0 
L 603 0 
L 603 3500 
z
M 603 4863 
L 1178 4863 
L 1178 4134 
L 603 4134 
L 603 4863 
z
" transform="scale(0.015625)"/>
       <path id="DejaVuSans-7a" d="M 353 3500 
L 3084 3500 
L 3084 2975 
L 922 459 
L 3084 459 
L 3084 0 
L 275 0 
L 275 525 
L 2438 3041 
L 353 3041 
L 353 3500 
z
" transform="scale(0.015625)"/>
       <path id="DejaVuSans-74" d="M 1172 4494 
L 1172 3500 
L 2356 3500 
L 2356 3053 
L 1172 3053 
L 1172 1153 
Q 1172 725 1289 603 
Q 1406 481 1766 481 
L 2356 481 
L 2356 0 
L 1766 0 
Q 1100 0 847 248 
Q 594 497 594 1153 
L 594 3053 
L 172 3053 
L 172 3500 
L 594 3500 
L 594 4494 
L 1172 4494 
z
" transform="scale(0.015625)"/>
       <path id="DejaVuSans-6f" d="M 1959 3097 
Q 1497 3097 1228 2736 
Q 959 2375 959 1747 
Q 959 1119 1226 758 
Q 1494 397 1959 397 
Q 2419 397 2687 759 
Q 2956 1122 2956 1747 
Q 2956 2369 2687 2733 
Q 2419 3097 1959 3097 
z
M 1959 3584 
Q 2709 3584 3137 3096 
Q 3566 2609 3566 1747 
Q 3566 888 3137 398 
Q 2709 -91 1959 -91 
Q 1206 -91 779 398 
Q 353 888 353 1747 
Q 353 2609 779 3096 
Q 1206 3584 1959 3584 
z
" transform="scale(0.015625)"/>
       <path id="DejaVuSans-6e" d="M 3513 2113 
L 3513 0 
L 2938 0 
L 2938 2094 
Q 2938 2591 2744 2837 
Q 2550 3084 2163 3084 
Q 1697 3084 1428 2787 
Q 1159 2491 1159 1978 
L 1159 0 
L 581 0 
L 581 3500 
L 1159 3500 
L 1159 2956 
Q 1366 3272 1645 3428 
Q 1925 3584 2291 3584 
Q 2894 3584 3203 3211 
Q 3513 2838 3513 2113 
z
" transform="scale(0.015625)"/>
       <path id="DejaVuSans-20" transform="scale(0.015625)"/>
       <path id="DejaVuSans-2d" d="M 313 2009 
L 1997 2009 
L 1997 1497 
L 313 1497 
L 313 2009 
z
" transform="scale(0.015625)"/>
       <path id="DejaVuSans-34" d="M 2419 4116 
L 825 1625 
L 2419 1625 
L 2419 4116 
z
M 2253 4666 
L 3047 4666 
L 3047 1625 
L 3713 1625 
L 3713 1100 
L 3047 1100 
L 3047 0 
L 2419 0 
L 2419 1100 
L 313 1100 
L 313 1709 
L 2253 4666 
z
" transform="scale(0.015625)"/>
      </defs>
      <use xlink:href="#DejaVuSans-52"/>
      <use xlink:href="#DejaVuSans-65" x="64.982422"/>
      <use xlink:href="#DejaVuSans-67" x="126.505859"/>
      <use xlink:href="#DejaVuSans-75" x="189.982422"/>
      <use xlink:href="#DejaVuSans-6c" x="253.361328"/>
      <use xlink:href="#DejaVuSans-61" x="281.144531"/>
      <use xlink:href="#DejaVuSans-72" x="342.423828"/>
      <use xlink:href="#DejaVuSans-69" x="383.537109"/>
      <use xlink:href="#DejaVuSans-7a" x="411.320312"/>
      <use xlink:href="#DejaVuSans-61" x="463.810547"/>
      <use xlink:href="#DejaVuSans-74" x="525.089844"/>
      <use xlink:href="#DejaVuSans-69" x="564.298828"/>
      <use xlink:href="#DejaVuSans-6f" x="592.082031"/>
      <use xlink:href="#DejaVuSans-6e" x="653.263672"/>
      <use xlink:href="#DejaVuSans-20" x="716.642578"/>
      <use xlink:href="#DejaVuSans-31" x="748.429688"/>
      <use xlink:href="#DejaVuSans-65" x="812.052734"/>
      <use xlink:href="#DejaVuSans-2d" x="873.576172"/>
      <use xlink:href="#DejaVuSans-34" x="909.660156"/>
     </g>
    </g>
    <g id="line2d_30">
     <path d="M 280.391875 69.248563 
L 290.391875 69.248563 
L 300.391875 69.248563 
" style="fill: none; stroke: #ff7f0e; stroke-width: 1.5; stroke-linecap: square"/>
    </g>
    <g id="text_13">
     <!-- Regularization 1e-3 -->
     <g transform="translate(308.391875 72.748563)scale(0.1 -0.1)">
      <defs>
       <path id="DejaVuSans-33" d="M 2597 2516 
Q 3050 2419 3304 2112 
Q 3559 1806 3559 1356 
Q 3559 666 3084 287 
Q 2609 -91 1734 -91 
Q 1441 -91 1130 -33 
Q 819 25 488 141 
L 488 750 
Q 750 597 1062 519 
Q 1375 441 1716 441 
Q 2309 441 2620 675 
Q 2931 909 2931 1356 
Q 2931 1769 2642 2001 
Q 2353 2234 1838 2234 
L 1294 2234 
L 1294 2753 
L 1863 2753 
Q 2328 2753 2575 2939 
Q 2822 3125 2822 3475 
Q 2822 3834 2567 4026 
Q 2313 4219 1838 4219 
Q 1578 4219 1281 4162 
Q 984 4106 628 3988 
L 628 4550 
Q 988 4650 1302 4700 
Q 1616 4750 1894 4750 
Q 2613 4750 3031 4423 
Q 3450 4097 3450 3541 
Q 3450 3153 3228 2886 
Q 3006 2619 2597 2516 
z
" transform="scale(0.015625)"/>
      </defs>
      <use xlink:href="#DejaVuSans-52"/>
      <use xlink:href="#DejaVuSans-65" x="64.982422"/>
      <use xlink:href="#DejaVuSans-67" x="126.505859"/>
      <use xlink:href="#DejaVuSans-75" x="189.982422"/>
      <use xlink:href="#DejaVuSans-6c" x="253.361328"/>
      <use xlink:href="#DejaVuSans-61" x="281.144531"/>
      <use xlink:href="#DejaVuSans-72" x="342.423828"/>
      <use xlink:href="#DejaVuSans-69" x="383.537109"/>
      <use xlink:href="#DejaVuSans-7a" x="411.320312"/>
      <use xlink:href="#DejaVuSans-61" x="463.810547"/>
      <use xlink:href="#DejaVuSans-74" x="525.089844"/>
      <use xlink:href="#DejaVuSans-69" x="564.298828"/>
      <use xlink:href="#DejaVuSans-6f" x="592.082031"/>
      <use xlink:href="#DejaVuSans-6e" x="653.263672"/>
      <use xlink:href="#DejaVuSans-20" x="716.642578"/>
      <use xlink:href="#DejaVuSans-31" x="748.429688"/>
      <use xlink:href="#DejaVuSans-65" x="812.052734"/>
      <use xlink:href="#DejaVuSans-2d" x="873.576172"/>
      <use xlink:href="#DejaVuSans-33" x="909.660156"/>
     </g>
    </g>
    <g id="line2d_31">
     <path d="M 280.391875 83.926688 
L 290.391875 83.926688 
L 300.391875 83.926688 
" style="fill: none; stroke: #2ca02c; stroke-width: 1.5; stroke-linecap: square"/>
    </g>
    <g id="text_14">
     <!-- No Regularization -->
     <g transform="translate(308.391875 87.426688)scale(0.1 -0.1)">
      <defs>
       <path id="DejaVuSans-4e" d="M 628 4666 
L 1478 4666 
L 3547 763 
L 3547 4666 
L 4159 4666 
L 4159 0 
L 3309 0 
L 1241 3903 
L 1241 0 
L 628 0 
L 628 4666 
z
" transform="scale(0.015625)"/>
      </defs>
      <use xlink:href="#DejaVuSans-4e"/>
      <use xlink:href="#DejaVuSans-6f" x="74.804688"/>
      <use xlink:href="#DejaVuSans-20" x="135.986328"/>
      <use xlink:href="#DejaVuSans-52" x="167.773438"/>
      <use xlink:href="#DejaVuSans-65" x="232.755859"/>
      <use xlink:href="#DejaVuSans-67" x="294.279297"/>
      <use xlink:href="#DejaVuSans-75" x="357.755859"/>
      <use xlink:href="#DejaVuSans-6c" x="421.134766"/>
      <use xlink:href="#DejaVuSans-61" x="448.917969"/>
      <use xlink:href="#DejaVuSans-72" x="510.197266"/>
      <use xlink:href="#DejaVuSans-69" x="551.310547"/>
      <use xlink:href="#DejaVuSans-7a" x="579.09375"/>
      <use xlink:href="#DejaVuSans-61" x="631.583984"/>
      <use xlink:href="#DejaVuSans-74" x="692.863281"/>
      <use xlink:href="#DejaVuSans-69" x="732.072266"/>
      <use xlink:href="#DejaVuSans-6f" x="759.855469"/>
      <use xlink:href="#DejaVuSans-6e" x="821.037109"/>
     </g>
    </g>
   </g>
  </g>
 </g>
 <defs>
  <clipPath id="p170ee625e6">
   <rect x="57.6" y="41.472" width="357.12" height="266.112"/>
  </clipPath>
 </defs>
</svg>
