<?xml version="1.0" encoding="utf-8" standalone="no"?>
<!DOCTYPE svg PUBLIC "-//W3C//DTD SVG 1.1//EN"
  "http://www.w3.org/Graphics/SVG/1.1/DTD/svg11.dtd">
<svg xmlns:xlink="http://www.w3.org/1999/xlink" width="1011.833268pt" height="369.248625pt" viewBox="0 0 1011.833268 369.248625" xmlns="http://www.w3.org/2000/svg" version="1.1">
 <metadata>
  <rdf:RDF xmlns:dc="http://purl.org/dc/elements/1.1/" xmlns:cc="http://creativecommons.org/ns#" xmlns:rdf="http://www.w3.org/1999/02/22-rdf-syntax-ns#">
   <cc:Work>
    <dc:type rdf:resource="http://purl.org/dc/dcmitype/StillImage"/>
    <dc:date>2024-06-14T19:12:58.108934</dc:date>
    <dc:format>image/svg+xml</dc:format>
    <dc:creator>
     <cc:Agent>
      <dc:title>Matplotlib v3.5.3, https://matplotlib.org/</dc:title>
     </cc:Agent>
    </dc:creator>
   </cc:Work>
  </rdf:RDF>
 </metadata>
 <defs>
  <style type="text/css">*{stroke-linejoin: round; stroke-linecap: butt}</style>
 </defs>
 <g id="figure_1">
  <g id="patch_1">
   <path d="M 0 369.248625 
L 1011.833268 369.248625 
L 1011.833268 0 
L 0 0 
z
" style="fill: #ffffff"/>
  </g>
  <g id="axes_1">
   <g id="patch_2">
    <path d="M 52.869375 325.8855 
L 332.799932 325.8855 
L 332.799932 25.3575 
L 52.869375 25.3575 
z
" style="fill: #ffffff"/>
   </g>
   <g id="matplotlib.axis_1">
    <g id="xtick_1">
     <g id="line2d_1">
      <path d="M 65.593491 325.8855 
L 65.593491 25.3575 
" clip-path="url(#p858fa9f99a)" style="fill: none; stroke: #b0b0b0; stroke-width: 0.8; stroke-linecap: square"/>
     </g>
     <g id="line2d_2">
      <defs>
       <path id="m3b41d6b053" d="M 0 0 
L 0 3.5 
" style="stroke: #000000; stroke-width: 0.8"/>
      </defs>
      <g>
       <use xlink:href="#m3b41d6b053" x="65.593491" y="325.8855" style="stroke: #000000; stroke-width: 0.8"/>
      </g>
     </g>
     <g id="text_1">
      <!-- 0 -->
      <g transform="translate(61.775991 342.003625)scale(0.12 -0.12)">
       <defs>
        <path id="DejaVuSans-30" d="M 2034 4250 
Q 1547 4250 1301 3770 
Q 1056 3291 1056 2328 
Q 1056 1369 1301 889 
Q 1547 409 2034 409 
Q 2525 409 2770 889 
Q 3016 1369 3016 2328 
Q 3016 3291 2770 3770 
Q 2525 4250 2034 4250 
z
M 2034 4750 
Q 2819 4750 3233 4129 
Q 3647 3509 3647 2328 
Q 3647 1150 3233 529 
Q 2819 -91 2034 -91 
Q 1250 -91 836 529 
Q 422 1150 422 2328 
Q 422 3509 836 4129 
Q 1250 4750 2034 4750 
z
" transform="scale(0.015625)"/>
       </defs>
       <use xlink:href="#DejaVuSans-30"/>
      </g>
     </g>
    </g>
    <g id="xtick_2">
     <g id="line2d_3">
      <path d="M 117.528659 325.8855 
L 117.528659 25.3575 
" clip-path="url(#p858fa9f99a)" style="fill: none; stroke: #b0b0b0; stroke-width: 0.8; stroke-linecap: square"/>
     </g>
     <g id="line2d_4">
      <g>
       <use xlink:href="#m3b41d6b053" x="117.528659" y="325.8855" style="stroke: #000000; stroke-width: 0.8"/>
      </g>
     </g>
     <g id="text_2">
      <!-- 10 -->
      <g transform="translate(109.893659 342.003625)scale(0.12 -0.12)">
       <defs>
        <path id="DejaVuSans-31" d="M 794 531 
L 1825 531 
L 1825 4091 
L 703 3866 
L 703 4441 
L 1819 4666 
L 2450 4666 
L 2450 531 
L 3481 531 
L 3481 0 
L 794 0 
L 794 531 
z
" transform="scale(0.015625)"/>
       </defs>
       <use xlink:href="#DejaVuSans-31"/>
       <use xlink:href="#DejaVuSans-30" x="63.623047"/>
      </g>
     </g>
    </g>
    <g id="xtick_3">
     <g id="line2d_5">
      <path d="M 169.463828 325.8855 
L 169.463828 25.3575 
" clip-path="url(#p858fa9f99a)" style="fill: none; stroke: #b0b0b0; stroke-width: 0.8; stroke-linecap: square"/>
     </g>
     <g id="line2d_6">
      <g>
       <use xlink:href="#m3b41d6b053" x="169.463828" y="325.8855" style="stroke: #000000; stroke-width: 0.8"/>
      </g>
     </g>
     <g id="text_3">
      <!-- 20 -->
      <g transform="translate(161.828828 342.003625)scale(0.12 -0.12)">
       <defs>
        <path id="DejaVuSans-32" d="M 1228 531 
L 3431 531 
L 3431 0 
L 469 0 
L 469 531 
Q 828 903 1448 1529 
Q 2069 2156 2228 2338 
Q 2531 2678 2651 2914 
Q 2772 3150 2772 3378 
Q 2772 3750 2511 3984 
Q 2250 4219 1831 4219 
Q 1534 4219 1204 4116 
Q 875 4013 500 3803 
L 500 4441 
Q 881 4594 1212 4672 
Q 1544 4750 1819 4750 
Q 2544 4750 2975 4387 
Q 3406 4025 3406 3419 
Q 3406 3131 3298 2873 
Q 3191 2616 2906 2266 
Q 2828 2175 2409 1742 
Q 1991 1309 1228 531 
z
" transform="scale(0.015625)"/>
       </defs>
       <use xlink:href="#DejaVuSans-32"/>
       <use xlink:href="#DejaVuSans-30" x="63.623047"/>
      </g>
     </g>
    </g>
    <g id="xtick_4">
     <g id="line2d_7">
      <path d="M 221.398996 325.8855 
L 221.398996 25.3575 
" clip-path="url(#p858fa9f99a)" style="fill: none; stroke: #b0b0b0; stroke-width: 0.8; stroke-linecap: square"/>
     </g>
     <g id="line2d_8">
      <g>
       <use xlink:href="#m3b41d6b053" x="221.398996" y="325.8855" style="stroke: #000000; stroke-width: 0.8"/>
      </g>
     </g>
     <g id="text_4">
      <!-- 30 -->
      <g transform="translate(213.763996 342.003625)scale(0.12 -0.12)">
       <defs>
        <path id="DejaVuSans-33" d="M 2597 2516 
Q 3050 2419 3304 2112 
Q 3559 1806 3559 1356 
Q 3559 666 3084 287 
Q 2609 -91 1734 -91 
Q 1441 -91 1130 -33 
Q 819 25 488 141 
L 488 750 
Q 750 597 1062 519 
Q 1375 441 1716 441 
Q 2309 441 2620 675 
Q 2931 909 2931 1356 
Q 2931 1769 2642 2001 
Q 2353 2234 1838 2234 
L 1294 2234 
L 1294 2753 
L 1863 2753 
Q 2328 2753 2575 2939 
Q 2822 3125 2822 3475 
Q 2822 3834 2567 4026 
Q 2313 4219 1838 4219 
Q 1578 4219 1281 4162 
Q 984 4106 628 3988 
L 628 4550 
Q 988 4650 1302 4700 
Q 1616 4750 1894 4750 
Q 2613 4750 3031 4423 
Q 3450 4097 3450 3541 
Q 3450 3153 3228 2886 
Q 3006 2619 2597 2516 
z
" transform="scale(0.015625)"/>
       </defs>
       <use xlink:href="#DejaVuSans-33"/>
       <use xlink:href="#DejaVuSans-30" x="63.623047"/>
      </g>
     </g>
    </g>
    <g id="xtick_5">
     <g id="line2d_9">
      <path d="M 273.334164 325.8855 
L 273.334164 25.3575 
" clip-path="url(#p858fa9f99a)" style="fill: none; stroke: #b0b0b0; stroke-width: 0.8; stroke-linecap: square"/>
     </g>
     <g id="line2d_10">
      <g>
       <use xlink:href="#m3b41d6b053" x="273.334164" y="325.8855" style="stroke: #000000; stroke-width: 0.8"/>
      </g>
     </g>
     <g id="text_5">
      <!-- 40 -->
      <g transform="translate(265.699164 342.003625)scale(0.12 -0.12)">
       <defs>
        <path id="DejaVuSans-34" d="M 2419 4116 
L 825 1625 
L 2419 1625 
L 2419 4116 
z
M 2253 4666 
L 3047 4666 
L 3047 1625 
L 3713 1625 
L 3713 1100 
L 3047 1100 
L 3047 0 
L 2419 0 
L 2419 1100 
L 313 1100 
L 313 1709 
L 2253 4666 
z
" transform="scale(0.015625)"/>
       </defs>
       <use xlink:href="#DejaVuSans-34"/>
       <use xlink:href="#DejaVuSans-30" x="63.623047"/>
      </g>
     </g>
    </g>
    <g id="xtick_6">
     <g id="line2d_11">
      <path d="M 325.269332 325.8855 
L 325.269332 25.3575 
" clip-path="url(#p858fa9f99a)" style="fill: none; stroke: #b0b0b0; stroke-width: 0.8; stroke-linecap: square"/>
     </g>
     <g id="line2d_12">
      <g>
       <use xlink:href="#m3b41d6b053" x="325.269332" y="325.8855" style="stroke: #000000; stroke-width: 0.8"/>
      </g>
     </g>
     <g id="text_6">
      <!-- 50 -->
      <g transform="translate(317.634332 342.003625)scale(0.12 -0.12)">
       <defs>
        <path id="DejaVuSans-35" d="M 691 4666 
L 3169 4666 
L 3169 4134 
L 1269 4134 
L 1269 2991 
Q 1406 3038 1543 3061 
Q 1681 3084 1819 3084 
Q 2600 3084 3056 2656 
Q 3513 2228 3513 1497 
Q 3513 744 3044 326 
Q 2575 -91 1722 -91 
Q 1428 -91 1123 -41 
Q 819 9 494 109 
L 494 744 
Q 775 591 1075 516 
Q 1375 441 1709 441 
Q 2250 441 2565 725 
Q 2881 1009 2881 1497 
Q 2881 1984 2565 2268 
Q 2250 2553 1709 2553 
Q 1456 2553 1204 2497 
Q 953 2441 691 2322 
L 691 4666 
z
" transform="scale(0.015625)"/>
       </defs>
       <use xlink:href="#DejaVuSans-35"/>
       <use xlink:href="#DejaVuSans-30" x="63.623047"/>
      </g>
     </g>
    </g>
    <g id="text_7">
     <!-- Epoch -->
     <g transform="translate(171.399341 359.137063)scale(0.14 -0.14)">
      <defs>
       <path id="DejaVuSans-45" d="M 628 4666 
L 3578 4666 
L 3578 4134 
L 1259 4134 
L 1259 2753 
L 3481 2753 
L 3481 2222 
L 1259 2222 
L 1259 531 
L 3634 531 
L 3634 0 
L 628 0 
L 628 4666 
z
" transform="scale(0.015625)"/>
       <path id="DejaVuSans-70" d="M 1159 525 
L 1159 -1331 
L 581 -1331 
L 581 3500 
L 1159 3500 
L 1159 2969 
Q 1341 3281 1617 3432 
Q 1894 3584 2278 3584 
Q 2916 3584 3314 3078 
Q 3713 2572 3713 1747 
Q 3713 922 3314 415 
Q 2916 -91 2278 -91 
Q 1894 -91 1617 61 
Q 1341 213 1159 525 
z
M 3116 1747 
Q 3116 2381 2855 2742 
Q 2594 3103 2138 3103 
Q 1681 3103 1420 2742 
Q 1159 2381 1159 1747 
Q 1159 1113 1420 752 
Q 1681 391 2138 391 
Q 2594 391 2855 752 
Q 3116 1113 3116 1747 
z
" transform="scale(0.015625)"/>
       <path id="DejaVuSans-6f" d="M 1959 3097 
Q 1497 3097 1228 2736 
Q 959 2375 959 1747 
Q 959 1119 1226 758 
Q 1494 397 1959 397 
Q 2419 397 2687 759 
Q 2956 1122 2956 1747 
Q 2956 2369 2687 2733 
Q 2419 3097 1959 3097 
z
M 1959 3584 
Q 2709 3584 3137 3096 
Q 3566 2609 3566 1747 
Q 3566 888 3137 398 
Q 2709 -91 1959 -91 
Q 1206 -91 779 398 
Q 353 888 353 1747 
Q 353 2609 779 3096 
Q 1206 3584 1959 3584 
z
" transform="scale(0.015625)"/>
       <path id="DejaVuSans-63" d="M 3122 3366 
L 3122 2828 
Q 2878 2963 2633 3030 
Q 2388 3097 2138 3097 
Q 1578 3097 1268 2742 
Q 959 2388 959 1747 
Q 959 1106 1268 751 
Q 1578 397 2138 397 
Q 2388 397 2633 464 
Q 2878 531 3122 666 
L 3122 134 
Q 2881 22 2623 -34 
Q 2366 -91 2075 -91 
Q 1284 -91 818 406 
Q 353 903 353 1747 
Q 353 2603 823 3093 
Q 1294 3584 2113 3584 
Q 2378 3584 2631 3529 
Q 2884 3475 3122 3366 
z
" transform="scale(0.015625)"/>
       <path id="DejaVuSans-68" d="M 3513 2113 
L 3513 0 
L 2938 0 
L 2938 2094 
Q 2938 2591 2744 2837 
Q 2550 3084 2163 3084 
Q 1697 3084 1428 2787 
Q 1159 2491 1159 1978 
L 1159 0 
L 581 0 
L 581 4863 
L 1159 4863 
L 1159 2956 
Q 1366 3272 1645 3428 
Q 1925 3584 2291 3584 
Q 2894 3584 3203 3211 
Q 3513 2838 3513 2113 
z
" transform="scale(0.015625)"/>
      </defs>
      <use xlink:href="#DejaVuSans-45"/>
      <use xlink:href="#DejaVuSans-70" x="63.183594"/>
      <use xlink:href="#DejaVuSans-6f" x="126.660156"/>
      <use xlink:href="#DejaVuSans-63" x="187.841797"/>
      <use xlink:href="#DejaVuSans-68" x="242.822266"/>
     </g>
    </g>
   </g>
   <g id="matplotlib.axis_2">
    <g id="ytick_1">
     <g id="line2d_13">
      <path d="M 52.869375 206.355288 
L 332.799932 206.355288 
" clip-path="url(#p858fa9f99a)" style="fill: none; stroke: #b0b0b0; stroke-width: 0.8; stroke-linecap: square"/>
     </g>
     <g id="line2d_14">
      <defs>
       <path id="mb5d0f59b30" d="M 0 0 
L -3.5 0 
" style="stroke: #000000; stroke-width: 0.8"/>
      </defs>
      <g>
       <use xlink:href="#mb5d0f59b30" x="52.869375" y="206.355288" style="stroke: #000000; stroke-width: 0.8"/>
      </g>
     </g>
     <g id="text_8">
      <!-- $\mathdefault{10^{0}}$ -->
      <g transform="translate(24.749375 210.91435)scale(0.12 -0.12)">
       <use xlink:href="#DejaVuSans-31" transform="translate(0 0.765625)"/>
       <use xlink:href="#DejaVuSans-30" transform="translate(63.623047 0.765625)"/>
       <use xlink:href="#DejaVuSans-30" transform="translate(128.203125 39.046875)scale(0.7)"/>
      </g>
     </g>
    </g>
    <g id="ytick_2">
     <g id="line2d_15">
      <defs>
       <path id="m97976f86fa" d="M 0 0 
L -2 0 
" style="stroke: #000000; stroke-width: 0.6"/>
      </defs>
      <g>
       <use xlink:href="#m97976f86fa" x="52.869375" y="313.651074" style="stroke: #000000; stroke-width: 0.6"/>
      </g>
     </g>
    </g>
    <g id="ytick_3">
     <g id="line2d_16">
      <g>
       <use xlink:href="#m97976f86fa" x="52.869375" y="287.521417" style="stroke: #000000; stroke-width: 0.6"/>
      </g>
     </g>
    </g>
    <g id="ytick_4">
     <g id="line2d_17">
      <g>
       <use xlink:href="#m97976f86fa" x="52.869375" y="266.171932" style="stroke: #000000; stroke-width: 0.6"/>
      </g>
     </g>
    </g>
    <g id="ytick_5">
     <g id="line2d_18">
      <g>
       <use xlink:href="#m97976f86fa" x="52.869375" y="248.1212" style="stroke: #000000; stroke-width: 0.6"/>
      </g>
     </g>
    </g>
    <g id="ytick_6">
     <g id="line2d_19">
      <g>
       <use xlink:href="#m97976f86fa" x="52.869375" y="232.484945" style="stroke: #000000; stroke-width: 0.6"/>
      </g>
     </g>
    </g>
    <g id="ytick_7">
     <g id="line2d_20">
      <g>
       <use xlink:href="#m97976f86fa" x="52.869375" y="218.69279" style="stroke: #000000; stroke-width: 0.6"/>
      </g>
     </g>
    </g>
    <g id="ytick_8">
     <g id="line2d_21">
      <g>
       <use xlink:href="#m97976f86fa" x="52.869375" y="125.189159" style="stroke: #000000; stroke-width: 0.6"/>
      </g>
     </g>
    </g>
    <g id="ytick_9">
     <g id="line2d_22">
      <g>
       <use xlink:href="#m97976f86fa" x="52.869375" y="77.710017" style="stroke: #000000; stroke-width: 0.6"/>
      </g>
     </g>
    </g>
    <g id="ytick_10">
     <g id="line2d_23">
      <g>
       <use xlink:href="#m97976f86fa" x="52.869375" y="44.023029" style="stroke: #000000; stroke-width: 0.6"/>
      </g>
     </g>
    </g>
    <g id="text_9">
     <!-- MSE Error -->
     <g transform="translate(17.837813 209.812125)rotate(-90)scale(0.14 -0.14)">
      <defs>
       <path id="DejaVuSans-4d" d="M 628 4666 
L 1569 4666 
L 2759 1491 
L 3956 4666 
L 4897 4666 
L 4897 0 
L 4281 0 
L 4281 4097 
L 3078 897 
L 2444 897 
L 1241 4097 
L 1241 0 
L 628 0 
L 628 4666 
z
" transform="scale(0.015625)"/>
       <path id="DejaVuSans-53" d="M 3425 4513 
L 3425 3897 
Q 3066 4069 2747 4153 
Q 2428 4238 2131 4238 
Q 1616 4238 1336 4038 
Q 1056 3838 1056 3469 
Q 1056 3159 1242 3001 
Q 1428 2844 1947 2747 
L 2328 2669 
Q 3034 2534 3370 2195 
Q 3706 1856 3706 1288 
Q 3706 609 3251 259 
Q 2797 -91 1919 -91 
Q 1588 -91 1214 -16 
Q 841 59 441 206 
L 441 856 
Q 825 641 1194 531 
Q 1563 422 1919 422 
Q 2459 422 2753 634 
Q 3047 847 3047 1241 
Q 3047 1584 2836 1778 
Q 2625 1972 2144 2069 
L 1759 2144 
Q 1053 2284 737 2584 
Q 422 2884 422 3419 
Q 422 4038 858 4394 
Q 1294 4750 2059 4750 
Q 2388 4750 2728 4690 
Q 3069 4631 3425 4513 
z
" transform="scale(0.015625)"/>
       <path id="DejaVuSans-20" transform="scale(0.015625)"/>
       <path id="DejaVuSans-72" d="M 2631 2963 
Q 2534 3019 2420 3045 
Q 2306 3072 2169 3072 
Q 1681 3072 1420 2755 
Q 1159 2438 1159 1844 
L 1159 0 
L 581 0 
L 581 3500 
L 1159 3500 
L 1159 2956 
Q 1341 3275 1631 3429 
Q 1922 3584 2338 3584 
Q 2397 3584 2469 3576 
Q 2541 3569 2628 3553 
L 2631 2963 
z
" transform="scale(0.015625)"/>
      </defs>
      <use xlink:href="#DejaVuSans-4d"/>
      <use xlink:href="#DejaVuSans-53" x="86.279297"/>
      <use xlink:href="#DejaVuSans-45" x="149.755859"/>
      <use xlink:href="#DejaVuSans-20" x="212.939453"/>
      <use xlink:href="#DejaVuSans-45" x="244.726562"/>
      <use xlink:href="#DejaVuSans-72" x="307.910156"/>
      <use xlink:href="#DejaVuSans-72" x="347.273438"/>
      <use xlink:href="#DejaVuSans-6f" x="386.136719"/>
      <use xlink:href="#DejaVuSans-72" x="447.318359"/>
     </g>
    </g>
   </g>
   <g id="line2d_24">
    <path d="M 65.593491 70.693532 
L 70.787008 71.651337 
L 75.980525 72.597155 
L 81.174042 73.530622 
L 86.367558 74.451495 
L 91.561075 75.359854 
L 96.754592 76.256168 
L 101.948109 77.141298 
L 107.141626 78.016337 
L 112.335143 78.882443 
L 117.528659 79.740762 
L 122.722176 80.592274 
L 127.915693 81.437841 
L 133.10921 82.278391 
L 138.302727 83.114688 
L 143.496244 83.947557 
L 148.68976 84.777753 
L 153.883277 85.606003 
L 159.076794 86.433023 
L 164.270311 87.259525 
L 169.463828 88.086166 
L 174.657344 88.913688 
L 179.850861 89.742726 
L 185.044378 90.573988 
L 190.237895 91.40818 
L 195.431412 92.246082 
L 200.624929 93.088314 
L 205.818445 93.935729 
L 211.011962 94.788977 
L 216.205479 95.648856 
L 221.398996 96.516058 
L 226.592513 97.391359 
L 231.786029 98.275438 
L 236.979546 99.169082 
L 242.173063 100.072966 
L 247.36658 100.987809 
L 252.560097 101.914307 
L 257.753614 102.853143 
L 262.94713 103.805009 
L 268.140647 104.770516 
L 273.334164 105.750327 
L 278.527681 106.745061 
L 283.721198 107.755281 
L 288.914715 108.781584 
L 294.108231 109.824492 
L 299.301748 110.88448 
L 304.495265 111.96208 
L 309.688782 113.057693 
L 314.882299 114.171709 
L 320.075815 115.304533 
" clip-path="url(#p858fa9f99a)" style="fill: none; stroke: #1f77b4; stroke-width: 1.5; stroke-linecap: square"/>
   </g>
   <g id="line2d_25">
    <path d="M 65.593491 67.427124 
L 70.787008 69.493421 
L 75.980525 71.499486 
L 81.174042 73.446179 
L 86.367558 75.333962 
L 91.561075 77.163601 
L 96.754592 78.93673 
L 101.948109 80.656215 
L 107.141626 82.325912 
L 112.335143 83.950365 
L 117.528659 85.534605 
L 122.722176 87.084203 
L 127.915693 88.604914 
L 133.10921 90.102747 
L 138.302727 91.583575 
L 143.496244 93.053087 
L 148.68976 94.516674 
L 153.883277 95.979356 
L 159.076794 97.445703 
L 164.270311 98.919926 
L 169.463828 100.405817 
L 174.657344 101.906812 
L 179.850861 103.426011 
L 185.044378 104.966213 
L 190.237895 106.530098 
L 195.431412 108.120122 
L 200.624929 109.738776 
L 205.818445 111.388492 
L 211.011962 113.071726 
L 216.205479 114.790851 
L 221.398996 116.54822 
L 226.592513 118.346097 
L 231.786029 120.186494 
L 236.979546 122.071256 
L 242.173063 124.001981 
L 247.36658 125.980007 
L 252.560097 128.006396 
L 257.753614 130.082014 
L 262.94713 132.207478 
L 268.140647 134.383182 
L 273.334164 136.609326 
L 278.527681 138.885839 
L 283.721198 141.212418 
L 288.914715 143.588449 
L 294.108231 146.012942 
L 299.301748 148.484523 
L 304.495265 151.001325 
L 309.688782 153.560897 
L 314.882299 156.160202 
L 320.075815 158.795517 
" clip-path="url(#p858fa9f99a)" style="fill: none; stroke: #ff7f0e; stroke-width: 1.5; stroke-linecap: square"/>
   </g>
   <g id="line2d_26">
    <path d="M 65.593491 44.966967 
L 70.787008 49.995118 
L 75.980525 54.826113 
L 81.174042 59.465652 
L 86.367558 63.920294 
L 91.561075 68.199446 
L 96.754592 72.317113 
L 101.948109 76.289969 
L 107.141626 80.136035 
L 112.335143 83.87426 
L 117.528659 87.524027 
L 122.722176 91.104599 
L 127.915693 94.634362 
L 133.10921 98.130257 
L 138.302727 101.607467 
L 143.496244 105.079173 
L 148.68976 108.556447 
L 153.883277 112.048316 
L 159.076794 115.561565 
L 164.270311 119.101153 
L 169.463828 122.670116 
L 174.657344 126.270281 
L 179.850861 129.902553 
L 185.044378 133.567629 
L 190.237895 137.266499 
L 195.431412 141.00096 
L 200.624929 144.77395 
L 205.818445 148.58981 
L 211.011962 152.45382 
L 216.205479 156.371563 
L 221.398996 160.348187 
L 226.592513 164.387015 
L 231.786029 168.488665 
L 236.979546 172.649893 
L 242.173063 176.862981 
L 247.36658 181.115409 
L 252.560097 185.390154 
L 257.753614 189.666287 
L 262.94713 193.920442 
L 268.140647 198.128611 
L 273.334164 202.268475 
L 278.527681 206.321749 
L 283.721198 210.276562 
L 288.914715 214.128972 
L 294.108231 217.883976 
L 299.301748 221.555299 
L 304.495265 225.164254 
L 309.688782 228.737669 
L 314.882299 232.305052 
L 320.075815 235.895095 
" clip-path="url(#p858fa9f99a)" style="fill: none; stroke: #2ca02c; stroke-width: 1.5; stroke-linecap: square"/>
   </g>
   <g id="line2d_27">
    <path d="M 65.593491 39.017864 
L 70.787008 51.940023 
L 75.980525 63.526972 
L 81.174042 73.539925 
L 86.367558 81.826016 
L 91.561075 88.371778 
L 96.754592 93.339657 
L 101.948109 97.056317 
L 107.141626 99.953523 
L 112.335143 102.484591 
L 117.528659 105.047317 
L 122.722176 107.93812 
L 127.915693 111.342222 
L 133.10921 115.344939 
L 138.302727 119.950296 
L 143.496244 125.102044 
L 148.68976 130.704874 
L 153.883277 136.64515 
L 159.076794 142.810321 
L 164.270311 149.105516 
L 169.463828 155.466791 
L 174.657344 161.871302 
L 179.850861 168.344382 
L 185.044378 174.962714 
L 190.237895 181.849298 
L 195.431412 189.152182 
L 200.624929 196.998488 
L 205.818445 205.427519 
L 211.011962 214.323327 
L 216.205479 223.388605 
L 221.398996 232.208242 
L 226.592513 240.427679 
L 231.786029 247.979991 
L 236.979546 255.179193 
L 242.173063 262.536843 
L 247.36658 270.400148 
L 252.560097 278.649558 
L 257.753614 286.637794 
L 262.94713 293.511303 
L 268.140647 298.894019 
L 273.334164 303.289409 
L 278.527681 307.33779 
L 283.721198 310.613472 
L 288.914715 311.809866 
L 294.108231 310.442445 
L 299.301748 307.82368 
L 304.495265 305.848442 
L 309.688782 305.208418 
L 314.882299 305.054642 
L 320.075815 304.292844 
" clip-path="url(#p858fa9f99a)" style="fill: none; stroke: #d62728; stroke-width: 1.5; stroke-linecap: square"/>
   </g>
   <g id="line2d_28">
    <path d="M 65.593491 66.408935 
L 70.787008 78.342331 
L 75.980525 84.963177 
L 81.174042 90.797411 
L 86.367558 98.367711 
L 91.561075 107.309871 
L 96.754592 116.7399 
L 101.948109 126.336453 
L 107.141626 136.487477 
L 112.335143 147.90695 
L 117.528659 161.119718 
L 122.722176 176.168786 
L 127.915693 192.498777 
L 133.10921 208.878135 
L 138.302727 223.432463 
L 143.496244 234.863972 
L 148.68976 244.632965 
L 153.883277 254.545988 
L 159.076794 268.053195 
L 164.270311 285.498277 
L 169.463828 299.200817 
L 174.657344 298.36074 
L 179.850861 288.326614 
L 185.044378 280.377604 
L 190.237895 283.245331 
L 195.431412 285.926025 
L 200.624929 283.511967 
L 205.818445 280.657277 
L 211.011962 283.908467 
L 216.205479 292.401377 
L 221.398996 298.480396 
L 226.592513 300.681487 
L 231.786029 300.335075 
L 236.979546 300.382786 
L 242.173063 302.214111 
L 247.36658 303.977441 
L 252.560097 304.903999 
L 257.753614 304.540294 
L 262.94713 303.120618 
L 268.140647 302.160128 
L 273.334164 302.341447 
L 278.527681 303.296508 
L 283.721198 304.715114 
L 288.914715 305.829687 
L 294.108231 306.397772 
L 299.301748 306.92332 
L 304.495265 307.805469 
L 309.688782 309.232 
L 314.882299 310.947547 
L 320.075815 312.225136 
" clip-path="url(#p858fa9f99a)" style="fill: none; stroke: #9467bd; stroke-width: 1.5; stroke-linecap: square"/>
   </g>
   <g id="patch_3">
    <path d="M 52.869375 325.8855 
L 52.869375 25.3575 
" style="fill: none; stroke: #000000; stroke-width: 0.8; stroke-linejoin: miter; stroke-linecap: square"/>
   </g>
   <g id="patch_4">
    <path d="M 332.799932 325.8855 
L 332.799932 25.3575 
" style="fill: none; stroke: #000000; stroke-width: 0.8; stroke-linejoin: miter; stroke-linecap: square"/>
   </g>
   <g id="patch_5">
    <path d="M 52.869375 325.8855 
L 332.799932 325.8855 
" style="fill: none; stroke: #000000; stroke-width: 0.8; stroke-linejoin: miter; stroke-linecap: square"/>
   </g>
   <g id="patch_6">
    <path d="M 52.869375 25.3575 
L 332.799932 25.3575 
" style="fill: none; stroke: #000000; stroke-width: 0.8; stroke-linejoin: miter; stroke-linecap: square"/>
   </g>
   <g id="text_10">
    <!-- Error as a function of epochs -->
    <g transform="translate(77.730903 19.3575)scale(0.16 -0.16)">
     <defs>
      <path id="DejaVuSans-61" d="M 2194 1759 
Q 1497 1759 1228 1600 
Q 959 1441 959 1056 
Q 959 750 1161 570 
Q 1363 391 1709 391 
Q 2188 391 2477 730 
Q 2766 1069 2766 1631 
L 2766 1759 
L 2194 1759 
z
M 3341 1997 
L 3341 0 
L 2766 0 
L 2766 531 
Q 2569 213 2275 61 
Q 1981 -91 1556 -91 
Q 1019 -91 701 211 
Q 384 513 384 1019 
Q 384 1609 779 1909 
Q 1175 2209 1959 2209 
L 2766 2209 
L 2766 2266 
Q 2766 2663 2505 2880 
Q 2244 3097 1772 3097 
Q 1472 3097 1187 3025 
Q 903 2953 641 2809 
L 641 3341 
Q 956 3463 1253 3523 
Q 1550 3584 1831 3584 
Q 2591 3584 2966 3190 
Q 3341 2797 3341 1997 
z
" transform="scale(0.015625)"/>
      <path id="DejaVuSans-73" d="M 2834 3397 
L 2834 2853 
Q 2591 2978 2328 3040 
Q 2066 3103 1784 3103 
Q 1356 3103 1142 2972 
Q 928 2841 928 2578 
Q 928 2378 1081 2264 
Q 1234 2150 1697 2047 
L 1894 2003 
Q 2506 1872 2764 1633 
Q 3022 1394 3022 966 
Q 3022 478 2636 193 
Q 2250 -91 1575 -91 
Q 1294 -91 989 -36 
Q 684 19 347 128 
L 347 722 
Q 666 556 975 473 
Q 1284 391 1588 391 
Q 1994 391 2212 530 
Q 2431 669 2431 922 
Q 2431 1156 2273 1281 
Q 2116 1406 1581 1522 
L 1381 1569 
Q 847 1681 609 1914 
Q 372 2147 372 2553 
Q 372 3047 722 3315 
Q 1072 3584 1716 3584 
Q 2034 3584 2315 3537 
Q 2597 3491 2834 3397 
z
" transform="scale(0.015625)"/>
      <path id="DejaVuSans-66" d="M 2375 4863 
L 2375 4384 
L 1825 4384 
Q 1516 4384 1395 4259 
Q 1275 4134 1275 3809 
L 1275 3500 
L 2222 3500 
L 2222 3053 
L 1275 3053 
L 1275 0 
L 697 0 
L 697 3053 
L 147 3053 
L 147 3500 
L 697 3500 
L 697 3744 
Q 697 4328 969 4595 
Q 1241 4863 1831 4863 
L 2375 4863 
z
" transform="scale(0.015625)"/>
      <path id="DejaVuSans-75" d="M 544 1381 
L 544 3500 
L 1119 3500 
L 1119 1403 
Q 1119 906 1312 657 
Q 1506 409 1894 409 
Q 2359 409 2629 706 
Q 2900 1003 2900 1516 
L 2900 3500 
L 3475 3500 
L 3475 0 
L 2900 0 
L 2900 538 
Q 2691 219 2414 64 
Q 2138 -91 1772 -91 
Q 1169 -91 856 284 
Q 544 659 544 1381 
z
M 1991 3584 
L 1991 3584 
z
" transform="scale(0.015625)"/>
      <path id="DejaVuSans-6e" d="M 3513 2113 
L 3513 0 
L 2938 0 
L 2938 2094 
Q 2938 2591 2744 2837 
Q 2550 3084 2163 3084 
Q 1697 3084 1428 2787 
Q 1159 2491 1159 1978 
L 1159 0 
L 581 0 
L 581 3500 
L 1159 3500 
L 1159 2956 
Q 1366 3272 1645 3428 
Q 1925 3584 2291 3584 
Q 2894 3584 3203 3211 
Q 3513 2838 3513 2113 
z
" transform="scale(0.015625)"/>
      <path id="DejaVuSans-74" d="M 1172 4494 
L 1172 3500 
L 2356 3500 
L 2356 3053 
L 1172 3053 
L 1172 1153 
Q 1172 725 1289 603 
Q 1406 481 1766 481 
L 2356 481 
L 2356 0 
L 1766 0 
Q 1100 0 847 248 
Q 594 497 594 1153 
L 594 3053 
L 172 3053 
L 172 3500 
L 594 3500 
L 594 4494 
L 1172 4494 
z
" transform="scale(0.015625)"/>
      <path id="DejaVuSans-69" d="M 603 3500 
L 1178 3500 
L 1178 0 
L 603 0 
L 603 3500 
z
M 603 4863 
L 1178 4863 
L 1178 4134 
L 603 4134 
L 603 4863 
z
" transform="scale(0.015625)"/>
      <path id="DejaVuSans-65" d="M 3597 1894 
L 3597 1613 
L 953 1613 
Q 991 1019 1311 708 
Q 1631 397 2203 397 
Q 2534 397 2845 478 
Q 3156 559 3463 722 
L 3463 178 
Q 3153 47 2828 -22 
Q 2503 -91 2169 -91 
Q 1331 -91 842 396 
Q 353 884 353 1716 
Q 353 2575 817 3079 
Q 1281 3584 2069 3584 
Q 2775 3584 3186 3129 
Q 3597 2675 3597 1894 
z
M 3022 2063 
Q 3016 2534 2758 2815 
Q 2500 3097 2075 3097 
Q 1594 3097 1305 2825 
Q 1016 2553 972 2059 
L 3022 2063 
z
" transform="scale(0.015625)"/>
     </defs>
     <use xlink:href="#DejaVuSans-45"/>
     <use xlink:href="#DejaVuSans-72" x="63.183594"/>
     <use xlink:href="#DejaVuSans-72" x="102.546875"/>
     <use xlink:href="#DejaVuSans-6f" x="141.410156"/>
     <use xlink:href="#DejaVuSans-72" x="202.591797"/>
     <use xlink:href="#DejaVuSans-20" x="243.705078"/>
     <use xlink:href="#DejaVuSans-61" x="275.492188"/>
     <use xlink:href="#DejaVuSans-73" x="336.771484"/>
     <use xlink:href="#DejaVuSans-20" x="388.871094"/>
     <use xlink:href="#DejaVuSans-61" x="420.658203"/>
     <use xlink:href="#DejaVuSans-20" x="481.9375"/>
     <use xlink:href="#DejaVuSans-66" x="513.724609"/>
     <use xlink:href="#DejaVuSans-75" x="548.929688"/>
     <use xlink:href="#DejaVuSans-6e" x="612.308594"/>
     <use xlink:href="#DejaVuSans-63" x="675.6875"/>
     <use xlink:href="#DejaVuSans-74" x="730.667969"/>
     <use xlink:href="#DejaVuSans-69" x="769.876953"/>
     <use xlink:href="#DejaVuSans-6f" x="797.660156"/>
     <use xlink:href="#DejaVuSans-6e" x="858.841797"/>
     <use xlink:href="#DejaVuSans-20" x="922.220703"/>
     <use xlink:href="#DejaVuSans-6f" x="954.007812"/>
     <use xlink:href="#DejaVuSans-66" x="1015.189453"/>
     <use xlink:href="#DejaVuSans-20" x="1050.394531"/>
     <use xlink:href="#DejaVuSans-65" x="1082.181641"/>
     <use xlink:href="#DejaVuSans-70" x="1143.705078"/>
     <use xlink:href="#DejaVuSans-6f" x="1207.181641"/>
     <use xlink:href="#DejaVuSans-63" x="1268.363281"/>
     <use xlink:href="#DejaVuSans-68" x="1323.34375"/>
     <use xlink:href="#DejaVuSans-73" x="1386.722656"/>
    </g>
   </g>
  </g>
  <g id="axes_2">
   <g id="patch_7">
    <path d="M 388.786043 325.8855 
L 668.7166 325.8855 
L 668.7166 25.3575 
L 388.786043 25.3575 
z
" style="fill: #ffffff"/>
   </g>
   <g id="matplotlib.axis_3">
    <g id="xtick_7">
     <g id="line2d_29">
      <path d="M 399.869628 325.8855 
L 399.869628 25.3575 
" clip-path="url(#p519ed17116)" style="fill: none; stroke: #b0b0b0; stroke-width: 0.8; stroke-linecap: square"/>
     </g>
     <g id="line2d_30">
      <g>
       <use xlink:href="#m3b41d6b053" x="399.869628" y="325.8855" style="stroke: #000000; stroke-width: 0.8"/>
      </g>
     </g>
     <g id="text_11">
      <!-- 0 -->
      <g transform="translate(396.052128 342.003625)scale(0.12 -0.12)">
       <use xlink:href="#DejaVuSans-30"/>
      </g>
     </g>
    </g>
    <g id="xtick_8">
     <g id="line2d_31">
      <path d="M 439.882573 325.8855 
L 439.882573 25.3575 
" clip-path="url(#p519ed17116)" style="fill: none; stroke: #b0b0b0; stroke-width: 0.8; stroke-linecap: square"/>
     </g>
     <g id="line2d_32">
      <g>
       <use xlink:href="#m3b41d6b053" x="439.882573" y="325.8855" style="stroke: #000000; stroke-width: 0.8"/>
      </g>
     </g>
     <g id="text_12">
      <!-- 2000 -->
      <g transform="translate(424.612573 342.003625)scale(0.12 -0.12)">
       <use xlink:href="#DejaVuSans-32"/>
       <use xlink:href="#DejaVuSans-30" x="63.623047"/>
       <use xlink:href="#DejaVuSans-30" x="127.246094"/>
       <use xlink:href="#DejaVuSans-30" x="190.869141"/>
      </g>
     </g>
    </g>
    <g id="xtick_9">
     <g id="line2d_33">
      <path d="M 479.895517 325.8855 
L 479.895517 25.3575 
" clip-path="url(#p519ed17116)" style="fill: none; stroke: #b0b0b0; stroke-width: 0.8; stroke-linecap: square"/>
     </g>
     <g id="line2d_34">
      <g>
       <use xlink:href="#m3b41d6b053" x="479.895517" y="325.8855" style="stroke: #000000; stroke-width: 0.8"/>
      </g>
     </g>
     <g id="text_13">
      <!-- 4000 -->
      <g transform="translate(464.625517 342.003625)scale(0.12 -0.12)">
       <use xlink:href="#DejaVuSans-34"/>
       <use xlink:href="#DejaVuSans-30" x="63.623047"/>
       <use xlink:href="#DejaVuSans-30" x="127.246094"/>
       <use xlink:href="#DejaVuSans-30" x="190.869141"/>
      </g>
     </g>
    </g>
    <g id="xtick_10">
     <g id="line2d_35">
      <path d="M 519.908461 325.8855 
L 519.908461 25.3575 
" clip-path="url(#p519ed17116)" style="fill: none; stroke: #b0b0b0; stroke-width: 0.8; stroke-linecap: square"/>
     </g>
     <g id="line2d_36">
      <g>
       <use xlink:href="#m3b41d6b053" x="519.908461" y="325.8855" style="stroke: #000000; stroke-width: 0.8"/>
      </g>
     </g>
     <g id="text_14">
      <!-- 6000 -->
      <g transform="translate(504.638461 342.003625)scale(0.12 -0.12)">
       <defs>
        <path id="DejaVuSans-36" d="M 2113 2584 
Q 1688 2584 1439 2293 
Q 1191 2003 1191 1497 
Q 1191 994 1439 701 
Q 1688 409 2113 409 
Q 2538 409 2786 701 
Q 3034 994 3034 1497 
Q 3034 2003 2786 2293 
Q 2538 2584 2113 2584 
z
M 3366 4563 
L 3366 3988 
Q 3128 4100 2886 4159 
Q 2644 4219 2406 4219 
Q 1781 4219 1451 3797 
Q 1122 3375 1075 2522 
Q 1259 2794 1537 2939 
Q 1816 3084 2150 3084 
Q 2853 3084 3261 2657 
Q 3669 2231 3669 1497 
Q 3669 778 3244 343 
Q 2819 -91 2113 -91 
Q 1303 -91 875 529 
Q 447 1150 447 2328 
Q 447 3434 972 4092 
Q 1497 4750 2381 4750 
Q 2619 4750 2861 4703 
Q 3103 4656 3366 4563 
z
" transform="scale(0.015625)"/>
       </defs>
       <use xlink:href="#DejaVuSans-36"/>
       <use xlink:href="#DejaVuSans-30" x="63.623047"/>
       <use xlink:href="#DejaVuSans-30" x="127.246094"/>
       <use xlink:href="#DejaVuSans-30" x="190.869141"/>
      </g>
     </g>
    </g>
    <g id="xtick_11">
     <g id="line2d_37">
      <path d="M 559.921405 325.8855 
L 559.921405 25.3575 
" clip-path="url(#p519ed17116)" style="fill: none; stroke: #b0b0b0; stroke-width: 0.8; stroke-linecap: square"/>
     </g>
     <g id="line2d_38">
      <g>
       <use xlink:href="#m3b41d6b053" x="559.921405" y="325.8855" style="stroke: #000000; stroke-width: 0.8"/>
      </g>
     </g>
     <g id="text_15">
      <!-- 8000 -->
      <g transform="translate(544.651405 342.003625)scale(0.12 -0.12)">
       <defs>
        <path id="DejaVuSans-38" d="M 2034 2216 
Q 1584 2216 1326 1975 
Q 1069 1734 1069 1313 
Q 1069 891 1326 650 
Q 1584 409 2034 409 
Q 2484 409 2743 651 
Q 3003 894 3003 1313 
Q 3003 1734 2745 1975 
Q 2488 2216 2034 2216 
z
M 1403 2484 
Q 997 2584 770 2862 
Q 544 3141 544 3541 
Q 544 4100 942 4425 
Q 1341 4750 2034 4750 
Q 2731 4750 3128 4425 
Q 3525 4100 3525 3541 
Q 3525 3141 3298 2862 
Q 3072 2584 2669 2484 
Q 3125 2378 3379 2068 
Q 3634 1759 3634 1313 
Q 3634 634 3220 271 
Q 2806 -91 2034 -91 
Q 1263 -91 848 271 
Q 434 634 434 1313 
Q 434 1759 690 2068 
Q 947 2378 1403 2484 
z
M 1172 3481 
Q 1172 3119 1398 2916 
Q 1625 2713 2034 2713 
Q 2441 2713 2670 2916 
Q 2900 3119 2900 3481 
Q 2900 3844 2670 4047 
Q 2441 4250 2034 4250 
Q 1625 4250 1398 4047 
Q 1172 3844 1172 3481 
z
" transform="scale(0.015625)"/>
       </defs>
       <use xlink:href="#DejaVuSans-38"/>
       <use xlink:href="#DejaVuSans-30" x="63.623047"/>
       <use xlink:href="#DejaVuSans-30" x="127.246094"/>
       <use xlink:href="#DejaVuSans-30" x="190.869141"/>
      </g>
     </g>
    </g>
    <g id="xtick_12">
     <g id="line2d_39">
      <path d="M 599.934349 325.8855 
L 599.934349 25.3575 
" clip-path="url(#p519ed17116)" style="fill: none; stroke: #b0b0b0; stroke-width: 0.8; stroke-linecap: square"/>
     </g>
     <g id="line2d_40">
      <g>
       <use xlink:href="#m3b41d6b053" x="599.934349" y="325.8855" style="stroke: #000000; stroke-width: 0.8"/>
      </g>
     </g>
     <g id="text_16">
      <!-- 10000 -->
      <g transform="translate(580.846849 342.003625)scale(0.12 -0.12)">
       <use xlink:href="#DejaVuSans-31"/>
       <use xlink:href="#DejaVuSans-30" x="63.623047"/>
       <use xlink:href="#DejaVuSans-30" x="127.246094"/>
       <use xlink:href="#DejaVuSans-30" x="190.869141"/>
       <use xlink:href="#DejaVuSans-30" x="254.492188"/>
      </g>
     </g>
    </g>
    <g id="xtick_13">
     <g id="line2d_41">
      <path d="M 639.947293 325.8855 
L 639.947293 25.3575 
" clip-path="url(#p519ed17116)" style="fill: none; stroke: #b0b0b0; stroke-width: 0.8; stroke-linecap: square"/>
     </g>
     <g id="line2d_42">
      <g>
       <use xlink:href="#m3b41d6b053" x="639.947293" y="325.8855" style="stroke: #000000; stroke-width: 0.8"/>
      </g>
     </g>
     <g id="text_17">
      <!-- 12000 -->
      <g transform="translate(620.859793 342.003625)scale(0.12 -0.12)">
       <use xlink:href="#DejaVuSans-31"/>
       <use xlink:href="#DejaVuSans-32" x="63.623047"/>
       <use xlink:href="#DejaVuSans-30" x="127.246094"/>
       <use xlink:href="#DejaVuSans-30" x="190.869141"/>
       <use xlink:href="#DejaVuSans-30" x="254.492188"/>
      </g>
     </g>
    </g>
    <g id="text_18">
     <!-- Number of parameters -->
     <g transform="translate(448.832103 359.137063)scale(0.14 -0.14)">
      <defs>
       <path id="DejaVuSans-4e" d="M 628 4666 
L 1478 4666 
L 3547 763 
L 3547 4666 
L 4159 4666 
L 4159 0 
L 3309 0 
L 1241 3903 
L 1241 0 
L 628 0 
L 628 4666 
z
" transform="scale(0.015625)"/>
       <path id="DejaVuSans-6d" d="M 3328 2828 
Q 3544 3216 3844 3400 
Q 4144 3584 4550 3584 
Q 5097 3584 5394 3201 
Q 5691 2819 5691 2113 
L 5691 0 
L 5113 0 
L 5113 2094 
Q 5113 2597 4934 2840 
Q 4756 3084 4391 3084 
Q 3944 3084 3684 2787 
Q 3425 2491 3425 1978 
L 3425 0 
L 2847 0 
L 2847 2094 
Q 2847 2600 2669 2842 
Q 2491 3084 2119 3084 
Q 1678 3084 1418 2786 
Q 1159 2488 1159 1978 
L 1159 0 
L 581 0 
L 581 3500 
L 1159 3500 
L 1159 2956 
Q 1356 3278 1631 3431 
Q 1906 3584 2284 3584 
Q 2666 3584 2933 3390 
Q 3200 3197 3328 2828 
z
" transform="scale(0.015625)"/>
       <path id="DejaVuSans-62" d="M 3116 1747 
Q 3116 2381 2855 2742 
Q 2594 3103 2138 3103 
Q 1681 3103 1420 2742 
Q 1159 2381 1159 1747 
Q 1159 1113 1420 752 
Q 1681 391 2138 391 
Q 2594 391 2855 752 
Q 3116 1113 3116 1747 
z
M 1159 2969 
Q 1341 3281 1617 3432 
Q 1894 3584 2278 3584 
Q 2916 3584 3314 3078 
Q 3713 2572 3713 1747 
Q 3713 922 3314 415 
Q 2916 -91 2278 -91 
Q 1894 -91 1617 61 
Q 1341 213 1159 525 
L 1159 0 
L 581 0 
L 581 4863 
L 1159 4863 
L 1159 2969 
z
" transform="scale(0.015625)"/>
      </defs>
      <use xlink:href="#DejaVuSans-4e"/>
      <use xlink:href="#DejaVuSans-75" x="74.804688"/>
      <use xlink:href="#DejaVuSans-6d" x="138.183594"/>
      <use xlink:href="#DejaVuSans-62" x="235.595703"/>
      <use xlink:href="#DejaVuSans-65" x="299.072266"/>
      <use xlink:href="#DejaVuSans-72" x="360.595703"/>
      <use xlink:href="#DejaVuSans-20" x="401.708984"/>
      <use xlink:href="#DejaVuSans-6f" x="433.496094"/>
      <use xlink:href="#DejaVuSans-66" x="494.677734"/>
      <use xlink:href="#DejaVuSans-20" x="529.882812"/>
      <use xlink:href="#DejaVuSans-70" x="561.669922"/>
      <use xlink:href="#DejaVuSans-61" x="625.146484"/>
      <use xlink:href="#DejaVuSans-72" x="686.425781"/>
      <use xlink:href="#DejaVuSans-61" x="727.539062"/>
      <use xlink:href="#DejaVuSans-6d" x="788.818359"/>
      <use xlink:href="#DejaVuSans-65" x="886.230469"/>
      <use xlink:href="#DejaVuSans-74" x="947.753906"/>
      <use xlink:href="#DejaVuSans-65" x="986.962891"/>
      <use xlink:href="#DejaVuSans-72" x="1048.486328"/>
      <use xlink:href="#DejaVuSans-73" x="1089.599609"/>
     </g>
    </g>
   </g>
   <g id="matplotlib.axis_4">
    <g id="ytick_11">
     <g id="line2d_43">
      <path d="M 388.786043 308.668225 
L 668.7166 308.668225 
" clip-path="url(#p519ed17116)" style="fill: none; stroke: #b0b0b0; stroke-width: 0.8; stroke-linecap: square"/>
     </g>
     <g id="line2d_44">
      <g>
       <use xlink:href="#mb5d0f59b30" x="388.786043" y="308.668225" style="stroke: #000000; stroke-width: 0.8"/>
      </g>
     </g>
     <g id="text_19">
      <!-- 1.6 -->
      <g transform="translate(362.702293 313.227287)scale(0.12 -0.12)">
       <defs>
        <path id="DejaVuSans-2e" d="M 684 794 
L 1344 794 
L 1344 0 
L 684 0 
L 684 794 
z
" transform="scale(0.015625)"/>
       </defs>
       <use xlink:href="#DejaVuSans-31"/>
       <use xlink:href="#DejaVuSans-2e" x="63.623047"/>
       <use xlink:href="#DejaVuSans-36" x="95.410156"/>
      </g>
     </g>
    </g>
    <g id="ytick_12">
     <g id="line2d_45">
      <path d="M 388.786043 270.037501 
L 668.7166 270.037501 
" clip-path="url(#p519ed17116)" style="fill: none; stroke: #b0b0b0; stroke-width: 0.8; stroke-linecap: square"/>
     </g>
     <g id="line2d_46">
      <g>
       <use xlink:href="#mb5d0f59b30" x="388.786043" y="270.037501" style="stroke: #000000; stroke-width: 0.8"/>
      </g>
     </g>
     <g id="text_20">
      <!-- 1.8 -->
      <g transform="translate(362.702293 274.596564)scale(0.12 -0.12)">
       <use xlink:href="#DejaVuSans-31"/>
       <use xlink:href="#DejaVuSans-2e" x="63.623047"/>
       <use xlink:href="#DejaVuSans-38" x="95.410156"/>
      </g>
     </g>
    </g>
    <g id="ytick_13">
     <g id="line2d_47">
      <path d="M 388.786043 231.406778 
L 668.7166 231.406778 
" clip-path="url(#p519ed17116)" style="fill: none; stroke: #b0b0b0; stroke-width: 0.8; stroke-linecap: square"/>
     </g>
     <g id="line2d_48">
      <g>
       <use xlink:href="#mb5d0f59b30" x="388.786043" y="231.406778" style="stroke: #000000; stroke-width: 0.8"/>
      </g>
     </g>
     <g id="text_21">
      <!-- 2.0 -->
      <g transform="translate(362.702293 235.96584)scale(0.12 -0.12)">
       <use xlink:href="#DejaVuSans-32"/>
       <use xlink:href="#DejaVuSans-2e" x="63.623047"/>
       <use xlink:href="#DejaVuSans-30" x="95.410156"/>
      </g>
     </g>
    </g>
    <g id="ytick_14">
     <g id="line2d_49">
      <path d="M 388.786043 192.776054 
L 668.7166 192.776054 
" clip-path="url(#p519ed17116)" style="fill: none; stroke: #b0b0b0; stroke-width: 0.8; stroke-linecap: square"/>
     </g>
     <g id="line2d_50">
      <g>
       <use xlink:href="#mb5d0f59b30" x="388.786043" y="192.776054" style="stroke: #000000; stroke-width: 0.8"/>
      </g>
     </g>
     <g id="text_22">
      <!-- 2.2 -->
      <g transform="translate(362.702293 197.335117)scale(0.12 -0.12)">
       <use xlink:href="#DejaVuSans-32"/>
       <use xlink:href="#DejaVuSans-2e" x="63.623047"/>
       <use xlink:href="#DejaVuSans-32" x="95.410156"/>
      </g>
     </g>
    </g>
    <g id="ytick_15">
     <g id="line2d_51">
      <path d="M 388.786043 154.145331 
L 668.7166 154.145331 
" clip-path="url(#p519ed17116)" style="fill: none; stroke: #b0b0b0; stroke-width: 0.8; stroke-linecap: square"/>
     </g>
     <g id="line2d_52">
      <g>
       <use xlink:href="#mb5d0f59b30" x="388.786043" y="154.145331" style="stroke: #000000; stroke-width: 0.8"/>
      </g>
     </g>
     <g id="text_23">
      <!-- 2.4 -->
      <g transform="translate(362.702293 158.704393)scale(0.12 -0.12)">
       <use xlink:href="#DejaVuSans-32"/>
       <use xlink:href="#DejaVuSans-2e" x="63.623047"/>
       <use xlink:href="#DejaVuSans-34" x="95.410156"/>
      </g>
     </g>
    </g>
    <g id="ytick_16">
     <g id="line2d_53">
      <path d="M 388.786043 115.514607 
L 668.7166 115.514607 
" clip-path="url(#p519ed17116)" style="fill: none; stroke: #b0b0b0; stroke-width: 0.8; stroke-linecap: square"/>
     </g>
     <g id="line2d_54">
      <g>
       <use xlink:href="#mb5d0f59b30" x="388.786043" y="115.514607" style="stroke: #000000; stroke-width: 0.8"/>
      </g>
     </g>
     <g id="text_24">
      <!-- 2.6 -->
      <g transform="translate(362.702293 120.07367)scale(0.12 -0.12)">
       <use xlink:href="#DejaVuSans-32"/>
       <use xlink:href="#DejaVuSans-2e" x="63.623047"/>
       <use xlink:href="#DejaVuSans-36" x="95.410156"/>
      </g>
     </g>
    </g>
    <g id="ytick_17">
     <g id="line2d_55">
      <path d="M 388.786043 76.883884 
L 668.7166 76.883884 
" clip-path="url(#p519ed17116)" style="fill: none; stroke: #b0b0b0; stroke-width: 0.8; stroke-linecap: square"/>
     </g>
     <g id="line2d_56">
      <g>
       <use xlink:href="#mb5d0f59b30" x="388.786043" y="76.883884" style="stroke: #000000; stroke-width: 0.8"/>
      </g>
     </g>
     <g id="text_25">
      <!-- 2.8 -->
      <g transform="translate(362.702293 81.442946)scale(0.12 -0.12)">
       <use xlink:href="#DejaVuSans-32"/>
       <use xlink:href="#DejaVuSans-2e" x="63.623047"/>
       <use xlink:href="#DejaVuSans-38" x="95.410156"/>
      </g>
     </g>
    </g>
    <g id="ytick_18">
     <g id="line2d_57">
      <path d="M 388.786043 38.253161 
L 668.7166 38.253161 
" clip-path="url(#p519ed17116)" style="fill: none; stroke: #b0b0b0; stroke-width: 0.8; stroke-linecap: square"/>
     </g>
     <g id="line2d_58">
      <g>
       <use xlink:href="#mb5d0f59b30" x="388.786043" y="38.253161" style="stroke: #000000; stroke-width: 0.8"/>
      </g>
     </g>
     <g id="text_26">
      <!-- 3.0 -->
      <g transform="translate(362.702293 42.812223)scale(0.12 -0.12)">
       <use xlink:href="#DejaVuSans-33"/>
       <use xlink:href="#DejaVuSans-2e" x="63.623047"/>
       <use xlink:href="#DejaVuSans-30" x="95.410156"/>
      </g>
     </g>
    </g>
    <g id="text_27">
     <!-- CPU-time(s) -->
     <g transform="translate(355.79073 217.302125)rotate(-90)scale(0.14 -0.14)">
      <defs>
       <path id="DejaVuSans-43" d="M 4122 4306 
L 4122 3641 
Q 3803 3938 3442 4084 
Q 3081 4231 2675 4231 
Q 1875 4231 1450 3742 
Q 1025 3253 1025 2328 
Q 1025 1406 1450 917 
Q 1875 428 2675 428 
Q 3081 428 3442 575 
Q 3803 722 4122 1019 
L 4122 359 
Q 3791 134 3420 21 
Q 3050 -91 2638 -91 
Q 1578 -91 968 557 
Q 359 1206 359 2328 
Q 359 3453 968 4101 
Q 1578 4750 2638 4750 
Q 3056 4750 3426 4639 
Q 3797 4528 4122 4306 
z
" transform="scale(0.015625)"/>
       <path id="DejaVuSans-50" d="M 1259 4147 
L 1259 2394 
L 2053 2394 
Q 2494 2394 2734 2622 
Q 2975 2850 2975 3272 
Q 2975 3691 2734 3919 
Q 2494 4147 2053 4147 
L 1259 4147 
z
M 628 4666 
L 2053 4666 
Q 2838 4666 3239 4311 
Q 3641 3956 3641 3272 
Q 3641 2581 3239 2228 
Q 2838 1875 2053 1875 
L 1259 1875 
L 1259 0 
L 628 0 
L 628 4666 
z
" transform="scale(0.015625)"/>
       <path id="DejaVuSans-55" d="M 556 4666 
L 1191 4666 
L 1191 1831 
Q 1191 1081 1462 751 
Q 1734 422 2344 422 
Q 2950 422 3222 751 
Q 3494 1081 3494 1831 
L 3494 4666 
L 4128 4666 
L 4128 1753 
Q 4128 841 3676 375 
Q 3225 -91 2344 -91 
Q 1459 -91 1007 375 
Q 556 841 556 1753 
L 556 4666 
z
" transform="scale(0.015625)"/>
       <path id="DejaVuSans-2d" d="M 313 2009 
L 1997 2009 
L 1997 1497 
L 313 1497 
L 313 2009 
z
" transform="scale(0.015625)"/>
       <path id="DejaVuSans-28" d="M 1984 4856 
Q 1566 4138 1362 3434 
Q 1159 2731 1159 2009 
Q 1159 1288 1364 580 
Q 1569 -128 1984 -844 
L 1484 -844 
Q 1016 -109 783 600 
Q 550 1309 550 2009 
Q 550 2706 781 3412 
Q 1013 4119 1484 4856 
L 1984 4856 
z
" transform="scale(0.015625)"/>
       <path id="DejaVuSans-29" d="M 513 4856 
L 1013 4856 
Q 1481 4119 1714 3412 
Q 1947 2706 1947 2009 
Q 1947 1309 1714 600 
Q 1481 -109 1013 -844 
L 513 -844 
Q 928 -128 1133 580 
Q 1338 1288 1338 2009 
Q 1338 2731 1133 3434 
Q 928 4138 513 4856 
z
" transform="scale(0.015625)"/>
      </defs>
      <use xlink:href="#DejaVuSans-43"/>
      <use xlink:href="#DejaVuSans-50" x="69.824219"/>
      <use xlink:href="#DejaVuSans-55" x="130.126953"/>
      <use xlink:href="#DejaVuSans-2d" x="203.320312"/>
      <use xlink:href="#DejaVuSans-74" x="239.404297"/>
      <use xlink:href="#DejaVuSans-69" x="278.613281"/>
      <use xlink:href="#DejaVuSans-6d" x="306.396484"/>
      <use xlink:href="#DejaVuSans-65" x="403.808594"/>
      <use xlink:href="#DejaVuSans-28" x="465.332031"/>
      <use xlink:href="#DejaVuSans-73" x="504.345703"/>
      <use xlink:href="#DejaVuSans-29" x="556.445312"/>
     </g>
    </g>
   </g>
   <g id="line2d_59">
    <path d="M 401.510159 295.724631 
L 405.031298 312.225136 
L 417.83544 277.533135 
L 466.49118 241.268456 
L 655.992483 39.017864 
" clip-path="url(#p519ed17116)" style="fill: none; stroke: #1f77b4; stroke-width: 1.5; stroke-linecap: square"/>
    <defs>
     <path id="mc8e4adaf28" d="M 0 3 
C 0.795609 3 1.55874 2.683901 2.12132 2.12132 
C 2.683901 1.55874 3 0.795609 3 0 
C 3 -0.795609 2.683901 -1.55874 2.12132 -2.12132 
C 1.55874 -2.683901 0.795609 -3 0 -3 
C -0.795609 -3 -1.55874 -2.683901 -2.12132 -2.12132 
C -2.683901 -1.55874 -3 -0.795609 -3 0 
C -3 0.795609 -2.683901 1.55874 -2.12132 2.12132 
C -1.55874 2.683901 -0.795609 3 0 3 
z
" style="stroke: #1f77b4"/>
    </defs>
    <g clip-path="url(#p519ed17116)">
     <use xlink:href="#mc8e4adaf28" x="401.510159" y="295.724631" style="fill: #1f77b4; stroke: #1f77b4"/>
     <use xlink:href="#mc8e4adaf28" x="405.031298" y="312.225136" style="fill: #1f77b4; stroke: #1f77b4"/>
     <use xlink:href="#mc8e4adaf28" x="417.83544" y="277.533135" style="fill: #1f77b4; stroke: #1f77b4"/>
     <use xlink:href="#mc8e4adaf28" x="466.49118" y="241.268456" style="fill: #1f77b4; stroke: #1f77b4"/>
     <use xlink:href="#mc8e4adaf28" x="655.992483" y="39.017864" style="fill: #1f77b4; stroke: #1f77b4"/>
    </g>
   </g>
   <g id="patch_8">
    <path d="M 388.786043 325.8855 
L 388.786043 25.3575 
" style="fill: none; stroke: #000000; stroke-width: 0.8; stroke-linejoin: miter; stroke-linecap: square"/>
   </g>
   <g id="patch_9">
    <path d="M 668.7166 325.8855 
L 668.7166 25.3575 
" style="fill: none; stroke: #000000; stroke-width: 0.8; stroke-linejoin: miter; stroke-linecap: square"/>
   </g>
   <g id="patch_10">
    <path d="M 388.786043 325.8855 
L 668.7166 325.8855 
" style="fill: none; stroke: #000000; stroke-width: 0.8; stroke-linejoin: miter; stroke-linecap: square"/>
   </g>
   <g id="patch_11">
    <path d="M 388.786043 25.3575 
L 668.7166 25.3575 
" style="fill: none; stroke: #000000; stroke-width: 0.8; stroke-linejoin: miter; stroke-linecap: square"/>
   </g>
   <g id="text_28">
    <!-- Time complexity O(n) -->
    <g transform="translate(442.483821 19.3575)scale(0.16 -0.16)">
     <defs>
      <path id="DejaVuSans-54" d="M -19 4666 
L 3928 4666 
L 3928 4134 
L 2272 4134 
L 2272 0 
L 1638 0 
L 1638 4134 
L -19 4134 
L -19 4666 
z
" transform="scale(0.015625)"/>
      <path id="DejaVuSans-6c" d="M 603 4863 
L 1178 4863 
L 1178 0 
L 603 0 
L 603 4863 
z
" transform="scale(0.015625)"/>
      <path id="DejaVuSans-78" d="M 3513 3500 
L 2247 1797 
L 3578 0 
L 2900 0 
L 1881 1375 
L 863 0 
L 184 0 
L 1544 1831 
L 300 3500 
L 978 3500 
L 1906 2253 
L 2834 3500 
L 3513 3500 
z
" transform="scale(0.015625)"/>
      <path id="DejaVuSans-79" d="M 2059 -325 
Q 1816 -950 1584 -1140 
Q 1353 -1331 966 -1331 
L 506 -1331 
L 506 -850 
L 844 -850 
Q 1081 -850 1212 -737 
Q 1344 -625 1503 -206 
L 1606 56 
L 191 3500 
L 800 3500 
L 1894 763 
L 2988 3500 
L 3597 3500 
L 2059 -325 
z
" transform="scale(0.015625)"/>
      <path id="DejaVuSans-4f" d="M 2522 4238 
Q 1834 4238 1429 3725 
Q 1025 3213 1025 2328 
Q 1025 1447 1429 934 
Q 1834 422 2522 422 
Q 3209 422 3611 934 
Q 4013 1447 4013 2328 
Q 4013 3213 3611 3725 
Q 3209 4238 2522 4238 
z
M 2522 4750 
Q 3503 4750 4090 4092 
Q 4678 3434 4678 2328 
Q 4678 1225 4090 567 
Q 3503 -91 2522 -91 
Q 1538 -91 948 565 
Q 359 1222 359 2328 
Q 359 3434 948 4092 
Q 1538 4750 2522 4750 
z
" transform="scale(0.015625)"/>
     </defs>
     <use xlink:href="#DejaVuSans-54"/>
     <use xlink:href="#DejaVuSans-69" x="57.958984"/>
     <use xlink:href="#DejaVuSans-6d" x="85.742188"/>
     <use xlink:href="#DejaVuSans-65" x="183.154297"/>
     <use xlink:href="#DejaVuSans-20" x="244.677734"/>
     <use xlink:href="#DejaVuSans-63" x="276.464844"/>
     <use xlink:href="#DejaVuSans-6f" x="331.445312"/>
     <use xlink:href="#DejaVuSans-6d" x="392.626953"/>
     <use xlink:href="#DejaVuSans-70" x="490.039062"/>
     <use xlink:href="#DejaVuSans-6c" x="553.515625"/>
     <use xlink:href="#DejaVuSans-65" x="581.298828"/>
     <use xlink:href="#DejaVuSans-78" x="641.072266"/>
     <use xlink:href="#DejaVuSans-69" x="700.251953"/>
     <use xlink:href="#DejaVuSans-74" x="728.035156"/>
     <use xlink:href="#DejaVuSans-79" x="767.244141"/>
     <use xlink:href="#DejaVuSans-20" x="826.423828"/>
     <use xlink:href="#DejaVuSans-4f" x="858.210938"/>
     <use xlink:href="#DejaVuSans-28" x="936.921875"/>
     <use xlink:href="#DejaVuSans-6e" x="975.935547"/>
     <use xlink:href="#DejaVuSans-29" x="1039.314453"/>
    </g>
   </g>
  </g>
  <g id="axes_3">
   <g id="patch_12">
    <path d="M 724.702711 325.8855 
L 1004.633268 325.8855 
L 1004.633268 25.3575 
L 724.702711 25.3575 
z
" style="fill: #ffffff"/>
   </g>
   <g id="matplotlib.axis_5">
    <g id="xtick_14">
     <g id="line2d_60">
      <path d="M 836.040619 325.8855 
L 836.040619 25.3575 
" clip-path="url(#p9f5db08b89)" style="fill: none; stroke: #b0b0b0; stroke-width: 0.8; stroke-linecap: square"/>
     </g>
     <g id="line2d_61">
      <g>
       <use xlink:href="#m3b41d6b053" x="836.040619" y="325.8855" style="stroke: #000000; stroke-width: 0.8"/>
      </g>
     </g>
     <g id="text_29">
      <!-- $\mathdefault{10^{0}}$ -->
      <g transform="translate(825.480619 342.003625)scale(0.12 -0.12)">
       <use xlink:href="#DejaVuSans-31" transform="translate(0 0.765625)"/>
       <use xlink:href="#DejaVuSans-30" transform="translate(63.623047 0.765625)"/>
       <use xlink:href="#DejaVuSans-30" transform="translate(128.203125 39.046875)scale(0.7)"/>
      </g>
     </g>
    </g>
    <g id="xtick_15">
     <g id="line2d_62">
      <defs>
       <path id="mad9acd61a0" d="M 0 0 
L 0 2 
" style="stroke: #000000; stroke-width: 0.6"/>
      </defs>
      <g>
       <use xlink:href="#mad9acd61a0" x="736.09862" y="325.8855" style="stroke: #000000; stroke-width: 0.6"/>
      </g>
     </g>
    </g>
    <g id="xtick_16">
     <g id="line2d_63">
      <g>
       <use xlink:href="#mad9acd61a0" x="760.437415" y="325.8855" style="stroke: #000000; stroke-width: 0.6"/>
      </g>
     </g>
    </g>
    <g id="xtick_17">
     <g id="line2d_64">
      <g>
       <use xlink:href="#mad9acd61a0" x="780.323659" y="325.8855" style="stroke: #000000; stroke-width: 0.6"/>
      </g>
     </g>
    </g>
    <g id="xtick_18">
     <g id="line2d_65">
      <g>
       <use xlink:href="#mad9acd61a0" x="797.137239" y="325.8855" style="stroke: #000000; stroke-width: 0.6"/>
      </g>
     </g>
    </g>
    <g id="xtick_19">
     <g id="line2d_66">
      <g>
       <use xlink:href="#mad9acd61a0" x="811.701824" y="325.8855" style="stroke: #000000; stroke-width: 0.6"/>
      </g>
     </g>
    </g>
    <g id="xtick_20">
     <g id="line2d_67">
      <g>
       <use xlink:href="#mad9acd61a0" x="824.548698" y="325.8855" style="stroke: #000000; stroke-width: 0.6"/>
      </g>
     </g>
    </g>
    <g id="xtick_21">
     <g id="line2d_68">
      <g>
       <use xlink:href="#mad9acd61a0" x="911.643823" y="325.8855" style="stroke: #000000; stroke-width: 0.6"/>
      </g>
     </g>
    </g>
    <g id="xtick_22">
     <g id="line2d_69">
      <g>
       <use xlink:href="#mad9acd61a0" x="955.868862" y="325.8855" style="stroke: #000000; stroke-width: 0.6"/>
      </g>
     </g>
    </g>
    <g id="xtick_23">
     <g id="line2d_70">
      <g>
       <use xlink:href="#mad9acd61a0" x="987.247027" y="325.8855" style="stroke: #000000; stroke-width: 0.6"/>
      </g>
     </g>
    </g>
    <g id="text_30">
     <!-- Error -->
     <g transform="translate(847.608771 359.137063)scale(0.14 -0.14)">
      <use xlink:href="#DejaVuSans-45"/>
      <use xlink:href="#DejaVuSans-72" x="63.183594"/>
      <use xlink:href="#DejaVuSans-72" x="102.546875"/>
      <use xlink:href="#DejaVuSans-6f" x="141.410156"/>
      <use xlink:href="#DejaVuSans-72" x="202.591797"/>
     </g>
    </g>
   </g>
   <g id="matplotlib.axis_6">
    <g id="ytick_19">
     <g id="line2d_71">
      <path d="M 724.702711 325.8855 
L 1004.633268 325.8855 
" clip-path="url(#p9f5db08b89)" style="fill: none; stroke: #b0b0b0; stroke-width: 0.8; stroke-linecap: square"/>
     </g>
     <g id="line2d_72">
      <g>
       <use xlink:href="#mb5d0f59b30" x="724.702711" y="325.8855" style="stroke: #000000; stroke-width: 0.8"/>
      </g>
     </g>
     <g id="text_31">
      <!-- 0 -->
      <g transform="translate(710.067711 330.444563)scale(0.12 -0.12)">
       <use xlink:href="#DejaVuSans-30"/>
      </g>
     </g>
    </g>
    <g id="ytick_20">
     <g id="line2d_73">
      <path d="M 724.702711 279.650423 
L 1004.633268 279.650423 
" clip-path="url(#p9f5db08b89)" style="fill: none; stroke: #b0b0b0; stroke-width: 0.8; stroke-linecap: square"/>
     </g>
     <g id="line2d_74">
      <g>
       <use xlink:href="#mb5d0f59b30" x="724.702711" y="279.650423" style="stroke: #000000; stroke-width: 0.8"/>
      </g>
     </g>
     <g id="text_32">
      <!-- 2 -->
      <g transform="translate(710.067711 284.209486)scale(0.12 -0.12)">
       <use xlink:href="#DejaVuSans-32"/>
      </g>
     </g>
    </g>
    <g id="ytick_21">
     <g id="line2d_75">
      <path d="M 724.702711 233.415346 
L 1004.633268 233.415346 
" clip-path="url(#p9f5db08b89)" style="fill: none; stroke: #b0b0b0; stroke-width: 0.8; stroke-linecap: square"/>
     </g>
     <g id="line2d_76">
      <g>
       <use xlink:href="#mb5d0f59b30" x="724.702711" y="233.415346" style="stroke: #000000; stroke-width: 0.8"/>
      </g>
     </g>
     <g id="text_33">
      <!-- 4 -->
      <g transform="translate(710.067711 237.974409)scale(0.12 -0.12)">
       <use xlink:href="#DejaVuSans-34"/>
      </g>
     </g>
    </g>
    <g id="ytick_22">
     <g id="line2d_77">
      <path d="M 724.702711 187.180269 
L 1004.633268 187.180269 
" clip-path="url(#p9f5db08b89)" style="fill: none; stroke: #b0b0b0; stroke-width: 0.8; stroke-linecap: square"/>
     </g>
     <g id="line2d_78">
      <g>
       <use xlink:href="#mb5d0f59b30" x="724.702711" y="187.180269" style="stroke: #000000; stroke-width: 0.8"/>
      </g>
     </g>
     <g id="text_34">
      <!-- 6 -->
      <g transform="translate(710.067711 191.739332)scale(0.12 -0.12)">
       <use xlink:href="#DejaVuSans-36"/>
      </g>
     </g>
    </g>
    <g id="ytick_23">
     <g id="line2d_79">
      <path d="M 724.702711 140.945192 
L 1004.633268 140.945192 
" clip-path="url(#p9f5db08b89)" style="fill: none; stroke: #b0b0b0; stroke-width: 0.8; stroke-linecap: square"/>
     </g>
     <g id="line2d_80">
      <g>
       <use xlink:href="#mb5d0f59b30" x="724.702711" y="140.945192" style="stroke: #000000; stroke-width: 0.8"/>
      </g>
     </g>
     <g id="text_35">
      <!-- 8 -->
      <g transform="translate(710.067711 145.504255)scale(0.12 -0.12)">
       <use xlink:href="#DejaVuSans-38"/>
      </g>
     </g>
    </g>
    <g id="ytick_24">
     <g id="line2d_81">
      <path d="M 724.702711 94.710115 
L 1004.633268 94.710115 
" clip-path="url(#p9f5db08b89)" style="fill: none; stroke: #b0b0b0; stroke-width: 0.8; stroke-linecap: square"/>
     </g>
     <g id="line2d_82">
      <g>
       <use xlink:href="#mb5d0f59b30" x="724.702711" y="94.710115" style="stroke: #000000; stroke-width: 0.8"/>
      </g>
     </g>
     <g id="text_36">
      <!-- 10 -->
      <g transform="translate(702.432711 99.269178)scale(0.12 -0.12)">
       <use xlink:href="#DejaVuSans-31"/>
       <use xlink:href="#DejaVuSans-30" x="63.623047"/>
      </g>
     </g>
    </g>
    <g id="ytick_25">
     <g id="line2d_83">
      <path d="M 724.702711 48.475038 
L 1004.633268 48.475038 
" clip-path="url(#p9f5db08b89)" style="fill: none; stroke: #b0b0b0; stroke-width: 0.8; stroke-linecap: square"/>
     </g>
     <g id="line2d_84">
      <g>
       <use xlink:href="#mb5d0f59b30" x="724.702711" y="48.475038" style="stroke: #000000; stroke-width: 0.8"/>
      </g>
     </g>
     <g id="text_37">
      <!-- 12 -->
      <g transform="translate(702.432711 53.034101)scale(0.12 -0.12)">
       <use xlink:href="#DejaVuSans-31"/>
       <use xlink:href="#DejaVuSans-32" x="63.623047"/>
      </g>
     </g>
    </g>
    <g id="text_38">
     <!-- CPU-time -->
     <g transform="translate(695.521148 208.193375)rotate(-90)scale(0.14 -0.14)">
      <use xlink:href="#DejaVuSans-43"/>
      <use xlink:href="#DejaVuSans-50" x="69.824219"/>
      <use xlink:href="#DejaVuSans-55" x="130.126953"/>
      <use xlink:href="#DejaVuSans-2d" x="203.320312"/>
      <use xlink:href="#DejaVuSans-74" x="239.404297"/>
      <use xlink:href="#DejaVuSans-69" x="278.613281"/>
      <use xlink:href="#DejaVuSans-6d" x="306.396484"/>
      <use xlink:href="#DejaVuSans-65" x="403.808594"/>
     </g>
    </g>
   </g>
   <g id="line2d_85">
    <path d="M 962.404454 325.198959 
L 961.512295 324.504579 
L 960.631301 323.786953 
L 959.761812 323.085784 
L 958.904053 322.371147 
L 958.057951 321.751607 
L 957.223068 321.04064 
L 956.398602 320.206469 
L 955.583537 319.489269 
L 954.776791 318.778828 
L 953.9773 318.060402 
L 953.184148 317.335604 
L 952.396534 316.36284 
L 951.613593 315.359191 
L 950.834614 314.436086 
L 950.058827 313.709023 
L 949.285531 313.003389 
L 948.514048 312.286296 
L 947.743709 311.577105 
L 946.973854 310.856325 
L 946.203868 310.14782 
L 945.433063 309.428968 
L 944.660846 308.704698 
L 943.886556 307.653689 
L 943.109537 306.573142 
L 942.329063 305.837753 
L 941.544555 305.106561 
L 940.75522 304.384989 
L 939.960452 303.674802 
L 939.159507 302.950784 
L 938.351741 302.239236 
L 937.53643 301.523233 
L 936.712944 300.808197 
L 935.880549 300.092056 
L 935.038615 299.245729 
L 934.186472 298.10324 
L 933.323474 297.454674 
L 932.448984 296.636626 
L 931.562356 295.918861 
L 930.663023 295.303802 
L 929.750365 294.588404 
L 928.823808 293.861442 
L 927.882826 293.157735 
L 926.926863 292.44846 
L 925.955434 291.740023 
L 924.968095 290.724791 
L 923.964351 289.79339 
L 922.943828 288.898095 
L 921.906164 288.003754 
L 920.850981 287.349695 
" clip-path="url(#p9f5db08b89)" style="fill: none; stroke: #1f77b4; stroke-width: 1.5; stroke-linecap: square"/>
   </g>
   <g id="line2d_86">
    <path d="M 965.446991 325.247327 
L 963.522313 324.540283 
L 961.653739 323.832293 
L 959.840467 323.127003 
L 958.082068 322.420255 
L 956.377828 321.680589 
L 954.726225 320.968224 
L 953.124589 320.263873 
L 951.56933 319.503901 
L 950.056213 318.798744 
L 948.580552 318.078887 
L 947.137159 317.359354 
L 945.720674 316.659383 
L 944.325499 315.931151 
L 942.946164 315.224254 
L 941.577368 314.507322 
L 940.214092 313.791185 
L 938.851658 313.068858 
L 937.485811 312.37089 
L 936.112628 311.651413 
L 934.728576 310.949481 
L 933.330455 310.214895 
L 931.915378 309.512429 
L 930.480738 308.773009 
L 929.024038 308.061245 
L 927.54299 307.345088 
L 926.035275 306.6114 
L 924.498626 305.871306 
L 922.930757 305.145373 
L 921.329456 304.31424 
L 919.692533 303.583414 
L 918.017878 302.852139 
L 916.303618 302.115491 
L 914.548033 301.387165 
L 912.749634 300.65441 
L 910.907178 299.916691 
L 909.019672 299.102412 
L 907.086312 298.382534 
L 905.106522 297.658297 
L 903.079935 296.933688 
L 901.006365 296.201086 
L 898.885879 295.462734 
L 896.718758 294.742988 
L 894.505574 293.901606 
L 892.24725 293.002155 
L 889.945065 292.328082 
L 887.600759 291.52301 
L 885.216613 290.788807 
L 882.795458 290.066246 
L 880.340761 289.32449 
" clip-path="url(#p9f5db08b89)" style="fill: none; stroke: #ff7f0e; stroke-width: 1.5; stroke-linecap: square"/>
   </g>
   <g id="line2d_87">
    <path d="M 986.367785 325.177093 
L 981.684251 324.443523 
L 977.18436 323.721815 
L 972.862804 322.984759 
L 968.713472 322.162815 
L 964.727603 321.429685 
L 960.89215 320.309146 
L 957.191583 319.4666 
L 953.609117 318.701305 
L 950.127101 316.760932 
L 946.72748 316.023288 
L 943.392312 315.303716 
L 940.10447 314.578862 
L 936.848175 313.844709 
L 933.609284 313.126143 
L 930.37552 312.294217 
L 927.13657 311.560838 
L 923.884025 310.828578 
L 920.611565 310.089903 
L 917.314572 309.350864 
L 913.990217 308.512537 
L 910.636798 307.807639 
L 907.253473 307.072045 
L 903.839593 306.34398 
L 900.394234 305.614186 
L 896.915723 304.758198 
L 893.401325 303.995948 
L 889.846995 303.24771 
L 886.247814 302.40129 
L 882.598583 301.64771 
L 878.894507 300.781082 
L 875.13249 300.033899 
L 871.311957 299.282853 
L 867.43593 298.438518 
L 863.511596 297.688339 
L 859.550619 296.932498 
L 855.568854 296.094118 
L 851.585798 294.909869 
L 847.623211 294.110612 
L 843.70346 293.26705 
L 839.847332 292.512617 
L 836.07186 291.665046 
L 832.388099 290.91278 
L 828.799724 290.164819 
L 825.302078 289.313506 
L 821.882379 288.556045 
L 818.520772 287.806684 
L 815.19227 286.941416 
L 811.869387 286.03778 
L 808.525397 285.172498 
" clip-path="url(#p9f5db08b89)" style="fill: none; stroke: #2ca02c; stroke-width: 1.5; stroke-linecap: square"/>
   </g>
   <g id="line2d_88">
    <path d="M 991.909151 325.060092 
L 979.872645 324.177717 
L 969.079836 323.300737 
L 959.753146 322.521717 
L 952.034963 321.636507 
L 945.937832 320.755263 
L 941.310439 319.973837 
L 937.848509 319.092327 
L 935.149871 318.209517 
L 932.792276 317.330855 
L 930.405192 316.551453 
L 927.712519 315.667805 
L 924.541725 314.793278 
L 920.813344 314.01522 
L 916.523627 313.131507 
L 911.724967 312.257067 
L 906.506142 311.383763 
L 900.972997 310.58416 
L 895.230372 309.703616 
L 889.366634 308.833496 
L 883.441344 308.044128 
L 877.475783 307.163937 
L 871.446351 306.278096 
L 865.281624 305.398641 
L 858.867029 304.611394 
L 852.064667 303.598356 
L 844.756127 302.668231 
L 836.9048 301.727339 
L 828.618689 300.704838 
L 820.174723 299.787447 
L 811.959562 298.858189 
L 804.303465 297.840325 
L 797.26877 296.907952 
L 790.562983 295.989473 
L 783.709608 295.075014 
L 776.385235 294.06328 
L 768.701219 293.126075 
L 761.260477 292.2037 
L 754.858061 291.288505 
L 749.844263 290.369703 
L 745.750122 289.345994 
L 741.979207 288.43039 
L 738.928032 287.511463 
L 737.813636 286.584113 
L 739.087337 285.663812 
L 741.526619 284.654291 
L 743.366478 283.736418 
L 743.962637 282.816926 
L 744.105873 281.845934 
L 744.81546 280.832207 
" clip-path="url(#p9f5db08b89)" style="fill: none; stroke: #d62728; stroke-width: 1.5; stroke-linecap: square"/>
   </g>
   <g id="line2d_89">
    <path d="M 966.395396 324.520074 
L 955.279886 323.297482 
L 949.112816 322.164561 
L 943.678445 320.938347 
L 936.626995 319.79268 
L 928.297709 318.562875 
L 919.51399 317.298286 
L 910.575161 316.051158 
L 901.119863 314.804637 
L 890.483053 313.65468 
L 878.175855 312.415938 
L 864.158213 311.180769 
L 848.947439 309.926989 
L 833.690682 308.78814 
L 820.133871 307.520954 
L 809.485849 306.302121 
L 800.386399 304.986228 
L 791.152789 303.636267 
L 778.571334 302.493353 
L 762.321894 301.259281 
L 749.558492 300.018527 
L 750.340992 298.870677 
L 759.687404 297.631872 
L 767.091608 296.390043 
L 764.420429 295.256136 
L 761.923462 293.869384 
L 764.172067 292.424839 
L 766.831104 290.645855 
L 763.802742 289.059989 
L 755.891915 287.633916 
L 750.229537 286.190167 
L 748.179303 284.775721 
L 748.501973 283.331647 
L 748.457532 281.687968 
L 746.751722 279.58857 
L 745.109246 277.561023 
L 744.246192 275.549758 
L 744.58497 273.863082 
L 745.907344 272.522773 
L 746.802005 271.090409 
L 746.633113 269.658192 
L 745.743509 268.221356 
L 744.422131 266.776874 
L 743.383948 265.335982 
L 742.854798 263.886538 
L 742.36527 262.43752 
L 741.543581 261.094184 
L 740.214821 259.654941 
L 738.616854 258.064153 
L 737.426827 256.626268 
" clip-path="url(#p9f5db08b89)" style="fill: none; stroke: #9467bd; stroke-width: 1.5; stroke-linecap: square"/>
   </g>
   <g id="patch_13">
    <path d="M 724.702711 325.8855 
L 724.702711 25.3575 
" style="fill: none; stroke: #000000; stroke-width: 0.8; stroke-linejoin: miter; stroke-linecap: square"/>
   </g>
   <g id="patch_14">
    <path d="M 1004.633268 325.8855 
L 1004.633268 25.3575 
" style="fill: none; stroke: #000000; stroke-width: 0.8; stroke-linejoin: miter; stroke-linecap: square"/>
   </g>
   <g id="patch_15">
    <path d="M 724.702711 325.8855 
L 1004.633268 325.8855 
" style="fill: none; stroke: #000000; stroke-width: 0.8; stroke-linejoin: miter; stroke-linecap: square"/>
   </g>
   <g id="patch_16">
    <path d="M 724.702711 25.3575 
L 1004.633268 25.3575 
" style="fill: none; stroke: #000000; stroke-width: 0.8; stroke-linejoin: miter; stroke-linecap: square"/>
   </g>
   <g id="text_39">
    <!-- CPU time as a function of errors -->
    <g transform="translate(737.180489 19.3575)scale(0.16 -0.16)">
     <use xlink:href="#DejaVuSans-43"/>
     <use xlink:href="#DejaVuSans-50" x="69.824219"/>
     <use xlink:href="#DejaVuSans-55" x="130.126953"/>
     <use xlink:href="#DejaVuSans-20" x="203.320312"/>
     <use xlink:href="#DejaVuSans-74" x="235.107422"/>
     <use xlink:href="#DejaVuSans-69" x="274.316406"/>
     <use xlink:href="#DejaVuSans-6d" x="302.099609"/>
     <use xlink:href="#DejaVuSans-65" x="399.511719"/>
     <use xlink:href="#DejaVuSans-20" x="461.035156"/>
     <use xlink:href="#DejaVuSans-61" x="492.822266"/>
     <use xlink:href="#DejaVuSans-73" x="554.101562"/>
     <use xlink:href="#DejaVuSans-20" x="606.201172"/>
     <use xlink:href="#DejaVuSans-61" x="637.988281"/>
     <use xlink:href="#DejaVuSans-20" x="699.267578"/>
     <use xlink:href="#DejaVuSans-66" x="731.054688"/>
     <use xlink:href="#DejaVuSans-75" x="766.259766"/>
     <use xlink:href="#DejaVuSans-6e" x="829.638672"/>
     <use xlink:href="#DejaVuSans-63" x="893.017578"/>
     <use xlink:href="#DejaVuSans-74" x="947.998047"/>
     <use xlink:href="#DejaVuSans-69" x="987.207031"/>
     <use xlink:href="#DejaVuSans-6f" x="1014.990234"/>
     <use xlink:href="#DejaVuSans-6e" x="1076.171875"/>
     <use xlink:href="#DejaVuSans-20" x="1139.550781"/>
     <use xlink:href="#DejaVuSans-6f" x="1171.337891"/>
     <use xlink:href="#DejaVuSans-66" x="1232.519531"/>
     <use xlink:href="#DejaVuSans-20" x="1267.724609"/>
     <use xlink:href="#DejaVuSans-65" x="1299.511719"/>
     <use xlink:href="#DejaVuSans-72" x="1361.035156"/>
     <use xlink:href="#DejaVuSans-72" x="1400.398438"/>
     <use xlink:href="#DejaVuSans-6f" x="1439.261719"/>
     <use xlink:href="#DejaVuSans-72" x="1500.443359"/>
     <use xlink:href="#DejaVuSans-73" x="1541.556641"/>
    </g>
   </g>
  </g>
  <g id="legend_1">
   <g id="patch_17">
    <path d="M 169.222643 328.465 
L 842.043893 328.465 
Q 844.443893 328.465 844.443893 326.065 
L 844.443893 292.0375 
Q 844.443893 289.6375 842.043893 289.6375 
L 169.222643 289.6375 
Q 166.822643 289.6375 166.822643 292.0375 
L 166.822643 326.065 
Q 166.822643 328.465 169.222643 328.465 
z
" style="fill: #ffffff; opacity: 0.8; stroke: #cccccc; stroke-linejoin: miter"/>
   </g>
   <g id="line2d_90">
    <path d="M 171.622643 299.355625 
L 183.622643 299.355625 
L 195.622643 299.355625 
" style="fill: none; stroke: #1f77b4; stroke-width: 1.5; stroke-linecap: square"/>
   </g>
   <g id="text_40">
    <!-- Model with 82 parameters -->
    <g transform="translate(205.222643 303.555625)scale(0.12 -0.12)">
     <defs>
      <path id="DejaVuSans-64" d="M 2906 2969 
L 2906 4863 
L 3481 4863 
L 3481 0 
L 2906 0 
L 2906 525 
Q 2725 213 2448 61 
Q 2172 -91 1784 -91 
Q 1150 -91 751 415 
Q 353 922 353 1747 
Q 353 2572 751 3078 
Q 1150 3584 1784 3584 
Q 2172 3584 2448 3432 
Q 2725 3281 2906 2969 
z
M 947 1747 
Q 947 1113 1208 752 
Q 1469 391 1925 391 
Q 2381 391 2643 752 
Q 2906 1113 2906 1747 
Q 2906 2381 2643 2742 
Q 2381 3103 1925 3103 
Q 1469 3103 1208 2742 
Q 947 2381 947 1747 
z
" transform="scale(0.015625)"/>
      <path id="DejaVuSans-77" d="M 269 3500 
L 844 3500 
L 1563 769 
L 2278 3500 
L 2956 3500 
L 3675 769 
L 4391 3500 
L 4966 3500 
L 4050 0 
L 3372 0 
L 2619 2869 
L 1863 0 
L 1184 0 
L 269 3500 
z
" transform="scale(0.015625)"/>
     </defs>
     <use xlink:href="#DejaVuSans-4d"/>
     <use xlink:href="#DejaVuSans-6f" x="86.279297"/>
     <use xlink:href="#DejaVuSans-64" x="147.460938"/>
     <use xlink:href="#DejaVuSans-65" x="210.9375"/>
     <use xlink:href="#DejaVuSans-6c" x="272.460938"/>
     <use xlink:href="#DejaVuSans-20" x="300.244141"/>
     <use xlink:href="#DejaVuSans-77" x="332.03125"/>
     <use xlink:href="#DejaVuSans-69" x="413.818359"/>
     <use xlink:href="#DejaVuSans-74" x="441.601562"/>
     <use xlink:href="#DejaVuSans-68" x="480.810547"/>
     <use xlink:href="#DejaVuSans-20" x="544.189453"/>
     <use xlink:href="#DejaVuSans-38" x="575.976562"/>
     <use xlink:href="#DejaVuSans-32" x="639.599609"/>
     <use xlink:href="#DejaVuSans-20" x="703.222656"/>
     <use xlink:href="#DejaVuSans-70" x="735.009766"/>
     <use xlink:href="#DejaVuSans-61" x="798.486328"/>
     <use xlink:href="#DejaVuSans-72" x="859.765625"/>
     <use xlink:href="#DejaVuSans-61" x="900.878906"/>
     <use xlink:href="#DejaVuSans-6d" x="962.158203"/>
     <use xlink:href="#DejaVuSans-65" x="1059.570312"/>
     <use xlink:href="#DejaVuSans-74" x="1121.09375"/>
     <use xlink:href="#DejaVuSans-65" x="1160.302734"/>
     <use xlink:href="#DejaVuSans-72" x="1221.826172"/>
     <use xlink:href="#DejaVuSans-73" x="1262.939453"/>
    </g>
   </g>
   <g id="line2d_91">
    <path d="M 171.622643 316.969375 
L 183.622643 316.969375 
L 195.622643 316.969375 
" style="fill: none; stroke: #ff7f0e; stroke-width: 1.5; stroke-linecap: square"/>
   </g>
   <g id="text_41">
    <!-- Model with 258 parameters -->
    <g transform="translate(205.222643 321.169375)scale(0.12 -0.12)">
     <use xlink:href="#DejaVuSans-4d"/>
     <use xlink:href="#DejaVuSans-6f" x="86.279297"/>
     <use xlink:href="#DejaVuSans-64" x="147.460938"/>
     <use xlink:href="#DejaVuSans-65" x="210.9375"/>
     <use xlink:href="#DejaVuSans-6c" x="272.460938"/>
     <use xlink:href="#DejaVuSans-20" x="300.244141"/>
     <use xlink:href="#DejaVuSans-77" x="332.03125"/>
     <use xlink:href="#DejaVuSans-69" x="413.818359"/>
     <use xlink:href="#DejaVuSans-74" x="441.601562"/>
     <use xlink:href="#DejaVuSans-68" x="480.810547"/>
     <use xlink:href="#DejaVuSans-20" x="544.189453"/>
     <use xlink:href="#DejaVuSans-32" x="575.976562"/>
     <use xlink:href="#DejaVuSans-35" x="639.599609"/>
     <use xlink:href="#DejaVuSans-38" x="703.222656"/>
     <use xlink:href="#DejaVuSans-20" x="766.845703"/>
     <use xlink:href="#DejaVuSans-70" x="798.632812"/>
     <use xlink:href="#DejaVuSans-61" x="862.109375"/>
     <use xlink:href="#DejaVuSans-72" x="923.388672"/>
     <use xlink:href="#DejaVuSans-61" x="964.501953"/>
     <use xlink:href="#DejaVuSans-6d" x="1025.78125"/>
     <use xlink:href="#DejaVuSans-65" x="1123.193359"/>
     <use xlink:href="#DejaVuSans-74" x="1184.716797"/>
     <use xlink:href="#DejaVuSans-65" x="1223.925781"/>
     <use xlink:href="#DejaVuSans-72" x="1285.449219"/>
     <use xlink:href="#DejaVuSans-73" x="1326.5625"/>
    </g>
   </g>
   <g id="line2d_92">
    <path d="M 394.661393 299.355625 
L 406.661393 299.355625 
L 418.661393 299.355625 
" style="fill: none; stroke: #2ca02c; stroke-width: 1.5; stroke-linecap: square"/>
   </g>
   <g id="text_42">
    <!-- Model with 898 parameters -->
    <g transform="translate(428.261393 303.555625)scale(0.12 -0.12)">
     <defs>
      <path id="DejaVuSans-39" d="M 703 97 
L 703 672 
Q 941 559 1184 500 
Q 1428 441 1663 441 
Q 2288 441 2617 861 
Q 2947 1281 2994 2138 
Q 2813 1869 2534 1725 
Q 2256 1581 1919 1581 
Q 1219 1581 811 2004 
Q 403 2428 403 3163 
Q 403 3881 828 4315 
Q 1253 4750 1959 4750 
Q 2769 4750 3195 4129 
Q 3622 3509 3622 2328 
Q 3622 1225 3098 567 
Q 2575 -91 1691 -91 
Q 1453 -91 1209 -44 
Q 966 3 703 97 
z
M 1959 2075 
Q 2384 2075 2632 2365 
Q 2881 2656 2881 3163 
Q 2881 3666 2632 3958 
Q 2384 4250 1959 4250 
Q 1534 4250 1286 3958 
Q 1038 3666 1038 3163 
Q 1038 2656 1286 2365 
Q 1534 2075 1959 2075 
z
" transform="scale(0.015625)"/>
     </defs>
     <use xlink:href="#DejaVuSans-4d"/>
     <use xlink:href="#DejaVuSans-6f" x="86.279297"/>
     <use xlink:href="#DejaVuSans-64" x="147.460938"/>
     <use xlink:href="#DejaVuSans-65" x="210.9375"/>
     <use xlink:href="#DejaVuSans-6c" x="272.460938"/>
     <use xlink:href="#DejaVuSans-20" x="300.244141"/>
     <use xlink:href="#DejaVuSans-77" x="332.03125"/>
     <use xlink:href="#DejaVuSans-69" x="413.818359"/>
     <use xlink:href="#DejaVuSans-74" x="441.601562"/>
     <use xlink:href="#DejaVuSans-68" x="480.810547"/>
     <use xlink:href="#DejaVuSans-20" x="544.189453"/>
     <use xlink:href="#DejaVuSans-38" x="575.976562"/>
     <use xlink:href="#DejaVuSans-39" x="639.599609"/>
     <use xlink:href="#DejaVuSans-38" x="703.222656"/>
     <use xlink:href="#DejaVuSans-20" x="766.845703"/>
     <use xlink:href="#DejaVuSans-70" x="798.632812"/>
     <use xlink:href="#DejaVuSans-61" x="862.109375"/>
     <use xlink:href="#DejaVuSans-72" x="923.388672"/>
     <use xlink:href="#DejaVuSans-61" x="964.501953"/>
     <use xlink:href="#DejaVuSans-6d" x="1025.78125"/>
     <use xlink:href="#DejaVuSans-65" x="1123.193359"/>
     <use xlink:href="#DejaVuSans-74" x="1184.716797"/>
     <use xlink:href="#DejaVuSans-65" x="1223.925781"/>
     <use xlink:href="#DejaVuSans-72" x="1285.449219"/>
     <use xlink:href="#DejaVuSans-73" x="1326.5625"/>
    </g>
   </g>
   <g id="line2d_93">
    <path d="M 394.661393 316.969375 
L 406.661393 316.969375 
L 418.661393 316.969375 
" style="fill: none; stroke: #d62728; stroke-width: 1.5; stroke-linecap: square"/>
   </g>
   <g id="text_43">
    <!-- Model with 3330 parameters -->
    <g transform="translate(428.261393 321.169375)scale(0.12 -0.12)">
     <use xlink:href="#DejaVuSans-4d"/>
     <use xlink:href="#DejaVuSans-6f" x="86.279297"/>
     <use xlink:href="#DejaVuSans-64" x="147.460938"/>
     <use xlink:href="#DejaVuSans-65" x="210.9375"/>
     <use xlink:href="#DejaVuSans-6c" x="272.460938"/>
     <use xlink:href="#DejaVuSans-20" x="300.244141"/>
     <use xlink:href="#DejaVuSans-77" x="332.03125"/>
     <use xlink:href="#DejaVuSans-69" x="413.818359"/>
     <use xlink:href="#DejaVuSans-74" x="441.601562"/>
     <use xlink:href="#DejaVuSans-68" x="480.810547"/>
     <use xlink:href="#DejaVuSans-20" x="544.189453"/>
     <use xlink:href="#DejaVuSans-33" x="575.976562"/>
     <use xlink:href="#DejaVuSans-33" x="639.599609"/>
     <use xlink:href="#DejaVuSans-33" x="703.222656"/>
     <use xlink:href="#DejaVuSans-30" x="766.845703"/>
     <use xlink:href="#DejaVuSans-20" x="830.46875"/>
     <use xlink:href="#DejaVuSans-70" x="862.255859"/>
     <use xlink:href="#DejaVuSans-61" x="925.732422"/>
     <use xlink:href="#DejaVuSans-72" x="987.011719"/>
     <use xlink:href="#DejaVuSans-61" x="1028.125"/>
     <use xlink:href="#DejaVuSans-6d" x="1089.404297"/>
     <use xlink:href="#DejaVuSans-65" x="1186.816406"/>
     <use xlink:href="#DejaVuSans-74" x="1248.339844"/>
     <use xlink:href="#DejaVuSans-65" x="1287.548828"/>
     <use xlink:href="#DejaVuSans-72" x="1349.072266"/>
     <use xlink:href="#DejaVuSans-73" x="1390.185547"/>
    </g>
   </g>
   <g id="line2d_94">
    <path d="M 625.335143 299.355625 
L 637.335143 299.355625 
L 649.335143 299.355625 
" style="fill: none; stroke: #9467bd; stroke-width: 1.5; stroke-linecap: square"/>
   </g>
   <g id="text_44">
    <!-- Model with 12802 parameters -->
    <g transform="translate(658.935143 303.555625)scale(0.12 -0.12)">
     <use xlink:href="#DejaVuSans-4d"/>
     <use xlink:href="#DejaVuSans-6f" x="86.279297"/>
     <use xlink:href="#DejaVuSans-64" x="147.460938"/>
     <use xlink:href="#DejaVuSans-65" x="210.9375"/>
     <use xlink:href="#DejaVuSans-6c" x="272.460938"/>
     <use xlink:href="#DejaVuSans-20" x="300.244141"/>
     <use xlink:href="#DejaVuSans-77" x="332.03125"/>
     <use xlink:href="#DejaVuSans-69" x="413.818359"/>
     <use xlink:href="#DejaVuSans-74" x="441.601562"/>
     <use xlink:href="#DejaVuSans-68" x="480.810547"/>
     <use xlink:href="#DejaVuSans-20" x="544.189453"/>
     <use xlink:href="#DejaVuSans-31" x="575.976562"/>
     <use xlink:href="#DejaVuSans-32" x="639.599609"/>
     <use xlink:href="#DejaVuSans-38" x="703.222656"/>
     <use xlink:href="#DejaVuSans-30" x="766.845703"/>
     <use xlink:href="#DejaVuSans-32" x="830.46875"/>
     <use xlink:href="#DejaVuSans-20" x="894.091797"/>
     <use xlink:href="#DejaVuSans-70" x="925.878906"/>
     <use xlink:href="#DejaVuSans-61" x="989.355469"/>
     <use xlink:href="#DejaVuSans-72" x="1050.634766"/>
     <use xlink:href="#DejaVuSans-61" x="1091.748047"/>
     <use xlink:href="#DejaVuSans-6d" x="1153.027344"/>
     <use xlink:href="#DejaVuSans-65" x="1250.439453"/>
     <use xlink:href="#DejaVuSans-74" x="1311.962891"/>
     <use xlink:href="#DejaVuSans-65" x="1351.171875"/>
     <use xlink:href="#DejaVuSans-72" x="1412.695312"/>
     <use xlink:href="#DejaVuSans-73" x="1453.808594"/>
    </g>
   </g>
  </g>
 </g>
 <defs>
  <clipPath id="p858fa9f99a">
   <rect x="52.869375" y="25.3575" width="279.930557" height="300.528"/>
  </clipPath>
  <clipPath id="p519ed17116">
   <rect x="388.786043" y="25.3575" width="279.930557" height="300.528"/>
  </clipPath>
  <clipPath id="p9f5db08b89">
   <rect x="724.702711" y="25.3575" width="279.930557" height="300.528"/>
  </clipPath>
 </defs>
</svg>
