<?xml version="1.0" encoding="utf-8" standalone="no"?>
<!DOCTYPE svg PUBLIC "-//W3C//DTD SVG 1.1//EN"
  "http://www.w3.org/Graphics/SVG/1.1/DTD/svg11.dtd">
<svg xmlns:xlink="http://www.w3.org/1999/xlink" width="1000.461332pt" height="329.865pt" viewBox="0 0 1000.461332 329.865" xmlns="http://www.w3.org/2000/svg" version="1.1">
 <metadata>
  <rdf:RDF xmlns:dc="http://purl.org/dc/elements/1.1/" xmlns:cc="http://creativecommons.org/ns#" xmlns:rdf="http://www.w3.org/1999/02/22-rdf-syntax-ns#">
   <cc:Work>
    <dc:type rdf:resource="http://purl.org/dc/dcmitype/StillImage"/>
    <dc:date>2024-06-11T13:06:27.154079</dc:date>
    <dc:format>image/svg+xml</dc:format>
    <dc:creator>
     <cc:Agent>
      <dc:title>Matplotlib v3.5.3, https://matplotlib.org/</dc:title>
     </cc:Agent>
    </dc:creator>
   </cc:Work>
  </rdf:RDF>
 </metadata>
 <defs>
  <style type="text/css">*{stroke-linejoin: round; stroke-linecap: butt}</style>
 </defs>
 <g id="figure_1">
  <g id="patch_1">
   <path d="M -0 329.865 
L 1000.461332 329.865 
L 1000.461332 0 
L -0 0 
z
" style="fill: #ffffff"/>
  </g>
  <g id="axes_1">
   <g id="patch_2">
    <path d="M 59.949375 227.8855 
L 334.808719 227.8855 
L 334.808719 25.3575 
L 59.949375 25.3575 
z
" style="fill: #ffffff"/>
   </g>
   <g id="matplotlib.axis_1">
    <g id="xtick_1">
     <g id="line2d_1">
      <path d="M 72.442982 227.8855 
L 72.442982 25.3575 
" clip-path="url(#pded16c0b2b)" style="fill: none; stroke: #b0b0b0; stroke-width: 0.8; stroke-linecap: square"/>
     </g>
     <g id="line2d_2">
      <defs>
       <path id="m76e1306832" d="M 0 0 
L 0 3.5 
" style="stroke: #000000; stroke-width: 0.8"/>
      </defs>
      <g>
       <use xlink:href="#m76e1306832" x="72.442982" y="227.8855" style="stroke: #000000; stroke-width: 0.8"/>
      </g>
     </g>
     <g id="text_1">
      <!-- 0 -->
      <g transform="translate(68.625482 244.003625)scale(0.12 -0.12)">
       <defs>
        <path id="DejaVuSans-30" d="M 2034 4250 
Q 1547 4250 1301 3770 
Q 1056 3291 1056 2328 
Q 1056 1369 1301 889 
Q 1547 409 2034 409 
Q 2525 409 2770 889 
Q 3016 1369 3016 2328 
Q 3016 3291 2770 3770 
Q 2525 4250 2034 4250 
z
M 2034 4750 
Q 2819 4750 3233 4129 
Q 3647 3509 3647 2328 
Q 3647 1150 3233 529 
Q 2819 -91 2034 -91 
Q 1250 -91 836 529 
Q 422 1150 422 2328 
Q 422 3509 836 4129 
Q 1250 4750 2034 4750 
z
" transform="scale(0.015625)"/>
       </defs>
       <use xlink:href="#DejaVuSans-30"/>
      </g>
     </g>
    </g>
    <g id="xtick_2">
     <g id="line2d_3">
      <path d="M 135.067576 227.8855 
L 135.067576 25.3575 
" clip-path="url(#pded16c0b2b)" style="fill: none; stroke: #b0b0b0; stroke-width: 0.8; stroke-linecap: square"/>
     </g>
     <g id="line2d_4">
      <g>
       <use xlink:href="#m76e1306832" x="135.067576" y="227.8855" style="stroke: #000000; stroke-width: 0.8"/>
      </g>
     </g>
     <g id="text_2">
      <!-- 100 -->
      <g transform="translate(123.615076 244.003625)scale(0.12 -0.12)">
       <defs>
        <path id="DejaVuSans-31" d="M 794 531 
L 1825 531 
L 1825 4091 
L 703 3866 
L 703 4441 
L 1819 4666 
L 2450 4666 
L 2450 531 
L 3481 531 
L 3481 0 
L 794 0 
L 794 531 
z
" transform="scale(0.015625)"/>
       </defs>
       <use xlink:href="#DejaVuSans-31"/>
       <use xlink:href="#DejaVuSans-30" x="63.623047"/>
       <use xlink:href="#DejaVuSans-30" x="127.246094"/>
      </g>
     </g>
    </g>
    <g id="xtick_3">
     <g id="line2d_5">
      <path d="M 197.69217 227.8855 
L 197.69217 25.3575 
" clip-path="url(#pded16c0b2b)" style="fill: none; stroke: #b0b0b0; stroke-width: 0.8; stroke-linecap: square"/>
     </g>
     <g id="line2d_6">
      <g>
       <use xlink:href="#m76e1306832" x="197.69217" y="227.8855" style="stroke: #000000; stroke-width: 0.8"/>
      </g>
     </g>
     <g id="text_3">
      <!-- 200 -->
      <g transform="translate(186.23967 244.003625)scale(0.12 -0.12)">
       <defs>
        <path id="DejaVuSans-32" d="M 1228 531 
L 3431 531 
L 3431 0 
L 469 0 
L 469 531 
Q 828 903 1448 1529 
Q 2069 2156 2228 2338 
Q 2531 2678 2651 2914 
Q 2772 3150 2772 3378 
Q 2772 3750 2511 3984 
Q 2250 4219 1831 4219 
Q 1534 4219 1204 4116 
Q 875 4013 500 3803 
L 500 4441 
Q 881 4594 1212 4672 
Q 1544 4750 1819 4750 
Q 2544 4750 2975 4387 
Q 3406 4025 3406 3419 
Q 3406 3131 3298 2873 
Q 3191 2616 2906 2266 
Q 2828 2175 2409 1742 
Q 1991 1309 1228 531 
z
" transform="scale(0.015625)"/>
       </defs>
       <use xlink:href="#DejaVuSans-32"/>
       <use xlink:href="#DejaVuSans-30" x="63.623047"/>
       <use xlink:href="#DejaVuSans-30" x="127.246094"/>
      </g>
     </g>
    </g>
    <g id="xtick_4">
     <g id="line2d_7">
      <path d="M 260.316764 227.8855 
L 260.316764 25.3575 
" clip-path="url(#pded16c0b2b)" style="fill: none; stroke: #b0b0b0; stroke-width: 0.8; stroke-linecap: square"/>
     </g>
     <g id="line2d_8">
      <g>
       <use xlink:href="#m76e1306832" x="260.316764" y="227.8855" style="stroke: #000000; stroke-width: 0.8"/>
      </g>
     </g>
     <g id="text_4">
      <!-- 300 -->
      <g transform="translate(248.864264 244.003625)scale(0.12 -0.12)">
       <defs>
        <path id="DejaVuSans-33" d="M 2597 2516 
Q 3050 2419 3304 2112 
Q 3559 1806 3559 1356 
Q 3559 666 3084 287 
Q 2609 -91 1734 -91 
Q 1441 -91 1130 -33 
Q 819 25 488 141 
L 488 750 
Q 750 597 1062 519 
Q 1375 441 1716 441 
Q 2309 441 2620 675 
Q 2931 909 2931 1356 
Q 2931 1769 2642 2001 
Q 2353 2234 1838 2234 
L 1294 2234 
L 1294 2753 
L 1863 2753 
Q 2328 2753 2575 2939 
Q 2822 3125 2822 3475 
Q 2822 3834 2567 4026 
Q 2313 4219 1838 4219 
Q 1578 4219 1281 4162 
Q 984 4106 628 3988 
L 628 4550 
Q 988 4650 1302 4700 
Q 1616 4750 1894 4750 
Q 2613 4750 3031 4423 
Q 3450 4097 3450 3541 
Q 3450 3153 3228 2886 
Q 3006 2619 2597 2516 
z
" transform="scale(0.015625)"/>
       </defs>
       <use xlink:href="#DejaVuSans-33"/>
       <use xlink:href="#DejaVuSans-30" x="63.623047"/>
       <use xlink:href="#DejaVuSans-30" x="127.246094"/>
      </g>
     </g>
    </g>
    <g id="xtick_5">
     <g id="line2d_9">
      <path d="M 322.941358 227.8855 
L 322.941358 25.3575 
" clip-path="url(#pded16c0b2b)" style="fill: none; stroke: #b0b0b0; stroke-width: 0.8; stroke-linecap: square"/>
     </g>
     <g id="line2d_10">
      <g>
       <use xlink:href="#m76e1306832" x="322.941358" y="227.8855" style="stroke: #000000; stroke-width: 0.8"/>
      </g>
     </g>
     <g id="text_5">
      <!-- 400 -->
      <g transform="translate(311.488858 244.003625)scale(0.12 -0.12)">
       <defs>
        <path id="DejaVuSans-34" d="M 2419 4116 
L 825 1625 
L 2419 1625 
L 2419 4116 
z
M 2253 4666 
L 3047 4666 
L 3047 1625 
L 3713 1625 
L 3713 1100 
L 3047 1100 
L 3047 0 
L 2419 0 
L 2419 1100 
L 313 1100 
L 313 1709 
L 2253 4666 
z
" transform="scale(0.015625)"/>
       </defs>
       <use xlink:href="#DejaVuSans-34"/>
       <use xlink:href="#DejaVuSans-30" x="63.623047"/>
       <use xlink:href="#DejaVuSans-30" x="127.246094"/>
      </g>
     </g>
    </g>
    <g id="text_6">
     <!-- Epoch -->
     <g transform="translate(175.943734 261.137063)scale(0.14 -0.14)">
      <defs>
       <path id="DejaVuSans-45" d="M 628 4666 
L 3578 4666 
L 3578 4134 
L 1259 4134 
L 1259 2753 
L 3481 2753 
L 3481 2222 
L 1259 2222 
L 1259 531 
L 3634 531 
L 3634 0 
L 628 0 
L 628 4666 
z
" transform="scale(0.015625)"/>
       <path id="DejaVuSans-70" d="M 1159 525 
L 1159 -1331 
L 581 -1331 
L 581 3500 
L 1159 3500 
L 1159 2969 
Q 1341 3281 1617 3432 
Q 1894 3584 2278 3584 
Q 2916 3584 3314 3078 
Q 3713 2572 3713 1747 
Q 3713 922 3314 415 
Q 2916 -91 2278 -91 
Q 1894 -91 1617 61 
Q 1341 213 1159 525 
z
M 3116 1747 
Q 3116 2381 2855 2742 
Q 2594 3103 2138 3103 
Q 1681 3103 1420 2742 
Q 1159 2381 1159 1747 
Q 1159 1113 1420 752 
Q 1681 391 2138 391 
Q 2594 391 2855 752 
Q 3116 1113 3116 1747 
z
" transform="scale(0.015625)"/>
       <path id="DejaVuSans-6f" d="M 1959 3097 
Q 1497 3097 1228 2736 
Q 959 2375 959 1747 
Q 959 1119 1226 758 
Q 1494 397 1959 397 
Q 2419 397 2687 759 
Q 2956 1122 2956 1747 
Q 2956 2369 2687 2733 
Q 2419 3097 1959 3097 
z
M 1959 3584 
Q 2709 3584 3137 3096 
Q 3566 2609 3566 1747 
Q 3566 888 3137 398 
Q 2709 -91 1959 -91 
Q 1206 -91 779 398 
Q 353 888 353 1747 
Q 353 2609 779 3096 
Q 1206 3584 1959 3584 
z
" transform="scale(0.015625)"/>
       <path id="DejaVuSans-63" d="M 3122 3366 
L 3122 2828 
Q 2878 2963 2633 3030 
Q 2388 3097 2138 3097 
Q 1578 3097 1268 2742 
Q 959 2388 959 1747 
Q 959 1106 1268 751 
Q 1578 397 2138 397 
Q 2388 397 2633 464 
Q 2878 531 3122 666 
L 3122 134 
Q 2881 22 2623 -34 
Q 2366 -91 2075 -91 
Q 1284 -91 818 406 
Q 353 903 353 1747 
Q 353 2603 823 3093 
Q 1294 3584 2113 3584 
Q 2378 3584 2631 3529 
Q 2884 3475 3122 3366 
z
" transform="scale(0.015625)"/>
       <path id="DejaVuSans-68" d="M 3513 2113 
L 3513 0 
L 2938 0 
L 2938 2094 
Q 2938 2591 2744 2837 
Q 2550 3084 2163 3084 
Q 1697 3084 1428 2787 
Q 1159 2491 1159 1978 
L 1159 0 
L 581 0 
L 581 4863 
L 1159 4863 
L 1159 2956 
Q 1366 3272 1645 3428 
Q 1925 3584 2291 3584 
Q 2894 3584 3203 3211 
Q 3513 2838 3513 2113 
z
" transform="scale(0.015625)"/>
      </defs>
      <use xlink:href="#DejaVuSans-45"/>
      <use xlink:href="#DejaVuSans-70" x="63.183594"/>
      <use xlink:href="#DejaVuSans-6f" x="126.660156"/>
      <use xlink:href="#DejaVuSans-63" x="187.841797"/>
      <use xlink:href="#DejaVuSans-68" x="242.822266"/>
     </g>
    </g>
   </g>
   <g id="matplotlib.axis_2">
    <g id="ytick_1">
     <g id="line2d_11">
      <path d="M 59.949375 200.328593 
L 334.808719 200.328593 
" clip-path="url(#pded16c0b2b)" style="fill: none; stroke: #b0b0b0; stroke-width: 0.8; stroke-linecap: square"/>
     </g>
     <g id="line2d_12">
      <defs>
       <path id="m6e1df4392a" d="M 0 0 
L -3.5 0 
" style="stroke: #000000; stroke-width: 0.8"/>
      </defs>
      <g>
       <use xlink:href="#m6e1df4392a" x="59.949375" y="200.328593" style="stroke: #000000; stroke-width: 0.8"/>
      </g>
     </g>
     <g id="text_7">
      <!-- $\mathdefault{10^{-1}}$ -->
      <g transform="translate(24.749375 204.887655)scale(0.12 -0.12)">
       <defs>
        <path id="DejaVuSans-2212" d="M 678 2272 
L 4684 2272 
L 4684 1741 
L 678 1741 
L 678 2272 
z
" transform="scale(0.015625)"/>
       </defs>
       <use xlink:href="#DejaVuSans-31" transform="translate(0 0.684375)"/>
       <use xlink:href="#DejaVuSans-30" transform="translate(63.623047 0.684375)"/>
       <use xlink:href="#DejaVuSans-2212" transform="translate(128.203125 38.965625)scale(0.7)"/>
       <use xlink:href="#DejaVuSans-31" transform="translate(186.855469 38.965625)scale(0.7)"/>
      </g>
     </g>
    </g>
    <g id="ytick_2">
     <g id="line2d_13">
      <path d="M 59.949375 96.475851 
L 334.808719 96.475851 
" clip-path="url(#pded16c0b2b)" style="fill: none; stroke: #b0b0b0; stroke-width: 0.8; stroke-linecap: square"/>
     </g>
     <g id="line2d_14">
      <g>
       <use xlink:href="#m6e1df4392a" x="59.949375" y="96.475851" style="stroke: #000000; stroke-width: 0.8"/>
      </g>
     </g>
     <g id="text_8">
      <!-- $\mathdefault{10^{0}}$ -->
      <g transform="translate(31.829375 101.034913)scale(0.12 -0.12)">
       <use xlink:href="#DejaVuSans-31" transform="translate(0 0.765625)"/>
       <use xlink:href="#DejaVuSans-30" transform="translate(63.623047 0.765625)"/>
       <use xlink:href="#DejaVuSans-30" transform="translate(128.203125 39.046875)scale(0.7)"/>
      </g>
     </g>
    </g>
    <g id="ytick_3">
     <g id="line2d_15">
      <defs>
       <path id="m2251743955" d="M 0 0 
L -2 0 
" style="stroke: #000000; stroke-width: 0.6"/>
      </defs>
      <g>
       <use xlink:href="#m2251743955" x="59.949375" y="223.368194" style="stroke: #000000; stroke-width: 0.6"/>
      </g>
     </g>
    </g>
    <g id="ytick_4">
     <g id="line2d_16">
      <g>
       <use xlink:href="#m2251743955" x="59.949375" y="216.415586" style="stroke: #000000; stroke-width: 0.6"/>
      </g>
     </g>
    </g>
    <g id="ytick_5">
     <g id="line2d_17">
      <g>
       <use xlink:href="#m2251743955" x="59.949375" y="210.392963" style="stroke: #000000; stroke-width: 0.6"/>
      </g>
     </g>
    </g>
    <g id="ytick_6">
     <g id="line2d_18">
      <g>
       <use xlink:href="#m2251743955" x="59.949375" y="205.080634" style="stroke: #000000; stroke-width: 0.6"/>
      </g>
     </g>
    </g>
    <g id="ytick_7">
     <g id="line2d_19">
      <g>
       <use xlink:href="#m2251743955" x="59.949375" y="169.065802" style="stroke: #000000; stroke-width: 0.6"/>
      </g>
     </g>
    </g>
    <g id="ytick_8">
     <g id="line2d_20">
      <g>
       <use xlink:href="#m2251743955" x="59.949375" y="150.778242" style="stroke: #000000; stroke-width: 0.6"/>
      </g>
     </g>
    </g>
    <g id="ytick_9">
     <g id="line2d_21">
      <g>
       <use xlink:href="#m2251743955" x="59.949375" y="137.803012" style="stroke: #000000; stroke-width: 0.6"/>
      </g>
     </g>
    </g>
    <g id="ytick_10">
     <g id="line2d_22">
      <g>
       <use xlink:href="#m2251743955" x="59.949375" y="127.738641" style="stroke: #000000; stroke-width: 0.6"/>
      </g>
     </g>
    </g>
    <g id="ytick_11">
     <g id="line2d_23">
      <g>
       <use xlink:href="#m2251743955" x="59.949375" y="119.515452" style="stroke: #000000; stroke-width: 0.6"/>
      </g>
     </g>
    </g>
    <g id="ytick_12">
     <g id="line2d_24">
      <g>
       <use xlink:href="#m2251743955" x="59.949375" y="112.562844" style="stroke: #000000; stroke-width: 0.6"/>
      </g>
     </g>
    </g>
    <g id="ytick_13">
     <g id="line2d_25">
      <g>
       <use xlink:href="#m2251743955" x="59.949375" y="106.540221" style="stroke: #000000; stroke-width: 0.6"/>
      </g>
     </g>
    </g>
    <g id="ytick_14">
     <g id="line2d_26">
      <g>
       <use xlink:href="#m2251743955" x="59.949375" y="101.227891" style="stroke: #000000; stroke-width: 0.6"/>
      </g>
     </g>
    </g>
    <g id="ytick_15">
     <g id="line2d_27">
      <g>
       <use xlink:href="#m2251743955" x="59.949375" y="65.21306" style="stroke: #000000; stroke-width: 0.6"/>
      </g>
     </g>
    </g>
    <g id="ytick_16">
     <g id="line2d_28">
      <g>
       <use xlink:href="#m2251743955" x="59.949375" y="46.9255" style="stroke: #000000; stroke-width: 0.6"/>
      </g>
     </g>
    </g>
    <g id="ytick_17">
     <g id="line2d_29">
      <g>
       <use xlink:href="#m2251743955" x="59.949375" y="33.95027" style="stroke: #000000; stroke-width: 0.6"/>
      </g>
     </g>
    </g>
    <g id="text_9">
     <!-- MSE Error -->
     <g transform="translate(17.837813 160.812125)rotate(-90)scale(0.14 -0.14)">
      <defs>
       <path id="DejaVuSans-4d" d="M 628 4666 
L 1569 4666 
L 2759 1491 
L 3956 4666 
L 4897 4666 
L 4897 0 
L 4281 0 
L 4281 4097 
L 3078 897 
L 2444 897 
L 1241 4097 
L 1241 0 
L 628 0 
L 628 4666 
z
" transform="scale(0.015625)"/>
       <path id="DejaVuSans-53" d="M 3425 4513 
L 3425 3897 
Q 3066 4069 2747 4153 
Q 2428 4238 2131 4238 
Q 1616 4238 1336 4038 
Q 1056 3838 1056 3469 
Q 1056 3159 1242 3001 
Q 1428 2844 1947 2747 
L 2328 2669 
Q 3034 2534 3370 2195 
Q 3706 1856 3706 1288 
Q 3706 609 3251 259 
Q 2797 -91 1919 -91 
Q 1588 -91 1214 -16 
Q 841 59 441 206 
L 441 856 
Q 825 641 1194 531 
Q 1563 422 1919 422 
Q 2459 422 2753 634 
Q 3047 847 3047 1241 
Q 3047 1584 2836 1778 
Q 2625 1972 2144 2069 
L 1759 2144 
Q 1053 2284 737 2584 
Q 422 2884 422 3419 
Q 422 4038 858 4394 
Q 1294 4750 2059 4750 
Q 2388 4750 2728 4690 
Q 3069 4631 3425 4513 
z
" transform="scale(0.015625)"/>
       <path id="DejaVuSans-20" transform="scale(0.015625)"/>
       <path id="DejaVuSans-72" d="M 2631 2963 
Q 2534 3019 2420 3045 
Q 2306 3072 2169 3072 
Q 1681 3072 1420 2755 
Q 1159 2438 1159 1844 
L 1159 0 
L 581 0 
L 581 3500 
L 1159 3500 
L 1159 2956 
Q 1341 3275 1631 3429 
Q 1922 3584 2338 3584 
Q 2397 3584 2469 3576 
Q 2541 3569 2628 3553 
L 2631 2963 
z
" transform="scale(0.015625)"/>
      </defs>
      <use xlink:href="#DejaVuSans-4d"/>
      <use xlink:href="#DejaVuSans-53" x="86.279297"/>
      <use xlink:href="#DejaVuSans-45" x="149.755859"/>
      <use xlink:href="#DejaVuSans-20" x="212.939453"/>
      <use xlink:href="#DejaVuSans-45" x="244.726562"/>
      <use xlink:href="#DejaVuSans-72" x="307.910156"/>
      <use xlink:href="#DejaVuSans-72" x="347.273438"/>
      <use xlink:href="#DejaVuSans-6f" x="386.136719"/>
      <use xlink:href="#DejaVuSans-72" x="447.318359"/>
     </g>
    </g>
   </g>
   <g id="line2d_30">
    <path d="M 72.442982 34.563318 
L 77.452949 39.262024 
L 84.341654 45.390921 
L 106.260262 64.391455 
L 111.896476 68.973907 
L 116.906443 72.760117 
L 122.542657 76.704739 
L 131.936346 82.92803 
L 141.330035 88.922236 
L 148.21874 93.061081 
L 154.4812 96.585746 
L 160.743659 99.872899 
L 167.632365 103.242675 
L 175.773562 106.974249 
L 188.298481 112.436513 
L 208.338351 120.940724 
L 216.479548 124.156435 
L 222.115762 126.165903 
L 227.125729 127.739598 
L 232.135697 129.075583 
L 237.145664 130.158784 
L 242.155632 130.999293 
L 247.791845 131.696059 
L 254.054305 132.239912 
L 262.821748 132.763596 
L 285.366602 133.786916 
L 315.426407 135.265538 
L 322.315112 135.640909 
L 322.315112 135.640909 
" clip-path="url(#pded16c0b2b)" style="fill: none; stroke: #1f77b4; stroke-width: 1.5; stroke-linecap: square"/>
   </g>
   <g id="line2d_31">
    <path d="M 72.442982 39.783681 
L 76.200457 45.356771 
L 79.331687 49.58457 
L 82.462917 53.445756 
L 93.735344 66.863673 
L 96.866573 71.251889 
L 99.997803 76.128123 
L 103.129033 81.443015 
L 109.391492 92.311007 
L 111.896476 96.136108 
L 113.775214 98.650185 
L 115.653951 100.849883 
L 117.532689 102.769622 
L 120.037673 105.026345 
L 133.188838 116.119007 
L 146.340003 126.740599 
L 150.723724 130.086904 
L 154.4812 132.680955 
L 157.61243 134.601631 
L 160.743659 136.28394 
L 164.501135 138.016286 
L 168.258611 139.502822 
L 173.268578 141.237336 
L 180.783529 143.583694 
L 191.42971 146.662167 
L 214.60081 153.268706 
L 224.620745 156.408323 
L 237.77191 160.787886 
L 250.923075 165.114276 
L 259.064272 167.554353 
L 266.579223 169.575522 
L 274.094175 171.375879 
L 282.235372 173.105753 
L 291.002815 174.748595 
L 300.396504 176.29146 
L 311.042685 177.812434 
L 322.315112 179.211603 
L 322.315112 179.211603 
" clip-path="url(#pded16c0b2b)" style="fill: none; stroke: #ff7f0e; stroke-width: 1.5; stroke-linecap: square"/>
   </g>
   <g id="line2d_32">
    <path d="M 72.442982 43.751492 
L 73.695473 47.073835 
L 74.947965 49.930062 
L 76.200457 52.305165 
L 78.079195 55.211597 
L 80.584179 58.924336 
L 81.836671 61.113711 
L 83.089163 63.632892 
L 84.9679 68.019416 
L 86.846638 73.046078 
L 88.725376 78.673623 
L 90.604114 84.934096 
L 94.361589 97.985392 
L 105.00777 131.24728 
L 105.634016 132.552629 
L 106.886508 134.31715 
L 109.391492 137.27263 
L 110.643984 138.183681 
L 111.896476 138.808244 
L 112.522722 138.932805 
L 114.40146 138.798954 
L 115.653951 139.252884 
L 116.906443 139.738305 
L 118.785181 140.385673 
L 121.290165 141.55418 
L 123.168903 142.409898 
L 128.17887 144.417182 
L 134.44133 146.925118 
L 138.198805 148.679764 
L 141.956281 150.692573 
L 145.713757 152.945572 
L 149.471232 155.456626 
L 153.228708 158.249264 
L 157.61243 161.832243 
L 161.996151 165.710078 
L 168.884857 172.166679 
L 173.894824 176.725305 
L 177.026054 179.288019 
L 179.531038 181.091454 
L 182.036021 182.640579 
L 184.541005 183.93657 
L 187.045989 185.011855 
L 190.177219 186.126522 
L 194.56094 187.436329 
L 200.197154 188.890381 
L 205.833367 190.12561 
L 212.722072 191.383871 
L 222.115762 192.845153 
L 235.266926 194.639626 
L 260.316764 197.773372 
L 284.740356 200.906193 
L 300.396504 203.132906 
L 313.547669 205.225714 
L 322.315112 206.769088 
L 322.315112 206.769088 
" clip-path="url(#pded16c0b2b)" style="fill: none; stroke: #2ca02c; stroke-width: 1.5; stroke-linecap: square"/>
   </g>
   <g id="line2d_33">
    <path d="M 72.442982 45.241605 
L 73.069227 47.487126 
L 73.695473 48.896301 
L 74.947965 51.093911 
L 76.200457 54.011505 
L 78.705441 60.455443 
L 79.957933 64.521663 
L 81.210425 69.425728 
L 83.089163 78.032743 
L 84.9679 88.255953 
L 86.220392 95.039453 
L 87.472884 100.499251 
L 89.977868 110.25852 
L 91.23036 115.826465 
L 91.856606 119.120552 
L 93.735344 130.556725 
L 94.361589 132.228008 
L 97.492819 134.433829 
L 98.745311 136.673766 
L 99.371557 136.549582 
L 99.997803 134.989028 
L 100.624049 133.95657 
L 101.250295 134.168748 
L 102.502787 135.187729 
L 103.129033 136.003715 
L 103.755279 136.512649 
L 104.381525 136.449803 
L 105.00777 136.58771 
L 106.886508 138.832799 
L 108.139 139.4489 
L 108.765246 139.531961 
L 109.391492 139.493136 
L 110.017738 139.642841 
L 111.27023 140.21787 
L 113.775214 140.619045 
L 115.027706 141.023823 
L 116.280197 141.652258 
L 118.785181 142.643221 
L 125.673887 145.80472 
L 127.552624 146.782751 
L 131.3101 149.027596 
L 135.067576 151.564203 
L 138.198805 153.9972 
L 141.330035 156.752436 
L 145.087511 160.412652 
L 151.976216 167.615258 
L 155.733692 171.379176 
L 158.864921 174.181918 
L 161.369905 176.118071 
L 163.874889 177.767841 
L 166.379873 179.166027 
L 169.511102 180.670428 
L 174.52107 182.795668 
L 178.904792 184.439548 
L 183.288513 185.818455 
L 188.298481 187.119232 
L 194.56094 188.50316 
L 202.702137 190.061313 
L 215.227056 192.201794 
L 221.489516 193.173723 
L 222.742007 193.134862 
L 223.368253 192.776572 
L 224.620745 191.008876 
L 225.246991 191.718299 
L 225.873237 193.550251 
L 226.499483 193.654567 
L 227.125729 192.556862 
L 227.751975 193.101163 
L 228.378221 194.234599 
L 229.004467 193.600869 
L 229.630713 193.3675 
L 230.256959 194.399632 
L 230.883205 194.252593 
L 231.509451 193.851078 
L 232.135697 194.606607 
L 232.761943 194.683129 
L 233.388188 194.325077 
L 234.014434 194.86342 
L 234.64068 195.022466 
L 235.266926 194.751395 
L 235.893172 195.139067 
L 236.519418 195.32445 
L 237.145664 195.136138 
L 238.398156 195.607026 
L 239.024402 195.488076 
L 240.276894 195.878199 
L 240.90314 195.81499 
L 242.155632 196.141201 
L 242.781878 196.12437 
L 250.296829 197.244341 
L 252.801813 197.571028 
L 259.690518 198.513967 
L 268.457961 199.67754 
L 269.710453 199.600212 
L 270.336699 199.247749 
L 270.962945 198.466491 
L 271.589191 196.976141 
L 272.215437 196.432122 
L 272.841683 197.409107 
L 273.467929 199.990298 
L 274.094175 200.041517 
L 274.720421 198.353906 
L 275.346667 198.838041 
L 275.972912 200.468269 
L 276.599158 200.416522 
L 277.225404 199.456532 
L 277.85165 199.912759 
L 278.477896 200.97933 
L 279.730388 200.05551 
L 280.356634 200.906455 
L 280.98288 201.242307 
L 281.609126 200.727586 
L 282.235372 200.932283 
L 282.861618 201.507851 
L 284.11411 201.222851 
L 285.366602 201.846147 
L 285.992848 201.683015 
L 286.619094 201.701566 
L 287.245339 202.042056 
L 287.871585 202.124987 
L 288.497831 202.023364 
L 290.376569 202.428587 
L 291.002815 202.418854 
L 292.255307 202.747103 
L 293.507799 202.792895 
L 294.760291 203.079105 
L 296.012783 203.163906 
L 297.89152 203.464308 
L 299.144012 203.640382 
L 301.648996 203.983273 
L 304.780226 204.435558 
L 322.315112 207.072623 
L 322.315112 207.072623 
" clip-path="url(#pded16c0b2b)" style="fill: none; stroke: #d62728; stroke-width: 1.5; stroke-linecap: square"/>
   </g>
   <g id="line2d_34">
    <path d="M 72.442982 43.320853 
L 73.069227 48.33928 
L 74.321719 54.379774 
L 75.574211 60.740408 
L 76.826703 69.309005 
L 79.957933 93.122932 
L 81.836671 104.282006 
L 82.462917 109.638815 
L 83.715408 124.559836 
L 84.341654 130.092313 
L 84.9679 130.57208 
L 85.594146 128.107196 
L 86.220392 127.206626 
L 86.846638 128.795026 
L 87.472884 128.924132 
L 88.09913 126.09573 
L 88.725376 124.66852 
L 89.351622 126.451447 
L 89.977868 128.996807 
L 90.604114 130.186741 
L 91.23036 131.04167 
L 92.482852 134.068782 
L 93.109098 134.868743 
L 94.361589 134.562843 
L 94.987835 134.682232 
L 96.240327 135.359186 
L 97.492819 135.188648 
L 98.119065 135.356295 
L 98.745311 135.970317 
L 99.997803 137.637924 
L 101.876541 139.089903 
L 103.755279 141.278884 
L 105.00777 142.027971 
L 106.260262 143.322444 
L 107.512754 144.817329 
L 108.765246 146.785314 
L 113.775214 155.654873 
L 115.653951 159.727567 
L 117.532689 164.434143 
L 118.158935 164.806552 
L 118.785181 160.625642 
L 119.411427 151.131184 
L 120.037673 166.485031 
L 120.663919 165.152305 
L 121.290165 158.632205 
L 121.916411 172.877559 
L 122.542657 159.218193 
L 123.168903 169.311953 
L 123.795149 167.243418 
L 124.421395 168.834116 
L 125.047641 174.09829 
L 125.673887 169.021456 
L 126.300132 176.712579 
L 126.926378 169.667803 
L 127.552624 178.695206 
L 128.17887 172.691219 
L 128.805116 179.163244 
L 129.431362 174.904226 
L 130.057608 178.15028 
L 130.683854 177.675747 
L 131.3101 177.882759 
L 131.936346 180.19931 
L 132.562592 177.963058 
L 133.188838 181.312786 
L 133.815084 178.271077 
L 134.44133 181.623873 
L 135.067576 179.539823 
L 135.693822 181.457693 
L 136.320068 180.863196 
L 136.946313 180.993121 
L 137.572559 181.961647 
L 138.198805 180.83238 
L 138.825051 182.594236 
L 139.451297 181.33458 
L 140.077543 182.63949 
L 140.703789 182.1252 
L 141.330035 182.420462 
L 141.956281 182.921758 
L 142.582527 182.395903 
L 143.208773 183.382953 
L 143.835019 182.807825 
L 144.461265 183.486652 
L 145.087511 183.418943 
L 145.713757 183.478122 
L 146.340003 183.947567 
L 146.966249 183.641136 
L 147.592495 184.210393 
L 148.21874 184.072536 
L 149.471232 184.541441 
L 150.097478 184.450006 
L 150.723724 184.83745 
L 151.34997 184.75376 
L 152.602462 185.133842 
L 153.228708 185.129576 
L 153.854954 185.415445 
L 154.4812 185.412794 
L 155.733692 185.737692 
L 156.359938 185.766049 
L 156.986184 185.98316 
L 158.238676 186.16289 
L 158.864921 186.334004 
L 159.491167 186.38637 
L 160.743659 186.672125 
L 162.622397 187.023797 
L 168.884857 188.292062 
L 181.409775 191.058375 
L 189.550973 193.105804 
L 197.065924 195.202903 
L 203.328383 197.019403 
L 203.954629 197.042886 
L 204.580875 196.685789 
L 205.207121 195.230254 
L 205.833367 191.127802 
L 206.459613 185.719133 
L 207.085859 184.498828 
L 207.712105 195.151055 
L 208.338351 196.093534 
L 208.964597 189.605565 
L 210.217089 198.743161 
L 210.843335 193.052243 
L 211.469581 195.163835 
L 212.095826 199.09191 
L 212.722072 194.773809 
L 213.974564 199.818388 
L 214.60081 196.75425 
L 215.227056 198.955939 
L 215.853302 200.147424 
L 216.479548 198.00753 
L 217.105794 200.047701 
L 217.73204 200.466293 
L 218.358286 199.050471 
L 218.984532 201.028238 
L 219.610778 201.025006 
L 220.237024 200.284515 
L 220.86327 201.831073 
L 221.489516 201.619575 
L 222.115762 201.209111 
L 222.742007 202.430115 
L 223.994499 201.949063 
L 224.620745 202.900381 
L 225.873237 202.535824 
L 226.499483 203.105987 
L 227.125729 202.81868 
L 227.751975 202.002616 
L 228.378221 201.578406 
L 229.004467 199.408975 
L 229.630713 196.476171 
L 230.256959 191.153099 
L 231.509451 187.849092 
L 232.135697 197.354133 
L 232.761943 204.449849 
L 233.388188 203.227926 
L 234.014434 198.309004 
L 234.64068 195.586996 
L 235.266926 201.484932 
L 235.893172 205.96723 
L 236.519418 203.7135 
L 237.145664 200.765658 
L 237.77191 201.409763 
L 238.398156 205.52429 
L 239.024402 206.200006 
L 239.650648 203.649442 
L 240.276894 203.281019 
L 241.529386 207.287437 
L 242.155632 206.16938 
L 242.781878 204.674001 
L 243.408124 205.81703 
L 244.034369 207.496374 
L 244.660615 207.721898 
L 245.286861 206.796098 
L 245.913107 206.390272 
L 247.165599 208.490798 
L 247.791845 208.378744 
L 248.418091 207.77538 
L 249.044337 207.737297 
L 250.296829 209.131537 
L 250.923075 209.191306 
L 251.549321 208.904682 
L 252.175567 208.767421 
L 252.801813 209.136692 
L 253.428059 209.666223 
L 254.054305 209.973854 
L 255.933042 209.842997 
L 256.559288 210.030251 
L 257.81178 210.669021 
L 258.438026 210.833237 
L 261.569256 211.113439 
L 264.700486 211.99394 
L 267.205469 212.361255 
L 268.457961 212.435111 
L 269.710453 212.264177 
L 270.336699 211.910106 
L 270.962945 211.266028 
L 271.589191 209.790096 
L 272.215437 207.571238 
L 273.467929 198.369544 
L 274.094175 190.351683 
L 274.720421 192.230057 
L 275.346667 195.074633 
L 275.972912 208.355371 
L 276.599158 213.730595 
L 277.225404 207.022793 
L 277.85165 201.851815 
L 278.477896 202.109124 
L 279.104142 211.047093 
L 279.730388 213.899129 
L 280.356634 208.509705 
L 280.98288 206.402058 
L 281.609126 209.338462 
L 282.235372 214.24989 
L 282.861618 212.935207 
L 283.487864 209.066629 
L 284.11411 210.232049 
L 284.740356 213.68999 
L 285.366602 214.77459 
L 285.992848 212.53207 
L 286.619094 211.167383 
L 287.871585 215.204436 
L 288.497831 214.595865 
L 289.124077 213.215829 
L 289.750323 213.249809 
L 290.376569 214.884943 
L 291.002815 215.682771 
L 292.255307 214.29058 
L 292.881553 214.571904 
L 293.507799 215.623335 
L 294.134045 216.101228 
L 295.386537 215.268175 
L 296.012783 215.356184 
L 297.265275 216.477623 
L 297.89152 216.473509 
L 298.517766 216.196874 
L 299.144012 216.0461 
L 299.770258 216.266582 
L 301.02275 216.944017 
L 301.648996 217.00773 
L 302.901488 216.819656 
L 303.527734 216.853318 
L 306.032718 217.565867 
L 309.163947 217.683956 
L 313.547669 218.430479 
L 316.678899 218.672666 
L 317.931391 218.654243 
L 319.183882 218.354722 
L 319.810128 217.899945 
L 320.436374 217.119571 
L 321.06262 215.42953 
L 321.688866 212.913317 
L 322.315112 207.608043 
L 322.315112 207.608043 
" clip-path="url(#pded16c0b2b)" style="fill: none; stroke: #9467bd; stroke-width: 1.5; stroke-linecap: square"/>
   </g>
   <g id="patch_3">
    <path d="M 59.949375 227.8855 
L 59.949375 25.3575 
" style="fill: none; stroke: #000000; stroke-width: 0.8; stroke-linejoin: miter; stroke-linecap: square"/>
   </g>
   <g id="patch_4">
    <path d="M 334.808719 227.8855 
L 334.808719 25.3575 
" style="fill: none; stroke: #000000; stroke-width: 0.8; stroke-linejoin: miter; stroke-linecap: square"/>
   </g>
   <g id="patch_5">
    <path d="M 59.949375 227.8855 
L 334.808719 227.8855 
" style="fill: none; stroke: #000000; stroke-width: 0.8; stroke-linejoin: miter; stroke-linecap: square"/>
   </g>
   <g id="patch_6">
    <path d="M 59.949375 25.3575 
L 334.808719 25.3575 
" style="fill: none; stroke: #000000; stroke-width: 0.8; stroke-linejoin: miter; stroke-linecap: square"/>
   </g>
   <g id="text_10">
    <!-- Error as a function of epochs -->
    <g transform="translate(82.275297 19.3575)scale(0.16 -0.16)">
     <defs>
      <path id="DejaVuSans-61" d="M 2194 1759 
Q 1497 1759 1228 1600 
Q 959 1441 959 1056 
Q 959 750 1161 570 
Q 1363 391 1709 391 
Q 2188 391 2477 730 
Q 2766 1069 2766 1631 
L 2766 1759 
L 2194 1759 
z
M 3341 1997 
L 3341 0 
L 2766 0 
L 2766 531 
Q 2569 213 2275 61 
Q 1981 -91 1556 -91 
Q 1019 -91 701 211 
Q 384 513 384 1019 
Q 384 1609 779 1909 
Q 1175 2209 1959 2209 
L 2766 2209 
L 2766 2266 
Q 2766 2663 2505 2880 
Q 2244 3097 1772 3097 
Q 1472 3097 1187 3025 
Q 903 2953 641 2809 
L 641 3341 
Q 956 3463 1253 3523 
Q 1550 3584 1831 3584 
Q 2591 3584 2966 3190 
Q 3341 2797 3341 1997 
z
" transform="scale(0.015625)"/>
      <path id="DejaVuSans-73" d="M 2834 3397 
L 2834 2853 
Q 2591 2978 2328 3040 
Q 2066 3103 1784 3103 
Q 1356 3103 1142 2972 
Q 928 2841 928 2578 
Q 928 2378 1081 2264 
Q 1234 2150 1697 2047 
L 1894 2003 
Q 2506 1872 2764 1633 
Q 3022 1394 3022 966 
Q 3022 478 2636 193 
Q 2250 -91 1575 -91 
Q 1294 -91 989 -36 
Q 684 19 347 128 
L 347 722 
Q 666 556 975 473 
Q 1284 391 1588 391 
Q 1994 391 2212 530 
Q 2431 669 2431 922 
Q 2431 1156 2273 1281 
Q 2116 1406 1581 1522 
L 1381 1569 
Q 847 1681 609 1914 
Q 372 2147 372 2553 
Q 372 3047 722 3315 
Q 1072 3584 1716 3584 
Q 2034 3584 2315 3537 
Q 2597 3491 2834 3397 
z
" transform="scale(0.015625)"/>
      <path id="DejaVuSans-66" d="M 2375 4863 
L 2375 4384 
L 1825 4384 
Q 1516 4384 1395 4259 
Q 1275 4134 1275 3809 
L 1275 3500 
L 2222 3500 
L 2222 3053 
L 1275 3053 
L 1275 0 
L 697 0 
L 697 3053 
L 147 3053 
L 147 3500 
L 697 3500 
L 697 3744 
Q 697 4328 969 4595 
Q 1241 4863 1831 4863 
L 2375 4863 
z
" transform="scale(0.015625)"/>
      <path id="DejaVuSans-75" d="M 544 1381 
L 544 3500 
L 1119 3500 
L 1119 1403 
Q 1119 906 1312 657 
Q 1506 409 1894 409 
Q 2359 409 2629 706 
Q 2900 1003 2900 1516 
L 2900 3500 
L 3475 3500 
L 3475 0 
L 2900 0 
L 2900 538 
Q 2691 219 2414 64 
Q 2138 -91 1772 -91 
Q 1169 -91 856 284 
Q 544 659 544 1381 
z
M 1991 3584 
L 1991 3584 
z
" transform="scale(0.015625)"/>
      <path id="DejaVuSans-6e" d="M 3513 2113 
L 3513 0 
L 2938 0 
L 2938 2094 
Q 2938 2591 2744 2837 
Q 2550 3084 2163 3084 
Q 1697 3084 1428 2787 
Q 1159 2491 1159 1978 
L 1159 0 
L 581 0 
L 581 3500 
L 1159 3500 
L 1159 2956 
Q 1366 3272 1645 3428 
Q 1925 3584 2291 3584 
Q 2894 3584 3203 3211 
Q 3513 2838 3513 2113 
z
" transform="scale(0.015625)"/>
      <path id="DejaVuSans-74" d="M 1172 4494 
L 1172 3500 
L 2356 3500 
L 2356 3053 
L 1172 3053 
L 1172 1153 
Q 1172 725 1289 603 
Q 1406 481 1766 481 
L 2356 481 
L 2356 0 
L 1766 0 
Q 1100 0 847 248 
Q 594 497 594 1153 
L 594 3053 
L 172 3053 
L 172 3500 
L 594 3500 
L 594 4494 
L 1172 4494 
z
" transform="scale(0.015625)"/>
      <path id="DejaVuSans-69" d="M 603 3500 
L 1178 3500 
L 1178 0 
L 603 0 
L 603 3500 
z
M 603 4863 
L 1178 4863 
L 1178 4134 
L 603 4134 
L 603 4863 
z
" transform="scale(0.015625)"/>
      <path id="DejaVuSans-65" d="M 3597 1894 
L 3597 1613 
L 953 1613 
Q 991 1019 1311 708 
Q 1631 397 2203 397 
Q 2534 397 2845 478 
Q 3156 559 3463 722 
L 3463 178 
Q 3153 47 2828 -22 
Q 2503 -91 2169 -91 
Q 1331 -91 842 396 
Q 353 884 353 1716 
Q 353 2575 817 3079 
Q 1281 3584 2069 3584 
Q 2775 3584 3186 3129 
Q 3597 2675 3597 1894 
z
M 3022 2063 
Q 3016 2534 2758 2815 
Q 2500 3097 2075 3097 
Q 1594 3097 1305 2825 
Q 1016 2553 972 2059 
L 3022 2063 
z
" transform="scale(0.015625)"/>
     </defs>
     <use xlink:href="#DejaVuSans-45"/>
     <use xlink:href="#DejaVuSans-72" x="63.183594"/>
     <use xlink:href="#DejaVuSans-72" x="102.546875"/>
     <use xlink:href="#DejaVuSans-6f" x="141.410156"/>
     <use xlink:href="#DejaVuSans-72" x="202.591797"/>
     <use xlink:href="#DejaVuSans-20" x="243.705078"/>
     <use xlink:href="#DejaVuSans-61" x="275.492188"/>
     <use xlink:href="#DejaVuSans-73" x="336.771484"/>
     <use xlink:href="#DejaVuSans-20" x="388.871094"/>
     <use xlink:href="#DejaVuSans-61" x="420.658203"/>
     <use xlink:href="#DejaVuSans-20" x="481.9375"/>
     <use xlink:href="#DejaVuSans-66" x="513.724609"/>
     <use xlink:href="#DejaVuSans-75" x="548.929688"/>
     <use xlink:href="#DejaVuSans-6e" x="612.308594"/>
     <use xlink:href="#DejaVuSans-63" x="675.6875"/>
     <use xlink:href="#DejaVuSans-74" x="730.667969"/>
     <use xlink:href="#DejaVuSans-69" x="769.876953"/>
     <use xlink:href="#DejaVuSans-6f" x="797.660156"/>
     <use xlink:href="#DejaVuSans-6e" x="858.841797"/>
     <use xlink:href="#DejaVuSans-20" x="922.220703"/>
     <use xlink:href="#DejaVuSans-6f" x="954.007812"/>
     <use xlink:href="#DejaVuSans-66" x="1015.189453"/>
     <use xlink:href="#DejaVuSans-20" x="1050.394531"/>
     <use xlink:href="#DejaVuSans-65" x="1082.181641"/>
     <use xlink:href="#DejaVuSans-70" x="1143.705078"/>
     <use xlink:href="#DejaVuSans-6f" x="1207.181641"/>
     <use xlink:href="#DejaVuSans-63" x="1268.363281"/>
     <use xlink:href="#DejaVuSans-68" x="1323.34375"/>
     <use xlink:href="#DejaVuSans-73" x="1386.722656"/>
    </g>
   </g>
  </g>
  <g id="axes_2">
   <g id="patch_7">
    <path d="M 389.175682 227.8855 
L 664.035025 227.8855 
L 664.035025 25.3575 
L 389.175682 25.3575 
z
" style="fill: #ffffff"/>
   </g>
   <g id="matplotlib.axis_3">
    <g id="xtick_6">
     <g id="line2d_35">
      <path d="M 400.058477 227.8855 
L 400.058477 25.3575 
" clip-path="url(#p9da9451cdc)" style="fill: none; stroke: #b0b0b0; stroke-width: 0.8; stroke-linecap: square"/>
     </g>
     <g id="line2d_36">
      <g>
       <use xlink:href="#m76e1306832" x="400.058477" y="227.8855" style="stroke: #000000; stroke-width: 0.8"/>
      </g>
     </g>
     <g id="text_11">
      <!-- 0 -->
      <g transform="translate(396.240977 244.003625)scale(0.12 -0.12)">
       <use xlink:href="#DejaVuSans-30"/>
      </g>
     </g>
    </g>
    <g id="xtick_7">
     <g id="line2d_37">
      <path d="M 439.346548 227.8855 
L 439.346548 25.3575 
" clip-path="url(#p9da9451cdc)" style="fill: none; stroke: #b0b0b0; stroke-width: 0.8; stroke-linecap: square"/>
     </g>
     <g id="line2d_38">
      <g>
       <use xlink:href="#m76e1306832" x="439.346548" y="227.8855" style="stroke: #000000; stroke-width: 0.8"/>
      </g>
     </g>
     <g id="text_12">
      <!-- 2000 -->
      <g transform="translate(424.076548 244.003625)scale(0.12 -0.12)">
       <use xlink:href="#DejaVuSans-32"/>
       <use xlink:href="#DejaVuSans-30" x="63.623047"/>
       <use xlink:href="#DejaVuSans-30" x="127.246094"/>
       <use xlink:href="#DejaVuSans-30" x="190.869141"/>
      </g>
     </g>
    </g>
    <g id="xtick_8">
     <g id="line2d_39">
      <path d="M 478.634619 227.8855 
L 478.634619 25.3575 
" clip-path="url(#p9da9451cdc)" style="fill: none; stroke: #b0b0b0; stroke-width: 0.8; stroke-linecap: square"/>
     </g>
     <g id="line2d_40">
      <g>
       <use xlink:href="#m76e1306832" x="478.634619" y="227.8855" style="stroke: #000000; stroke-width: 0.8"/>
      </g>
     </g>
     <g id="text_13">
      <!-- 4000 -->
      <g transform="translate(463.364619 244.003625)scale(0.12 -0.12)">
       <use xlink:href="#DejaVuSans-34"/>
       <use xlink:href="#DejaVuSans-30" x="63.623047"/>
       <use xlink:href="#DejaVuSans-30" x="127.246094"/>
       <use xlink:href="#DejaVuSans-30" x="190.869141"/>
      </g>
     </g>
    </g>
    <g id="xtick_9">
     <g id="line2d_41">
      <path d="M 517.92269 227.8855 
L 517.92269 25.3575 
" clip-path="url(#p9da9451cdc)" style="fill: none; stroke: #b0b0b0; stroke-width: 0.8; stroke-linecap: square"/>
     </g>
     <g id="line2d_42">
      <g>
       <use xlink:href="#m76e1306832" x="517.92269" y="227.8855" style="stroke: #000000; stroke-width: 0.8"/>
      </g>
     </g>
     <g id="text_14">
      <!-- 6000 -->
      <g transform="translate(502.65269 244.003625)scale(0.12 -0.12)">
       <defs>
        <path id="DejaVuSans-36" d="M 2113 2584 
Q 1688 2584 1439 2293 
Q 1191 2003 1191 1497 
Q 1191 994 1439 701 
Q 1688 409 2113 409 
Q 2538 409 2786 701 
Q 3034 994 3034 1497 
Q 3034 2003 2786 2293 
Q 2538 2584 2113 2584 
z
M 3366 4563 
L 3366 3988 
Q 3128 4100 2886 4159 
Q 2644 4219 2406 4219 
Q 1781 4219 1451 3797 
Q 1122 3375 1075 2522 
Q 1259 2794 1537 2939 
Q 1816 3084 2150 3084 
Q 2853 3084 3261 2657 
Q 3669 2231 3669 1497 
Q 3669 778 3244 343 
Q 2819 -91 2113 -91 
Q 1303 -91 875 529 
Q 447 1150 447 2328 
Q 447 3434 972 4092 
Q 1497 4750 2381 4750 
Q 2619 4750 2861 4703 
Q 3103 4656 3366 4563 
z
" transform="scale(0.015625)"/>
       </defs>
       <use xlink:href="#DejaVuSans-36"/>
       <use xlink:href="#DejaVuSans-30" x="63.623047"/>
       <use xlink:href="#DejaVuSans-30" x="127.246094"/>
       <use xlink:href="#DejaVuSans-30" x="190.869141"/>
      </g>
     </g>
    </g>
    <g id="xtick_10">
     <g id="line2d_43">
      <path d="M 557.210761 227.8855 
L 557.210761 25.3575 
" clip-path="url(#p9da9451cdc)" style="fill: none; stroke: #b0b0b0; stroke-width: 0.8; stroke-linecap: square"/>
     </g>
     <g id="line2d_44">
      <g>
       <use xlink:href="#m76e1306832" x="557.210761" y="227.8855" style="stroke: #000000; stroke-width: 0.8"/>
      </g>
     </g>
     <g id="text_15">
      <!-- 8000 -->
      <g transform="translate(541.940761 244.003625)scale(0.12 -0.12)">
       <defs>
        <path id="DejaVuSans-38" d="M 2034 2216 
Q 1584 2216 1326 1975 
Q 1069 1734 1069 1313 
Q 1069 891 1326 650 
Q 1584 409 2034 409 
Q 2484 409 2743 651 
Q 3003 894 3003 1313 
Q 3003 1734 2745 1975 
Q 2488 2216 2034 2216 
z
M 1403 2484 
Q 997 2584 770 2862 
Q 544 3141 544 3541 
Q 544 4100 942 4425 
Q 1341 4750 2034 4750 
Q 2731 4750 3128 4425 
Q 3525 4100 3525 3541 
Q 3525 3141 3298 2862 
Q 3072 2584 2669 2484 
Q 3125 2378 3379 2068 
Q 3634 1759 3634 1313 
Q 3634 634 3220 271 
Q 2806 -91 2034 -91 
Q 1263 -91 848 271 
Q 434 634 434 1313 
Q 434 1759 690 2068 
Q 947 2378 1403 2484 
z
M 1172 3481 
Q 1172 3119 1398 2916 
Q 1625 2713 2034 2713 
Q 2441 2713 2670 2916 
Q 2900 3119 2900 3481 
Q 2900 3844 2670 4047 
Q 2441 4250 2034 4250 
Q 1625 4250 1398 4047 
Q 1172 3844 1172 3481 
z
" transform="scale(0.015625)"/>
       </defs>
       <use xlink:href="#DejaVuSans-38"/>
       <use xlink:href="#DejaVuSans-30" x="63.623047"/>
       <use xlink:href="#DejaVuSans-30" x="127.246094"/>
       <use xlink:href="#DejaVuSans-30" x="190.869141"/>
      </g>
     </g>
    </g>
    <g id="xtick_11">
     <g id="line2d_45">
      <path d="M 596.498832 227.8855 
L 596.498832 25.3575 
" clip-path="url(#p9da9451cdc)" style="fill: none; stroke: #b0b0b0; stroke-width: 0.8; stroke-linecap: square"/>
     </g>
     <g id="line2d_46">
      <g>
       <use xlink:href="#m76e1306832" x="596.498832" y="227.8855" style="stroke: #000000; stroke-width: 0.8"/>
      </g>
     </g>
     <g id="text_16">
      <!-- 10000 -->
      <g transform="translate(577.411332 244.003625)scale(0.12 -0.12)">
       <use xlink:href="#DejaVuSans-31"/>
       <use xlink:href="#DejaVuSans-30" x="63.623047"/>
       <use xlink:href="#DejaVuSans-30" x="127.246094"/>
       <use xlink:href="#DejaVuSans-30" x="190.869141"/>
       <use xlink:href="#DejaVuSans-30" x="254.492188"/>
      </g>
     </g>
    </g>
    <g id="xtick_12">
     <g id="line2d_47">
      <path d="M 635.786902 227.8855 
L 635.786902 25.3575 
" clip-path="url(#p9da9451cdc)" style="fill: none; stroke: #b0b0b0; stroke-width: 0.8; stroke-linecap: square"/>
     </g>
     <g id="line2d_48">
      <g>
       <use xlink:href="#m76e1306832" x="635.786902" y="227.8855" style="stroke: #000000; stroke-width: 0.8"/>
      </g>
     </g>
     <g id="text_17">
      <!-- 12000 -->
      <g transform="translate(616.699402 244.003625)scale(0.12 -0.12)">
       <use xlink:href="#DejaVuSans-31"/>
       <use xlink:href="#DejaVuSans-32" x="63.623047"/>
       <use xlink:href="#DejaVuSans-30" x="127.246094"/>
       <use xlink:href="#DejaVuSans-30" x="190.869141"/>
       <use xlink:href="#DejaVuSans-30" x="254.492188"/>
      </g>
     </g>
    </g>
    <g id="text_18">
     <!-- Number of parameters -->
     <g transform="translate(446.686135 261.137063)scale(0.14 -0.14)">
      <defs>
       <path id="DejaVuSans-4e" d="M 628 4666 
L 1478 4666 
L 3547 763 
L 3547 4666 
L 4159 4666 
L 4159 0 
L 3309 0 
L 1241 3903 
L 1241 0 
L 628 0 
L 628 4666 
z
" transform="scale(0.015625)"/>
       <path id="DejaVuSans-6d" d="M 3328 2828 
Q 3544 3216 3844 3400 
Q 4144 3584 4550 3584 
Q 5097 3584 5394 3201 
Q 5691 2819 5691 2113 
L 5691 0 
L 5113 0 
L 5113 2094 
Q 5113 2597 4934 2840 
Q 4756 3084 4391 3084 
Q 3944 3084 3684 2787 
Q 3425 2491 3425 1978 
L 3425 0 
L 2847 0 
L 2847 2094 
Q 2847 2600 2669 2842 
Q 2491 3084 2119 3084 
Q 1678 3084 1418 2786 
Q 1159 2488 1159 1978 
L 1159 0 
L 581 0 
L 581 3500 
L 1159 3500 
L 1159 2956 
Q 1356 3278 1631 3431 
Q 1906 3584 2284 3584 
Q 2666 3584 2933 3390 
Q 3200 3197 3328 2828 
z
" transform="scale(0.015625)"/>
       <path id="DejaVuSans-62" d="M 3116 1747 
Q 3116 2381 2855 2742 
Q 2594 3103 2138 3103 
Q 1681 3103 1420 2742 
Q 1159 2381 1159 1747 
Q 1159 1113 1420 752 
Q 1681 391 2138 391 
Q 2594 391 2855 752 
Q 3116 1113 3116 1747 
z
M 1159 2969 
Q 1341 3281 1617 3432 
Q 1894 3584 2278 3584 
Q 2916 3584 3314 3078 
Q 3713 2572 3713 1747 
Q 3713 922 3314 415 
Q 2916 -91 2278 -91 
Q 1894 -91 1617 61 
Q 1341 213 1159 525 
L 1159 0 
L 581 0 
L 581 4863 
L 1159 4863 
L 1159 2969 
z
" transform="scale(0.015625)"/>
      </defs>
      <use xlink:href="#DejaVuSans-4e"/>
      <use xlink:href="#DejaVuSans-75" x="74.804688"/>
      <use xlink:href="#DejaVuSans-6d" x="138.183594"/>
      <use xlink:href="#DejaVuSans-62" x="235.595703"/>
      <use xlink:href="#DejaVuSans-65" x="299.072266"/>
      <use xlink:href="#DejaVuSans-72" x="360.595703"/>
      <use xlink:href="#DejaVuSans-20" x="401.708984"/>
      <use xlink:href="#DejaVuSans-6f" x="433.496094"/>
      <use xlink:href="#DejaVuSans-66" x="494.677734"/>
      <use xlink:href="#DejaVuSans-20" x="529.882812"/>
      <use xlink:href="#DejaVuSans-70" x="561.669922"/>
      <use xlink:href="#DejaVuSans-61" x="625.146484"/>
      <use xlink:href="#DejaVuSans-72" x="686.425781"/>
      <use xlink:href="#DejaVuSans-61" x="727.539062"/>
      <use xlink:href="#DejaVuSans-6d" x="788.818359"/>
      <use xlink:href="#DejaVuSans-65" x="886.230469"/>
      <use xlink:href="#DejaVuSans-74" x="947.753906"/>
      <use xlink:href="#DejaVuSans-65" x="986.962891"/>
      <use xlink:href="#DejaVuSans-72" x="1048.486328"/>
      <use xlink:href="#DejaVuSans-73" x="1089.599609"/>
     </g>
    </g>
   </g>
   <g id="matplotlib.axis_4">
    <g id="ytick_18">
     <g id="line2d_49">
      <path d="M 389.175682 208.230763 
L 664.035025 208.230763 
" clip-path="url(#p9da9451cdc)" style="fill: none; stroke: #b0b0b0; stroke-width: 0.8; stroke-linecap: square"/>
     </g>
     <g id="line2d_50">
      <g>
       <use xlink:href="#m6e1df4392a" x="389.175682" y="208.230763" style="stroke: #000000; stroke-width: 0.8"/>
      </g>
     </g>
     <g id="text_19">
      <!-- 14 -->
      <g transform="translate(366.905682 212.789825)scale(0.12 -0.12)">
       <use xlink:href="#DejaVuSans-31"/>
       <use xlink:href="#DejaVuSans-34" x="63.623047"/>
      </g>
     </g>
    </g>
    <g id="ytick_19">
     <g id="line2d_51">
      <path d="M 389.175682 178.338886 
L 664.035025 178.338886 
" clip-path="url(#p9da9451cdc)" style="fill: none; stroke: #b0b0b0; stroke-width: 0.8; stroke-linecap: square"/>
     </g>
     <g id="line2d_52">
      <g>
       <use xlink:href="#m6e1df4392a" x="389.175682" y="178.338886" style="stroke: #000000; stroke-width: 0.8"/>
      </g>
     </g>
     <g id="text_20">
      <!-- 16 -->
      <g transform="translate(366.905682 182.897949)scale(0.12 -0.12)">
       <use xlink:href="#DejaVuSans-31"/>
       <use xlink:href="#DejaVuSans-36" x="63.623047"/>
      </g>
     </g>
    </g>
    <g id="ytick_20">
     <g id="line2d_53">
      <path d="M 389.175682 148.447009 
L 664.035025 148.447009 
" clip-path="url(#p9da9451cdc)" style="fill: none; stroke: #b0b0b0; stroke-width: 0.8; stroke-linecap: square"/>
     </g>
     <g id="line2d_54">
      <g>
       <use xlink:href="#m6e1df4392a" x="389.175682" y="148.447009" style="stroke: #000000; stroke-width: 0.8"/>
      </g>
     </g>
     <g id="text_21">
      <!-- 18 -->
      <g transform="translate(366.905682 153.006072)scale(0.12 -0.12)">
       <use xlink:href="#DejaVuSans-31"/>
       <use xlink:href="#DejaVuSans-38" x="63.623047"/>
      </g>
     </g>
    </g>
    <g id="ytick_21">
     <g id="line2d_55">
      <path d="M 389.175682 118.555133 
L 664.035025 118.555133 
" clip-path="url(#p9da9451cdc)" style="fill: none; stroke: #b0b0b0; stroke-width: 0.8; stroke-linecap: square"/>
     </g>
     <g id="line2d_56">
      <g>
       <use xlink:href="#m6e1df4392a" x="389.175682" y="118.555133" style="stroke: #000000; stroke-width: 0.8"/>
      </g>
     </g>
     <g id="text_22">
      <!-- 20 -->
      <g transform="translate(366.905682 123.114195)scale(0.12 -0.12)">
       <use xlink:href="#DejaVuSans-32"/>
       <use xlink:href="#DejaVuSans-30" x="63.623047"/>
      </g>
     </g>
    </g>
    <g id="ytick_22">
     <g id="line2d_57">
      <path d="M 389.175682 88.663256 
L 664.035025 88.663256 
" clip-path="url(#p9da9451cdc)" style="fill: none; stroke: #b0b0b0; stroke-width: 0.8; stroke-linecap: square"/>
     </g>
     <g id="line2d_58">
      <g>
       <use xlink:href="#m6e1df4392a" x="389.175682" y="88.663256" style="stroke: #000000; stroke-width: 0.8"/>
      </g>
     </g>
     <g id="text_23">
      <!-- 22 -->
      <g transform="translate(366.905682 93.222318)scale(0.12 -0.12)">
       <use xlink:href="#DejaVuSans-32"/>
       <use xlink:href="#DejaVuSans-32" x="63.623047"/>
      </g>
     </g>
    </g>
    <g id="ytick_23">
     <g id="line2d_59">
      <path d="M 389.175682 58.771379 
L 664.035025 58.771379 
" clip-path="url(#p9da9451cdc)" style="fill: none; stroke: #b0b0b0; stroke-width: 0.8; stroke-linecap: square"/>
     </g>
     <g id="line2d_60">
      <g>
       <use xlink:href="#m6e1df4392a" x="389.175682" y="58.771379" style="stroke: #000000; stroke-width: 0.8"/>
      </g>
     </g>
     <g id="text_24">
      <!-- 24 -->
      <g transform="translate(366.905682 63.330442)scale(0.12 -0.12)">
       <use xlink:href="#DejaVuSans-32"/>
       <use xlink:href="#DejaVuSans-34" x="63.623047"/>
      </g>
     </g>
    </g>
    <g id="ytick_24">
     <g id="line2d_61">
      <path d="M 389.175682 28.879502 
L 664.035025 28.879502 
" clip-path="url(#p9da9451cdc)" style="fill: none; stroke: #b0b0b0; stroke-width: 0.8; stroke-linecap: square"/>
     </g>
     <g id="line2d_62">
      <g>
       <use xlink:href="#m6e1df4392a" x="389.175682" y="28.879502" style="stroke: #000000; stroke-width: 0.8"/>
      </g>
     </g>
     <g id="text_25">
      <!-- 26 -->
      <g transform="translate(366.905682 33.438565)scale(0.12 -0.12)">
       <use xlink:href="#DejaVuSans-32"/>
       <use xlink:href="#DejaVuSans-36" x="63.623047"/>
      </g>
     </g>
    </g>
    <g id="text_26">
     <!-- CPU-time(s) -->
     <g transform="translate(359.994119 168.302125)rotate(-90)scale(0.14 -0.14)">
      <defs>
       <path id="DejaVuSans-43" d="M 4122 4306 
L 4122 3641 
Q 3803 3938 3442 4084 
Q 3081 4231 2675 4231 
Q 1875 4231 1450 3742 
Q 1025 3253 1025 2328 
Q 1025 1406 1450 917 
Q 1875 428 2675 428 
Q 3081 428 3442 575 
Q 3803 722 4122 1019 
L 4122 359 
Q 3791 134 3420 21 
Q 3050 -91 2638 -91 
Q 1578 -91 968 557 
Q 359 1206 359 2328 
Q 359 3453 968 4101 
Q 1578 4750 2638 4750 
Q 3056 4750 3426 4639 
Q 3797 4528 4122 4306 
z
" transform="scale(0.015625)"/>
       <path id="DejaVuSans-50" d="M 1259 4147 
L 1259 2394 
L 2053 2394 
Q 2494 2394 2734 2622 
Q 2975 2850 2975 3272 
Q 2975 3691 2734 3919 
Q 2494 4147 2053 4147 
L 1259 4147 
z
M 628 4666 
L 2053 4666 
Q 2838 4666 3239 4311 
Q 3641 3956 3641 3272 
Q 3641 2581 3239 2228 
Q 2838 1875 2053 1875 
L 1259 1875 
L 1259 0 
L 628 0 
L 628 4666 
z
" transform="scale(0.015625)"/>
       <path id="DejaVuSans-55" d="M 556 4666 
L 1191 4666 
L 1191 1831 
Q 1191 1081 1462 751 
Q 1734 422 2344 422 
Q 2950 422 3222 751 
Q 3494 1081 3494 1831 
L 3494 4666 
L 4128 4666 
L 4128 1753 
Q 4128 841 3676 375 
Q 3225 -91 2344 -91 
Q 1459 -91 1007 375 
Q 556 841 556 1753 
L 556 4666 
z
" transform="scale(0.015625)"/>
       <path id="DejaVuSans-2d" d="M 313 2009 
L 1997 2009 
L 1997 1497 
L 313 1497 
L 313 2009 
z
" transform="scale(0.015625)"/>
       <path id="DejaVuSans-28" d="M 1984 4856 
Q 1566 4138 1362 3434 
Q 1159 2731 1159 2009 
Q 1159 1288 1364 580 
Q 1569 -128 1984 -844 
L 1484 -844 
Q 1016 -109 783 600 
Q 550 1309 550 2009 
Q 550 2706 781 3412 
Q 1013 4119 1484 4856 
L 1984 4856 
z
" transform="scale(0.015625)"/>
       <path id="DejaVuSans-29" d="M 513 4856 
L 1013 4856 
Q 1481 4119 1714 3412 
Q 1947 2706 1947 2009 
Q 1947 1309 1714 600 
Q 1481 -109 1013 -844 
L 513 -844 
Q 928 -128 1133 580 
Q 1338 1288 1338 2009 
Q 1338 2731 1133 3434 
Q 928 4138 513 4856 
z
" transform="scale(0.015625)"/>
      </defs>
      <use xlink:href="#DejaVuSans-43"/>
      <use xlink:href="#DejaVuSans-50" x="69.824219"/>
      <use xlink:href="#DejaVuSans-55" x="130.126953"/>
      <use xlink:href="#DejaVuSans-2d" x="203.320312"/>
      <use xlink:href="#DejaVuSans-74" x="239.404297"/>
      <use xlink:href="#DejaVuSans-69" x="278.613281"/>
      <use xlink:href="#DejaVuSans-6d" x="306.396484"/>
      <use xlink:href="#DejaVuSans-65" x="403.808594"/>
      <use xlink:href="#DejaVuSans-28" x="465.332031"/>
      <use xlink:href="#DejaVuSans-73" x="504.345703"/>
      <use xlink:href="#DejaVuSans-29" x="556.445312"/>
     </g>
    </g>
   </g>
   <g id="line2d_63">
    <path d="M 401.669288 215.183363 
L 405.126638 218.679682 
L 417.698821 197.593299 
L 465.473115 157.486798 
L 651.541419 34.563318 
" clip-path="url(#p9da9451cdc)" style="fill: none; stroke: #1f77b4; stroke-width: 1.5; stroke-linecap: square"/>
    <defs>
     <path id="m770e2d8dd4" d="M 0 3 
C 0.795609 3 1.55874 2.683901 2.12132 2.12132 
C 2.683901 1.55874 3 0.795609 3 0 
C 3 -0.795609 2.683901 -1.55874 2.12132 -2.12132 
C 1.55874 -2.683901 0.795609 -3 0 -3 
C -0.795609 -3 -1.55874 -2.683901 -2.12132 -2.12132 
C -2.683901 -1.55874 -3 -0.795609 -3 0 
C -3 0.795609 -2.683901 1.55874 -2.12132 2.12132 
C -1.55874 2.683901 -0.795609 3 0 3 
z
" style="stroke: #1f77b4"/>
    </defs>
    <g clip-path="url(#p9da9451cdc)">
     <use xlink:href="#m770e2d8dd4" x="401.669288" y="215.183363" style="fill: #1f77b4; stroke: #1f77b4"/>
     <use xlink:href="#m770e2d8dd4" x="405.126638" y="218.679682" style="fill: #1f77b4; stroke: #1f77b4"/>
     <use xlink:href="#m770e2d8dd4" x="417.698821" y="197.593299" style="fill: #1f77b4; stroke: #1f77b4"/>
     <use xlink:href="#m770e2d8dd4" x="465.473115" y="157.486798" style="fill: #1f77b4; stroke: #1f77b4"/>
     <use xlink:href="#m770e2d8dd4" x="651.541419" y="34.563318" style="fill: #1f77b4; stroke: #1f77b4"/>
    </g>
   </g>
   <g id="patch_8">
    <path d="M 389.175682 227.8855 
L 389.175682 25.3575 
" style="fill: none; stroke: #000000; stroke-width: 0.8; stroke-linejoin: miter; stroke-linecap: square"/>
   </g>
   <g id="patch_9">
    <path d="M 664.035025 227.8855 
L 664.035025 25.3575 
" style="fill: none; stroke: #000000; stroke-width: 0.8; stroke-linejoin: miter; stroke-linecap: square"/>
   </g>
   <g id="patch_10">
    <path d="M 389.175682 227.8855 
L 664.035025 227.8855 
" style="fill: none; stroke: #000000; stroke-width: 0.8; stroke-linejoin: miter; stroke-linecap: square"/>
   </g>
   <g id="patch_11">
    <path d="M 389.175682 25.3575 
L 664.035025 25.3575 
" style="fill: none; stroke: #000000; stroke-width: 0.8; stroke-linejoin: miter; stroke-linecap: square"/>
   </g>
   <g id="text_27">
    <!-- Time complexity O(n) -->
    <g transform="translate(440.337854 19.3575)scale(0.16 -0.16)">
     <defs>
      <path id="DejaVuSans-54" d="M -19 4666 
L 3928 4666 
L 3928 4134 
L 2272 4134 
L 2272 0 
L 1638 0 
L 1638 4134 
L -19 4134 
L -19 4666 
z
" transform="scale(0.015625)"/>
      <path id="DejaVuSans-6c" d="M 603 4863 
L 1178 4863 
L 1178 0 
L 603 0 
L 603 4863 
z
" transform="scale(0.015625)"/>
      <path id="DejaVuSans-78" d="M 3513 3500 
L 2247 1797 
L 3578 0 
L 2900 0 
L 1881 1375 
L 863 0 
L 184 0 
L 1544 1831 
L 300 3500 
L 978 3500 
L 1906 2253 
L 2834 3500 
L 3513 3500 
z
" transform="scale(0.015625)"/>
      <path id="DejaVuSans-79" d="M 2059 -325 
Q 1816 -950 1584 -1140 
Q 1353 -1331 966 -1331 
L 506 -1331 
L 506 -850 
L 844 -850 
Q 1081 -850 1212 -737 
Q 1344 -625 1503 -206 
L 1606 56 
L 191 3500 
L 800 3500 
L 1894 763 
L 2988 3500 
L 3597 3500 
L 2059 -325 
z
" transform="scale(0.015625)"/>
      <path id="DejaVuSans-4f" d="M 2522 4238 
Q 1834 4238 1429 3725 
Q 1025 3213 1025 2328 
Q 1025 1447 1429 934 
Q 1834 422 2522 422 
Q 3209 422 3611 934 
Q 4013 1447 4013 2328 
Q 4013 3213 3611 3725 
Q 3209 4238 2522 4238 
z
M 2522 4750 
Q 3503 4750 4090 4092 
Q 4678 3434 4678 2328 
Q 4678 1225 4090 567 
Q 3503 -91 2522 -91 
Q 1538 -91 948 565 
Q 359 1222 359 2328 
Q 359 3434 948 4092 
Q 1538 4750 2522 4750 
z
" transform="scale(0.015625)"/>
     </defs>
     <use xlink:href="#DejaVuSans-54"/>
     <use xlink:href="#DejaVuSans-69" x="57.958984"/>
     <use xlink:href="#DejaVuSans-6d" x="85.742188"/>
     <use xlink:href="#DejaVuSans-65" x="183.154297"/>
     <use xlink:href="#DejaVuSans-20" x="244.677734"/>
     <use xlink:href="#DejaVuSans-63" x="276.464844"/>
     <use xlink:href="#DejaVuSans-6f" x="331.445312"/>
     <use xlink:href="#DejaVuSans-6d" x="392.626953"/>
     <use xlink:href="#DejaVuSans-70" x="490.039062"/>
     <use xlink:href="#DejaVuSans-6c" x="553.515625"/>
     <use xlink:href="#DejaVuSans-65" x="581.298828"/>
     <use xlink:href="#DejaVuSans-78" x="641.072266"/>
     <use xlink:href="#DejaVuSans-69" x="700.251953"/>
     <use xlink:href="#DejaVuSans-74" x="728.035156"/>
     <use xlink:href="#DejaVuSans-79" x="767.244141"/>
     <use xlink:href="#DejaVuSans-20" x="826.423828"/>
     <use xlink:href="#DejaVuSans-4f" x="858.210938"/>
     <use xlink:href="#DejaVuSans-28" x="936.921875"/>
     <use xlink:href="#DejaVuSans-6e" x="975.935547"/>
     <use xlink:href="#DejaVuSans-29" x="1039.314453"/>
    </g>
   </g>
  </g>
  <g id="axes_3">
   <g id="patch_12">
    <path d="M 718.401988 227.8855 
L 993.261332 227.8855 
L 993.261332 25.3575 
L 718.401988 25.3575 
z
" style="fill: #ffffff"/>
   </g>
   <g id="matplotlib.axis_5">
    <g id="xtick_13">
     <g id="line2d_64">
      <path d="M 755.800637 227.8855 
L 755.800637 25.3575 
" clip-path="url(#p1654837591)" style="fill: none; stroke: #b0b0b0; stroke-width: 0.8; stroke-linecap: square"/>
     </g>
     <g id="line2d_65">
      <g>
       <use xlink:href="#m76e1306832" x="755.800637" y="227.8855" style="stroke: #000000; stroke-width: 0.8"/>
      </g>
     </g>
     <g id="text_28">
      <!-- $\mathdefault{10^{-1}}$ -->
      <g transform="translate(741.700637 244.003625)scale(0.12 -0.12)">
       <use xlink:href="#DejaVuSans-31" transform="translate(0 0.684375)"/>
       <use xlink:href="#DejaVuSans-30" transform="translate(63.623047 0.684375)"/>
       <use xlink:href="#DejaVuSans-2212" transform="translate(128.203125 38.965625)scale(0.7)"/>
       <use xlink:href="#DejaVuSans-31" transform="translate(186.855469 38.965625)scale(0.7)"/>
      </g>
     </g>
    </g>
    <g id="xtick_14">
     <g id="line2d_66">
      <path d="M 896.7436 227.8855 
L 896.7436 25.3575 
" clip-path="url(#p1654837591)" style="fill: none; stroke: #b0b0b0; stroke-width: 0.8; stroke-linecap: square"/>
     </g>
     <g id="line2d_67">
      <g>
       <use xlink:href="#m76e1306832" x="896.7436" y="227.8855" style="stroke: #000000; stroke-width: 0.8"/>
      </g>
     </g>
     <g id="text_29">
      <!-- $\mathdefault{10^{0}}$ -->
      <g transform="translate(886.1836 244.003625)scale(0.12 -0.12)">
       <use xlink:href="#DejaVuSans-31" transform="translate(0 0.765625)"/>
       <use xlink:href="#DejaVuSans-30" transform="translate(63.623047 0.765625)"/>
       <use xlink:href="#DejaVuSans-30" transform="translate(128.203125 39.046875)scale(0.7)"/>
      </g>
     </g>
    </g>
    <g id="xtick_15">
     <g id="line2d_68">
      <defs>
       <path id="m4e4ee5e5dc" d="M 0 0 
L 0 2 
" style="stroke: #000000; stroke-width: 0.6"/>
      </defs>
      <g>
       <use xlink:href="#m4e4ee5e5dc" x="724.532616" y="227.8855" style="stroke: #000000; stroke-width: 0.6"/>
      </g>
     </g>
    </g>
    <g id="xtick_16">
     <g id="line2d_69">
      <g>
       <use xlink:href="#m4e4ee5e5dc" x="733.968295" y="227.8855" style="stroke: #000000; stroke-width: 0.6"/>
      </g>
     </g>
    </g>
    <g id="xtick_17">
     <g id="line2d_70">
      <g>
       <use xlink:href="#m4e4ee5e5dc" x="742.141852" y="227.8855" style="stroke: #000000; stroke-width: 0.6"/>
      </g>
     </g>
    </g>
    <g id="xtick_18">
     <g id="line2d_71">
      <g>
       <use xlink:href="#m4e4ee5e5dc" x="749.35144" y="227.8855" style="stroke: #000000; stroke-width: 0.6"/>
      </g>
     </g>
    </g>
    <g id="xtick_19">
     <g id="line2d_72">
      <g>
       <use xlink:href="#m4e4ee5e5dc" x="798.228696" y="227.8855" style="stroke: #000000; stroke-width: 0.6"/>
      </g>
     </g>
    </g>
    <g id="xtick_20">
     <g id="line2d_73">
      <g>
       <use xlink:href="#m4e4ee5e5dc" x="823.04752" y="227.8855" style="stroke: #000000; stroke-width: 0.6"/>
      </g>
     </g>
    </g>
    <g id="xtick_21">
     <g id="line2d_74">
      <g>
       <use xlink:href="#m4e4ee5e5dc" x="840.656756" y="227.8855" style="stroke: #000000; stroke-width: 0.6"/>
      </g>
     </g>
    </g>
    <g id="xtick_22">
     <g id="line2d_75">
      <g>
       <use xlink:href="#m4e4ee5e5dc" x="854.315541" y="227.8855" style="stroke: #000000; stroke-width: 0.6"/>
      </g>
     </g>
    </g>
    <g id="xtick_23">
     <g id="line2d_76">
      <g>
       <use xlink:href="#m4e4ee5e5dc" x="865.47558" y="227.8855" style="stroke: #000000; stroke-width: 0.6"/>
      </g>
     </g>
    </g>
    <g id="xtick_24">
     <g id="line2d_77">
      <g>
       <use xlink:href="#m4e4ee5e5dc" x="874.911259" y="227.8855" style="stroke: #000000; stroke-width: 0.6"/>
      </g>
     </g>
    </g>
    <g id="xtick_25">
     <g id="line2d_78">
      <g>
       <use xlink:href="#m4e4ee5e5dc" x="883.084816" y="227.8855" style="stroke: #000000; stroke-width: 0.6"/>
      </g>
     </g>
    </g>
    <g id="xtick_26">
     <g id="line2d_79">
      <g>
       <use xlink:href="#m4e4ee5e5dc" x="890.294404" y="227.8855" style="stroke: #000000; stroke-width: 0.6"/>
      </g>
     </g>
    </g>
    <g id="xtick_27">
     <g id="line2d_80">
      <g>
       <use xlink:href="#m4e4ee5e5dc" x="939.17166" y="227.8855" style="stroke: #000000; stroke-width: 0.6"/>
      </g>
     </g>
    </g>
    <g id="xtick_28">
     <g id="line2d_81">
      <g>
       <use xlink:href="#m4e4ee5e5dc" x="963.990484" y="227.8855" style="stroke: #000000; stroke-width: 0.6"/>
      </g>
     </g>
    </g>
    <g id="xtick_29">
     <g id="line2d_82">
      <g>
       <use xlink:href="#m4e4ee5e5dc" x="981.59972" y="227.8855" style="stroke: #000000; stroke-width: 0.6"/>
      </g>
     </g>
    </g>
    <g id="text_30">
     <!-- Error -->
     <g transform="translate(838.772441 261.137063)scale(0.14 -0.14)">
      <use xlink:href="#DejaVuSans-45"/>
      <use xlink:href="#DejaVuSans-72" x="63.183594"/>
      <use xlink:href="#DejaVuSans-72" x="102.546875"/>
      <use xlink:href="#DejaVuSans-6f" x="141.410156"/>
      <use xlink:href="#DejaVuSans-72" x="202.591797"/>
     </g>
    </g>
   </g>
   <g id="matplotlib.axis_6">
    <g id="ytick_25">
     <g id="line2d_83">
      <path d="M 718.401988 227.8855 
L 993.261332 227.8855 
" clip-path="url(#p1654837591)" style="fill: none; stroke: #b0b0b0; stroke-width: 0.8; stroke-linecap: square"/>
     </g>
     <g id="line2d_84">
      <g>
       <use xlink:href="#m6e1df4392a" x="718.401988" y="227.8855" style="stroke: #000000; stroke-width: 0.8"/>
      </g>
     </g>
     <g id="text_31">
      <!-- 0 -->
      <g transform="translate(703.766988 232.444563)scale(0.12 -0.12)">
       <use xlink:href="#DejaVuSans-30"/>
      </g>
     </g>
    </g>
    <g id="ytick_26">
     <g id="line2d_85">
      <path d="M 718.401988 196.727346 
L 993.261332 196.727346 
" clip-path="url(#p1654837591)" style="fill: none; stroke: #b0b0b0; stroke-width: 0.8; stroke-linecap: square"/>
     </g>
     <g id="line2d_86">
      <g>
       <use xlink:href="#m6e1df4392a" x="718.401988" y="196.727346" style="stroke: #000000; stroke-width: 0.8"/>
      </g>
     </g>
     <g id="text_32">
      <!-- 2 -->
      <g transform="translate(703.766988 201.286409)scale(0.12 -0.12)">
       <use xlink:href="#DejaVuSans-32"/>
      </g>
     </g>
    </g>
    <g id="ytick_27">
     <g id="line2d_87">
      <path d="M 718.401988 165.569192 
L 993.261332 165.569192 
" clip-path="url(#p1654837591)" style="fill: none; stroke: #b0b0b0; stroke-width: 0.8; stroke-linecap: square"/>
     </g>
     <g id="line2d_88">
      <g>
       <use xlink:href="#m6e1df4392a" x="718.401988" y="165.569192" style="stroke: #000000; stroke-width: 0.8"/>
      </g>
     </g>
     <g id="text_33">
      <!-- 4 -->
      <g transform="translate(703.766988 170.128255)scale(0.12 -0.12)">
       <use xlink:href="#DejaVuSans-34"/>
      </g>
     </g>
    </g>
    <g id="ytick_28">
     <g id="line2d_89">
      <path d="M 718.401988 134.411038 
L 993.261332 134.411038 
" clip-path="url(#p1654837591)" style="fill: none; stroke: #b0b0b0; stroke-width: 0.8; stroke-linecap: square"/>
     </g>
     <g id="line2d_90">
      <g>
       <use xlink:href="#m6e1df4392a" x="718.401988" y="134.411038" style="stroke: #000000; stroke-width: 0.8"/>
      </g>
     </g>
     <g id="text_34">
      <!-- 6 -->
      <g transform="translate(703.766988 138.970101)scale(0.12 -0.12)">
       <use xlink:href="#DejaVuSans-36"/>
      </g>
     </g>
    </g>
    <g id="ytick_29">
     <g id="line2d_91">
      <path d="M 718.401988 103.252885 
L 993.261332 103.252885 
" clip-path="url(#p1654837591)" style="fill: none; stroke: #b0b0b0; stroke-width: 0.8; stroke-linecap: square"/>
     </g>
     <g id="line2d_92">
      <g>
       <use xlink:href="#m6e1df4392a" x="718.401988" y="103.252885" style="stroke: #000000; stroke-width: 0.8"/>
      </g>
     </g>
     <g id="text_35">
      <!-- 8 -->
      <g transform="translate(703.766988 107.811947)scale(0.12 -0.12)">
       <use xlink:href="#DejaVuSans-38"/>
      </g>
     </g>
    </g>
    <g id="ytick_30">
     <g id="line2d_93">
      <path d="M 718.401988 72.094731 
L 993.261332 72.094731 
" clip-path="url(#p1654837591)" style="fill: none; stroke: #b0b0b0; stroke-width: 0.8; stroke-linecap: square"/>
     </g>
     <g id="line2d_94">
      <g>
       <use xlink:href="#m6e1df4392a" x="718.401988" y="72.094731" style="stroke: #000000; stroke-width: 0.8"/>
      </g>
     </g>
     <g id="text_36">
      <!-- 10 -->
      <g transform="translate(696.131988 76.653793)scale(0.12 -0.12)">
       <use xlink:href="#DejaVuSans-31"/>
       <use xlink:href="#DejaVuSans-30" x="63.623047"/>
      </g>
     </g>
    </g>
    <g id="ytick_31">
     <g id="line2d_95">
      <path d="M 718.401988 40.936577 
L 993.261332 40.936577 
" clip-path="url(#p1654837591)" style="fill: none; stroke: #b0b0b0; stroke-width: 0.8; stroke-linecap: square"/>
     </g>
     <g id="line2d_96">
      <g>
       <use xlink:href="#m6e1df4392a" x="718.401988" y="40.936577" style="stroke: #000000; stroke-width: 0.8"/>
      </g>
     </g>
     <g id="text_37">
      <!-- 12 -->
      <g transform="translate(696.131988 45.495639)scale(0.12 -0.12)">
       <use xlink:href="#DejaVuSans-31"/>
       <use xlink:href="#DejaVuSans-32" x="63.623047"/>
      </g>
     </g>
    </g>
    <g id="text_38">
     <!-- CPU-time -->
     <g transform="translate(689.220426 159.193375)rotate(-90)scale(0.14 -0.14)">
      <use xlink:href="#DejaVuSans-43"/>
      <use xlink:href="#DejaVuSans-50" x="69.824219"/>
      <use xlink:href="#DejaVuSans-55" x="130.126953"/>
      <use xlink:href="#DejaVuSans-2d" x="203.320312"/>
      <use xlink:href="#DejaVuSans-74" x="239.404297"/>
      <use xlink:href="#DejaVuSans-69" x="278.613281"/>
      <use xlink:href="#DejaVuSans-6d" x="306.396484"/>
      <use xlink:href="#DejaVuSans-65" x="403.808594"/>
     </g>
    </g>
   </g>
   <g id="line2d_97">
    <path d="M 980.767725 227.399418 
L 972.848168 222.757081 
L 957.191451 212.839745 
L 940.286696 201.790316 
L 935.413195 198.428017 
L 933.403721 196.60358 
L 927.705225 192.373877 
L 925.909212 190.943298 
L 924.153668 188.953281 
L 912.92081 176.906865 
L 908.052021 171.38313 
L 907.522215 169.891101 
L 905.948214 168.146863 
L 904.398646 166.632298 
L 900.395492 162.702883 
L 896.134014 158.393951 
L 895.67682 157.623434 
L 894.772129 156.669508 
L 889.599842 151.011934 
L 885.576282 146.201055 
L 881.363702 140.841809 
L 878.386987 136.573181 
L 867.450202 122.274466 
L 866.731323 121.145732 
L 865.658594 119.609206 
L 861.142656 113.379629 
L 858.545658 109.534951 
L 857.029072 106.442051 
L 855.613859 104.025526 
L 854.314242 101.454315 
L 852.922461 98.529163 
L 851.031062 93.47967 
L 849.539236 87.758016 
L 848.774725 82.784359 
L 848.206674 77.602602 
L 847.628741 72.120281 
L 846.222509 53.671709 
L 843.591037 17.02725 
L 843.591037 17.02725 
" clip-path="url(#p1654837591)" style="fill: none; stroke: #1f77b4; stroke-width: 1.5; stroke-linecap: square"/>
   </g>
   <g id="line2d_98">
    <path d="M 973.682949 227.216142 
L 972.377258 226.605329 
L 969.816464 225.568807 
L 963.759672 223.158516 
L 959.297467 221.163571 
L 949.250348 216.310656 
L 948.279652 215.473651 
L 941.2743 212.025192 
L 935.79091 209.525436 
L 928.409008 206.628761 
L 920.088791 203.737596 
L 905.219542 198.93492 
L 901.035525 197.42963 
L 896.019286 195.47406 
L 892.7514 194.04257 
L 889.900655 192.519493 
L 888.202056 191.567839 
L 885.875745 189.844836 
L 882.982918 187.84457 
L 866.64061 176.67935 
L 865.958237 176.189219 
L 863.911291 174.274127 
L 861.164053 171.836554 
L 860.473726 170.462031 
L 854.998586 166.536879 
L 853.025923 165.030959 
L 849.319103 162.111783 
L 847.608117 160.411979 
L 846.527167 159.36406 
L 844.5191 157.427498 
L 842.299026 155.045326 
L 840.733222 153.035678 
L 838.66741 150.151665 
L 837.137623 147.659091 
L 835.71868 145.095626 
L 832.556941 139.445982 
L 830.563922 135.512085 
L 829.592497 133.521759 
L 823.8849 121.79167 
L 822.427883 118.731254 
L 821.438825 116.68556 
L 820.686334 114.93686 
L 819.151347 111.937613 
L 818.630395 110.44149 
L 817.840082 109.030886 
L 816.76988 107.018742 
L 812.607793 99.643297 
L 811.754014 98.067853 
L 810.896327 96.348013 
L 809.749742 94.337464 
L 806.897606 89.396758 
L 805.497918 86.712352 
L 803.859272 83.592411 
L 798.869659 73.40952 
L 796.690562 68.548998 
L 796.279599 67.45883 
L 795.286517 64.19877 
L 794.902534 61.929089 
L 791.916434 52.048854 
L 790.516337 47.496942 
L 789.364616 43.341319 
L 788.5535 39.425963 
L 787.659695 35.676944 
L 785.482072 25.675758 
L 784.4594 20.671182 
L 784.4594 20.671182 
" clip-path="url(#p1654837591)" style="fill: none; stroke: #ff7f0e; stroke-width: 1.5; stroke-linecap: square"/>
   </g>
   <g id="line2d_99">
    <path d="M 968.298065 227.441256 
L 963.789173 226.397649 
L 959.912866 225.395624 
L 955.285784 223.756941 
L 949.045536 221.149679 
L 944.73506 219.667923 
L 943.082931 219.102207 
L 935.363036 217.151624 
L 926.088323 215.115923 
L 915.330711 213.066834 
L 909.414364 212.097056 
L 903.351186 210.873515 
L 897.473914 209.892487 
L 892.031334 208.512701 
L 884.341559 207.064515 
L 879.002172 206.010286 
L 865.388852 203.471166 
L 859.928839 202.428743 
L 851.791006 200.864659 
L 847.782273 199.884951 
L 845.387567 198.891284 
L 841.37656 196.866956 
L 840.140134 195.882429 
L 839.292513 194.90408 
L 839.123466 194.350926 
L 839.305121 192.873767 
L 839.071604 192.173124 
L 838.317357 191.229578 
L 836.785138 188.694001 
L 832.674822 183.146525 
L 831.029924 180.451494 
L 830.033145 178.865779 
L 828.276758 176.244327 
L 827.522246 174.755488 
L 826.319939 173.154399 
L 822.676974 169.000874 
L 817.877597 164.419273 
L 816.093924 162.877356 
L 814.214086 161.226751 
L 808.766441 156.963415 
L 808.045666 156.243157 
L 807.316614 155.106626 
L 805.834629 153.391953 
L 805.082415 152.53356 
L 804.322799 151.930921 
L 802.003576 149.583709 
L 786.393944 138.999283 
L 784.355692 137.38677 
L 783.713078 136.001799 
L 782.488637 134.504261 
L 781.3495 133.407544 
L 779.80579 131.794238 
L 777.283953 128.624162 
L 775.356145 125.408084 
L 774.278078 122.807248 
L 773.297275 120.749775 
L 772.164596 117.834261 
L 771.736973 115.80806 
L 770.173826 110.526744 
L 768.083688 103.038646 
L 766.716598 97.17857 
L 766.205886 94.749085 
L 764.64697 86.989997 
L 761.688398 71.58994 
L 756.807774 44.467336 
L 756.588404 42.384309 
L 754.554001 30.955047 
L 753.96551 27.846162 
L 751.608332 16.911619 
L 749.297508 7.111265 
L 747.676922 0.937992 
L 747.143113 -1 
L 747.143113 -1 
" clip-path="url(#p1654837591)" style="fill: none; stroke: #2ca02c; stroke-width: 1.5; stroke-linecap: square"/>
   </g>
   <g id="line2d_100">
    <path d="M 966.275769 227.322468 
L 963.228278 226.729313 
L 959.903074 225.598822 
L 958.333357 224.932303 
L 945.628424 221.431892 
L 940.109984 220.243597 
L 936.907632 219.647962 
L 917.375437 216.74074 
L 912.716094 216.058391 
L 898.692997 214.279607 
L 878.038555 210.400232 
L 874.36925 209.559797 
L 866.011515 208.384909 
L 850.490999 206.600325 
L 848.22283 206.006203 
L 847.147624 204.805245 
L 846.418905 204.204089 
L 845.229217 202.753638 
L 843.762308 202.057806 
L 842.189304 201.480877 
L 842.357839 200.871974 
L 844.475732 200.274308 
L 845.876925 199.675804 
L 845.58897 198.783477 
L 844.963535 197.957609 
L 844.206068 197.309399 
L 843.098658 196.703504 
L 842.407962 196.176557 
L 842.493253 195.580816 
L 842.306094 194.911563 
L 840.001841 193.706557 
L 839.259189 193.178959 
L 838.796154 192.584639 
L 838.310325 191.080842 
L 838.363017 190.494961 
L 838.159845 189.872028 
L 837.379449 188.585337 
L 837.007082 186.557597 
L 836.634788 185.265141 
L 836.285656 184.5846 
L 835.43278 183.299451 
L 834.442774 181.571496 
L 833.273112 179.798153 
L 832.496347 178.678449 
L 831.43361 176.903645 
L 829.391717 173.915203 
L 824.874826 168.694455 
L 817.959575 162.194882 
L 813.330838 158.608996 
L 801.083113 149.595809 
L 798.450235 147.158082 
L 796.741469 145.924523 
L 794.286913 144.094078 
L 793.504536 142.425319 
L 791.285399 140.541531 
L 789.278022 138.654926 
L 787.491409 136.706709 
L 786.41879 135.4801 
L 783.26355 131.115493 
L 778.27991 122.179189 
L 777.364333 120.197327 
L 776.517436 117.911814 
L 775.253855 114.820286 
L 773.32871 109.17619 
L 769.734798 95.910815 
L 768.538683 88.79078 
L 767.108812 81.887329 
L 765.510814 73.359842 
L 765.461769 72.632897 
L 765.563553 71.945522 
L 766.049804 71.237349 
L 768.44882 69.912192 
L 767.486032 69.199691 
L 764.999812 68.483457 
L 764.85824 67.790065 
L 766.347982 67.093623 
L 765.609289 66.459355 
L 764.071054 65.769993 
L 764.931116 64.91923 
L 765.247831 64.299414 
L 763.847081 63.598389 
L 764.046634 62.910294 
L 764.591547 62.209808 
L 763.566186 61.575691 
L 763.462335 60.885186 
L 763.948262 60.166704 
L 763.217654 59.461981 
L 763.001807 58.75771 
L 763.369689 58.047019 
L 762.843562 57.404734 
L 762.591971 56.723467 
L 762.847538 56.027108 
L 762.467812 55.410263 
L 762.208475 54.714356 
L 762.369908 54.084396 
L 761.840455 52.770954 
L 761.926239 52.148774 
L 761.483524 50.479049 
L 761.506366 49.578429 
L 759.543044 36.640627 
L 758.61503 29.625584 
L 757.553491 22.92954 
L 756.762151 17.909193 
L 756.668374 16.441207 
L 756.789153 15.743454 
L 757.267495 15.030892 
L 758.327774 14.323812 
L 760.350392 13.468042 
L 761.088702 12.775778 
L 759.762795 11.989264 
L 756.259751 11.26427 
L 756.190239 10.550424 
L 758.480568 9.920062 
L 757.823528 9.221509 
L 755.611077 8.533165 
L 755.681304 7.902133 
L 756.984147 7.198001 
L 756.364983 6.501435 
L 754.917494 5.863598 
L 756.171249 4.450791 
L 755.016396 3.834945 
L 754.560596 3.156531 
L 755.259146 2.528093 
L 754.981343 1.908338 
L 754.200215 1.285612 
L 754.326795 0.582889 
L 754.587001 -0.030289 
L 753.949925 -1 
L 753.949925 -1 
" clip-path="url(#p1654837591)" style="fill: none; stroke: #d62728; stroke-width: 1.5; stroke-linecap: square"/>
   </g>
   <g id="line2d_101">
    <path d="M 968.882504 227.121197 
L 962.071783 226.359085 
L 953.873973 224.693847 
L 945.241686 222.889734 
L 920.049471 219.527153 
L 901.293988 217.064005 
L 886.149536 214.535988 
L 878.879582 213.686419 
L 858.629632 212.004888 
L 851.121272 211.161636 
L 850.47016 210.402684 
L 853.815358 209.575509 
L 855.037561 208.709946 
L 852.881876 207.865513 
L 852.70666 207.037222 
L 856.545204 206.196397 
L 858.482132 205.341699 
L 856.062446 204.504869 
L 852.60803 203.670939 
L 850.993121 202.831648 
L 849.83286 202.060538 
L 845.724637 200.377424 
L 844.638976 199.531077 
L 845.054127 197.854653 
L 844.892099 197.006114 
L 844.354565 196.176995 
L 843.973376 195.322909 
L 844.20482 193.629154 
L 843.977299 192.78595 
L 843.143984 191.809263 
L 840.880803 190.1047 
L 837.848653 186.26864 
L 836.758232 185.451263 
L 835.939503 184.609323 
L 834.922885 182.919224 
L 834.139694 182.073122 
L 831.137328 179.54556 
L 829.897013 176.742666 
L 826.985695 174.109802 
L 823.891138 171.258117 
L 822.326587 169.992401 
L 819.592357 167.237185 
L 818.118616 165.608166 
L 816.429238 163.404145 
L 814.684393 162.068071 
L 810.902011 160.369046 
L 808.681779 159.517459 
L 804.514517 157.671075 
L 804.009106 156.815109 
L 809.683196 155.982465 
L 822.568528 155.114068 
L 801.731171 154.281389 
L 803.539869 153.113275 
L 812.388574 152.022395 
L 793.0556 150.464997 
L 811.593305 147.475239 
L 797.894634 146.178468 
L 800.701932 144.945803 
L 798.543128 143.729188 
L 791.398893 142.896721 
L 798.288881 142.05537 
L 787.850931 141.210261 
L 797.411695 140.28286 
L 785.160224 139.436106 
L 793.308489 138.46566 
L 784.52503 137.184883 
L 790.305124 136.072489 
L 785.899766 135.144189 
L 786.543775 134.285602 
L 786.26283 133.284213 
L 783.118941 132.269869 
L 786.153854 131.325611 
L 781.607795 130.487917 
L 785.735827 129.584369 
L 781.185605 128.199582 
L 784.013959 126.840986 
L 781.411136 126.008011 
L 782.217953 125.15479 
L 782.041626 124.24046 
L 780.727198 123.405518 
L 782.259774 122.453418 
L 779.868685 121.410567 
L 781.578218 120.572546 
L 779.807269 119.730692 
L 780.505233 118.892066 
L 780.10452 118.034755 
L 779.424191 117.133155 
L 780.137851 116.367192 
L 778.798283 115.529614 
L 779.578814 114.701732 
L 778.657549 113.848857 
L 778.749439 112.913961 
L 778.669126 112.154349 
L 778.032022 111.183006 
L 778.447893 110.342008 
L 777.675329 109.504008 
L 777.862421 108.603385 
L 777.226051 106.575079 
L 777.35014 105.724548 
L 776.824323 104.614883 
L 776.937903 103.42862 
L 776.639101 102.588531 
L 776.422078 101.641543 
L 776.427867 100.81404 
L 776.039902 99.9872 
L 776.0435 99.193392 
L 775.602567 97.528934 
L 775.564083 96.684007 
L 775.269432 95.842309 
L 775.025513 93.222517 
L 774.793287 92.368646 
L 774.722219 91.516821 
L 774.334409 89.829044 
L 773.9885 88.071034 
L 773.698568 86.385295 
L 773.490777 85.61675 
L 773.179165 83.852831 
L 772.988304 83.082434 
L 772.659397 81.192934 
L 772.135924 78.47044 
L 770.516556 68.835325 
L 766.924533 53.425 
L 763.250221 39.585326 
L 762.255584 35.864466 
L 761.746702 33.539158 
L 760.481885 28.348628 
L 760.291678 27.381453 
L 760.259809 26.396348 
L 760.744441 25.40301 
L 762.719808 24.348357 
L 768.287421 23.366549 
L 775.627754 22.299334 
L 777.283883 21.325914 
L 762.827293 20.343121 
L 761.548214 19.29005 
L 770.353313 18.212813 
L 757.952293 16.161505 
L 765.67568 15.193868 
L 762.809949 14.122571 
L 757.478992 13.137651 
L 763.33927 11.9327 
L 759.897394 10.677123 
L 756.493058 9.691696 
L 760.651529 8.719098 
L 757.663523 7.640453 
L 756.046509 6.607169 
L 758.950649 5.218887 
L 756.181846 4.174151 
L 755.613757 3.108653 
L 757.53523 2.12314 
L 754.851118 1.074894 
L 754.855504 0.096815 
L 755.719198 -1 
L 755.719198 -1 
" clip-path="url(#p1654837591)" style="fill: none; stroke: #9467bd; stroke-width: 1.5; stroke-linecap: square"/>
   </g>
   <g id="patch_13">
    <path d="M 718.401988 227.8855 
L 718.401988 25.3575 
" style="fill: none; stroke: #000000; stroke-width: 0.8; stroke-linejoin: miter; stroke-linecap: square"/>
   </g>
   <g id="patch_14">
    <path d="M 993.261332 227.8855 
L 993.261332 25.3575 
" style="fill: none; stroke: #000000; stroke-width: 0.8; stroke-linejoin: miter; stroke-linecap: square"/>
   </g>
   <g id="patch_15">
    <path d="M 718.401988 227.8855 
L 993.261332 227.8855 
" style="fill: none; stroke: #000000; stroke-width: 0.8; stroke-linejoin: miter; stroke-linecap: square"/>
   </g>
   <g id="patch_16">
    <path d="M 718.401988 25.3575 
L 993.261332 25.3575 
" style="fill: none; stroke: #000000; stroke-width: 0.8; stroke-linejoin: miter; stroke-linecap: square"/>
   </g>
   <g id="text_39">
    <!-- CPU time as a function of errors -->
    <g transform="translate(728.34416 19.3575)scale(0.16 -0.16)">
     <use xlink:href="#DejaVuSans-43"/>
     <use xlink:href="#DejaVuSans-50" x="69.824219"/>
     <use xlink:href="#DejaVuSans-55" x="130.126953"/>
     <use xlink:href="#DejaVuSans-20" x="203.320312"/>
     <use xlink:href="#DejaVuSans-74" x="235.107422"/>
     <use xlink:href="#DejaVuSans-69" x="274.316406"/>
     <use xlink:href="#DejaVuSans-6d" x="302.099609"/>
     <use xlink:href="#DejaVuSans-65" x="399.511719"/>
     <use xlink:href="#DejaVuSans-20" x="461.035156"/>
     <use xlink:href="#DejaVuSans-61" x="492.822266"/>
     <use xlink:href="#DejaVuSans-73" x="554.101562"/>
     <use xlink:href="#DejaVuSans-20" x="606.201172"/>
     <use xlink:href="#DejaVuSans-61" x="637.988281"/>
     <use xlink:href="#DejaVuSans-20" x="699.267578"/>
     <use xlink:href="#DejaVuSans-66" x="731.054688"/>
     <use xlink:href="#DejaVuSans-75" x="766.259766"/>
     <use xlink:href="#DejaVuSans-6e" x="829.638672"/>
     <use xlink:href="#DejaVuSans-63" x="893.017578"/>
     <use xlink:href="#DejaVuSans-74" x="947.998047"/>
     <use xlink:href="#DejaVuSans-69" x="987.207031"/>
     <use xlink:href="#DejaVuSans-6f" x="1014.990234"/>
     <use xlink:href="#DejaVuSans-6e" x="1076.171875"/>
     <use xlink:href="#DejaVuSans-20" x="1139.550781"/>
     <use xlink:href="#DejaVuSans-6f" x="1171.337891"/>
     <use xlink:href="#DejaVuSans-66" x="1232.519531"/>
     <use xlink:href="#DejaVuSans-20" x="1267.724609"/>
     <use xlink:href="#DejaVuSans-65" x="1299.511719"/>
     <use xlink:href="#DejaVuSans-72" x="1361.035156"/>
     <use xlink:href="#DejaVuSans-72" x="1400.398438"/>
     <use xlink:href="#DejaVuSans-6f" x="1439.261719"/>
     <use xlink:href="#DejaVuSans-72" x="1500.443359"/>
     <use xlink:href="#DejaVuSans-73" x="1541.556641"/>
    </g>
   </g>
  </g>
  <g id="legend_1">
   <g id="patch_17">
    <path d="M 173.831957 322.665 
L 826.290707 322.665 
Q 828.690707 322.665 828.690707 320.265 
L 828.690707 286.2375 
Q 828.690707 283.8375 826.290707 283.8375 
L 173.831957 283.8375 
Q 171.431957 283.8375 171.431957 286.2375 
L 171.431957 320.265 
Q 171.431957 322.665 173.831957 322.665 
z
" style="fill: #ffffff; opacity: 0.8; stroke: #cccccc; stroke-linejoin: miter"/>
   </g>
   <g id="line2d_102">
    <path d="M 176.231957 293.555625 
L 188.231957 293.555625 
L 200.231957 293.555625 
" style="fill: none; stroke: #1f77b4; stroke-width: 1.5; stroke-linecap: square"/>
   </g>
   <g id="text_40">
    <!-- Error with 82 parameters -->
    <g transform="translate(209.831957 297.755625)scale(0.12 -0.12)">
     <defs>
      <path id="DejaVuSans-77" d="M 269 3500 
L 844 3500 
L 1563 769 
L 2278 3500 
L 2956 3500 
L 3675 769 
L 4391 3500 
L 4966 3500 
L 4050 0 
L 3372 0 
L 2619 2869 
L 1863 0 
L 1184 0 
L 269 3500 
z
" transform="scale(0.015625)"/>
     </defs>
     <use xlink:href="#DejaVuSans-45"/>
     <use xlink:href="#DejaVuSans-72" x="63.183594"/>
     <use xlink:href="#DejaVuSans-72" x="102.546875"/>
     <use xlink:href="#DejaVuSans-6f" x="141.410156"/>
     <use xlink:href="#DejaVuSans-72" x="202.591797"/>
     <use xlink:href="#DejaVuSans-20" x="243.705078"/>
     <use xlink:href="#DejaVuSans-77" x="275.492188"/>
     <use xlink:href="#DejaVuSans-69" x="357.279297"/>
     <use xlink:href="#DejaVuSans-74" x="385.0625"/>
     <use xlink:href="#DejaVuSans-68" x="424.271484"/>
     <use xlink:href="#DejaVuSans-20" x="487.650391"/>
     <use xlink:href="#DejaVuSans-38" x="519.4375"/>
     <use xlink:href="#DejaVuSans-32" x="583.060547"/>
     <use xlink:href="#DejaVuSans-20" x="646.683594"/>
     <use xlink:href="#DejaVuSans-70" x="678.470703"/>
     <use xlink:href="#DejaVuSans-61" x="741.947266"/>
     <use xlink:href="#DejaVuSans-72" x="803.226562"/>
     <use xlink:href="#DejaVuSans-61" x="844.339844"/>
     <use xlink:href="#DejaVuSans-6d" x="905.619141"/>
     <use xlink:href="#DejaVuSans-65" x="1003.03125"/>
     <use xlink:href="#DejaVuSans-74" x="1064.554688"/>
     <use xlink:href="#DejaVuSans-65" x="1103.763672"/>
     <use xlink:href="#DejaVuSans-72" x="1165.287109"/>
     <use xlink:href="#DejaVuSans-73" x="1206.400391"/>
    </g>
   </g>
   <g id="line2d_103">
    <path d="M 176.231957 311.169375 
L 188.231957 311.169375 
L 200.231957 311.169375 
" style="fill: none; stroke: #ff7f0e; stroke-width: 1.5; stroke-linecap: square"/>
   </g>
   <g id="text_41">
    <!-- Error with 258 parameters -->
    <g transform="translate(209.831957 315.369375)scale(0.12 -0.12)">
     <defs>
      <path id="DejaVuSans-35" d="M 691 4666 
L 3169 4666 
L 3169 4134 
L 1269 4134 
L 1269 2991 
Q 1406 3038 1543 3061 
Q 1681 3084 1819 3084 
Q 2600 3084 3056 2656 
Q 3513 2228 3513 1497 
Q 3513 744 3044 326 
Q 2575 -91 1722 -91 
Q 1428 -91 1123 -41 
Q 819 9 494 109 
L 494 744 
Q 775 591 1075 516 
Q 1375 441 1709 441 
Q 2250 441 2565 725 
Q 2881 1009 2881 1497 
Q 2881 1984 2565 2268 
Q 2250 2553 1709 2553 
Q 1456 2553 1204 2497 
Q 953 2441 691 2322 
L 691 4666 
z
" transform="scale(0.015625)"/>
     </defs>
     <use xlink:href="#DejaVuSans-45"/>
     <use xlink:href="#DejaVuSans-72" x="63.183594"/>
     <use xlink:href="#DejaVuSans-72" x="102.546875"/>
     <use xlink:href="#DejaVuSans-6f" x="141.410156"/>
     <use xlink:href="#DejaVuSans-72" x="202.591797"/>
     <use xlink:href="#DejaVuSans-20" x="243.705078"/>
     <use xlink:href="#DejaVuSans-77" x="275.492188"/>
     <use xlink:href="#DejaVuSans-69" x="357.279297"/>
     <use xlink:href="#DejaVuSans-74" x="385.0625"/>
     <use xlink:href="#DejaVuSans-68" x="424.271484"/>
     <use xlink:href="#DejaVuSans-20" x="487.650391"/>
     <use xlink:href="#DejaVuSans-32" x="519.4375"/>
     <use xlink:href="#DejaVuSans-35" x="583.060547"/>
     <use xlink:href="#DejaVuSans-38" x="646.683594"/>
     <use xlink:href="#DejaVuSans-20" x="710.306641"/>
     <use xlink:href="#DejaVuSans-70" x="742.09375"/>
     <use xlink:href="#DejaVuSans-61" x="805.570312"/>
     <use xlink:href="#DejaVuSans-72" x="866.849609"/>
     <use xlink:href="#DejaVuSans-61" x="907.962891"/>
     <use xlink:href="#DejaVuSans-6d" x="969.242188"/>
     <use xlink:href="#DejaVuSans-65" x="1066.654297"/>
     <use xlink:href="#DejaVuSans-74" x="1128.177734"/>
     <use xlink:href="#DejaVuSans-65" x="1167.386719"/>
     <use xlink:href="#DejaVuSans-72" x="1228.910156"/>
     <use xlink:href="#DejaVuSans-73" x="1270.023438"/>
    </g>
   </g>
   <g id="line2d_104">
    <path d="M 392.483207 293.555625 
L 404.483207 293.555625 
L 416.483207 293.555625 
" style="fill: none; stroke: #2ca02c; stroke-width: 1.5; stroke-linecap: square"/>
   </g>
   <g id="text_42">
    <!-- Error with 898 parameters -->
    <g transform="translate(426.083207 297.755625)scale(0.12 -0.12)">
     <defs>
      <path id="DejaVuSans-39" d="M 703 97 
L 703 672 
Q 941 559 1184 500 
Q 1428 441 1663 441 
Q 2288 441 2617 861 
Q 2947 1281 2994 2138 
Q 2813 1869 2534 1725 
Q 2256 1581 1919 1581 
Q 1219 1581 811 2004 
Q 403 2428 403 3163 
Q 403 3881 828 4315 
Q 1253 4750 1959 4750 
Q 2769 4750 3195 4129 
Q 3622 3509 3622 2328 
Q 3622 1225 3098 567 
Q 2575 -91 1691 -91 
Q 1453 -91 1209 -44 
Q 966 3 703 97 
z
M 1959 2075 
Q 2384 2075 2632 2365 
Q 2881 2656 2881 3163 
Q 2881 3666 2632 3958 
Q 2384 4250 1959 4250 
Q 1534 4250 1286 3958 
Q 1038 3666 1038 3163 
Q 1038 2656 1286 2365 
Q 1534 2075 1959 2075 
z
" transform="scale(0.015625)"/>
     </defs>
     <use xlink:href="#DejaVuSans-45"/>
     <use xlink:href="#DejaVuSans-72" x="63.183594"/>
     <use xlink:href="#DejaVuSans-72" x="102.546875"/>
     <use xlink:href="#DejaVuSans-6f" x="141.410156"/>
     <use xlink:href="#DejaVuSans-72" x="202.591797"/>
     <use xlink:href="#DejaVuSans-20" x="243.705078"/>
     <use xlink:href="#DejaVuSans-77" x="275.492188"/>
     <use xlink:href="#DejaVuSans-69" x="357.279297"/>
     <use xlink:href="#DejaVuSans-74" x="385.0625"/>
     <use xlink:href="#DejaVuSans-68" x="424.271484"/>
     <use xlink:href="#DejaVuSans-20" x="487.650391"/>
     <use xlink:href="#DejaVuSans-38" x="519.4375"/>
     <use xlink:href="#DejaVuSans-39" x="583.060547"/>
     <use xlink:href="#DejaVuSans-38" x="646.683594"/>
     <use xlink:href="#DejaVuSans-20" x="710.306641"/>
     <use xlink:href="#DejaVuSans-70" x="742.09375"/>
     <use xlink:href="#DejaVuSans-61" x="805.570312"/>
     <use xlink:href="#DejaVuSans-72" x="866.849609"/>
     <use xlink:href="#DejaVuSans-61" x="907.962891"/>
     <use xlink:href="#DejaVuSans-6d" x="969.242188"/>
     <use xlink:href="#DejaVuSans-65" x="1066.654297"/>
     <use xlink:href="#DejaVuSans-74" x="1128.177734"/>
     <use xlink:href="#DejaVuSans-65" x="1167.386719"/>
     <use xlink:href="#DejaVuSans-72" x="1228.910156"/>
     <use xlink:href="#DejaVuSans-73" x="1270.023438"/>
    </g>
   </g>
   <g id="line2d_105">
    <path d="M 392.483207 311.169375 
L 404.483207 311.169375 
L 416.483207 311.169375 
" style="fill: none; stroke: #d62728; stroke-width: 1.5; stroke-linecap: square"/>
   </g>
   <g id="text_43">
    <!-- Error with 3330 parameters -->
    <g transform="translate(426.083207 315.369375)scale(0.12 -0.12)">
     <use xlink:href="#DejaVuSans-45"/>
     <use xlink:href="#DejaVuSans-72" x="63.183594"/>
     <use xlink:href="#DejaVuSans-72" x="102.546875"/>
     <use xlink:href="#DejaVuSans-6f" x="141.410156"/>
     <use xlink:href="#DejaVuSans-72" x="202.591797"/>
     <use xlink:href="#DejaVuSans-20" x="243.705078"/>
     <use xlink:href="#DejaVuSans-77" x="275.492188"/>
     <use xlink:href="#DejaVuSans-69" x="357.279297"/>
     <use xlink:href="#DejaVuSans-74" x="385.0625"/>
     <use xlink:href="#DejaVuSans-68" x="424.271484"/>
     <use xlink:href="#DejaVuSans-20" x="487.650391"/>
     <use xlink:href="#DejaVuSans-33" x="519.4375"/>
     <use xlink:href="#DejaVuSans-33" x="583.060547"/>
     <use xlink:href="#DejaVuSans-33" x="646.683594"/>
     <use xlink:href="#DejaVuSans-30" x="710.306641"/>
     <use xlink:href="#DejaVuSans-20" x="773.929688"/>
     <use xlink:href="#DejaVuSans-70" x="805.716797"/>
     <use xlink:href="#DejaVuSans-61" x="869.193359"/>
     <use xlink:href="#DejaVuSans-72" x="930.472656"/>
     <use xlink:href="#DejaVuSans-61" x="971.585938"/>
     <use xlink:href="#DejaVuSans-6d" x="1032.865234"/>
     <use xlink:href="#DejaVuSans-65" x="1130.277344"/>
     <use xlink:href="#DejaVuSans-74" x="1191.800781"/>
     <use xlink:href="#DejaVuSans-65" x="1231.009766"/>
     <use xlink:href="#DejaVuSans-72" x="1292.533203"/>
     <use xlink:href="#DejaVuSans-73" x="1333.646484"/>
    </g>
   </g>
   <g id="line2d_106">
    <path d="M 616.369457 293.555625 
L 628.369457 293.555625 
L 640.369457 293.555625 
" style="fill: none; stroke: #9467bd; stroke-width: 1.5; stroke-linecap: square"/>
   </g>
   <g id="text_44">
    <!-- Error with 12802 parameters -->
    <g transform="translate(649.969457 297.755625)scale(0.12 -0.12)">
     <use xlink:href="#DejaVuSans-45"/>
     <use xlink:href="#DejaVuSans-72" x="63.183594"/>
     <use xlink:href="#DejaVuSans-72" x="102.546875"/>
     <use xlink:href="#DejaVuSans-6f" x="141.410156"/>
     <use xlink:href="#DejaVuSans-72" x="202.591797"/>
     <use xlink:href="#DejaVuSans-20" x="243.705078"/>
     <use xlink:href="#DejaVuSans-77" x="275.492188"/>
     <use xlink:href="#DejaVuSans-69" x="357.279297"/>
     <use xlink:href="#DejaVuSans-74" x="385.0625"/>
     <use xlink:href="#DejaVuSans-68" x="424.271484"/>
     <use xlink:href="#DejaVuSans-20" x="487.650391"/>
     <use xlink:href="#DejaVuSans-31" x="519.4375"/>
     <use xlink:href="#DejaVuSans-32" x="583.060547"/>
     <use xlink:href="#DejaVuSans-38" x="646.683594"/>
     <use xlink:href="#DejaVuSans-30" x="710.306641"/>
     <use xlink:href="#DejaVuSans-32" x="773.929688"/>
     <use xlink:href="#DejaVuSans-20" x="837.552734"/>
     <use xlink:href="#DejaVuSans-70" x="869.339844"/>
     <use xlink:href="#DejaVuSans-61" x="932.816406"/>
     <use xlink:href="#DejaVuSans-72" x="994.095703"/>
     <use xlink:href="#DejaVuSans-61" x="1035.208984"/>
     <use xlink:href="#DejaVuSans-6d" x="1096.488281"/>
     <use xlink:href="#DejaVuSans-65" x="1193.900391"/>
     <use xlink:href="#DejaVuSans-74" x="1255.423828"/>
     <use xlink:href="#DejaVuSans-65" x="1294.632812"/>
     <use xlink:href="#DejaVuSans-72" x="1356.15625"/>
     <use xlink:href="#DejaVuSans-73" x="1397.269531"/>
    </g>
   </g>
  </g>
 </g>
 <defs>
  <clipPath id="pded16c0b2b">
   <rect x="59.949375" y="25.3575" width="274.859344" height="202.528"/>
  </clipPath>
  <clipPath id="p9da9451cdc">
   <rect x="389.175682" y="25.3575" width="274.859344" height="202.528"/>
  </clipPath>
  <clipPath id="p1654837591">
   <rect x="718.401988" y="25.3575" width="274.859344" height="202.528"/>
  </clipPath>
 </defs>
</svg>
