<?xml version="1.0" encoding="utf-8" standalone="no"?>
<!DOCTYPE svg PUBLIC "-//W3C//DTD SVG 1.1//EN"
  "http://www.w3.org/Graphics/SVG/1.1/DTD/svg11.dtd">
<svg xmlns:xlink="http://www.w3.org/1999/xlink" width="999.832899pt" height="347.47875pt" viewBox="0 0 999.832899 347.47875" xmlns="http://www.w3.org/2000/svg" version="1.1">
 <metadata>
  <rdf:RDF xmlns:dc="http://purl.org/dc/elements/1.1/" xmlns:cc="http://creativecommons.org/ns#" xmlns:rdf="http://www.w3.org/1999/02/22-rdf-syntax-ns#">
   <cc:Work>
    <dc:type rdf:resource="http://purl.org/dc/dcmitype/StillImage"/>
    <dc:date>2024-04-03T10:32:53.448055</dc:date>
    <dc:format>image/svg+xml</dc:format>
    <dc:creator>
     <cc:Agent>
      <dc:title>Matplotlib v3.5.3, https://matplotlib.org/</dc:title>
     </cc:Agent>
    </dc:creator>
   </cc:Work>
  </rdf:RDF>
 </metadata>
 <defs>
  <style type="text/css">*{stroke-linejoin: round; stroke-linecap: butt}</style>
 </defs>
 <g id="figure_1">
  <g id="patch_1">
   <path d="M 0 347.47875 
L 999.832899 347.47875 
L 999.832899 0 
L 0 0 
z
" style="fill: #ffffff"/>
  </g>
  <g id="axes_1">
   <g id="patch_2">
    <path d="M 39.384375 227.8855 
L 310.419386 227.8855 
L 310.419386 25.3575 
L 39.384375 25.3575 
z
" style="fill: #ffffff"/>
   </g>
   <g id="matplotlib.axis_1">
    <g id="xtick_1">
     <g id="line2d_1">
      <path d="M 51.704148 227.8855 
L 51.704148 25.3575 
" clip-path="url(#p2cbc9d0788)" style="fill: none; stroke: #b0b0b0; stroke-width: 0.8; stroke-linecap: square"/>
     </g>
     <g id="line2d_2">
      <defs>
       <path id="mf996ede962" d="M 0 0 
L 0 3.5 
" style="stroke: #000000; stroke-width: 0.8"/>
      </defs>
      <g>
       <use xlink:href="#mf996ede962" x="51.704148" y="227.8855" style="stroke: #000000; stroke-width: 0.8"/>
      </g>
     </g>
     <g id="text_1">
      <!-- 0 -->
      <g transform="translate(47.886648 244.003625)scale(0.12 -0.12)">
       <defs>
        <path id="DejaVuSans-30" d="M 2034 4250 
Q 1547 4250 1301 3770 
Q 1056 3291 1056 2328 
Q 1056 1369 1301 889 
Q 1547 409 2034 409 
Q 2525 409 2770 889 
Q 3016 1369 3016 2328 
Q 3016 3291 2770 3770 
Q 2525 4250 2034 4250 
z
M 2034 4750 
Q 2819 4750 3233 4129 
Q 3647 3509 3647 2328 
Q 3647 1150 3233 529 
Q 2819 -91 2034 -91 
Q 1250 -91 836 529 
Q 422 1150 422 2328 
Q 422 3509 836 4129 
Q 1250 4750 2034 4750 
z
" transform="scale(0.015625)"/>
       </defs>
       <use xlink:href="#DejaVuSans-30"/>
      </g>
     </g>
    </g>
    <g id="xtick_2">
     <g id="line2d_3">
      <path d="M 101.03257 227.8855 
L 101.03257 25.3575 
" clip-path="url(#p2cbc9d0788)" style="fill: none; stroke: #b0b0b0; stroke-width: 0.8; stroke-linecap: square"/>
     </g>
     <g id="line2d_4">
      <g>
       <use xlink:href="#mf996ede962" x="101.03257" y="227.8855" style="stroke: #000000; stroke-width: 0.8"/>
      </g>
     </g>
     <g id="text_2">
      <!-- 200 -->
      <g transform="translate(89.58007 244.003625)scale(0.12 -0.12)">
       <defs>
        <path id="DejaVuSans-32" d="M 1228 531 
L 3431 531 
L 3431 0 
L 469 0 
L 469 531 
Q 828 903 1448 1529 
Q 2069 2156 2228 2338 
Q 2531 2678 2651 2914 
Q 2772 3150 2772 3378 
Q 2772 3750 2511 3984 
Q 2250 4219 1831 4219 
Q 1534 4219 1204 4116 
Q 875 4013 500 3803 
L 500 4441 
Q 881 4594 1212 4672 
Q 1544 4750 1819 4750 
Q 2544 4750 2975 4387 
Q 3406 4025 3406 3419 
Q 3406 3131 3298 2873 
Q 3191 2616 2906 2266 
Q 2828 2175 2409 1742 
Q 1991 1309 1228 531 
z
" transform="scale(0.015625)"/>
       </defs>
       <use xlink:href="#DejaVuSans-32"/>
       <use xlink:href="#DejaVuSans-30" x="63.623047"/>
       <use xlink:href="#DejaVuSans-30" x="127.246094"/>
      </g>
     </g>
    </g>
    <g id="xtick_3">
     <g id="line2d_5">
      <path d="M 150.360991 227.8855 
L 150.360991 25.3575 
" clip-path="url(#p2cbc9d0788)" style="fill: none; stroke: #b0b0b0; stroke-width: 0.8; stroke-linecap: square"/>
     </g>
     <g id="line2d_6">
      <g>
       <use xlink:href="#mf996ede962" x="150.360991" y="227.8855" style="stroke: #000000; stroke-width: 0.8"/>
      </g>
     </g>
     <g id="text_3">
      <!-- 400 -->
      <g transform="translate(138.908491 244.003625)scale(0.12 -0.12)">
       <defs>
        <path id="DejaVuSans-34" d="M 2419 4116 
L 825 1625 
L 2419 1625 
L 2419 4116 
z
M 2253 4666 
L 3047 4666 
L 3047 1625 
L 3713 1625 
L 3713 1100 
L 3047 1100 
L 3047 0 
L 2419 0 
L 2419 1100 
L 313 1100 
L 313 1709 
L 2253 4666 
z
" transform="scale(0.015625)"/>
       </defs>
       <use xlink:href="#DejaVuSans-34"/>
       <use xlink:href="#DejaVuSans-30" x="63.623047"/>
       <use xlink:href="#DejaVuSans-30" x="127.246094"/>
      </g>
     </g>
    </g>
    <g id="xtick_4">
     <g id="line2d_7">
      <path d="M 199.689412 227.8855 
L 199.689412 25.3575 
" clip-path="url(#p2cbc9d0788)" style="fill: none; stroke: #b0b0b0; stroke-width: 0.8; stroke-linecap: square"/>
     </g>
     <g id="line2d_8">
      <g>
       <use xlink:href="#mf996ede962" x="199.689412" y="227.8855" style="stroke: #000000; stroke-width: 0.8"/>
      </g>
     </g>
     <g id="text_4">
      <!-- 600 -->
      <g transform="translate(188.236912 244.003625)scale(0.12 -0.12)">
       <defs>
        <path id="DejaVuSans-36" d="M 2113 2584 
Q 1688 2584 1439 2293 
Q 1191 2003 1191 1497 
Q 1191 994 1439 701 
Q 1688 409 2113 409 
Q 2538 409 2786 701 
Q 3034 994 3034 1497 
Q 3034 2003 2786 2293 
Q 2538 2584 2113 2584 
z
M 3366 4563 
L 3366 3988 
Q 3128 4100 2886 4159 
Q 2644 4219 2406 4219 
Q 1781 4219 1451 3797 
Q 1122 3375 1075 2522 
Q 1259 2794 1537 2939 
Q 1816 3084 2150 3084 
Q 2853 3084 3261 2657 
Q 3669 2231 3669 1497 
Q 3669 778 3244 343 
Q 2819 -91 2113 -91 
Q 1303 -91 875 529 
Q 447 1150 447 2328 
Q 447 3434 972 4092 
Q 1497 4750 2381 4750 
Q 2619 4750 2861 4703 
Q 3103 4656 3366 4563 
z
" transform="scale(0.015625)"/>
       </defs>
       <use xlink:href="#DejaVuSans-36"/>
       <use xlink:href="#DejaVuSans-30" x="63.623047"/>
       <use xlink:href="#DejaVuSans-30" x="127.246094"/>
      </g>
     </g>
    </g>
    <g id="xtick_5">
     <g id="line2d_9">
      <path d="M 249.017834 227.8855 
L 249.017834 25.3575 
" clip-path="url(#p2cbc9d0788)" style="fill: none; stroke: #b0b0b0; stroke-width: 0.8; stroke-linecap: square"/>
     </g>
     <g id="line2d_10">
      <g>
       <use xlink:href="#mf996ede962" x="249.017834" y="227.8855" style="stroke: #000000; stroke-width: 0.8"/>
      </g>
     </g>
     <g id="text_5">
      <!-- 800 -->
      <g transform="translate(237.565334 244.003625)scale(0.12 -0.12)">
       <defs>
        <path id="DejaVuSans-38" d="M 2034 2216 
Q 1584 2216 1326 1975 
Q 1069 1734 1069 1313 
Q 1069 891 1326 650 
Q 1584 409 2034 409 
Q 2484 409 2743 651 
Q 3003 894 3003 1313 
Q 3003 1734 2745 1975 
Q 2488 2216 2034 2216 
z
M 1403 2484 
Q 997 2584 770 2862 
Q 544 3141 544 3541 
Q 544 4100 942 4425 
Q 1341 4750 2034 4750 
Q 2731 4750 3128 4425 
Q 3525 4100 3525 3541 
Q 3525 3141 3298 2862 
Q 3072 2584 2669 2484 
Q 3125 2378 3379 2068 
Q 3634 1759 3634 1313 
Q 3634 634 3220 271 
Q 2806 -91 2034 -91 
Q 1263 -91 848 271 
Q 434 634 434 1313 
Q 434 1759 690 2068 
Q 947 2378 1403 2484 
z
M 1172 3481 
Q 1172 3119 1398 2916 
Q 1625 2713 2034 2713 
Q 2441 2713 2670 2916 
Q 2900 3119 2900 3481 
Q 2900 3844 2670 4047 
Q 2441 4250 2034 4250 
Q 1625 4250 1398 4047 
Q 1172 3844 1172 3481 
z
" transform="scale(0.015625)"/>
       </defs>
       <use xlink:href="#DejaVuSans-38"/>
       <use xlink:href="#DejaVuSans-30" x="63.623047"/>
       <use xlink:href="#DejaVuSans-30" x="127.246094"/>
      </g>
     </g>
    </g>
    <g id="xtick_6">
     <g id="line2d_11">
      <path d="M 298.346255 227.8855 
L 298.346255 25.3575 
" clip-path="url(#p2cbc9d0788)" style="fill: none; stroke: #b0b0b0; stroke-width: 0.8; stroke-linecap: square"/>
     </g>
     <g id="line2d_12">
      <g>
       <use xlink:href="#mf996ede962" x="298.346255" y="227.8855" style="stroke: #000000; stroke-width: 0.8"/>
      </g>
     </g>
     <g id="text_6">
      <!-- 1000 -->
      <g transform="translate(283.076255 244.003625)scale(0.12 -0.12)">
       <defs>
        <path id="DejaVuSans-31" d="M 794 531 
L 1825 531 
L 1825 4091 
L 703 3866 
L 703 4441 
L 1819 4666 
L 2450 4666 
L 2450 531 
L 3481 531 
L 3481 0 
L 794 0 
L 794 531 
z
" transform="scale(0.015625)"/>
       </defs>
       <use xlink:href="#DejaVuSans-31"/>
       <use xlink:href="#DejaVuSans-30" x="63.623047"/>
       <use xlink:href="#DejaVuSans-30" x="127.246094"/>
       <use xlink:href="#DejaVuSans-30" x="190.869141"/>
      </g>
     </g>
    </g>
    <g id="text_7">
     <!-- Epoch -->
     <g transform="translate(153.466568 261.137062)scale(0.14 -0.14)">
      <defs>
       <path id="DejaVuSans-45" d="M 628 4666 
L 3578 4666 
L 3578 4134 
L 1259 4134 
L 1259 2753 
L 3481 2753 
L 3481 2222 
L 1259 2222 
L 1259 531 
L 3634 531 
L 3634 0 
L 628 0 
L 628 4666 
z
" transform="scale(0.015625)"/>
       <path id="DejaVuSans-70" d="M 1159 525 
L 1159 -1331 
L 581 -1331 
L 581 3500 
L 1159 3500 
L 1159 2969 
Q 1341 3281 1617 3432 
Q 1894 3584 2278 3584 
Q 2916 3584 3314 3078 
Q 3713 2572 3713 1747 
Q 3713 922 3314 415 
Q 2916 -91 2278 -91 
Q 1894 -91 1617 61 
Q 1341 213 1159 525 
z
M 3116 1747 
Q 3116 2381 2855 2742 
Q 2594 3103 2138 3103 
Q 1681 3103 1420 2742 
Q 1159 2381 1159 1747 
Q 1159 1113 1420 752 
Q 1681 391 2138 391 
Q 2594 391 2855 752 
Q 3116 1113 3116 1747 
z
" transform="scale(0.015625)"/>
       <path id="DejaVuSans-6f" d="M 1959 3097 
Q 1497 3097 1228 2736 
Q 959 2375 959 1747 
Q 959 1119 1226 758 
Q 1494 397 1959 397 
Q 2419 397 2687 759 
Q 2956 1122 2956 1747 
Q 2956 2369 2687 2733 
Q 2419 3097 1959 3097 
z
M 1959 3584 
Q 2709 3584 3137 3096 
Q 3566 2609 3566 1747 
Q 3566 888 3137 398 
Q 2709 -91 1959 -91 
Q 1206 -91 779 398 
Q 353 888 353 1747 
Q 353 2609 779 3096 
Q 1206 3584 1959 3584 
z
" transform="scale(0.015625)"/>
       <path id="DejaVuSans-63" d="M 3122 3366 
L 3122 2828 
Q 2878 2963 2633 3030 
Q 2388 3097 2138 3097 
Q 1578 3097 1268 2742 
Q 959 2388 959 1747 
Q 959 1106 1268 751 
Q 1578 397 2138 397 
Q 2388 397 2633 464 
Q 2878 531 3122 666 
L 3122 134 
Q 2881 22 2623 -34 
Q 2366 -91 2075 -91 
Q 1284 -91 818 406 
Q 353 903 353 1747 
Q 353 2603 823 3093 
Q 1294 3584 2113 3584 
Q 2378 3584 2631 3529 
Q 2884 3475 3122 3366 
z
" transform="scale(0.015625)"/>
       <path id="DejaVuSans-68" d="M 3513 2113 
L 3513 0 
L 2938 0 
L 2938 2094 
Q 2938 2591 2744 2837 
Q 2550 3084 2163 3084 
Q 1697 3084 1428 2787 
Q 1159 2491 1159 1978 
L 1159 0 
L 581 0 
L 581 4863 
L 1159 4863 
L 1159 2956 
Q 1366 3272 1645 3428 
Q 1925 3584 2291 3584 
Q 2894 3584 3203 3211 
Q 3513 2838 3513 2113 
z
" transform="scale(0.015625)"/>
      </defs>
      <use xlink:href="#DejaVuSans-45"/>
      <use xlink:href="#DejaVuSans-70" x="63.183594"/>
      <use xlink:href="#DejaVuSans-6f" x="126.660156"/>
      <use xlink:href="#DejaVuSans-63" x="187.841797"/>
      <use xlink:href="#DejaVuSans-68" x="242.822266"/>
     </g>
    </g>
   </g>
   <g id="matplotlib.axis_2">
    <g id="ytick_1">
     <g id="line2d_13">
      <path d="M 39.384375 226.974383 
L 310.419386 226.974383 
" clip-path="url(#p2cbc9d0788)" style="fill: none; stroke: #b0b0b0; stroke-width: 0.8; stroke-linecap: square"/>
     </g>
     <g id="line2d_14">
      <defs>
       <path id="m18d695a013" d="M 0 0 
L -3.5 0 
" style="stroke: #000000; stroke-width: 0.8"/>
      </defs>
      <g>
       <use xlink:href="#m18d695a013" x="39.384375" y="226.974383" style="stroke: #000000; stroke-width: 0.8"/>
      </g>
     </g>
     <g id="text_8">
      <!-- 0 -->
      <g transform="translate(24.749375 231.533445)scale(0.12 -0.12)">
       <use xlink:href="#DejaVuSans-30"/>
      </g>
     </g>
    </g>
    <g id="ytick_2">
     <g id="line2d_15">
      <path d="M 39.384375 184.4635 
L 310.419386 184.4635 
" clip-path="url(#p2cbc9d0788)" style="fill: none; stroke: #b0b0b0; stroke-width: 0.8; stroke-linecap: square"/>
     </g>
     <g id="line2d_16">
      <g>
       <use xlink:href="#m18d695a013" x="39.384375" y="184.4635" style="stroke: #000000; stroke-width: 0.8"/>
      </g>
     </g>
     <g id="text_9">
      <!-- 2 -->
      <g transform="translate(24.749375 189.022563)scale(0.12 -0.12)">
       <use xlink:href="#DejaVuSans-32"/>
      </g>
     </g>
    </g>
    <g id="ytick_3">
     <g id="line2d_17">
      <path d="M 39.384375 141.952618 
L 310.419386 141.952618 
" clip-path="url(#p2cbc9d0788)" style="fill: none; stroke: #b0b0b0; stroke-width: 0.8; stroke-linecap: square"/>
     </g>
     <g id="line2d_18">
      <g>
       <use xlink:href="#m18d695a013" x="39.384375" y="141.952618" style="stroke: #000000; stroke-width: 0.8"/>
      </g>
     </g>
     <g id="text_10">
      <!-- 4 -->
      <g transform="translate(24.749375 146.511681)scale(0.12 -0.12)">
       <use xlink:href="#DejaVuSans-34"/>
      </g>
     </g>
    </g>
    <g id="ytick_4">
     <g id="line2d_19">
      <path d="M 39.384375 99.441736 
L 310.419386 99.441736 
" clip-path="url(#p2cbc9d0788)" style="fill: none; stroke: #b0b0b0; stroke-width: 0.8; stroke-linecap: square"/>
     </g>
     <g id="line2d_20">
      <g>
       <use xlink:href="#m18d695a013" x="39.384375" y="99.441736" style="stroke: #000000; stroke-width: 0.8"/>
      </g>
     </g>
     <g id="text_11">
      <!-- 6 -->
      <g transform="translate(24.749375 104.000799)scale(0.12 -0.12)">
       <use xlink:href="#DejaVuSans-36"/>
      </g>
     </g>
    </g>
    <g id="ytick_5">
     <g id="line2d_21">
      <path d="M 39.384375 56.930854 
L 310.419386 56.930854 
" clip-path="url(#p2cbc9d0788)" style="fill: none; stroke: #b0b0b0; stroke-width: 0.8; stroke-linecap: square"/>
     </g>
     <g id="line2d_22">
      <g>
       <use xlink:href="#m18d695a013" x="39.384375" y="56.930854" style="stroke: #000000; stroke-width: 0.8"/>
      </g>
     </g>
     <g id="text_12">
      <!-- 8 -->
      <g transform="translate(24.749375 61.489917)scale(0.12 -0.12)">
       <use xlink:href="#DejaVuSans-38"/>
      </g>
     </g>
    </g>
    <g id="text_13">
     <!-- MSE Error -->
     <g transform="translate(17.837813 160.812125)rotate(-90)scale(0.14 -0.14)">
      <defs>
       <path id="DejaVuSans-4d" d="M 628 4666 
L 1569 4666 
L 2759 1491 
L 3956 4666 
L 4897 4666 
L 4897 0 
L 4281 0 
L 4281 4097 
L 3078 897 
L 2444 897 
L 1241 4097 
L 1241 0 
L 628 0 
L 628 4666 
z
" transform="scale(0.015625)"/>
       <path id="DejaVuSans-53" d="M 3425 4513 
L 3425 3897 
Q 3066 4069 2747 4153 
Q 2428 4238 2131 4238 
Q 1616 4238 1336 4038 
Q 1056 3838 1056 3469 
Q 1056 3159 1242 3001 
Q 1428 2844 1947 2747 
L 2328 2669 
Q 3034 2534 3370 2195 
Q 3706 1856 3706 1288 
Q 3706 609 3251 259 
Q 2797 -91 1919 -91 
Q 1588 -91 1214 -16 
Q 841 59 441 206 
L 441 856 
Q 825 641 1194 531 
Q 1563 422 1919 422 
Q 2459 422 2753 634 
Q 3047 847 3047 1241 
Q 3047 1584 2836 1778 
Q 2625 1972 2144 2069 
L 1759 2144 
Q 1053 2284 737 2584 
Q 422 2884 422 3419 
Q 422 4038 858 4394 
Q 1294 4750 2059 4750 
Q 2388 4750 2728 4690 
Q 3069 4631 3425 4513 
z
" transform="scale(0.015625)"/>
       <path id="DejaVuSans-20" transform="scale(0.015625)"/>
       <path id="DejaVuSans-72" d="M 2631 2963 
Q 2534 3019 2420 3045 
Q 2306 3072 2169 3072 
Q 1681 3072 1420 2755 
Q 1159 2438 1159 1844 
L 1159 0 
L 581 0 
L 581 3500 
L 1159 3500 
L 1159 2956 
Q 1341 3275 1631 3429 
Q 1922 3584 2338 3584 
Q 2397 3584 2469 3576 
Q 2541 3569 2628 3553 
L 2631 2963 
z
" transform="scale(0.015625)"/>
      </defs>
      <use xlink:href="#DejaVuSans-4d"/>
      <use xlink:href="#DejaVuSans-53" x="86.279297"/>
      <use xlink:href="#DejaVuSans-45" x="149.755859"/>
      <use xlink:href="#DejaVuSans-20" x="212.939453"/>
      <use xlink:href="#DejaVuSans-45" x="244.726562"/>
      <use xlink:href="#DejaVuSans-72" x="307.910156"/>
      <use xlink:href="#DejaVuSans-72" x="347.273438"/>
      <use xlink:href="#DejaVuSans-6f" x="386.136719"/>
      <use xlink:href="#DejaVuSans-72" x="447.318359"/>
     </g>
    </g>
   </g>
   <g id="line2d_23">
    <path d="M 51.704148 118.792445 
L 53.184001 121.592618 
L 53.923927 122.48884 
L 54.910496 123.354036 
L 56.63699 124.483007 
L 61.569833 127.599729 
L 68.475812 132.314486 
L 83.52098 142.632601 
L 90.426959 147.058607 
L 96.593012 150.747299 
L 102.512422 154.028533 
L 108.185191 156.927532 
L 114.104601 159.701363 
L 120.024012 162.231606 
L 126.190065 164.627971 
L 132.602759 166.885526 
L 139.508738 169.078606 
L 146.908002 171.188347 
L 154.800549 173.202293 
L 163.186381 175.113523 
L 172.312139 176.966717 
L 182.424465 178.78881 
L 193.52336 180.556016 
L 205.608823 182.252269 
L 218.927497 183.896436 
L 233.726023 185.498374 
L 250.251044 187.061645 
L 268.749202 188.585918 
L 289.713782 190.084992 
L 298.099613 190.628345 
L 298.099613 190.628345 
" clip-path="url(#p2cbc9d0788)" style="fill: none; stroke: #1f77b4; stroke-width: 1.5; stroke-linecap: square"/>
   </g>
   <g id="line2d_24">
    <path d="M 51.704148 68.490199 
L 52.937359 74.17395 
L 53.677285 76.469239 
L 54.417211 78.08113 
L 55.157138 79.254747 
L 56.143706 80.389424 
L 57.623559 81.625059 
L 60.08998 83.625327 
L 64.529538 87.695029 
L 70.202306 93.126358 
L 78.341496 101.247456 
L 98.319506 121.300091 
L 104.978843 127.582002 
L 110.651612 132.635413 
L 116.077738 137.167612 
L 121.257222 141.195444 
L 126.190065 144.752574 
L 131.122907 148.039672 
L 136.055749 151.066908 
L 141.235233 153.982133 
L 146.661359 156.76943 
L 152.087486 159.309241 
L 158.006896 161.827858 
L 164.172949 164.204555 
L 170.832286 166.524763 
L 177.984907 168.770607 
L 185.630812 170.930153 
L 193.770002 172.996307 
L 202.649118 175.019015 
L 212.26816 176.981418 
L 222.873771 178.915214 
L 234.46595 180.799209 
L 247.291339 182.653478 
L 261.349939 184.457592 
L 276.888392 186.224389 
L 294.15334 187.959729 
L 298.099613 188.327492 
L 298.099613 188.327492 
" clip-path="url(#p2cbc9d0788)" style="fill: none; stroke: #ff7f0e; stroke-width: 1.5; stroke-linecap: square"/>
   </g>
   <g id="line2d_25">
    <path d="M 51.704148 34.563318 
L 52.937359 42.503662 
L 53.677285 45.68901 
L 54.417211 47.916889 
L 55.157138 49.532226 
L 55.897064 50.726256 
L 56.883632 51.868696 
L 57.870201 52.678898 
L 62.309759 55.939654 
L 75.135148 66.851996 
L 82.781054 73.849851 
L 91.906812 82.531405 
L 104.485559 94.831697 
L 119.77737 109.720475 
L 127.423275 116.864644 
L 134.082612 122.791695 
L 140.002023 127.772669 
L 145.674791 132.251931 
L 151.100917 136.24663 
L 156.280402 139.785754 
L 161.459886 143.058673 
L 166.63937 146.072855 
L 172.065496 148.966157 
L 177.491623 151.606501 
L 183.164391 154.12072 
L 189.083802 156.501496 
L 195.249855 158.74696 
L 201.909191 160.935235 
L 209.061813 163.048326 
L 216.707718 165.073644 
L 225.09355 167.058365 
L 234.219307 168.981022 
L 244.084992 170.826427 
L 254.937244 172.624064 
L 266.776066 174.355918 
L 279.848097 176.040064 
L 294.399982 177.685148 
L 298.099613 178.070394 
L 298.099613 178.070394 
" clip-path="url(#p2cbc9d0788)" style="fill: none; stroke: #2ca02c; stroke-width: 1.5; stroke-linecap: square"/>
   </g>
   <g id="line2d_26">
    <path d="M 51.704148 178.878443 
L 53.184001 181.992534 
L 54.170569 183.414286 
L 55.40378 184.784607 
L 57.130275 186.321451 
L 59.350054 187.964977 
L 62.309759 189.850161 
L 65.762748 191.779284 
L 69.709022 193.729973 
L 73.901938 195.555819 
L 78.341496 197.233601 
L 83.027696 198.757519 
L 88.20718 200.199913 
L 93.879949 201.54872 
L 100.539285 202.89328 
L 108.185191 204.196777 
L 117.064307 205.474757 
L 127.669917 206.764705 
L 140.248665 208.060663 
L 155.047191 209.352833 
L 171.32557 210.547161 
L 187.850591 211.536701 
L 204.375613 212.301719 
L 221.64056 212.872549 
L 241.125286 213.284888 
L 266.776066 213.588422 
L 298.099613 213.80169 
L 298.099613 213.80169 
" clip-path="url(#p2cbc9d0788)" style="fill: none; stroke: #d62728; stroke-width: 1.5; stroke-linecap: square"/>
   </g>
   <g id="line2d_27">
    <path d="M 51.704148 170.849338 
L 52.937359 175.83312 
L 53.923927 178.643444 
L 54.910496 180.74569 
L 56.143706 182.794765 
L 57.376917 184.435775 
L 58.856769 186.054214 
L 60.583264 187.621615 
L 62.803043 189.31763 
L 65.516106 191.097735 
L 68.969096 193.084519 
L 72.915369 195.086445 
L 77.108285 196.967602 
L 81.794485 198.818742 
L 86.727327 200.521628 
L 92.153454 202.148978 
L 98.072864 203.684066 
L 104.732201 205.168228 
L 112.131464 206.578703 
L 120.270654 207.898021 
L 129.643054 209.181256 
L 140.248665 210.401275 
L 153.074054 211.645659 
L 169.105791 212.970287 
L 188.343876 214.335993 
L 210.295023 215.659515 
L 235.205876 216.931424 
L 257.650308 217.869278 
L 274.668613 218.370573 
L 291.933561 218.623305 
L 298.099613 218.679682 
L 298.099613 218.679682 
" clip-path="url(#p2cbc9d0788)" style="fill: none; stroke: #9467bd; stroke-width: 1.5; stroke-linecap: square"/>
   </g>
   <g id="line2d_28">
    <path d="M 51.704148 204.460844 
L 52.690717 207.188974 
L 53.430643 208.601362 
L 54.170569 209.591432 
L 55.157138 210.540135 
L 56.390348 211.379806 
L 57.870201 212.100342 
L 59.843338 212.78764 
L 62.309759 213.387006 
L 65.269464 213.85553 
L 68.722454 214.166837 
L 73.408654 214.347727 
L 98.566149 214.96641 
L 116.571022 215.853121 
L 146.414717 217.366433 
L 168.612507 217.82117 
L 191.056939 218.018916 
L 228.053255 218.090565 
L 298.099613 218.077584 
L 298.099613 218.077584 
" clip-path="url(#p2cbc9d0788)" style="fill: none; stroke: #8c564b; stroke-width: 1.5; stroke-linecap: square"/>
   </g>
   <g id="line2d_29">
    <path d="M 51.704148 207.601684 
L 52.444075 208.840307 
L 52.937359 209.350758 
L 53.677285 209.729339 
L 54.663854 209.910414 
L 57.870201 210.051209 
L 60.829906 210.332546 
L 64.282896 210.907873 
L 72.915369 212.484253 
L 79.081422 213.210974 
L 90.426959 214.305733 
L 103.498991 215.340633 
L 118.790801 216.310019 
L 134.329254 217.072144 
L 148.387854 217.540427 
L 166.146086 217.883715 
L 187.850591 218.078008 
L 222.380486 218.112569 
L 298.099613 218.066301 
L 298.099613 218.066301 
" clip-path="url(#p2cbc9d0788)" style="fill: none; stroke: #e377c2; stroke-width: 1.5; stroke-linecap: square"/>
   </g>
   <g id="line2d_30">
    <path d="M 51.704148 210.497338 
L 52.444075 212.384207 
L 52.937359 213.059763 
L 53.430643 213.361525 
L 54.170569 213.482306 
L 55.40378 213.358843 
L 58.610127 212.832311 
L 59.843338 212.933459 
L 67.489243 214.069972 
L 72.175443 214.501783 
L 82.041127 215.56355 
L 96.593012 216.999063 
L 104.485559 217.510166 
L 112.871391 217.83071 
L 124.216928 218.016721 
L 146.661359 218.109947 
L 261.103297 218.102401 
L 298.099613 218.080341 
L 298.099613 218.080341 
" clip-path="url(#p2cbc9d0788)" style="fill: none; stroke: #7f7f7f; stroke-width: 1.5; stroke-linecap: square"/>
   </g>
   <g id="patch_3">
    <path d="M 39.384375 227.8855 
L 39.384375 25.3575 
" style="fill: none; stroke: #000000; stroke-width: 0.8; stroke-linejoin: miter; stroke-linecap: square"/>
   </g>
   <g id="patch_4">
    <path d="M 310.419386 227.8855 
L 310.419386 25.3575 
" style="fill: none; stroke: #000000; stroke-width: 0.8; stroke-linejoin: miter; stroke-linecap: square"/>
   </g>
   <g id="patch_5">
    <path d="M 39.384375 227.8855 
L 310.419386 227.8855 
" style="fill: none; stroke: #000000; stroke-width: 0.8; stroke-linejoin: miter; stroke-linecap: square"/>
   </g>
   <g id="patch_6">
    <path d="M 39.384375 25.3575 
L 310.419386 25.3575 
" style="fill: none; stroke: #000000; stroke-width: 0.8; stroke-linejoin: miter; stroke-linecap: square"/>
   </g>
   <g id="text_14">
    <!-- Error as a function of epochs -->
    <g transform="translate(59.798131 19.3575)scale(0.16 -0.16)">
     <defs>
      <path id="DejaVuSans-61" d="M 2194 1759 
Q 1497 1759 1228 1600 
Q 959 1441 959 1056 
Q 959 750 1161 570 
Q 1363 391 1709 391 
Q 2188 391 2477 730 
Q 2766 1069 2766 1631 
L 2766 1759 
L 2194 1759 
z
M 3341 1997 
L 3341 0 
L 2766 0 
L 2766 531 
Q 2569 213 2275 61 
Q 1981 -91 1556 -91 
Q 1019 -91 701 211 
Q 384 513 384 1019 
Q 384 1609 779 1909 
Q 1175 2209 1959 2209 
L 2766 2209 
L 2766 2266 
Q 2766 2663 2505 2880 
Q 2244 3097 1772 3097 
Q 1472 3097 1187 3025 
Q 903 2953 641 2809 
L 641 3341 
Q 956 3463 1253 3523 
Q 1550 3584 1831 3584 
Q 2591 3584 2966 3190 
Q 3341 2797 3341 1997 
z
" transform="scale(0.015625)"/>
      <path id="DejaVuSans-73" d="M 2834 3397 
L 2834 2853 
Q 2591 2978 2328 3040 
Q 2066 3103 1784 3103 
Q 1356 3103 1142 2972 
Q 928 2841 928 2578 
Q 928 2378 1081 2264 
Q 1234 2150 1697 2047 
L 1894 2003 
Q 2506 1872 2764 1633 
Q 3022 1394 3022 966 
Q 3022 478 2636 193 
Q 2250 -91 1575 -91 
Q 1294 -91 989 -36 
Q 684 19 347 128 
L 347 722 
Q 666 556 975 473 
Q 1284 391 1588 391 
Q 1994 391 2212 530 
Q 2431 669 2431 922 
Q 2431 1156 2273 1281 
Q 2116 1406 1581 1522 
L 1381 1569 
Q 847 1681 609 1914 
Q 372 2147 372 2553 
Q 372 3047 722 3315 
Q 1072 3584 1716 3584 
Q 2034 3584 2315 3537 
Q 2597 3491 2834 3397 
z
" transform="scale(0.015625)"/>
      <path id="DejaVuSans-66" d="M 2375 4863 
L 2375 4384 
L 1825 4384 
Q 1516 4384 1395 4259 
Q 1275 4134 1275 3809 
L 1275 3500 
L 2222 3500 
L 2222 3053 
L 1275 3053 
L 1275 0 
L 697 0 
L 697 3053 
L 147 3053 
L 147 3500 
L 697 3500 
L 697 3744 
Q 697 4328 969 4595 
Q 1241 4863 1831 4863 
L 2375 4863 
z
" transform="scale(0.015625)"/>
      <path id="DejaVuSans-75" d="M 544 1381 
L 544 3500 
L 1119 3500 
L 1119 1403 
Q 1119 906 1312 657 
Q 1506 409 1894 409 
Q 2359 409 2629 706 
Q 2900 1003 2900 1516 
L 2900 3500 
L 3475 3500 
L 3475 0 
L 2900 0 
L 2900 538 
Q 2691 219 2414 64 
Q 2138 -91 1772 -91 
Q 1169 -91 856 284 
Q 544 659 544 1381 
z
M 1991 3584 
L 1991 3584 
z
" transform="scale(0.015625)"/>
      <path id="DejaVuSans-6e" d="M 3513 2113 
L 3513 0 
L 2938 0 
L 2938 2094 
Q 2938 2591 2744 2837 
Q 2550 3084 2163 3084 
Q 1697 3084 1428 2787 
Q 1159 2491 1159 1978 
L 1159 0 
L 581 0 
L 581 3500 
L 1159 3500 
L 1159 2956 
Q 1366 3272 1645 3428 
Q 1925 3584 2291 3584 
Q 2894 3584 3203 3211 
Q 3513 2838 3513 2113 
z
" transform="scale(0.015625)"/>
      <path id="DejaVuSans-74" d="M 1172 4494 
L 1172 3500 
L 2356 3500 
L 2356 3053 
L 1172 3053 
L 1172 1153 
Q 1172 725 1289 603 
Q 1406 481 1766 481 
L 2356 481 
L 2356 0 
L 1766 0 
Q 1100 0 847 248 
Q 594 497 594 1153 
L 594 3053 
L 172 3053 
L 172 3500 
L 594 3500 
L 594 4494 
L 1172 4494 
z
" transform="scale(0.015625)"/>
      <path id="DejaVuSans-69" d="M 603 3500 
L 1178 3500 
L 1178 0 
L 603 0 
L 603 3500 
z
M 603 4863 
L 1178 4863 
L 1178 4134 
L 603 4134 
L 603 4863 
z
" transform="scale(0.015625)"/>
      <path id="DejaVuSans-65" d="M 3597 1894 
L 3597 1613 
L 953 1613 
Q 991 1019 1311 708 
Q 1631 397 2203 397 
Q 2534 397 2845 478 
Q 3156 559 3463 722 
L 3463 178 
Q 3153 47 2828 -22 
Q 2503 -91 2169 -91 
Q 1331 -91 842 396 
Q 353 884 353 1716 
Q 353 2575 817 3079 
Q 1281 3584 2069 3584 
Q 2775 3584 3186 3129 
Q 3597 2675 3597 1894 
z
M 3022 2063 
Q 3016 2534 2758 2815 
Q 2500 3097 2075 3097 
Q 1594 3097 1305 2825 
Q 1016 2553 972 2059 
L 3022 2063 
z
" transform="scale(0.015625)"/>
     </defs>
     <use xlink:href="#DejaVuSans-45"/>
     <use xlink:href="#DejaVuSans-72" x="63.183594"/>
     <use xlink:href="#DejaVuSans-72" x="102.546875"/>
     <use xlink:href="#DejaVuSans-6f" x="141.410156"/>
     <use xlink:href="#DejaVuSans-72" x="202.591797"/>
     <use xlink:href="#DejaVuSans-20" x="243.705078"/>
     <use xlink:href="#DejaVuSans-61" x="275.492188"/>
     <use xlink:href="#DejaVuSans-73" x="336.771484"/>
     <use xlink:href="#DejaVuSans-20" x="388.871094"/>
     <use xlink:href="#DejaVuSans-61" x="420.658203"/>
     <use xlink:href="#DejaVuSans-20" x="481.9375"/>
     <use xlink:href="#DejaVuSans-66" x="513.724609"/>
     <use xlink:href="#DejaVuSans-75" x="548.929688"/>
     <use xlink:href="#DejaVuSans-6e" x="612.308594"/>
     <use xlink:href="#DejaVuSans-63" x="675.6875"/>
     <use xlink:href="#DejaVuSans-74" x="730.667969"/>
     <use xlink:href="#DejaVuSans-69" x="769.876953"/>
     <use xlink:href="#DejaVuSans-6f" x="797.660156"/>
     <use xlink:href="#DejaVuSans-6e" x="858.841797"/>
     <use xlink:href="#DejaVuSans-20" x="922.220703"/>
     <use xlink:href="#DejaVuSans-6f" x="954.007812"/>
     <use xlink:href="#DejaVuSans-66" x="1015.189453"/>
     <use xlink:href="#DejaVuSans-20" x="1050.394531"/>
     <use xlink:href="#DejaVuSans-65" x="1082.181641"/>
     <use xlink:href="#DejaVuSans-70" x="1143.705078"/>
     <use xlink:href="#DejaVuSans-6f" x="1207.181641"/>
     <use xlink:href="#DejaVuSans-63" x="1268.363281"/>
     <use xlink:href="#DejaVuSans-68" x="1323.34375"/>
     <use xlink:href="#DejaVuSans-73" x="1386.722656"/>
    </g>
   </g>
  </g>
  <g id="axes_2">
   <g id="patch_7">
    <path d="M 377.469622 227.8855 
L 648.504634 227.8855 
L 648.504634 25.3575 
L 377.469622 25.3575 
z
" style="fill: #ffffff"/>
   </g>
   <g id="matplotlib.axis_3">
    <g id="xtick_7">
     <g id="line2d_31">
      <path d="M 387.849274 227.8855 
L 387.849274 25.3575 
" clip-path="url(#p6664d6150a)" style="fill: none; stroke: #b0b0b0; stroke-width: 0.8; stroke-linecap: square"/>
     </g>
     <g id="line2d_32">
      <g>
       <use xlink:href="#mf996ede962" x="387.849274" y="227.8855" style="stroke: #000000; stroke-width: 0.8"/>
      </g>
     </g>
     <g id="text_15">
      <!-- 0 -->
      <g transform="translate(384.031774 244.003625)scale(0.12 -0.12)">
       <use xlink:href="#DejaVuSans-30"/>
      </g>
     </g>
    </g>
    <g id="xtick_8">
     <g id="line2d_33">
      <path d="M 426.651709 227.8855 
L 426.651709 25.3575 
" clip-path="url(#p6664d6150a)" style="fill: none; stroke: #b0b0b0; stroke-width: 0.8; stroke-linecap: square"/>
     </g>
     <g id="line2d_34">
      <g>
       <use xlink:href="#mf996ede962" x="426.651709" y="227.8855" style="stroke: #000000; stroke-width: 0.8"/>
      </g>
     </g>
     <g id="text_16">
      <!-- 20 -->
      <g transform="translate(419.016709 244.003625)scale(0.12 -0.12)">
       <use xlink:href="#DejaVuSans-32"/>
       <use xlink:href="#DejaVuSans-30" x="63.623047"/>
      </g>
     </g>
    </g>
    <g id="xtick_9">
     <g id="line2d_35">
      <path d="M 465.454145 227.8855 
L 465.454145 25.3575 
" clip-path="url(#p6664d6150a)" style="fill: none; stroke: #b0b0b0; stroke-width: 0.8; stroke-linecap: square"/>
     </g>
     <g id="line2d_36">
      <g>
       <use xlink:href="#mf996ede962" x="465.454145" y="227.8855" style="stroke: #000000; stroke-width: 0.8"/>
      </g>
     </g>
     <g id="text_17">
      <!-- 40 -->
      <g transform="translate(457.819145 244.003625)scale(0.12 -0.12)">
       <use xlink:href="#DejaVuSans-34"/>
       <use xlink:href="#DejaVuSans-30" x="63.623047"/>
      </g>
     </g>
    </g>
    <g id="xtick_10">
     <g id="line2d_37">
      <path d="M 504.25658 227.8855 
L 504.25658 25.3575 
" clip-path="url(#p6664d6150a)" style="fill: none; stroke: #b0b0b0; stroke-width: 0.8; stroke-linecap: square"/>
     </g>
     <g id="line2d_38">
      <g>
       <use xlink:href="#mf996ede962" x="504.25658" y="227.8855" style="stroke: #000000; stroke-width: 0.8"/>
      </g>
     </g>
     <g id="text_18">
      <!-- 60 -->
      <g transform="translate(496.62158 244.003625)scale(0.12 -0.12)">
       <use xlink:href="#DejaVuSans-36"/>
       <use xlink:href="#DejaVuSans-30" x="63.623047"/>
      </g>
     </g>
    </g>
    <g id="xtick_11">
     <g id="line2d_39">
      <path d="M 543.059015 227.8855 
L 543.059015 25.3575 
" clip-path="url(#p6664d6150a)" style="fill: none; stroke: #b0b0b0; stroke-width: 0.8; stroke-linecap: square"/>
     </g>
     <g id="line2d_40">
      <g>
       <use xlink:href="#mf996ede962" x="543.059015" y="227.8855" style="stroke: #000000; stroke-width: 0.8"/>
      </g>
     </g>
     <g id="text_19">
      <!-- 80 -->
      <g transform="translate(535.424015 244.003625)scale(0.12 -0.12)">
       <use xlink:href="#DejaVuSans-38"/>
       <use xlink:href="#DejaVuSans-30" x="63.623047"/>
      </g>
     </g>
    </g>
    <g id="xtick_12">
     <g id="line2d_41">
      <path d="M 581.861451 227.8855 
L 581.861451 25.3575 
" clip-path="url(#p6664d6150a)" style="fill: none; stroke: #b0b0b0; stroke-width: 0.8; stroke-linecap: square"/>
     </g>
     <g id="line2d_42">
      <g>
       <use xlink:href="#mf996ede962" x="581.861451" y="227.8855" style="stroke: #000000; stroke-width: 0.8"/>
      </g>
     </g>
     <g id="text_20">
      <!-- 100 -->
      <g transform="translate(570.408951 244.003625)scale(0.12 -0.12)">
       <use xlink:href="#DejaVuSans-31"/>
       <use xlink:href="#DejaVuSans-30" x="63.623047"/>
       <use xlink:href="#DejaVuSans-30" x="127.246094"/>
      </g>
     </g>
    </g>
    <g id="xtick_13">
     <g id="line2d_43">
      <path d="M 620.663886 227.8855 
L 620.663886 25.3575 
" clip-path="url(#p6664d6150a)" style="fill: none; stroke: #b0b0b0; stroke-width: 0.8; stroke-linecap: square"/>
     </g>
     <g id="line2d_44">
      <g>
       <use xlink:href="#mf996ede962" x="620.663886" y="227.8855" style="stroke: #000000; stroke-width: 0.8"/>
      </g>
     </g>
     <g id="text_21">
      <!-- 120 -->
      <g transform="translate(609.211386 244.003625)scale(0.12 -0.12)">
       <use xlink:href="#DejaVuSans-31"/>
       <use xlink:href="#DejaVuSans-32" x="63.623047"/>
       <use xlink:href="#DejaVuSans-30" x="127.246094"/>
      </g>
     </g>
    </g>
    <g id="text_22">
     <!-- Number of parameters -->
     <g transform="translate(433.067909 261.137062)scale(0.14 -0.14)">
      <defs>
       <path id="DejaVuSans-4e" d="M 628 4666 
L 1478 4666 
L 3547 763 
L 3547 4666 
L 4159 4666 
L 4159 0 
L 3309 0 
L 1241 3903 
L 1241 0 
L 628 0 
L 628 4666 
z
" transform="scale(0.015625)"/>
       <path id="DejaVuSans-6d" d="M 3328 2828 
Q 3544 3216 3844 3400 
Q 4144 3584 4550 3584 
Q 5097 3584 5394 3201 
Q 5691 2819 5691 2113 
L 5691 0 
L 5113 0 
L 5113 2094 
Q 5113 2597 4934 2840 
Q 4756 3084 4391 3084 
Q 3944 3084 3684 2787 
Q 3425 2491 3425 1978 
L 3425 0 
L 2847 0 
L 2847 2094 
Q 2847 2600 2669 2842 
Q 2491 3084 2119 3084 
Q 1678 3084 1418 2786 
Q 1159 2488 1159 1978 
L 1159 0 
L 581 0 
L 581 3500 
L 1159 3500 
L 1159 2956 
Q 1356 3278 1631 3431 
Q 1906 3584 2284 3584 
Q 2666 3584 2933 3390 
Q 3200 3197 3328 2828 
z
" transform="scale(0.015625)"/>
       <path id="DejaVuSans-62" d="M 3116 1747 
Q 3116 2381 2855 2742 
Q 2594 3103 2138 3103 
Q 1681 3103 1420 2742 
Q 1159 2381 1159 1747 
Q 1159 1113 1420 752 
Q 1681 391 2138 391 
Q 2594 391 2855 752 
Q 3116 1113 3116 1747 
z
M 1159 2969 
Q 1341 3281 1617 3432 
Q 1894 3584 2278 3584 
Q 2916 3584 3314 3078 
Q 3713 2572 3713 1747 
Q 3713 922 3314 415 
Q 2916 -91 2278 -91 
Q 1894 -91 1617 61 
Q 1341 213 1159 525 
L 1159 0 
L 581 0 
L 581 4863 
L 1159 4863 
L 1159 2969 
z
" transform="scale(0.015625)"/>
      </defs>
      <use xlink:href="#DejaVuSans-4e"/>
      <use xlink:href="#DejaVuSans-75" x="74.804688"/>
      <use xlink:href="#DejaVuSans-6d" x="138.183594"/>
      <use xlink:href="#DejaVuSans-62" x="235.595703"/>
      <use xlink:href="#DejaVuSans-65" x="299.072266"/>
      <use xlink:href="#DejaVuSans-72" x="360.595703"/>
      <use xlink:href="#DejaVuSans-20" x="401.708984"/>
      <use xlink:href="#DejaVuSans-6f" x="433.496094"/>
      <use xlink:href="#DejaVuSans-66" x="494.677734"/>
      <use xlink:href="#DejaVuSans-20" x="529.882812"/>
      <use xlink:href="#DejaVuSans-70" x="561.669922"/>
      <use xlink:href="#DejaVuSans-61" x="625.146484"/>
      <use xlink:href="#DejaVuSans-72" x="686.425781"/>
      <use xlink:href="#DejaVuSans-61" x="727.539062"/>
      <use xlink:href="#DejaVuSans-6d" x="788.818359"/>
      <use xlink:href="#DejaVuSans-65" x="886.230469"/>
      <use xlink:href="#DejaVuSans-74" x="947.753906"/>
      <use xlink:href="#DejaVuSans-65" x="986.962891"/>
      <use xlink:href="#DejaVuSans-72" x="1048.486328"/>
      <use xlink:href="#DejaVuSans-73" x="1089.599609"/>
     </g>
    </g>
   </g>
   <g id="matplotlib.axis_4">
    <g id="ytick_6">
     <g id="line2d_45">
      <path d="M 377.469622 213.024214 
L 648.504634 213.024214 
" clip-path="url(#p6664d6150a)" style="fill: none; stroke: #b0b0b0; stroke-width: 0.8; stroke-linecap: square"/>
     </g>
     <g id="line2d_46">
      <g>
       <use xlink:href="#m18d695a013" x="377.469622" y="213.024214" style="stroke: #000000; stroke-width: 0.8"/>
      </g>
     </g>
     <g id="text_23">
      <!-- 5 -->
      <g transform="translate(362.834622 217.583277)scale(0.12 -0.12)">
       <defs>
        <path id="DejaVuSans-35" d="M 691 4666 
L 3169 4666 
L 3169 4134 
L 1269 4134 
L 1269 2991 
Q 1406 3038 1543 3061 
Q 1681 3084 1819 3084 
Q 2600 3084 3056 2656 
Q 3513 2228 3513 1497 
Q 3513 744 3044 326 
Q 2575 -91 1722 -91 
Q 1428 -91 1123 -41 
Q 819 9 494 109 
L 494 744 
Q 775 591 1075 516 
Q 1375 441 1709 441 
Q 2250 441 2565 725 
Q 2881 1009 2881 1497 
Q 2881 1984 2565 2268 
Q 2250 2553 1709 2553 
Q 1456 2553 1204 2497 
Q 953 2441 691 2322 
L 691 4666 
z
" transform="scale(0.015625)"/>
       </defs>
       <use xlink:href="#DejaVuSans-35"/>
      </g>
     </g>
    </g>
    <g id="ytick_7">
     <g id="line2d_47">
      <path d="M 377.469622 166.669102 
L 648.504634 166.669102 
" clip-path="url(#p6664d6150a)" style="fill: none; stroke: #b0b0b0; stroke-width: 0.8; stroke-linecap: square"/>
     </g>
     <g id="line2d_48">
      <g>
       <use xlink:href="#m18d695a013" x="377.469622" y="166.669102" style="stroke: #000000; stroke-width: 0.8"/>
      </g>
     </g>
     <g id="text_24">
      <!-- 10 -->
      <g transform="translate(355.199622 171.228165)scale(0.12 -0.12)">
       <use xlink:href="#DejaVuSans-31"/>
       <use xlink:href="#DejaVuSans-30" x="63.623047"/>
      </g>
     </g>
    </g>
    <g id="ytick_8">
     <g id="line2d_49">
      <path d="M 377.469622 120.31399 
L 648.504634 120.31399 
" clip-path="url(#p6664d6150a)" style="fill: none; stroke: #b0b0b0; stroke-width: 0.8; stroke-linecap: square"/>
     </g>
     <g id="line2d_50">
      <g>
       <use xlink:href="#m18d695a013" x="377.469622" y="120.31399" style="stroke: #000000; stroke-width: 0.8"/>
      </g>
     </g>
     <g id="text_25">
      <!-- 15 -->
      <g transform="translate(355.199622 124.873053)scale(0.12 -0.12)">
       <use xlink:href="#DejaVuSans-31"/>
       <use xlink:href="#DejaVuSans-35" x="63.623047"/>
      </g>
     </g>
    </g>
    <g id="ytick_9">
     <g id="line2d_51">
      <path d="M 377.469622 73.958878 
L 648.504634 73.958878 
" clip-path="url(#p6664d6150a)" style="fill: none; stroke: #b0b0b0; stroke-width: 0.8; stroke-linecap: square"/>
     </g>
     <g id="line2d_52">
      <g>
       <use xlink:href="#m18d695a013" x="377.469622" y="73.958878" style="stroke: #000000; stroke-width: 0.8"/>
      </g>
     </g>
     <g id="text_26">
      <!-- 20 -->
      <g transform="translate(355.199622 78.51794)scale(0.12 -0.12)">
       <use xlink:href="#DejaVuSans-32"/>
       <use xlink:href="#DejaVuSans-30" x="63.623047"/>
      </g>
     </g>
    </g>
    <g id="ytick_10">
     <g id="line2d_53">
      <path d="M 377.469622 27.603766 
L 648.504634 27.603766 
" clip-path="url(#p6664d6150a)" style="fill: none; stroke: #b0b0b0; stroke-width: 0.8; stroke-linecap: square"/>
     </g>
     <g id="line2d_54">
      <g>
       <use xlink:href="#m18d695a013" x="377.469622" y="27.603766" style="stroke: #000000; stroke-width: 0.8"/>
      </g>
     </g>
     <g id="text_27">
      <!-- 25 -->
      <g transform="translate(355.199622 32.162828)scale(0.12 -0.12)">
       <use xlink:href="#DejaVuSans-32"/>
       <use xlink:href="#DejaVuSans-35" x="63.623047"/>
      </g>
     </g>
    </g>
    <g id="text_28">
     <!-- CPU-time -->
     <g transform="translate(348.28806 159.193375)rotate(-90)scale(0.14 -0.14)">
      <defs>
       <path id="DejaVuSans-43" d="M 4122 4306 
L 4122 3641 
Q 3803 3938 3442 4084 
Q 3081 4231 2675 4231 
Q 1875 4231 1450 3742 
Q 1025 3253 1025 2328 
Q 1025 1406 1450 917 
Q 1875 428 2675 428 
Q 3081 428 3442 575 
Q 3803 722 4122 1019 
L 4122 359 
Q 3791 134 3420 21 
Q 3050 -91 2638 -91 
Q 1578 -91 968 557 
Q 359 1206 359 2328 
Q 359 3453 968 4101 
Q 1578 4750 2638 4750 
Q 3056 4750 3426 4639 
Q 3797 4528 4122 4306 
z
" transform="scale(0.015625)"/>
       <path id="DejaVuSans-50" d="M 1259 4147 
L 1259 2394 
L 2053 2394 
Q 2494 2394 2734 2622 
Q 2975 2850 2975 3272 
Q 2975 3691 2734 3919 
Q 2494 4147 2053 4147 
L 1259 4147 
z
M 628 4666 
L 2053 4666 
Q 2838 4666 3239 4311 
Q 3641 3956 3641 3272 
Q 3641 2581 3239 2228 
Q 2838 1875 2053 1875 
L 1259 1875 
L 1259 0 
L 628 0 
L 628 4666 
z
" transform="scale(0.015625)"/>
       <path id="DejaVuSans-55" d="M 556 4666 
L 1191 4666 
L 1191 1831 
Q 1191 1081 1462 751 
Q 1734 422 2344 422 
Q 2950 422 3222 751 
Q 3494 1081 3494 1831 
L 3494 4666 
L 4128 4666 
L 4128 1753 
Q 4128 841 3676 375 
Q 3225 -91 2344 -91 
Q 1459 -91 1007 375 
Q 556 841 556 1753 
L 556 4666 
z
" transform="scale(0.015625)"/>
       <path id="DejaVuSans-2d" d="M 313 2009 
L 1997 2009 
L 1997 1497 
L 313 1497 
L 313 2009 
z
" transform="scale(0.015625)"/>
      </defs>
      <use xlink:href="#DejaVuSans-43"/>
      <use xlink:href="#DejaVuSans-50" x="69.824219"/>
      <use xlink:href="#DejaVuSans-55" x="130.126953"/>
      <use xlink:href="#DejaVuSans-2d" x="203.320312"/>
      <use xlink:href="#DejaVuSans-74" x="239.404297"/>
      <use xlink:href="#DejaVuSans-69" x="278.613281"/>
      <use xlink:href="#DejaVuSans-6d" x="306.396484"/>
      <use xlink:href="#DejaVuSans-65" x="403.808594"/>
     </g>
    </g>
   </g>
   <g id="line2d_55">
    <path d="M 389.789396 218.679682 
L 391.729517 214.419589 
L 395.609761 212.474532 
L 403.370248 210.456414 
L 418.891222 200.148308 
L 449.93317 177.830269 
L 512.017067 137.377891 
L 636.18486 34.563318 
" clip-path="url(#p6664d6150a)" style="fill: none; stroke: #1f77b4; stroke-width: 1.5; stroke-linecap: square"/>
    <defs>
     <path id="m11b490b54a" d="M 0 3 
C 0.795609 3 1.55874 2.683901 2.12132 2.12132 
C 2.683901 1.55874 3 0.795609 3 0 
C 3 -0.795609 2.683901 -1.55874 2.12132 -2.12132 
C 1.55874 -2.683901 0.795609 -3 0 -3 
C -0.795609 -3 -1.55874 -2.683901 -2.12132 -2.12132 
C -2.683901 -1.55874 -3 -0.795609 -3 0 
C -3 0.795609 -2.683901 1.55874 -2.12132 2.12132 
C -1.55874 2.683901 -0.795609 3 0 3 
z
" style="stroke: #1f77b4"/>
    </defs>
    <g clip-path="url(#p6664d6150a)">
     <use xlink:href="#m11b490b54a" x="389.789396" y="218.679682" style="fill: #1f77b4; stroke: #1f77b4"/>
     <use xlink:href="#m11b490b54a" x="391.729517" y="214.419589" style="fill: #1f77b4; stroke: #1f77b4"/>
     <use xlink:href="#m11b490b54a" x="395.609761" y="212.474532" style="fill: #1f77b4; stroke: #1f77b4"/>
     <use xlink:href="#m11b490b54a" x="403.370248" y="210.456414" style="fill: #1f77b4; stroke: #1f77b4"/>
     <use xlink:href="#m11b490b54a" x="418.891222" y="200.148308" style="fill: #1f77b4; stroke: #1f77b4"/>
     <use xlink:href="#m11b490b54a" x="449.93317" y="177.830269" style="fill: #1f77b4; stroke: #1f77b4"/>
     <use xlink:href="#m11b490b54a" x="512.017067" y="137.377891" style="fill: #1f77b4; stroke: #1f77b4"/>
     <use xlink:href="#m11b490b54a" x="636.18486" y="34.563318" style="fill: #1f77b4; stroke: #1f77b4"/>
    </g>
   </g>
   <g id="patch_8">
    <path d="M 377.469622 227.8855 
L 377.469622 25.3575 
" style="fill: none; stroke: #000000; stroke-width: 0.8; stroke-linejoin: miter; stroke-linecap: square"/>
   </g>
   <g id="patch_9">
    <path d="M 648.504634 227.8855 
L 648.504634 25.3575 
" style="fill: none; stroke: #000000; stroke-width: 0.8; stroke-linejoin: miter; stroke-linecap: square"/>
   </g>
   <g id="patch_10">
    <path d="M 377.469622 227.8855 
L 648.504634 227.8855 
" style="fill: none; stroke: #000000; stroke-width: 0.8; stroke-linejoin: miter; stroke-linecap: square"/>
   </g>
   <g id="patch_11">
    <path d="M 377.469622 25.3575 
L 648.504634 25.3575 
" style="fill: none; stroke: #000000; stroke-width: 0.8; stroke-linejoin: miter; stroke-linecap: square"/>
   </g>
   <g id="text_29">
    <!-- Time complexity O(n) -->
    <g transform="translate(426.719628 19.3575)scale(0.16 -0.16)">
     <defs>
      <path id="DejaVuSans-54" d="M -19 4666 
L 3928 4666 
L 3928 4134 
L 2272 4134 
L 2272 0 
L 1638 0 
L 1638 4134 
L -19 4134 
L -19 4666 
z
" transform="scale(0.015625)"/>
      <path id="DejaVuSans-6c" d="M 603 4863 
L 1178 4863 
L 1178 0 
L 603 0 
L 603 4863 
z
" transform="scale(0.015625)"/>
      <path id="DejaVuSans-78" d="M 3513 3500 
L 2247 1797 
L 3578 0 
L 2900 0 
L 1881 1375 
L 863 0 
L 184 0 
L 1544 1831 
L 300 3500 
L 978 3500 
L 1906 2253 
L 2834 3500 
L 3513 3500 
z
" transform="scale(0.015625)"/>
      <path id="DejaVuSans-79" d="M 2059 -325 
Q 1816 -950 1584 -1140 
Q 1353 -1331 966 -1331 
L 506 -1331 
L 506 -850 
L 844 -850 
Q 1081 -850 1212 -737 
Q 1344 -625 1503 -206 
L 1606 56 
L 191 3500 
L 800 3500 
L 1894 763 
L 2988 3500 
L 3597 3500 
L 2059 -325 
z
" transform="scale(0.015625)"/>
      <path id="DejaVuSans-4f" d="M 2522 4238 
Q 1834 4238 1429 3725 
Q 1025 3213 1025 2328 
Q 1025 1447 1429 934 
Q 1834 422 2522 422 
Q 3209 422 3611 934 
Q 4013 1447 4013 2328 
Q 4013 3213 3611 3725 
Q 3209 4238 2522 4238 
z
M 2522 4750 
Q 3503 4750 4090 4092 
Q 4678 3434 4678 2328 
Q 4678 1225 4090 567 
Q 3503 -91 2522 -91 
Q 1538 -91 948 565 
Q 359 1222 359 2328 
Q 359 3434 948 4092 
Q 1538 4750 2522 4750 
z
" transform="scale(0.015625)"/>
      <path id="DejaVuSans-28" d="M 1984 4856 
Q 1566 4138 1362 3434 
Q 1159 2731 1159 2009 
Q 1159 1288 1364 580 
Q 1569 -128 1984 -844 
L 1484 -844 
Q 1016 -109 783 600 
Q 550 1309 550 2009 
Q 550 2706 781 3412 
Q 1013 4119 1484 4856 
L 1984 4856 
z
" transform="scale(0.015625)"/>
      <path id="DejaVuSans-29" d="M 513 4856 
L 1013 4856 
Q 1481 4119 1714 3412 
Q 1947 2706 1947 2009 
Q 1947 1309 1714 600 
Q 1481 -109 1013 -844 
L 513 -844 
Q 928 -128 1133 580 
Q 1338 1288 1338 2009 
Q 1338 2731 1133 3434 
Q 928 4138 513 4856 
z
" transform="scale(0.015625)"/>
     </defs>
     <use xlink:href="#DejaVuSans-54"/>
     <use xlink:href="#DejaVuSans-69" x="57.958984"/>
     <use xlink:href="#DejaVuSans-6d" x="85.742188"/>
     <use xlink:href="#DejaVuSans-65" x="183.154297"/>
     <use xlink:href="#DejaVuSans-20" x="244.677734"/>
     <use xlink:href="#DejaVuSans-63" x="276.464844"/>
     <use xlink:href="#DejaVuSans-6f" x="331.445312"/>
     <use xlink:href="#DejaVuSans-6d" x="392.626953"/>
     <use xlink:href="#DejaVuSans-70" x="490.039062"/>
     <use xlink:href="#DejaVuSans-6c" x="553.515625"/>
     <use xlink:href="#DejaVuSans-65" x="581.298828"/>
     <use xlink:href="#DejaVuSans-78" x="641.072266"/>
     <use xlink:href="#DejaVuSans-69" x="700.251953"/>
     <use xlink:href="#DejaVuSans-74" x="728.035156"/>
     <use xlink:href="#DejaVuSans-79" x="767.244141"/>
     <use xlink:href="#DejaVuSans-20" x="826.423828"/>
     <use xlink:href="#DejaVuSans-4f" x="858.210938"/>
     <use xlink:href="#DejaVuSans-28" x="936.921875"/>
     <use xlink:href="#DejaVuSans-6e" x="975.935547"/>
     <use xlink:href="#DejaVuSans-29" x="1039.314453"/>
    </g>
   </g>
  </g>
  <g id="axes_3">
   <g id="patch_12">
    <path d="M 715.55487 227.8855 
L 986.589881 227.8855 
L 986.589881 25.3575 
L 715.55487 25.3575 
z
" style="fill: #ffffff"/>
   </g>
   <g id="matplotlib.axis_5">
    <g id="xtick_14">
     <g id="line2d_56">
      <path d="M 801.620156 227.8855 
L 801.620156 25.3575 
" clip-path="url(#p8dfbf6db16)" style="fill: none; stroke: #b0b0b0; stroke-width: 0.8; stroke-linecap: square"/>
     </g>
     <g id="line2d_57">
      <g>
       <use xlink:href="#mf996ede962" x="801.620156" y="227.8855" style="stroke: #000000; stroke-width: 0.8"/>
      </g>
     </g>
     <g id="text_30">
      <!-- $\mathdefault{10^{0}}$ -->
      <g transform="translate(791.060156 244.003625)scale(0.12 -0.12)">
       <use xlink:href="#DejaVuSans-31" transform="translate(0 0.765625)"/>
       <use xlink:href="#DejaVuSans-30" transform="translate(63.623047 0.765625)"/>
       <use xlink:href="#DejaVuSans-30" transform="translate(128.203125 39.046875)scale(0.7)"/>
      </g>
     </g>
    </g>
    <g id="xtick_15">
     <g id="line2d_58">
      <path d="M 982.072899 227.8855 
L 982.072899 25.3575 
" clip-path="url(#p8dfbf6db16)" style="fill: none; stroke: #b0b0b0; stroke-width: 0.8; stroke-linecap: square"/>
     </g>
     <g id="line2d_59">
      <g>
       <use xlink:href="#mf996ede962" x="982.072899" y="227.8855" style="stroke: #000000; stroke-width: 0.8"/>
      </g>
     </g>
     <g id="text_31">
      <!-- $\mathdefault{10^{1}}$ -->
      <g transform="translate(971.512899 244.003625)scale(0.12 -0.12)">
       <use xlink:href="#DejaVuSans-31" transform="translate(0 0.684375)"/>
       <use xlink:href="#DejaVuSans-30" transform="translate(63.623047 0.684375)"/>
       <use xlink:href="#DejaVuSans-31" transform="translate(128.203125 38.965625)scale(0.7)"/>
      </g>
     </g>
    </g>
    <g id="xtick_16">
     <g id="line2d_60">
      <defs>
       <path id="m78e9827487" d="M 0 0 
L 0 2 
" style="stroke: #000000; stroke-width: 0.6"/>
      </defs>
      <g>
       <use xlink:href="#m78e9827487" x="729.81079" y="227.8855" style="stroke: #000000; stroke-width: 0.6"/>
      </g>
     </g>
    </g>
    <g id="xtick_17">
     <g id="line2d_61">
      <g>
       <use xlink:href="#m78e9827487" x="747.298468" y="227.8855" style="stroke: #000000; stroke-width: 0.6"/>
      </g>
     </g>
    </g>
    <g id="xtick_18">
     <g id="line2d_62">
      <g>
       <use xlink:href="#m78e9827487" x="761.586941" y="227.8855" style="stroke: #000000; stroke-width: 0.6"/>
      </g>
     </g>
    </g>
    <g id="xtick_19">
     <g id="line2d_63">
      <g>
       <use xlink:href="#m78e9827487" x="773.667673" y="227.8855" style="stroke: #000000; stroke-width: 0.6"/>
      </g>
     </g>
    </g>
    <g id="xtick_20">
     <g id="line2d_64">
      <g>
       <use xlink:href="#m78e9827487" x="784.132478" y="227.8855" style="stroke: #000000; stroke-width: 0.6"/>
      </g>
     </g>
    </g>
    <g id="xtick_21">
     <g id="line2d_65">
      <g>
       <use xlink:href="#m78e9827487" x="793.363091" y="227.8855" style="stroke: #000000; stroke-width: 0.6"/>
      </g>
     </g>
    </g>
    <g id="xtick_22">
     <g id="line2d_66">
      <g>
       <use xlink:href="#m78e9827487" x="855.941844" y="227.8855" style="stroke: #000000; stroke-width: 0.6"/>
      </g>
     </g>
    </g>
    <g id="xtick_23">
     <g id="line2d_67">
      <g>
       <use xlink:href="#m78e9827487" x="887.717995" y="227.8855" style="stroke: #000000; stroke-width: 0.6"/>
      </g>
     </g>
    </g>
    <g id="xtick_24">
     <g id="line2d_68">
      <g>
       <use xlink:href="#m78e9827487" x="910.263533" y="227.8855" style="stroke: #000000; stroke-width: 0.6"/>
      </g>
     </g>
    </g>
    <g id="xtick_25">
     <g id="line2d_69">
      <g>
       <use xlink:href="#m78e9827487" x="927.75121" y="227.8855" style="stroke: #000000; stroke-width: 0.6"/>
      </g>
     </g>
    </g>
    <g id="xtick_26">
     <g id="line2d_70">
      <g>
       <use xlink:href="#m78e9827487" x="942.039683" y="227.8855" style="stroke: #000000; stroke-width: 0.6"/>
      </g>
     </g>
    </g>
    <g id="xtick_27">
     <g id="line2d_71">
      <g>
       <use xlink:href="#m78e9827487" x="954.120415" y="227.8855" style="stroke: #000000; stroke-width: 0.6"/>
      </g>
     </g>
    </g>
    <g id="xtick_28">
     <g id="line2d_72">
      <g>
       <use xlink:href="#m78e9827487" x="964.585221" y="227.8855" style="stroke: #000000; stroke-width: 0.6"/>
      </g>
     </g>
    </g>
    <g id="xtick_29">
     <g id="line2d_73">
      <g>
       <use xlink:href="#m78e9827487" x="973.815834" y="227.8855" style="stroke: #000000; stroke-width: 0.6"/>
      </g>
     </g>
    </g>
    <g id="text_32">
     <!-- Error -->
     <g transform="translate(834.013157 261.137062)scale(0.14 -0.14)">
      <use xlink:href="#DejaVuSans-45"/>
      <use xlink:href="#DejaVuSans-72" x="63.183594"/>
      <use xlink:href="#DejaVuSans-72" x="102.546875"/>
      <use xlink:href="#DejaVuSans-6f" x="141.410156"/>
      <use xlink:href="#DejaVuSans-72" x="202.591797"/>
     </g>
    </g>
   </g>
   <g id="matplotlib.axis_6">
    <g id="ytick_11">
     <g id="line2d_74">
      <path d="M 715.55487 218.712478 
L 986.589881 218.712478 
" clip-path="url(#p8dfbf6db16)" style="fill: none; stroke: #b0b0b0; stroke-width: 0.8; stroke-linecap: square"/>
     </g>
     <g id="line2d_75">
      <g>
       <use xlink:href="#m18d695a013" x="715.55487" y="218.712478" style="stroke: #000000; stroke-width: 0.8"/>
      </g>
     </g>
     <g id="text_33">
      <!-- 0 -->
      <g transform="translate(700.91987 223.271541)scale(0.12 -0.12)">
       <use xlink:href="#DejaVuSans-30"/>
      </g>
     </g>
    </g>
    <g id="ytick_12">
     <g id="line2d_76">
      <path d="M 715.55487 180.741155 
L 986.589881 180.741155 
" clip-path="url(#p8dfbf6db16)" style="fill: none; stroke: #b0b0b0; stroke-width: 0.8; stroke-linecap: square"/>
     </g>
     <g id="line2d_77">
      <g>
       <use xlink:href="#m18d695a013" x="715.55487" y="180.741155" style="stroke: #000000; stroke-width: 0.8"/>
      </g>
     </g>
     <g id="text_34">
      <!-- 5 -->
      <g transform="translate(700.91987 185.300218)scale(0.12 -0.12)">
       <use xlink:href="#DejaVuSans-35"/>
      </g>
     </g>
    </g>
    <g id="ytick_13">
     <g id="line2d_78">
      <path d="M 715.55487 142.769832 
L 986.589881 142.769832 
" clip-path="url(#p8dfbf6db16)" style="fill: none; stroke: #b0b0b0; stroke-width: 0.8; stroke-linecap: square"/>
     </g>
     <g id="line2d_79">
      <g>
       <use xlink:href="#m18d695a013" x="715.55487" y="142.769832" style="stroke: #000000; stroke-width: 0.8"/>
      </g>
     </g>
     <g id="text_35">
      <!-- 10 -->
      <g transform="translate(693.28487 147.328895)scale(0.12 -0.12)">
       <use xlink:href="#DejaVuSans-31"/>
       <use xlink:href="#DejaVuSans-30" x="63.623047"/>
      </g>
     </g>
    </g>
    <g id="ytick_14">
     <g id="line2d_80">
      <path d="M 715.55487 104.798509 
L 986.589881 104.798509 
" clip-path="url(#p8dfbf6db16)" style="fill: none; stroke: #b0b0b0; stroke-width: 0.8; stroke-linecap: square"/>
     </g>
     <g id="line2d_81">
      <g>
       <use xlink:href="#m18d695a013" x="715.55487" y="104.798509" style="stroke: #000000; stroke-width: 0.8"/>
      </g>
     </g>
     <g id="text_36">
      <!-- 15 -->
      <g transform="translate(693.28487 109.357572)scale(0.12 -0.12)">
       <use xlink:href="#DejaVuSans-31"/>
       <use xlink:href="#DejaVuSans-35" x="63.623047"/>
      </g>
     </g>
    </g>
    <g id="ytick_15">
     <g id="line2d_82">
      <path d="M 715.55487 66.827186 
L 986.589881 66.827186 
" clip-path="url(#p8dfbf6db16)" style="fill: none; stroke: #b0b0b0; stroke-width: 0.8; stroke-linecap: square"/>
     </g>
     <g id="line2d_83">
      <g>
       <use xlink:href="#m18d695a013" x="715.55487" y="66.827186" style="stroke: #000000; stroke-width: 0.8"/>
      </g>
     </g>
     <g id="text_37">
      <!-- 20 -->
      <g transform="translate(693.28487 71.386249)scale(0.12 -0.12)">
       <use xlink:href="#DejaVuSans-32"/>
       <use xlink:href="#DejaVuSans-30" x="63.623047"/>
      </g>
     </g>
    </g>
    <g id="ytick_16">
     <g id="line2d_84">
      <path d="M 715.55487 28.855863 
L 986.589881 28.855863 
" clip-path="url(#p8dfbf6db16)" style="fill: none; stroke: #b0b0b0; stroke-width: 0.8; stroke-linecap: square"/>
     </g>
     <g id="line2d_85">
      <g>
       <use xlink:href="#m18d695a013" x="715.55487" y="28.855863" style="stroke: #000000; stroke-width: 0.8"/>
      </g>
     </g>
     <g id="text_38">
      <!-- 25 -->
      <g transform="translate(693.28487 33.414926)scale(0.12 -0.12)">
       <use xlink:href="#DejaVuSans-32"/>
       <use xlink:href="#DejaVuSans-35" x="63.623047"/>
      </g>
     </g>
    </g>
    <g id="text_39">
     <!-- CPU-time -->
     <g transform="translate(686.373307 159.193375)rotate(-90)scale(0.14 -0.14)">
      <use xlink:href="#DejaVuSans-43"/>
      <use xlink:href="#DejaVuSans-50" x="69.824219"/>
      <use xlink:href="#DejaVuSans-55" x="130.126953"/>
      <use xlink:href="#DejaVuSans-2d" x="203.320312"/>
      <use xlink:href="#DejaVuSans-74" x="239.404297"/>
      <use xlink:href="#DejaVuSans-69" x="278.613281"/>
      <use xlink:href="#DejaVuSans-6d" x="306.396484"/>
      <use xlink:href="#DejaVuSans-65" x="403.808594"/>
     </g>
    </g>
   </g>
   <g id="line2d_86">
    <path d="M 929.143337 218.666711 
L 925.911548 218.304783 
L 924.908574 218.03097 
L 922.359099 217.084791 
L 918.962028 216.052726 
L 904.36383 212.938813 
L 896.859867 211.308611 
L 890.893746 209.895109 
L 889.275578 209.258928 
L 888.666021 209.033223 
L 886.530267 208.468282 
L 884.263278 207.693121 
L 880.858848 206.415577 
L 878.959917 205.513183 
L 877.899946 205.12165 
L 875.952342 204.498765 
L 870.728404 202.62636 
L 870.105992 202.372708 
L 866.867439 200.983403 
L 864.362944 199.778301 
L 862.895635 199.070306 
L 861.490953 198.361049 
L 860.490292 197.815167 
L 859.575967 197.311379 
L 858.25166 196.567073 
L 857.240997 195.968539 
L 856.109837 195.290113 
L 854.534174 194.205275 
L 853.310268 193.191804 
L 852.356035 192.454829 
L 851.648363 191.747132 
L 850.406093 190.772248 
L 849.293368 189.960114 
L 845.927444 187.352326 
L 844.791359 186.343801 
L 843.66329 185.375476 
L 843.66329 185.375476 
" clip-path="url(#p8dfbf6db16)" style="fill: none; stroke: #1f77b4; stroke-width: 1.5; stroke-linecap: square"/>
   </g>
   <g id="line2d_87">
    <path d="M 959.068026 218.679682 
L 954.427865 218.345844 
L 952.828986 218.054245 
L 948.685288 216.764251 
L 944.682124 215.786055 
L 939.982148 214.728108 
L 937.41072 214.195359 
L 922.680761 211.059256 
L 920.898638 210.663123 
L 908.129656 208.122676 
L 905.070927 207.485366 
L 900.042892 206.401094 
L 893.924182 204.908944 
L 890.984054 204.079506 
L 885.038424 202.341684 
L 877.051091 198.147357 
L 874.058974 196.780503 
L 871.027687 194.99912 
L 868.054446 193.693133 
L 866.537224 192.999106 
L 865.279485 192.36316 
L 861.218951 190.303717 
L 860.599679 189.96262 
L 857.979811 188.44434 
L 856.505995 187.573916 
L 856.007727 187.203381 
L 855.40674 186.656497 
L 853.810373 185.656292 
L 852.071853 184.541841 
L 848.473708 181.887122 
L 848.473708 181.887122 
" clip-path="url(#p8dfbf6db16)" style="fill: none; stroke: #ff7f0e; stroke-width: 1.5; stroke-linecap: square"/>
   </g>
   <g id="line2d_88">
    <path d="M 974.270108 218.659646 
L 967.923001 218.13771 
L 966.520762 217.75678 
L 965.322361 217.117371 
L 964.479749 216.646955 
L 962.170066 215.809371 
L 957.649744 214.364769 
L 953.703073 213.172437 
L 950.621741 211.859786 
L 947.922563 211.051551 
L 943.370724 209.946584 
L 937.017936 208.45271 
L 912.235833 202.854634 
L 909.657829 202.238131 
L 907.718577 201.665473 
L 905.972277 201.020447 
L 897.272246 198.378792 
L 894.621661 196.972612 
L 893.710808 196.600317 
L 892.627089 196.169247 
L 892.049534 195.909475 
L 891.293869 195.484456 
L 890.737536 195.240137 
L 888.597898 194.417779 
L 887.829563 193.987723 
L 887.161177 193.619701 
L 885.234799 192.794829 
L 884.541653 192.387928 
L 882.478804 190.987353 
L 878.73395 189.070865 
L 875.926204 187.369815 
L 874.431521 186.445828 
L 872.457493 184.68206 
L 869.609817 182.608937 
L 866.921341 180.293794 
L 866.921341 180.293794 
" clip-path="url(#p8dfbf6db16)" style="fill: none; stroke: #2ca02c; stroke-width: 1.5; stroke-linecap: square"/>
   </g>
   <g id="line2d_89">
    <path d="M 865.615609 218.662316 
L 857.307863 218.221178 
L 851.316321 217.704208 
L 842.306754 216.653605 
L 829.099799 214.757362 
L 819.340785 212.989532 
L 817.368051 212.573514 
L 814.508528 211.926311 
L 813.549152 211.647863 
L 806.250352 209.677094 
L 802.515341 208.509803 
L 800.65017 207.700732 
L 796.292667 206.195931 
L 790.845425 204.090349 
L 790.282174 203.838965 
L 787.813982 202.8466 
L 785.880232 202.007807 
L 781.979391 200.235093 
L 778.854989 198.688963 
L 777.855204 198.161469 
L 777.095369 197.689087 
L 775.456865 196.204872 
L 773.605046 195.042664 
L 771.623821 193.61224 
L 770.494724 192.626186 
L 769.464464 191.367978 
L 768.386652 190.010421 
L 767.703927 189.018497 
L 767.004276 187.704976 
L 766.19225 186.027992 
L 765.470102 183.848829 
L 764.695734 181.184842 
L 764.328477 179.557974 
L 764.122877 178.64087 
L 764.122877 178.64087 
" clip-path="url(#p8dfbf6db16)" style="fill: none; stroke: #d62728; stroke-width: 1.5; stroke-linecap: square"/>
   </g>
   <g id="line2d_90">
    <path d="M 877.714655 218.674635 
L 865.0569 218.212796 
L 858.326624 217.833568 
L 849.086766 216.957312 
L 845.019068 216.209233 
L 841.335565 215.71384 
L 837.566012 215.11272 
L 829.462495 213.274737 
L 822.396297 212.056924 
L 811.44202 209.884857 
L 809.792593 209.520888 
L 805.483786 208.507576 
L 802.001099 207.628961 
L 797.065307 206.279094 
L 794.989078 205.631987 
L 792.392691 204.606187 
L 790.343233 203.865523 
L 788.372069 203.220507 
L 785.54855 202.226858 
L 783.619319 201.354408 
L 781.020531 200.384517 
L 779.70168 199.707179 
L 778.289501 198.927016 
L 776.228541 198.089632 
L 774.761062 197.513048 
L 772.663377 196.679046 
L 769.237662 195.256404 
L 764.933907 193.39065 
L 764.213794 192.939912 
L 761.981606 191.985772 
L 757.411373 189.491558 
L 756.922143 189.25254 
L 754.403834 187.820675 
L 753.541251 187.401987 
L 748.643073 184.96286 
L 744.220035 182.857353 
L 742.773208 182.135666 
L 741.078637 181.289378 
L 738.655145 180.036471 
L 736.4292 178.782891 
L 734.432202 177.492151 
L 733.426539 176.848272 
L 730.247694 174.298823 
L 728.970049 172.45175 
L 728.548496 171.624148 
L 727.955399 170.377901 
L 727.874643 170.196331 
L 727.874643 170.196331 
" clip-path="url(#p8dfbf6db16)" style="fill: none; stroke: #9467bd; stroke-width: 1.5; stroke-linecap: square"/>
   </g>
   <g id="line2d_91">
    <path d="M 806.126718 218.658762 
L 788.623885 218.17101 
L 781.459924 217.817857 
L 772.119766 216.984313 
L 769.54255 216.590911 
L 763.985583 215.260808 
L 761.656226 214.187725 
L 761.035552 213.551541 
L 760.691739 212.904068 
L 760.346838 211.689057 
L 759.948939 210.130609 
L 759.123903 208.730959 
L 758.339554 207.852181 
L 757.342392 206.863801 
L 755.855042 205.46096 
L 755.399351 204.927463 
L 752.40904 202.641659 
L 750.3809 201.280736 
L 748.474274 199.722254 
L 745.561754 197.921404 
L 742.95516 196.079298 
L 741.755066 195.352344 
L 740.423188 194.142172 
L 739.495287 192.690289 
L 739.13606 192.216344 
L 737.316221 189.689017 
L 736.475115 188.075739 
L 734.970906 184.888336 
L 734.095737 181.781997 
L 733.502744 177.740264 
L 733.315643 174.557881 
L 733.248997 167.972774 
L 733.366371 151.915357 
L 733.366371 151.915357 
" clip-path="url(#p8dfbf6db16)" style="fill: none; stroke: #8c564b; stroke-width: 1.5; stroke-linecap: square"/>
   </g>
   <g id="line2d_92">
    <path d="M 794.351519 218.621363 
L 789.173484 218.237027 
L 784.924453 217.638338 
L 784.406753 217.316547 
L 784.125694 216.789763 
L 783.821597 216.192923 
L 783.117654 215.32816 
L 781.206391 214.152314 
L 779.451622 213.395951 
L 778.479264 213.002116 
L 777.212685 212.357574 
L 775.436995 211.610548 
L 773.146747 210.749823 
L 771.962036 210.164045 
L 767.859999 207.655365 
L 766.087417 206.445168 
L 765.075494 205.750513 
L 759.87295 201.742248 
L 758.961466 200.633182 
L 758.446344 200.219221 
L 756.925572 199.091952 
L 754.62165 197.33573 
L 753.110173 196.178973 
L 750.858509 194.327292 
L 750.202196 193.659808 
L 748.288304 191.530064 
L 747.670224 190.920287 
L 746.961212 190.188053 
L 745.968261 189.249548 
L 745.482205 188.751867 
L 744.441907 187.75443 
L 743.623734 186.757285 
L 742.752222 185.824845 
L 740.030723 182.136715 
L 737.603646 177.649397 
L 737.220341 176.864447 
L 736.304424 175.025425 
L 736.033087 174.250041 
L 735.303882 172.258289 
L 734.825253 170.692526 
L 734.334627 168.936524 
L 733.840578 166.741112 
L 733.581586 165.078059 
L 733.078646 157.583455 
L 733.059798 148.858273 
L 733.465693 118.780339 
L 733.465693 118.780339 
" clip-path="url(#p8dfbf6db16)" style="fill: none; stroke: #e377c2; stroke-width: 1.5; stroke-linecap: square"/>
   </g>
   <g id="line2d_93">
    <path d="M 781.663742 218.52655 
L 774.832068 218.064202 
L 769.946772 217.564406 
L 766.698791 217.042787 
L 766.074405 216.71324 
L 766.027153 216.312067 
L 766.480698 215.695862 
L 766.977106 215.332929 
L 768.51014 214.307768 
L 769.453994 213.541215 
L 769.660636 213.235338 
L 769.664534 212.925205 
L 769.319169 212.367343 
L 768.649514 211.664893 
L 767.502464 211.035905 
L 766.073125 210.171511 
L 765.095663 209.480371 
L 764.075799 208.670965 
L 763.110962 207.711251 
L 762.094496 206.291198 
L 761.21959 205.20888 
L 760.026816 203.877429 
L 758.213513 201.636559 
L 757.693967 200.841582 
L 756.676427 199.787465 
L 754.643821 197.391552 
L 753.587237 196.36812 
L 752.870342 195.417184 
L 751.787855 194.006614 
L 751.058827 193.340462 
L 748.463515 191.064784 
L 747.543919 190.013147 
L 746.996698 189.416823 
L 743.961589 186.505984 
L 742.181342 184.513264 
L 741.162706 183.309493 
L 740.34752 182.222744 
L 739.707941 181.348084 
L 737.152559 177.364915 
L 736.346749 175.663267 
L 735.932836 174.309169 
L 734.507068 169.046188 
L 734.101111 166.639365 
L 733.428022 158.779887 
L 733.220351 154.202954 
L 733.076932 146.780977 
L 732.958142 101.821736 
L 732.948084 95.115198 
L 733.104348 67.440356 
L 733.180498 58.576292 
L 733.31566 39.347413 
L 733.342077 34.563318 
L 733.342077 34.563318 
" clip-path="url(#p8dfbf6db16)" style="fill: none; stroke: #7f7f7f; stroke-width: 1.5; stroke-linecap: square"/>
   </g>
   <g id="patch_13">
    <path d="M 715.55487 227.8855 
L 715.55487 25.3575 
" style="fill: none; stroke: #000000; stroke-width: 0.8; stroke-linejoin: miter; stroke-linecap: square"/>
   </g>
   <g id="patch_14">
    <path d="M 986.589881 227.8855 
L 986.589881 25.3575 
" style="fill: none; stroke: #000000; stroke-width: 0.8; stroke-linejoin: miter; stroke-linecap: square"/>
   </g>
   <g id="patch_15">
    <path d="M 715.55487 227.8855 
L 986.589881 227.8855 
" style="fill: none; stroke: #000000; stroke-width: 0.8; stroke-linejoin: miter; stroke-linecap: square"/>
   </g>
   <g id="patch_16">
    <path d="M 715.55487 25.3575 
L 986.589881 25.3575 
" style="fill: none; stroke: #000000; stroke-width: 0.8; stroke-linejoin: miter; stroke-linecap: square"/>
   </g>
   <g id="text_40">
    <!-- CPU time as a function of errors -->
    <g transform="translate(723.584875 19.3575)scale(0.16 -0.16)">
     <use xlink:href="#DejaVuSans-43"/>
     <use xlink:href="#DejaVuSans-50" x="69.824219"/>
     <use xlink:href="#DejaVuSans-55" x="130.126953"/>
     <use xlink:href="#DejaVuSans-20" x="203.320312"/>
     <use xlink:href="#DejaVuSans-74" x="235.107422"/>
     <use xlink:href="#DejaVuSans-69" x="274.316406"/>
     <use xlink:href="#DejaVuSans-6d" x="302.099609"/>
     <use xlink:href="#DejaVuSans-65" x="399.511719"/>
     <use xlink:href="#DejaVuSans-20" x="461.035156"/>
     <use xlink:href="#DejaVuSans-61" x="492.822266"/>
     <use xlink:href="#DejaVuSans-73" x="554.101562"/>
     <use xlink:href="#DejaVuSans-20" x="606.201172"/>
     <use xlink:href="#DejaVuSans-61" x="637.988281"/>
     <use xlink:href="#DejaVuSans-20" x="699.267578"/>
     <use xlink:href="#DejaVuSans-66" x="731.054688"/>
     <use xlink:href="#DejaVuSans-75" x="766.259766"/>
     <use xlink:href="#DejaVuSans-6e" x="829.638672"/>
     <use xlink:href="#DejaVuSans-63" x="893.017578"/>
     <use xlink:href="#DejaVuSans-74" x="947.998047"/>
     <use xlink:href="#DejaVuSans-69" x="987.207031"/>
     <use xlink:href="#DejaVuSans-6f" x="1014.990234"/>
     <use xlink:href="#DejaVuSans-6e" x="1076.171875"/>
     <use xlink:href="#DejaVuSans-20" x="1139.550781"/>
     <use xlink:href="#DejaVuSans-6f" x="1171.337891"/>
     <use xlink:href="#DejaVuSans-66" x="1232.519531"/>
     <use xlink:href="#DejaVuSans-20" x="1267.724609"/>
     <use xlink:href="#DejaVuSans-65" x="1299.511719"/>
     <use xlink:href="#DejaVuSans-72" x="1361.035156"/>
     <use xlink:href="#DejaVuSans-72" x="1400.398438"/>
     <use xlink:href="#DejaVuSans-6f" x="1439.261719"/>
     <use xlink:href="#DejaVuSans-72" x="1500.443359"/>
     <use xlink:href="#DejaVuSans-73" x="1541.556641"/>
    </g>
   </g>
  </g>
  <g id="legend_1">
   <g id="patch_17">
    <path d="M 203.055625 340.27875 
L 797.453125 340.27875 
Q 799.853125 340.27875 799.853125 337.87875 
L 799.853125 286.2375 
Q 799.853125 283.8375 797.453125 283.8375 
L 203.055625 283.8375 
Q 200.655625 283.8375 200.655625 286.2375 
L 200.655625 337.87875 
Q 200.655625 340.27875 203.055625 340.27875 
z
" style="fill: #ffffff; opacity: 0.8; stroke: #cccccc; stroke-linejoin: miter"/>
   </g>
   <g id="line2d_94">
    <path d="M 205.455625 293.555625 
L 217.455625 293.555625 
L 229.455625 293.555625 
" style="fill: none; stroke: #1f77b4; stroke-width: 1.5; stroke-linecap: square"/>
   </g>
   <g id="text_41">
    <!-- Error for 1 hidden units -->
    <g transform="translate(239.055625 297.755625)scale(0.12 -0.12)">
     <defs>
      <path id="DejaVuSans-64" d="M 2906 2969 
L 2906 4863 
L 3481 4863 
L 3481 0 
L 2906 0 
L 2906 525 
Q 2725 213 2448 61 
Q 2172 -91 1784 -91 
Q 1150 -91 751 415 
Q 353 922 353 1747 
Q 353 2572 751 3078 
Q 1150 3584 1784 3584 
Q 2172 3584 2448 3432 
Q 2725 3281 2906 2969 
z
M 947 1747 
Q 947 1113 1208 752 
Q 1469 391 1925 391 
Q 2381 391 2643 752 
Q 2906 1113 2906 1747 
Q 2906 2381 2643 2742 
Q 2381 3103 1925 3103 
Q 1469 3103 1208 2742 
Q 947 2381 947 1747 
z
" transform="scale(0.015625)"/>
     </defs>
     <use xlink:href="#DejaVuSans-45"/>
     <use xlink:href="#DejaVuSans-72" x="63.183594"/>
     <use xlink:href="#DejaVuSans-72" x="102.546875"/>
     <use xlink:href="#DejaVuSans-6f" x="141.410156"/>
     <use xlink:href="#DejaVuSans-72" x="202.591797"/>
     <use xlink:href="#DejaVuSans-20" x="243.705078"/>
     <use xlink:href="#DejaVuSans-66" x="275.492188"/>
     <use xlink:href="#DejaVuSans-6f" x="310.697266"/>
     <use xlink:href="#DejaVuSans-72" x="371.878906"/>
     <use xlink:href="#DejaVuSans-20" x="412.992188"/>
     <use xlink:href="#DejaVuSans-31" x="444.779297"/>
     <use xlink:href="#DejaVuSans-20" x="508.402344"/>
     <use xlink:href="#DejaVuSans-68" x="540.189453"/>
     <use xlink:href="#DejaVuSans-69" x="603.568359"/>
     <use xlink:href="#DejaVuSans-64" x="631.351562"/>
     <use xlink:href="#DejaVuSans-64" x="694.828125"/>
     <use xlink:href="#DejaVuSans-65" x="758.304688"/>
     <use xlink:href="#DejaVuSans-6e" x="819.828125"/>
     <use xlink:href="#DejaVuSans-20" x="883.207031"/>
     <use xlink:href="#DejaVuSans-75" x="914.994141"/>
     <use xlink:href="#DejaVuSans-6e" x="978.373047"/>
     <use xlink:href="#DejaVuSans-69" x="1041.751953"/>
     <use xlink:href="#DejaVuSans-74" x="1069.535156"/>
     <use xlink:href="#DejaVuSans-73" x="1108.744141"/>
    </g>
   </g>
   <g id="line2d_95">
    <path d="M 205.455625 311.169375 
L 217.455625 311.169375 
L 229.455625 311.169375 
" style="fill: none; stroke: #ff7f0e; stroke-width: 1.5; stroke-linecap: square"/>
   </g>
   <g id="text_42">
    <!-- Error for 2 hidden units -->
    <g transform="translate(239.055625 315.369375)scale(0.12 -0.12)">
     <use xlink:href="#DejaVuSans-45"/>
     <use xlink:href="#DejaVuSans-72" x="63.183594"/>
     <use xlink:href="#DejaVuSans-72" x="102.546875"/>
     <use xlink:href="#DejaVuSans-6f" x="141.410156"/>
     <use xlink:href="#DejaVuSans-72" x="202.591797"/>
     <use xlink:href="#DejaVuSans-20" x="243.705078"/>
     <use xlink:href="#DejaVuSans-66" x="275.492188"/>
     <use xlink:href="#DejaVuSans-6f" x="310.697266"/>
     <use xlink:href="#DejaVuSans-72" x="371.878906"/>
     <use xlink:href="#DejaVuSans-20" x="412.992188"/>
     <use xlink:href="#DejaVuSans-32" x="444.779297"/>
     <use xlink:href="#DejaVuSans-20" x="508.402344"/>
     <use xlink:href="#DejaVuSans-68" x="540.189453"/>
     <use xlink:href="#DejaVuSans-69" x="603.568359"/>
     <use xlink:href="#DejaVuSans-64" x="631.351562"/>
     <use xlink:href="#DejaVuSans-64" x="694.828125"/>
     <use xlink:href="#DejaVuSans-65" x="758.304688"/>
     <use xlink:href="#DejaVuSans-6e" x="819.828125"/>
     <use xlink:href="#DejaVuSans-20" x="883.207031"/>
     <use xlink:href="#DejaVuSans-75" x="914.994141"/>
     <use xlink:href="#DejaVuSans-6e" x="978.373047"/>
     <use xlink:href="#DejaVuSans-69" x="1041.751953"/>
     <use xlink:href="#DejaVuSans-74" x="1069.535156"/>
     <use xlink:href="#DejaVuSans-73" x="1108.744141"/>
    </g>
   </g>
   <g id="line2d_96">
    <path d="M 205.455625 328.783125 
L 217.455625 328.783125 
L 229.455625 328.783125 
" style="fill: none; stroke: #2ca02c; stroke-width: 1.5; stroke-linecap: square"/>
   </g>
   <g id="text_43">
    <!-- Error for 4 hidden units -->
    <g transform="translate(239.055625 332.983125)scale(0.12 -0.12)">
     <use xlink:href="#DejaVuSans-45"/>
     <use xlink:href="#DejaVuSans-72" x="63.183594"/>
     <use xlink:href="#DejaVuSans-72" x="102.546875"/>
     <use xlink:href="#DejaVuSans-6f" x="141.410156"/>
     <use xlink:href="#DejaVuSans-72" x="202.591797"/>
     <use xlink:href="#DejaVuSans-20" x="243.705078"/>
     <use xlink:href="#DejaVuSans-66" x="275.492188"/>
     <use xlink:href="#DejaVuSans-6f" x="310.697266"/>
     <use xlink:href="#DejaVuSans-72" x="371.878906"/>
     <use xlink:href="#DejaVuSans-20" x="412.992188"/>
     <use xlink:href="#DejaVuSans-34" x="444.779297"/>
     <use xlink:href="#DejaVuSans-20" x="508.402344"/>
     <use xlink:href="#DejaVuSans-68" x="540.189453"/>
     <use xlink:href="#DejaVuSans-69" x="603.568359"/>
     <use xlink:href="#DejaVuSans-64" x="631.351562"/>
     <use xlink:href="#DejaVuSans-64" x="694.828125"/>
     <use xlink:href="#DejaVuSans-65" x="758.304688"/>
     <use xlink:href="#DejaVuSans-6e" x="819.828125"/>
     <use xlink:href="#DejaVuSans-20" x="883.207031"/>
     <use xlink:href="#DejaVuSans-75" x="914.994141"/>
     <use xlink:href="#DejaVuSans-6e" x="978.373047"/>
     <use xlink:href="#DejaVuSans-69" x="1041.751953"/>
     <use xlink:href="#DejaVuSans-74" x="1069.535156"/>
     <use xlink:href="#DejaVuSans-73" x="1108.744141"/>
    </g>
   </g>
   <g id="line2d_97">
    <path d="M 402.353125 293.555625 
L 414.353125 293.555625 
L 426.353125 293.555625 
" style="fill: none; stroke: #d62728; stroke-width: 1.5; stroke-linecap: square"/>
   </g>
   <g id="text_44">
    <!-- Error for 8 hidden units -->
    <g transform="translate(435.953125 297.755625)scale(0.12 -0.12)">
     <use xlink:href="#DejaVuSans-45"/>
     <use xlink:href="#DejaVuSans-72" x="63.183594"/>
     <use xlink:href="#DejaVuSans-72" x="102.546875"/>
     <use xlink:href="#DejaVuSans-6f" x="141.410156"/>
     <use xlink:href="#DejaVuSans-72" x="202.591797"/>
     <use xlink:href="#DejaVuSans-20" x="243.705078"/>
     <use xlink:href="#DejaVuSans-66" x="275.492188"/>
     <use xlink:href="#DejaVuSans-6f" x="310.697266"/>
     <use xlink:href="#DejaVuSans-72" x="371.878906"/>
     <use xlink:href="#DejaVuSans-20" x="412.992188"/>
     <use xlink:href="#DejaVuSans-38" x="444.779297"/>
     <use xlink:href="#DejaVuSans-20" x="508.402344"/>
     <use xlink:href="#DejaVuSans-68" x="540.189453"/>
     <use xlink:href="#DejaVuSans-69" x="603.568359"/>
     <use xlink:href="#DejaVuSans-64" x="631.351562"/>
     <use xlink:href="#DejaVuSans-64" x="694.828125"/>
     <use xlink:href="#DejaVuSans-65" x="758.304688"/>
     <use xlink:href="#DejaVuSans-6e" x="819.828125"/>
     <use xlink:href="#DejaVuSans-20" x="883.207031"/>
     <use xlink:href="#DejaVuSans-75" x="914.994141"/>
     <use xlink:href="#DejaVuSans-6e" x="978.373047"/>
     <use xlink:href="#DejaVuSans-69" x="1041.751953"/>
     <use xlink:href="#DejaVuSans-74" x="1069.535156"/>
     <use xlink:href="#DejaVuSans-73" x="1108.744141"/>
    </g>
   </g>
   <g id="line2d_98">
    <path d="M 402.353125 311.169375 
L 414.353125 311.169375 
L 426.353125 311.169375 
" style="fill: none; stroke: #9467bd; stroke-width: 1.5; stroke-linecap: square"/>
   </g>
   <g id="text_45">
    <!-- Error for 16 hidden units -->
    <g transform="translate(435.953125 315.369375)scale(0.12 -0.12)">
     <use xlink:href="#DejaVuSans-45"/>
     <use xlink:href="#DejaVuSans-72" x="63.183594"/>
     <use xlink:href="#DejaVuSans-72" x="102.546875"/>
     <use xlink:href="#DejaVuSans-6f" x="141.410156"/>
     <use xlink:href="#DejaVuSans-72" x="202.591797"/>
     <use xlink:href="#DejaVuSans-20" x="243.705078"/>
     <use xlink:href="#DejaVuSans-66" x="275.492188"/>
     <use xlink:href="#DejaVuSans-6f" x="310.697266"/>
     <use xlink:href="#DejaVuSans-72" x="371.878906"/>
     <use xlink:href="#DejaVuSans-20" x="412.992188"/>
     <use xlink:href="#DejaVuSans-31" x="444.779297"/>
     <use xlink:href="#DejaVuSans-36" x="508.402344"/>
     <use xlink:href="#DejaVuSans-20" x="572.025391"/>
     <use xlink:href="#DejaVuSans-68" x="603.8125"/>
     <use xlink:href="#DejaVuSans-69" x="667.191406"/>
     <use xlink:href="#DejaVuSans-64" x="694.974609"/>
     <use xlink:href="#DejaVuSans-64" x="758.451172"/>
     <use xlink:href="#DejaVuSans-65" x="821.927734"/>
     <use xlink:href="#DejaVuSans-6e" x="883.451172"/>
     <use xlink:href="#DejaVuSans-20" x="946.830078"/>
     <use xlink:href="#DejaVuSans-75" x="978.617188"/>
     <use xlink:href="#DejaVuSans-6e" x="1041.996094"/>
     <use xlink:href="#DejaVuSans-69" x="1105.375"/>
     <use xlink:href="#DejaVuSans-74" x="1133.158203"/>
     <use xlink:href="#DejaVuSans-73" x="1172.367188"/>
    </g>
   </g>
   <g id="line2d_99">
    <path d="M 402.353125 328.783125 
L 414.353125 328.783125 
L 426.353125 328.783125 
" style="fill: none; stroke: #8c564b; stroke-width: 1.5; stroke-linecap: square"/>
   </g>
   <g id="text_46">
    <!-- Error for 32 hidden units -->
    <g transform="translate(435.953125 332.983125)scale(0.12 -0.12)">
     <defs>
      <path id="DejaVuSans-33" d="M 2597 2516 
Q 3050 2419 3304 2112 
Q 3559 1806 3559 1356 
Q 3559 666 3084 287 
Q 2609 -91 1734 -91 
Q 1441 -91 1130 -33 
Q 819 25 488 141 
L 488 750 
Q 750 597 1062 519 
Q 1375 441 1716 441 
Q 2309 441 2620 675 
Q 2931 909 2931 1356 
Q 2931 1769 2642 2001 
Q 2353 2234 1838 2234 
L 1294 2234 
L 1294 2753 
L 1863 2753 
Q 2328 2753 2575 2939 
Q 2822 3125 2822 3475 
Q 2822 3834 2567 4026 
Q 2313 4219 1838 4219 
Q 1578 4219 1281 4162 
Q 984 4106 628 3988 
L 628 4550 
Q 988 4650 1302 4700 
Q 1616 4750 1894 4750 
Q 2613 4750 3031 4423 
Q 3450 4097 3450 3541 
Q 3450 3153 3228 2886 
Q 3006 2619 2597 2516 
z
" transform="scale(0.015625)"/>
     </defs>
     <use xlink:href="#DejaVuSans-45"/>
     <use xlink:href="#DejaVuSans-72" x="63.183594"/>
     <use xlink:href="#DejaVuSans-72" x="102.546875"/>
     <use xlink:href="#DejaVuSans-6f" x="141.410156"/>
     <use xlink:href="#DejaVuSans-72" x="202.591797"/>
     <use xlink:href="#DejaVuSans-20" x="243.705078"/>
     <use xlink:href="#DejaVuSans-66" x="275.492188"/>
     <use xlink:href="#DejaVuSans-6f" x="310.697266"/>
     <use xlink:href="#DejaVuSans-72" x="371.878906"/>
     <use xlink:href="#DejaVuSans-20" x="412.992188"/>
     <use xlink:href="#DejaVuSans-33" x="444.779297"/>
     <use xlink:href="#DejaVuSans-32" x="508.402344"/>
     <use xlink:href="#DejaVuSans-20" x="572.025391"/>
     <use xlink:href="#DejaVuSans-68" x="603.8125"/>
     <use xlink:href="#DejaVuSans-69" x="667.191406"/>
     <use xlink:href="#DejaVuSans-64" x="694.974609"/>
     <use xlink:href="#DejaVuSans-64" x="758.451172"/>
     <use xlink:href="#DejaVuSans-65" x="821.927734"/>
     <use xlink:href="#DejaVuSans-6e" x="883.451172"/>
     <use xlink:href="#DejaVuSans-20" x="946.830078"/>
     <use xlink:href="#DejaVuSans-75" x="978.617188"/>
     <use xlink:href="#DejaVuSans-6e" x="1041.996094"/>
     <use xlink:href="#DejaVuSans-69" x="1105.375"/>
     <use xlink:href="#DejaVuSans-74" x="1133.158203"/>
     <use xlink:href="#DejaVuSans-73" x="1172.367188"/>
    </g>
   </g>
   <g id="line2d_100">
    <path d="M 606.885625 293.555625 
L 618.885625 293.555625 
L 630.885625 293.555625 
" style="fill: none; stroke: #e377c2; stroke-width: 1.5; stroke-linecap: square"/>
   </g>
   <g id="text_47">
    <!-- Error for 64 hidden units -->
    <g transform="translate(640.485625 297.755625)scale(0.12 -0.12)">
     <use xlink:href="#DejaVuSans-45"/>
     <use xlink:href="#DejaVuSans-72" x="63.183594"/>
     <use xlink:href="#DejaVuSans-72" x="102.546875"/>
     <use xlink:href="#DejaVuSans-6f" x="141.410156"/>
     <use xlink:href="#DejaVuSans-72" x="202.591797"/>
     <use xlink:href="#DejaVuSans-20" x="243.705078"/>
     <use xlink:href="#DejaVuSans-66" x="275.492188"/>
     <use xlink:href="#DejaVuSans-6f" x="310.697266"/>
     <use xlink:href="#DejaVuSans-72" x="371.878906"/>
     <use xlink:href="#DejaVuSans-20" x="412.992188"/>
     <use xlink:href="#DejaVuSans-36" x="444.779297"/>
     <use xlink:href="#DejaVuSans-34" x="508.402344"/>
     <use xlink:href="#DejaVuSans-20" x="572.025391"/>
     <use xlink:href="#DejaVuSans-68" x="603.8125"/>
     <use xlink:href="#DejaVuSans-69" x="667.191406"/>
     <use xlink:href="#DejaVuSans-64" x="694.974609"/>
     <use xlink:href="#DejaVuSans-64" x="758.451172"/>
     <use xlink:href="#DejaVuSans-65" x="821.927734"/>
     <use xlink:href="#DejaVuSans-6e" x="883.451172"/>
     <use xlink:href="#DejaVuSans-20" x="946.830078"/>
     <use xlink:href="#DejaVuSans-75" x="978.617188"/>
     <use xlink:href="#DejaVuSans-6e" x="1041.996094"/>
     <use xlink:href="#DejaVuSans-69" x="1105.375"/>
     <use xlink:href="#DejaVuSans-74" x="1133.158203"/>
     <use xlink:href="#DejaVuSans-73" x="1172.367188"/>
    </g>
   </g>
   <g id="line2d_101">
    <path d="M 606.885625 311.169375 
L 618.885625 311.169375 
L 630.885625 311.169375 
" style="fill: none; stroke: #7f7f7f; stroke-width: 1.5; stroke-linecap: square"/>
   </g>
   <g id="text_48">
    <!-- Error for 128 hidden units -->
    <g transform="translate(640.485625 315.369375)scale(0.12 -0.12)">
     <use xlink:href="#DejaVuSans-45"/>
     <use xlink:href="#DejaVuSans-72" x="63.183594"/>
     <use xlink:href="#DejaVuSans-72" x="102.546875"/>
     <use xlink:href="#DejaVuSans-6f" x="141.410156"/>
     <use xlink:href="#DejaVuSans-72" x="202.591797"/>
     <use xlink:href="#DejaVuSans-20" x="243.705078"/>
     <use xlink:href="#DejaVuSans-66" x="275.492188"/>
     <use xlink:href="#DejaVuSans-6f" x="310.697266"/>
     <use xlink:href="#DejaVuSans-72" x="371.878906"/>
     <use xlink:href="#DejaVuSans-20" x="412.992188"/>
     <use xlink:href="#DejaVuSans-31" x="444.779297"/>
     <use xlink:href="#DejaVuSans-32" x="508.402344"/>
     <use xlink:href="#DejaVuSans-38" x="572.025391"/>
     <use xlink:href="#DejaVuSans-20" x="635.648438"/>
     <use xlink:href="#DejaVuSans-68" x="667.435547"/>
     <use xlink:href="#DejaVuSans-69" x="730.814453"/>
     <use xlink:href="#DejaVuSans-64" x="758.597656"/>
     <use xlink:href="#DejaVuSans-64" x="822.074219"/>
     <use xlink:href="#DejaVuSans-65" x="885.550781"/>
     <use xlink:href="#DejaVuSans-6e" x="947.074219"/>
     <use xlink:href="#DejaVuSans-20" x="1010.453125"/>
     <use xlink:href="#DejaVuSans-75" x="1042.240234"/>
     <use xlink:href="#DejaVuSans-6e" x="1105.619141"/>
     <use xlink:href="#DejaVuSans-69" x="1168.998047"/>
     <use xlink:href="#DejaVuSans-74" x="1196.78125"/>
     <use xlink:href="#DejaVuSans-73" x="1235.990234"/>
    </g>
   </g>
  </g>
 </g>
 <defs>
  <clipPath id="p2cbc9d0788">
   <rect x="39.384375" y="25.3575" width="271.035011" height="202.528"/>
  </clipPath>
  <clipPath id="p6664d6150a">
   <rect x="377.469622" y="25.3575" width="271.035011" height="202.528"/>
  </clipPath>
  <clipPath id="p8dfbf6db16">
   <rect x="715.55487" y="25.3575" width="271.035011" height="202.528"/>
  </clipPath>
 </defs>
</svg>
