<?xml version="1.0" encoding="utf-8" standalone="no"?>
<!DOCTYPE svg PUBLIC "-//W3C//DTD SVG 1.1//EN"
  "http://www.w3.org/Graphics/SVG/1.1/DTD/svg11.dtd">
<svg xmlns:xlink="http://www.w3.org/1999/xlink" width="460.8pt" height="345.6pt" viewBox="0 0 460.8 345.6" xmlns="http://www.w3.org/2000/svg" version="1.1">
 <metadata>
  <rdf:RDF xmlns:dc="http://purl.org/dc/elements/1.1/" xmlns:cc="http://creativecommons.org/ns#" xmlns:rdf="http://www.w3.org/1999/02/22-rdf-syntax-ns#">
   <cc:Work>
    <dc:type rdf:resource="http://purl.org/dc/dcmitype/StillImage"/>
    <dc:date>2024-06-14T19:26:22.827340</dc:date>
    <dc:format>image/svg+xml</dc:format>
    <dc:creator>
     <cc:Agent>
      <dc:title>Matplotlib v3.5.3, https://matplotlib.org/</dc:title>
     </cc:Agent>
    </dc:creator>
   </cc:Work>
  </rdf:RDF>
 </metadata>
 <defs>
  <style type="text/css">*{stroke-linejoin: round; stroke-linecap: butt}</style>
 </defs>
 <g id="figure_1">
  <g id="patch_1">
   <path d="M 0 345.6 
L 460.8 345.6 
L 460.8 0 
L 0 0 
z
" style="fill: #ffffff"/>
  </g>
  <g id="axes_1">
   <g id="patch_2">
    <path d="M 46.08 165.973333 
L 154.88 165.973333 
L 154.88 110.506667 
L 46.08 110.506667 
z
" style="fill: #ffffff"/>
   </g>
   <g id="matplotlib.axis_1">
    <g id="xtick_1">
     <g id="line2d_1">
      <defs>
       <path id="m3cac14cc4a" d="M 0 0 
L 0 3.5 
" style="stroke: #000000; stroke-width: 0.8"/>
      </defs>
      <g>
       <use xlink:href="#m3cac14cc4a" x="47.146667" y="165.973333" style="stroke: #000000; stroke-width: 0.8"/>
      </g>
     </g>
     <g id="text_1">
      <!-- −5 -->
      <g transform="translate(39.775573 180.571771)scale(0.1 -0.1)">
       <defs>
        <path id="DejaVuSans-2212" d="M 678 2272 
L 4684 2272 
L 4684 1741 
L 678 1741 
L 678 2272 
z
" transform="scale(0.015625)"/>
        <path id="DejaVuSans-35" d="M 691 4666 
L 3169 4666 
L 3169 4134 
L 1269 4134 
L 1269 2991 
Q 1406 3038 1543 3061 
Q 1681 3084 1819 3084 
Q 2600 3084 3056 2656 
Q 3513 2228 3513 1497 
Q 3513 744 3044 326 
Q 2575 -91 1722 -91 
Q 1428 -91 1123 -41 
Q 819 9 494 109 
L 494 744 
Q 775 591 1075 516 
Q 1375 441 1709 441 
Q 2250 441 2565 725 
Q 2881 1009 2881 1497 
Q 2881 1984 2565 2268 
Q 2250 2553 1709 2553 
Q 1456 2553 1204 2497 
Q 953 2441 691 2322 
L 691 4666 
z
" transform="scale(0.015625)"/>
       </defs>
       <use xlink:href="#DejaVuSans-2212"/>
       <use xlink:href="#DejaVuSans-35" x="83.789062"/>
      </g>
     </g>
    </g>
    <g id="xtick_2">
     <g id="line2d_2">
      <g>
       <use xlink:href="#m3cac14cc4a" x="100.48" y="165.973333" style="stroke: #000000; stroke-width: 0.8"/>
      </g>
     </g>
     <g id="text_2">
      <!-- 0 -->
      <g transform="translate(97.29875 180.571771)scale(0.1 -0.1)">
       <defs>
        <path id="DejaVuSans-30" d="M 2034 4250 
Q 1547 4250 1301 3770 
Q 1056 3291 1056 2328 
Q 1056 1369 1301 889 
Q 1547 409 2034 409 
Q 2525 409 2770 889 
Q 3016 1369 3016 2328 
Q 3016 3291 2770 3770 
Q 2525 4250 2034 4250 
z
M 2034 4750 
Q 2819 4750 3233 4129 
Q 3647 3509 3647 2328 
Q 3647 1150 3233 529 
Q 2819 -91 2034 -91 
Q 1250 -91 836 529 
Q 422 1150 422 2328 
Q 422 3509 836 4129 
Q 1250 4750 2034 4750 
z
" transform="scale(0.015625)"/>
       </defs>
       <use xlink:href="#DejaVuSans-30"/>
      </g>
     </g>
    </g>
    <g id="xtick_3">
     <g id="line2d_3">
      <g>
       <use xlink:href="#m3cac14cc4a" x="153.813333" y="165.973333" style="stroke: #000000; stroke-width: 0.8"/>
      </g>
     </g>
     <g id="text_3">
      <!-- 5 -->
      <g transform="translate(150.632083 180.571771)scale(0.1 -0.1)">
       <use xlink:href="#DejaVuSans-35"/>
      </g>
     </g>
    </g>
    <g id="text_4">
     <!-- $x$ -->
     <g transform="translate(97.48 194.249896)scale(0.1 -0.1)">
      <defs>
       <path id="DejaVuSans-Oblique-78" d="M 3841 3500 
L 2234 1784 
L 3219 0 
L 2559 0 
L 1819 1388 
L 531 0 
L -166 0 
L 1556 1844 
L 641 3500 
L 1300 3500 
L 1972 2234 
L 3144 3500 
L 3841 3500 
z
" transform="scale(0.015625)"/>
      </defs>
      <use xlink:href="#DejaVuSans-Oblique-78" transform="translate(0 0.3125)"/>
     </g>
    </g>
   </g>
   <g id="matplotlib.axis_2">
    <g id="ytick_1">
     <g id="line2d_4">
      <defs>
       <path id="mddf3cb4c53" d="M 0 0 
L -3.5 0 
" style="stroke: #000000; stroke-width: 0.8"/>
      </defs>
      <g>
       <use xlink:href="#mddf3cb4c53" x="46.08" y="164.906667" style="stroke: #000000; stroke-width: 0.8"/>
      </g>
     </g>
     <g id="text_5">
      <!-- 0 -->
      <g transform="translate(32.7175 168.705885)scale(0.1 -0.1)">
       <use xlink:href="#DejaVuSans-30"/>
      </g>
     </g>
    </g>
    <g id="ytick_2">
     <g id="line2d_5">
      <g>
       <use xlink:href="#mddf3cb4c53" x="46.08" y="111.573333" style="stroke: #000000; stroke-width: 0.8"/>
      </g>
     </g>
     <g id="text_6">
      <!-- 5 -->
      <g transform="translate(32.7175 115.372552)scale(0.1 -0.1)">
       <use xlink:href="#DejaVuSans-35"/>
      </g>
     </g>
    </g>
    <g id="text_7">
     <!-- $|h(t,x)|$ -->
     <g transform="translate(26.3175 156.19)rotate(-90)scale(0.1 -0.1)">
      <defs>
       <path id="DejaVuSans-7c" d="M 1344 4891 
L 1344 -1509 
L 813 -1509 
L 813 4891 
L 1344 4891 
z
" transform="scale(0.015625)"/>
       <path id="DejaVuSans-Oblique-68" d="M 3566 2113 
L 3156 0 
L 2578 0 
L 2988 2091 
Q 3016 2238 3031 2350 
Q 3047 2463 3047 2528 
Q 3047 2791 2881 2937 
Q 2716 3084 2419 3084 
Q 1956 3084 1617 2771 
Q 1278 2459 1178 1941 
L 800 0 
L 225 0 
L 1172 4863 
L 1747 4863 
L 1375 2950 
Q 1594 3244 1934 3414 
Q 2275 3584 2650 3584 
Q 3113 3584 3367 3334 
Q 3622 3084 3622 2631 
Q 3622 2519 3608 2391 
Q 3594 2263 3566 2113 
z
" transform="scale(0.015625)"/>
       <path id="DejaVuSans-28" d="M 1984 4856 
Q 1566 4138 1362 3434 
Q 1159 2731 1159 2009 
Q 1159 1288 1364 580 
Q 1569 -128 1984 -844 
L 1484 -844 
Q 1016 -109 783 600 
Q 550 1309 550 2009 
Q 550 2706 781 3412 
Q 1013 4119 1484 4856 
L 1984 4856 
z
" transform="scale(0.015625)"/>
       <path id="DejaVuSans-Oblique-74" d="M 2706 3500 
L 2619 3053 
L 1472 3053 
L 1100 1153 
Q 1081 1047 1072 975 
Q 1063 903 1063 863 
Q 1063 663 1183 572 
Q 1303 481 1569 481 
L 2150 481 
L 2053 0 
L 1503 0 
Q 991 0 739 200 
Q 488 400 488 806 
Q 488 878 497 964 
Q 506 1050 525 1153 
L 897 3053 
L 409 3053 
L 500 3500 
L 978 3500 
L 1172 4494 
L 1747 4494 
L 1556 3500 
L 2706 3500 
z
" transform="scale(0.015625)"/>
       <path id="DejaVuSans-2c" d="M 750 794 
L 1409 794 
L 1409 256 
L 897 -744 
L 494 -744 
L 750 256 
L 750 794 
z
" transform="scale(0.015625)"/>
       <path id="DejaVuSans-29" d="M 513 4856 
L 1013 4856 
Q 1481 4119 1714 3412 
Q 1947 2706 1947 2009 
Q 1947 1309 1714 600 
Q 1481 -109 1013 -844 
L 513 -844 
Q 928 -128 1133 580 
Q 1338 1288 1338 2009 
Q 1338 2731 1133 3434 
Q 928 4138 513 4856 
z
" transform="scale(0.015625)"/>
      </defs>
      <use xlink:href="#DejaVuSans-7c" transform="translate(0 0.578125)"/>
      <use xlink:href="#DejaVuSans-Oblique-68" transform="translate(33.691406 0.578125)"/>
      <use xlink:href="#DejaVuSans-28" transform="translate(97.070312 0.578125)"/>
      <use xlink:href="#DejaVuSans-Oblique-74" transform="translate(136.083984 0.578125)"/>
      <use xlink:href="#DejaVuSans-2c" transform="translate(175.292969 0.578125)"/>
      <use xlink:href="#DejaVuSans-Oblique-78" transform="translate(226.5625 0.578125)"/>
      <use xlink:href="#DejaVuSans-29" transform="translate(285.742188 0.578125)"/>
      <use xlink:href="#DejaVuSans-7c" transform="translate(324.755859 0.578125)"/>
     </g>
    </g>
   </g>
   <g id="line2d_6">
    <path d="M 47.146667 164.467837 
L 53.813333 164.36174 
L 59.23 164.055127 
L 63.813333 163.569956 
L 67.98 162.901933 
L 72.146667 161.983796 
L 75.48 161.031913 
L 78.813333 159.865427 
L 85.48 157.428 
L 87.146667 157.075608 
L 88.813333 156.930471 
L 91.73 156.779994 
L 92.563333 156.431759 
L 93.396667 155.668661 
L 94.23 154.281969 
L 95.063333 152.107409 
L 95.896667 149.062134 
L 96.73 145.178705 
L 99.23 132.017459 
L 99.646667 130.578688 
L 100.063333 129.665646 
L 100.48 129.353214 
L 100.896667 129.665646 
L 101.313333 130.578688 
L 101.73 132.017459 
L 102.563333 136.012967 
L 104.646667 147.21677 
L 105.48 150.694994 
L 106.313333 153.30074 
L 107.146667 155.065185 
L 107.98 156.116035 
L 108.813333 156.645974 
L 109.646667 156.857586 
L 111.313333 156.916387 
L 113.396667 157.019608 
L 115.063333 157.322069 
L 117.146667 157.94825 
L 121.313333 159.544111 
L 125.063333 160.898689 
L 128.813333 161.983796 
L 132.563333 162.820268 
L 136.313333 163.452917 
L 140.48 163.947378 
L 145.48 164.291614 
L 151.313333 164.456239 
L 153.396667 164.467505 
L 153.396667 164.467505 
" clip-path="url(#p972db908a7)" style="fill: none; stroke: #0000ff; stroke-width: 2; stroke-linecap: square"/>
   </g>
   <g id="line2d_7">
    <path d="M 47.146667 164.447246 
L 54.114842 164.315049 
L 59.474972 164.002638 
L 64.299097 163.491652 
L 68.05119 162.892069 
L 71.803283 162.067264 
L 75.019363 161.150276 
L 78.771458 159.838206 
L 84.667604 157.675912 
L 86.811659 157.160343 
L 88.4197 156.974809 
L 91.63578 156.758571 
L 92.171793 156.562006 
L 92.707806 156.228501 
L 93.243819 155.70834 
L 93.779833 154.951602 
L 94.315846 153.914174 
L 94.851859 152.562735 
L 95.923886 148.856678 
L 96.995913 143.903052 
L 99.139967 133.137204 
L 99.67598 131.372868 
L 100.211994 130.429133 
L 100.748007 130.431048 
L 101.284021 131.37839 
L 101.820034 133.144943 
L 102.89206 138.251276 
L 104.5001 146.527416 
L 105.572127 150.881638 
L 106.644154 153.906791 
L 107.180167 154.937114 
L 107.716181 155.687015 
L 108.252194 156.20143 
L 108.788207 156.530497 
L 109.860234 156.825663 
L 112.004288 156.912692 
L 114.148343 157.125604 
L 116.292394 157.639892 
L 118.972462 158.565782 
L 125.940635 161.125803 
L 129.156717 162.042025 
L 132.90881 162.85838 
L 137.196919 163.52359 
L 142.021039 164.01603 
L 147.381174 164.318984 
L 153.277318 164.420398 
L 153.813333 164.419782 
L 153.813333 164.419782 
" clip-path="url(#p972db908a7)" style="fill: none; stroke-dasharray: 7.4,3.2; stroke-dashoffset: 0; stroke: #ff0000; stroke-width: 2"/>
   </g>
   <g id="patch_3">
    <path d="M 46.08 165.973333 
L 46.08 110.506667 
" style="fill: none; stroke: #000000; stroke-width: 0.8; stroke-linejoin: miter; stroke-linecap: square"/>
   </g>
   <g id="patch_4">
    <path d="M 154.88 165.973333 
L 154.88 110.506667 
" style="fill: none; stroke: #000000; stroke-width: 0.8; stroke-linejoin: miter; stroke-linecap: square"/>
   </g>
   <g id="patch_5">
    <path d="M 46.08 165.973333 
L 154.88 165.973333 
" style="fill: none; stroke: #000000; stroke-width: 0.8; stroke-linejoin: miter; stroke-linecap: square"/>
   </g>
   <g id="patch_6">
    <path d="M 46.08 110.506667 
L 154.88 110.506667 
" style="fill: none; stroke: #000000; stroke-width: 0.8; stroke-linejoin: miter; stroke-linecap: square"/>
   </g>
   <g id="text_8">
    <!-- $t = 0.59$ -->
    <g transform="translate(81.48 104.506667)scale(0.1 -0.1)">
     <defs>
      <path id="DejaVuSans-3d" d="M 678 2906 
L 4684 2906 
L 4684 2381 
L 678 2381 
L 678 2906 
z
M 678 1631 
L 4684 1631 
L 4684 1100 
L 678 1100 
L 678 1631 
z
" transform="scale(0.015625)"/>
      <path id="DejaVuSans-2e" d="M 684 794 
L 1344 794 
L 1344 0 
L 684 0 
L 684 794 
z
" transform="scale(0.015625)"/>
      <path id="DejaVuSans-39" d="M 703 97 
L 703 672 
Q 941 559 1184 500 
Q 1428 441 1663 441 
Q 2288 441 2617 861 
Q 2947 1281 2994 2138 
Q 2813 1869 2534 1725 
Q 2256 1581 1919 1581 
Q 1219 1581 811 2004 
Q 403 2428 403 3163 
Q 403 3881 828 4315 
Q 1253 4750 1959 4750 
Q 2769 4750 3195 4129 
Q 3622 3509 3622 2328 
Q 3622 1225 3098 567 
Q 2575 -91 1691 -91 
Q 1453 -91 1209 -44 
Q 966 3 703 97 
z
M 1959 2075 
Q 2384 2075 2632 2365 
Q 2881 2656 2881 3163 
Q 2881 3666 2632 3958 
Q 2384 4250 1959 4250 
Q 1534 4250 1286 3958 
Q 1038 3666 1038 3163 
Q 1038 2656 1286 2365 
Q 1534 2075 1959 2075 
z
" transform="scale(0.015625)"/>
     </defs>
     <use xlink:href="#DejaVuSans-Oblique-74" transform="translate(0 0.78125)"/>
     <use xlink:href="#DejaVuSans-3d" transform="translate(58.691406 0.78125)"/>
     <use xlink:href="#DejaVuSans-30" transform="translate(161.962891 0.78125)"/>
     <use xlink:href="#DejaVuSans-2e" transform="translate(225.585938 0.78125)"/>
     <use xlink:href="#DejaVuSans-35" transform="translate(257.373047 0.78125)"/>
     <use xlink:href="#DejaVuSans-39" transform="translate(315.496094 0.78125)"/>
    </g>
   </g>
  </g>
  <g id="axes_2">
   <g id="patch_7">
    <path d="M 187.52 165.973333 
L 296.32 165.973333 
L 296.32 110.506667 
L 187.52 110.506667 
z
" style="fill: #ffffff"/>
   </g>
   <g id="matplotlib.axis_3">
    <g id="xtick_4">
     <g id="line2d_8">
      <g>
       <use xlink:href="#m3cac14cc4a" x="188.586667" y="165.973333" style="stroke: #000000; stroke-width: 0.8"/>
      </g>
     </g>
     <g id="text_9">
      <!-- −5 -->
      <g transform="translate(181.215573 180.571771)scale(0.1 -0.1)">
       <use xlink:href="#DejaVuSans-2212"/>
       <use xlink:href="#DejaVuSans-35" x="83.789062"/>
      </g>
     </g>
    </g>
    <g id="xtick_5">
     <g id="line2d_9">
      <g>
       <use xlink:href="#m3cac14cc4a" x="241.92" y="165.973333" style="stroke: #000000; stroke-width: 0.8"/>
      </g>
     </g>
     <g id="text_10">
      <!-- 0 -->
      <g transform="translate(238.73875 180.571771)scale(0.1 -0.1)">
       <use xlink:href="#DejaVuSans-30"/>
      </g>
     </g>
    </g>
    <g id="xtick_6">
     <g id="line2d_10">
      <g>
       <use xlink:href="#m3cac14cc4a" x="295.253333" y="165.973333" style="stroke: #000000; stroke-width: 0.8"/>
      </g>
     </g>
     <g id="text_11">
      <!-- 5 -->
      <g transform="translate(292.072083 180.571771)scale(0.1 -0.1)">
       <use xlink:href="#DejaVuSans-35"/>
      </g>
     </g>
    </g>
    <g id="text_12">
     <!-- $x$ -->
     <g transform="translate(238.92 194.249896)scale(0.1 -0.1)">
      <use xlink:href="#DejaVuSans-Oblique-78" transform="translate(0 0.3125)"/>
     </g>
    </g>
   </g>
   <g id="matplotlib.axis_4">
    <g id="ytick_3">
     <g id="line2d_11">
      <g>
       <use xlink:href="#mddf3cb4c53" x="187.52" y="164.906667" style="stroke: #000000; stroke-width: 0.8"/>
      </g>
     </g>
     <g id="text_13">
      <!-- 0 -->
      <g transform="translate(174.1575 168.705885)scale(0.1 -0.1)">
       <use xlink:href="#DejaVuSans-30"/>
      </g>
     </g>
    </g>
    <g id="ytick_4">
     <g id="line2d_12">
      <g>
       <use xlink:href="#mddf3cb4c53" x="187.52" y="111.573333" style="stroke: #000000; stroke-width: 0.8"/>
      </g>
     </g>
     <g id="text_14">
      <!-- 5 -->
      <g transform="translate(174.1575 115.372552)scale(0.1 -0.1)">
       <use xlink:href="#DejaVuSans-35"/>
      </g>
     </g>
    </g>
   </g>
   <g id="line2d_13">
    <path d="M 188.586667 164.444925 
L 195.67 164.323926 
L 201.503333 163.984651 
L 206.086667 163.477963 
L 209.836667 162.847933 
L 213.586667 162.002232 
L 217.336667 160.910077 
L 226.503333 158.032158 
L 227.753333 157.92158 
L 229.003333 158.01559 
L 229.836667 158.235016 
L 230.67 158.618394 
L 231.503333 159.200934 
L 232.336667 160.032408 
L 233.17 161.173093 
L 234.003333 162.706731 
L 234.836667 164.736193 
L 235.253333 163.837403 
L 236.086667 160.801033 
L 236.92 156.862128 
L 237.753333 151.820616 
L 238.586667 145.553286 
L 241.086667 124.620655 
L 241.503333 122.864034 
L 241.92 122.253245 
L 242.336667 122.864034 
L 242.753333 124.620655 
L 243.586667 130.67028 
L 245.67 148.840594 
L 246.503333 154.490306 
L 247.336667 158.957188 
L 248.17 162.41923 
L 248.586667 163.837403 
L 249.003333 164.736193 
L 249.836667 162.706731 
L 250.67 161.173093 
L 251.503333 160.032408 
L 252.336667 159.200934 
L 253.17 158.618394 
L 254.003333 158.235016 
L 255.253333 157.957435 
L 256.503333 157.938347 
L 258.17 158.191659 
L 260.253333 158.778803 
L 271.086667 162.213582 
L 274.836667 163.007465 
L 278.586667 163.587384 
L 283.17 164.051949 
L 288.586667 164.339864 
L 294.836667 164.444166 
L 294.836667 164.444166 
" clip-path="url(#pa266c238a8)" style="fill: none; stroke: #0000ff; stroke-width: 2; stroke-linecap: square"/>
   </g>
   <g id="line2d_14">
    <path d="M 188.586667 164.430852 
L 195.554842 164.302967 
L 200.914972 163.999077 
L 205.739097 163.499855 
L 209.49119 162.909564 
L 213.243283 162.091593 
L 216.995376 161.014481 
L 222.355513 159.161911 
L 225.035578 158.350997 
L 226.643619 158.053862 
L 228.251659 158.021916 
L 229.323685 158.218049 
L 230.395713 158.652585 
L 231.467739 159.397149 
L 232.539766 160.544761 
L 233.611793 162.219542 
L 234.683819 164.4423 
L 235.219833 163.555405 
L 236.291859 159.603495 
L 237.363886 154.094771 
L 238.435913 146.724058 
L 241.11598 125.305585 
L 241.651994 123.457033 
L 242.188007 123.463221 
L 242.724021 125.322934 
L 243.260034 128.685002 
L 246.476114 154.136664 
L 247.54814 159.644016 
L 248.620167 163.585964 
L 249.156181 164.394974 
L 250.228207 162.179399 
L 251.300234 160.510959 
L 252.372262 159.367733 
L 253.444288 158.624409 
L 254.516315 158.188087 
L 255.588343 157.988935 
L 256.660369 157.972212 
L 258.268408 158.193953 
L 260.412462 158.773946 
L 271.13273 162.185065 
L 274.884823 162.96542 
L 279.172932 163.596838 
L 283.997052 164.054406 
L 289.357185 164.324702 
L 295.253333 164.40428 
L 295.253333 164.40428 
" clip-path="url(#pa266c238a8)" style="fill: none; stroke-dasharray: 7.4,3.2; stroke-dashoffset: 0; stroke: #ff0000; stroke-width: 2"/>
   </g>
   <g id="patch_8">
    <path d="M 187.52 165.973333 
L 187.52 110.506667 
" style="fill: none; stroke: #000000; stroke-width: 0.8; stroke-linejoin: miter; stroke-linecap: square"/>
   </g>
   <g id="patch_9">
    <path d="M 296.32 165.973333 
L 296.32 110.506667 
" style="fill: none; stroke: #000000; stroke-width: 0.8; stroke-linejoin: miter; stroke-linecap: square"/>
   </g>
   <g id="patch_10">
    <path d="M 187.52 165.973333 
L 296.32 165.973333 
" style="fill: none; stroke: #000000; stroke-width: 0.8; stroke-linejoin: miter; stroke-linecap: square"/>
   </g>
   <g id="patch_11">
    <path d="M 187.52 110.506667 
L 296.32 110.506667 
" style="fill: none; stroke: #000000; stroke-width: 0.8; stroke-linejoin: miter; stroke-linecap: square"/>
   </g>
   <g id="text_15">
    <!-- $t = 0.79$ -->
    <g transform="translate(223.07 104.506667)scale(0.1 -0.1)">
     <defs>
      <path id="DejaVuSans-37" d="M 525 4666 
L 3525 4666 
L 3525 4397 
L 1831 0 
L 1172 0 
L 2766 4134 
L 525 4134 
L 525 4666 
z
" transform="scale(0.015625)"/>
     </defs>
     <use xlink:href="#DejaVuSans-Oblique-74" transform="translate(0 0.78125)"/>
     <use xlink:href="#DejaVuSans-3d" transform="translate(58.691406 0.78125)"/>
     <use xlink:href="#DejaVuSans-30" transform="translate(161.962891 0.78125)"/>
     <use xlink:href="#DejaVuSans-2e" transform="translate(225.585938 0.78125)"/>
     <use xlink:href="#DejaVuSans-37" transform="translate(249.623047 0.78125)"/>
     <use xlink:href="#DejaVuSans-39" transform="translate(313.246094 0.78125)"/>
    </g>
   </g>
   <g id="legend_1">
    <g id="line2d_15">
     <path d="M 165.191094 223.445104 
L 175.191094 223.445104 
L 185.191094 223.445104 
" style="fill: none; stroke: #0000ff; stroke-width: 2; stroke-linecap: square"/>
    </g>
    <g id="text_16">
     <!-- Exact -->
     <g transform="translate(193.191094 226.945104)scale(0.1 -0.1)">
      <defs>
       <path id="DejaVuSans-45" d="M 628 4666 
L 3578 4666 
L 3578 4134 
L 1259 4134 
L 1259 2753 
L 3481 2753 
L 3481 2222 
L 1259 2222 
L 1259 531 
L 3634 531 
L 3634 0 
L 628 0 
L 628 4666 
z
" transform="scale(0.015625)"/>
       <path id="DejaVuSans-78" d="M 3513 3500 
L 2247 1797 
L 3578 0 
L 2900 0 
L 1881 1375 
L 863 0 
L 184 0 
L 1544 1831 
L 300 3500 
L 978 3500 
L 1906 2253 
L 2834 3500 
L 3513 3500 
z
" transform="scale(0.015625)"/>
       <path id="DejaVuSans-61" d="M 2194 1759 
Q 1497 1759 1228 1600 
Q 959 1441 959 1056 
Q 959 750 1161 570 
Q 1363 391 1709 391 
Q 2188 391 2477 730 
Q 2766 1069 2766 1631 
L 2766 1759 
L 2194 1759 
z
M 3341 1997 
L 3341 0 
L 2766 0 
L 2766 531 
Q 2569 213 2275 61 
Q 1981 -91 1556 -91 
Q 1019 -91 701 211 
Q 384 513 384 1019 
Q 384 1609 779 1909 
Q 1175 2209 1959 2209 
L 2766 2209 
L 2766 2266 
Q 2766 2663 2505 2880 
Q 2244 3097 1772 3097 
Q 1472 3097 1187 3025 
Q 903 2953 641 2809 
L 641 3341 
Q 956 3463 1253 3523 
Q 1550 3584 1831 3584 
Q 2591 3584 2966 3190 
Q 3341 2797 3341 1997 
z
" transform="scale(0.015625)"/>
       <path id="DejaVuSans-63" d="M 3122 3366 
L 3122 2828 
Q 2878 2963 2633 3030 
Q 2388 3097 2138 3097 
Q 1578 3097 1268 2742 
Q 959 2388 959 1747 
Q 959 1106 1268 751 
Q 1578 397 2138 397 
Q 2388 397 2633 464 
Q 2878 531 3122 666 
L 3122 134 
Q 2881 22 2623 -34 
Q 2366 -91 2075 -91 
Q 1284 -91 818 406 
Q 353 903 353 1747 
Q 353 2603 823 3093 
Q 1294 3584 2113 3584 
Q 2378 3584 2631 3529 
Q 2884 3475 3122 3366 
z
" transform="scale(0.015625)"/>
       <path id="DejaVuSans-74" d="M 1172 4494 
L 1172 3500 
L 2356 3500 
L 2356 3053 
L 1172 3053 
L 1172 1153 
Q 1172 725 1289 603 
Q 1406 481 1766 481 
L 2356 481 
L 2356 0 
L 1766 0 
Q 1100 0 847 248 
Q 594 497 594 1153 
L 594 3053 
L 172 3053 
L 172 3500 
L 594 3500 
L 594 4494 
L 1172 4494 
z
" transform="scale(0.015625)"/>
      </defs>
      <use xlink:href="#DejaVuSans-45"/>
      <use xlink:href="#DejaVuSans-78" x="63.183594"/>
      <use xlink:href="#DejaVuSans-61" x="122.363281"/>
      <use xlink:href="#DejaVuSans-63" x="183.642578"/>
      <use xlink:href="#DejaVuSans-74" x="238.623047"/>
     </g>
    </g>
    <g id="line2d_16">
     <path d="M 240.975469 223.445104 
L 250.975469 223.445104 
L 260.975469 223.445104 
" style="fill: none; stroke-dasharray: 7.4,3.2; stroke-dashoffset: 0; stroke: #ff0000; stroke-width: 2"/>
    </g>
    <g id="text_17">
     <!-- Prediction -->
     <g transform="translate(268.975469 226.945104)scale(0.1 -0.1)">
      <defs>
       <path id="DejaVuSans-50" d="M 1259 4147 
L 1259 2394 
L 2053 2394 
Q 2494 2394 2734 2622 
Q 2975 2850 2975 3272 
Q 2975 3691 2734 3919 
Q 2494 4147 2053 4147 
L 1259 4147 
z
M 628 4666 
L 2053 4666 
Q 2838 4666 3239 4311 
Q 3641 3956 3641 3272 
Q 3641 2581 3239 2228 
Q 2838 1875 2053 1875 
L 1259 1875 
L 1259 0 
L 628 0 
L 628 4666 
z
" transform="scale(0.015625)"/>
       <path id="DejaVuSans-72" d="M 2631 2963 
Q 2534 3019 2420 3045 
Q 2306 3072 2169 3072 
Q 1681 3072 1420 2755 
Q 1159 2438 1159 1844 
L 1159 0 
L 581 0 
L 581 3500 
L 1159 3500 
L 1159 2956 
Q 1341 3275 1631 3429 
Q 1922 3584 2338 3584 
Q 2397 3584 2469 3576 
Q 2541 3569 2628 3553 
L 2631 2963 
z
" transform="scale(0.015625)"/>
       <path id="DejaVuSans-65" d="M 3597 1894 
L 3597 1613 
L 953 1613 
Q 991 1019 1311 708 
Q 1631 397 2203 397 
Q 2534 397 2845 478 
Q 3156 559 3463 722 
L 3463 178 
Q 3153 47 2828 -22 
Q 2503 -91 2169 -91 
Q 1331 -91 842 396 
Q 353 884 353 1716 
Q 353 2575 817 3079 
Q 1281 3584 2069 3584 
Q 2775 3584 3186 3129 
Q 3597 2675 3597 1894 
z
M 3022 2063 
Q 3016 2534 2758 2815 
Q 2500 3097 2075 3097 
Q 1594 3097 1305 2825 
Q 1016 2553 972 2059 
L 3022 2063 
z
" transform="scale(0.015625)"/>
       <path id="DejaVuSans-64" d="M 2906 2969 
L 2906 4863 
L 3481 4863 
L 3481 0 
L 2906 0 
L 2906 525 
Q 2725 213 2448 61 
Q 2172 -91 1784 -91 
Q 1150 -91 751 415 
Q 353 922 353 1747 
Q 353 2572 751 3078 
Q 1150 3584 1784 3584 
Q 2172 3584 2448 3432 
Q 2725 3281 2906 2969 
z
M 947 1747 
Q 947 1113 1208 752 
Q 1469 391 1925 391 
Q 2381 391 2643 752 
Q 2906 1113 2906 1747 
Q 2906 2381 2643 2742 
Q 2381 3103 1925 3103 
Q 1469 3103 1208 2742 
Q 947 2381 947 1747 
z
" transform="scale(0.015625)"/>
       <path id="DejaVuSans-69" d="M 603 3500 
L 1178 3500 
L 1178 0 
L 603 0 
L 603 3500 
z
M 603 4863 
L 1178 4863 
L 1178 4134 
L 603 4134 
L 603 4863 
z
" transform="scale(0.015625)"/>
       <path id="DejaVuSans-6f" d="M 1959 3097 
Q 1497 3097 1228 2736 
Q 959 2375 959 1747 
Q 959 1119 1226 758 
Q 1494 397 1959 397 
Q 2419 397 2687 759 
Q 2956 1122 2956 1747 
Q 2956 2369 2687 2733 
Q 2419 3097 1959 3097 
z
M 1959 3584 
Q 2709 3584 3137 3096 
Q 3566 2609 3566 1747 
Q 3566 888 3137 398 
Q 2709 -91 1959 -91 
Q 1206 -91 779 398 
Q 353 888 353 1747 
Q 353 2609 779 3096 
Q 1206 3584 1959 3584 
z
" transform="scale(0.015625)"/>
       <path id="DejaVuSans-6e" d="M 3513 2113 
L 3513 0 
L 2938 0 
L 2938 2094 
Q 2938 2591 2744 2837 
Q 2550 3084 2163 3084 
Q 1697 3084 1428 2787 
Q 1159 2491 1159 1978 
L 1159 0 
L 581 0 
L 581 3500 
L 1159 3500 
L 1159 2956 
Q 1366 3272 1645 3428 
Q 1925 3584 2291 3584 
Q 2894 3584 3203 3211 
Q 3513 2838 3513 2113 
z
" transform="scale(0.015625)"/>
      </defs>
      <use xlink:href="#DejaVuSans-50"/>
      <use xlink:href="#DejaVuSans-72" x="58.552734"/>
      <use xlink:href="#DejaVuSans-65" x="97.416016"/>
      <use xlink:href="#DejaVuSans-64" x="158.939453"/>
      <use xlink:href="#DejaVuSans-69" x="222.416016"/>
      <use xlink:href="#DejaVuSans-63" x="250.199219"/>
      <use xlink:href="#DejaVuSans-74" x="305.179688"/>
      <use xlink:href="#DejaVuSans-69" x="344.388672"/>
      <use xlink:href="#DejaVuSans-6f" x="372.171875"/>
      <use xlink:href="#DejaVuSans-6e" x="433.353516"/>
     </g>
    </g>
   </g>
  </g>
  <g id="axes_3">
   <g id="patch_12">
    <path d="M 328.96 165.973333 
L 437.76 165.973333 
L 437.76 110.506667 
L 328.96 110.506667 
z
" style="fill: #ffffff"/>
   </g>
   <g id="matplotlib.axis_5">
    <g id="xtick_7">
     <g id="line2d_17">
      <g>
       <use xlink:href="#m3cac14cc4a" x="330.026667" y="165.973333" style="stroke: #000000; stroke-width: 0.8"/>
      </g>
     </g>
     <g id="text_18">
      <!-- −5 -->
      <g transform="translate(322.655573 180.571771)scale(0.1 -0.1)">
       <use xlink:href="#DejaVuSans-2212"/>
       <use xlink:href="#DejaVuSans-35" x="83.789062"/>
      </g>
     </g>
    </g>
    <g id="xtick_8">
     <g id="line2d_18">
      <g>
       <use xlink:href="#m3cac14cc4a" x="383.36" y="165.973333" style="stroke: #000000; stroke-width: 0.8"/>
      </g>
     </g>
     <g id="text_19">
      <!-- 0 -->
      <g transform="translate(380.17875 180.571771)scale(0.1 -0.1)">
       <use xlink:href="#DejaVuSans-30"/>
      </g>
     </g>
    </g>
    <g id="xtick_9">
     <g id="line2d_19">
      <g>
       <use xlink:href="#m3cac14cc4a" x="436.693333" y="165.973333" style="stroke: #000000; stroke-width: 0.8"/>
      </g>
     </g>
     <g id="text_20">
      <!-- 5 -->
      <g transform="translate(433.512083 180.571771)scale(0.1 -0.1)">
       <use xlink:href="#DejaVuSans-35"/>
      </g>
     </g>
    </g>
    <g id="text_21">
     <!-- $x$ -->
     <g transform="translate(380.36 194.249896)scale(0.1 -0.1)">
      <use xlink:href="#DejaVuSans-Oblique-78" transform="translate(0 0.3125)"/>
     </g>
    </g>
   </g>
   <g id="matplotlib.axis_6">
    <g id="ytick_5">
     <g id="line2d_20">
      <g>
       <use xlink:href="#mddf3cb4c53" x="328.96" y="164.906667" style="stroke: #000000; stroke-width: 0.8"/>
      </g>
     </g>
     <g id="text_22">
      <!-- 0 -->
      <g transform="translate(315.5975 168.705885)scale(0.1 -0.1)">
       <use xlink:href="#DejaVuSans-30"/>
      </g>
     </g>
    </g>
    <g id="ytick_6">
     <g id="line2d_21">
      <g>
       <use xlink:href="#mddf3cb4c53" x="328.96" y="111.573333" style="stroke: #000000; stroke-width: 0.8"/>
      </g>
     </g>
     <g id="text_23">
      <!-- 5 -->
      <g transform="translate(315.5975 115.372552)scale(0.1 -0.1)">
       <use xlink:href="#DejaVuSans-35"/>
      </g>
     </g>
    </g>
   </g>
   <g id="line2d_22">
    <path d="M 330.026667 164.421796 
L 337.11 164.304223 
L 342.526667 164.004681 
L 347.11 163.539582 
L 350.86 162.943352 
L 354.193333 162.226535 
L 357.526667 161.284211 
L 361.276667 159.989837 
L 368.36 157.443904 
L 370.026667 157.08851 
L 371.693333 156.934619 
L 374.61 156.775699 
L 375.443333 156.42751 
L 376.276667 155.662827 
L 377.11 154.279684 
L 377.943333 152.110409 
L 378.776667 149.070363 
L 379.61 145.192142 
L 382.11 132.009418 
L 382.526667 130.565253 
L 382.943333 129.647051 
L 383.36 129.331234 
L 383.776667 129.647051 
L 384.193333 130.565253 
L 384.61 132.009418 
L 385.443333 136.018932 
L 387.526667 147.228194 
L 388.36 150.700985 
L 389.193333 153.300092 
L 390.026667 155.061415 
L 390.86 156.109861 
L 391.693333 156.640658 
L 392.526667 156.854447 
L 394.193333 156.92198 
L 396.276667 157.030754 
L 397.943333 157.337895 
L 400.026667 157.949281 
L 403.776667 159.359974 
L 408.36 161.015379 
L 411.693333 162.011391 
L 415.026667 162.784092 
L 418.776667 163.425283 
L 422.526667 163.863281 
L 427.526667 164.213864 
L 432.526667 164.378097 
L 436.276667 164.421195 
L 436.276667 164.421195 
" clip-path="url(#p9d05ae17eb)" style="fill: none; stroke: #0000ff; stroke-width: 2; stroke-linecap: square"/>
   </g>
   <g id="line2d_23">
    <path d="M 330.026667 164.412168 
L 336.994842 164.290524 
L 342.354972 163.995941 
L 347.179097 163.504201 
L 350.93119 162.914513 
L 354.683283 162.08782 
L 357.899363 161.158537 
L 361.651458 159.833199 
L 367.011591 157.91399 
L 369.155645 157.433321 
L 370.763685 157.300464 
L 372.371726 157.386331 
L 374.51578 157.543115 
L 375.051793 157.440411 
L 375.587806 157.191158 
L 376.123819 156.734351 
L 376.659833 156.009068 
L 377.195846 154.963375 
L 377.731859 153.560366 
L 378.803886 149.618466 
L 379.875913 144.248012 
L 382.019967 132.275149 
L 382.55598 130.271392 
L 383.091994 129.194274 
L 383.628007 129.196406 
L 384.164021 130.278203 
L 384.700034 132.286936 
L 385.77206 138.023272 
L 387.3801 147.117808 
L 388.452127 151.797055 
L 389.524154 154.970625 
L 390.060167 156.011873 
L 390.596181 156.732727 
L 391.132194 157.184881 
L 391.668207 157.429425 
L 392.740234 157.533439 
L 396.492328 157.289492 
L 398.100369 157.497714 
L 400.244421 158.05369 
L 403.460502 159.196313 
L 408.820635 161.117078 
L 412.036717 162.044966 
L 415.78881 162.873975 
L 419.540903 163.469038 
L 423.829012 163.928137 
L 429.189147 164.255266 
L 435.085291 164.384561 
L 436.693333 164.388151 
L 436.693333 164.388151 
" clip-path="url(#p9d05ae17eb)" style="fill: none; stroke-dasharray: 7.4,3.2; stroke-dashoffset: 0; stroke: #ff0000; stroke-width: 2"/>
   </g>
   <g id="patch_13">
    <path d="M 328.96 165.973333 
L 328.96 110.506667 
" style="fill: none; stroke: #000000; stroke-width: 0.8; stroke-linejoin: miter; stroke-linecap: square"/>
   </g>
   <g id="patch_14">
    <path d="M 437.76 165.973333 
L 437.76 110.506667 
" style="fill: none; stroke: #000000; stroke-width: 0.8; stroke-linejoin: miter; stroke-linecap: square"/>
   </g>
   <g id="patch_15">
    <path d="M 328.96 165.973333 
L 437.76 165.973333 
" style="fill: none; stroke: #000000; stroke-width: 0.8; stroke-linejoin: miter; stroke-linecap: square"/>
   </g>
   <g id="patch_16">
    <path d="M 328.96 110.506667 
L 437.76 110.506667 
" style="fill: none; stroke: #000000; stroke-width: 0.8; stroke-linejoin: miter; stroke-linecap: square"/>
   </g>
   <g id="text_24">
    <!-- $t = 0.98$ -->
    <g transform="translate(364.11 104.506667)scale(0.1 -0.1)">
     <defs>
      <path id="DejaVuSans-38" d="M 2034 2216 
Q 1584 2216 1326 1975 
Q 1069 1734 1069 1313 
Q 1069 891 1326 650 
Q 1584 409 2034 409 
Q 2484 409 2743 651 
Q 3003 894 3003 1313 
Q 3003 1734 2745 1975 
Q 2488 2216 2034 2216 
z
M 1403 2484 
Q 997 2584 770 2862 
Q 544 3141 544 3541 
Q 544 4100 942 4425 
Q 1341 4750 2034 4750 
Q 2731 4750 3128 4425 
Q 3525 4100 3525 3541 
Q 3525 3141 3298 2862 
Q 3072 2584 2669 2484 
Q 3125 2378 3379 2068 
Q 3634 1759 3634 1313 
Q 3634 634 3220 271 
Q 2806 -91 2034 -91 
Q 1263 -91 848 271 
Q 434 634 434 1313 
Q 434 1759 690 2068 
Q 947 2378 1403 2484 
z
M 1172 3481 
Q 1172 3119 1398 2916 
Q 1625 2713 2034 2713 
Q 2441 2713 2670 2916 
Q 2900 3119 2900 3481 
Q 2900 3844 2670 4047 
Q 2441 4250 2034 4250 
Q 1625 4250 1398 4047 
Q 1172 3844 1172 3481 
z
" transform="scale(0.015625)"/>
     </defs>
     <use xlink:href="#DejaVuSans-Oblique-74" transform="translate(0 0.78125)"/>
     <use xlink:href="#DejaVuSans-3d" transform="translate(58.691406 0.78125)"/>
     <use xlink:href="#DejaVuSans-30" transform="translate(161.962891 0.78125)"/>
     <use xlink:href="#DejaVuSans-2e" transform="translate(225.585938 0.78125)"/>
     <use xlink:href="#DejaVuSans-39" transform="translate(257.373047 0.78125)"/>
     <use xlink:href="#DejaVuSans-38" transform="translate(320.996094 0.78125)"/>
    </g>
   </g>
  </g>
  <g id="legend_2">
   <g id="line2d_24">
    <path style="fill: none; stroke: #0000ff; stroke-width: 2; stroke-linecap: square"/>
   </g>
   <g id="text_25">
    <!-- [&lt;matplotlib.lines.Line2D object at 0x72192f7734d0&gt;, &lt;matplotlib.lines.Line2D object at 0x72192f7485d0&gt;] -->
    <g transform="translate(-106.294531 327.638437)scale(0.1 -0.1)">
     <defs>
      <path id="DejaVuSans-5b" d="M 550 4863 
L 1875 4863 
L 1875 4416 
L 1125 4416 
L 1125 -397 
L 1875 -397 
L 1875 -844 
L 550 -844 
L 550 4863 
z
" transform="scale(0.015625)"/>
      <path id="DejaVuSans-3c" d="M 4684 3150 
L 1459 2003 
L 4684 863 
L 4684 294 
L 678 1747 
L 678 2266 
L 4684 3719 
L 4684 3150 
z
" transform="scale(0.015625)"/>
      <path id="DejaVuSans-6d" d="M 3328 2828 
Q 3544 3216 3844 3400 
Q 4144 3584 4550 3584 
Q 5097 3584 5394 3201 
Q 5691 2819 5691 2113 
L 5691 0 
L 5113 0 
L 5113 2094 
Q 5113 2597 4934 2840 
Q 4756 3084 4391 3084 
Q 3944 3084 3684 2787 
Q 3425 2491 3425 1978 
L 3425 0 
L 2847 0 
L 2847 2094 
Q 2847 2600 2669 2842 
Q 2491 3084 2119 3084 
Q 1678 3084 1418 2786 
Q 1159 2488 1159 1978 
L 1159 0 
L 581 0 
L 581 3500 
L 1159 3500 
L 1159 2956 
Q 1356 3278 1631 3431 
Q 1906 3584 2284 3584 
Q 2666 3584 2933 3390 
Q 3200 3197 3328 2828 
z
" transform="scale(0.015625)"/>
      <path id="DejaVuSans-70" d="M 1159 525 
L 1159 -1331 
L 581 -1331 
L 581 3500 
L 1159 3500 
L 1159 2969 
Q 1341 3281 1617 3432 
Q 1894 3584 2278 3584 
Q 2916 3584 3314 3078 
Q 3713 2572 3713 1747 
Q 3713 922 3314 415 
Q 2916 -91 2278 -91 
Q 1894 -91 1617 61 
Q 1341 213 1159 525 
z
M 3116 1747 
Q 3116 2381 2855 2742 
Q 2594 3103 2138 3103 
Q 1681 3103 1420 2742 
Q 1159 2381 1159 1747 
Q 1159 1113 1420 752 
Q 1681 391 2138 391 
Q 2594 391 2855 752 
Q 3116 1113 3116 1747 
z
" transform="scale(0.015625)"/>
      <path id="DejaVuSans-6c" d="M 603 4863 
L 1178 4863 
L 1178 0 
L 603 0 
L 603 4863 
z
" transform="scale(0.015625)"/>
      <path id="DejaVuSans-62" d="M 3116 1747 
Q 3116 2381 2855 2742 
Q 2594 3103 2138 3103 
Q 1681 3103 1420 2742 
Q 1159 2381 1159 1747 
Q 1159 1113 1420 752 
Q 1681 391 2138 391 
Q 2594 391 2855 752 
Q 3116 1113 3116 1747 
z
M 1159 2969 
Q 1341 3281 1617 3432 
Q 1894 3584 2278 3584 
Q 2916 3584 3314 3078 
Q 3713 2572 3713 1747 
Q 3713 922 3314 415 
Q 2916 -91 2278 -91 
Q 1894 -91 1617 61 
Q 1341 213 1159 525 
L 1159 0 
L 581 0 
L 581 4863 
L 1159 4863 
L 1159 2969 
z
" transform="scale(0.015625)"/>
      <path id="DejaVuSans-73" d="M 2834 3397 
L 2834 2853 
Q 2591 2978 2328 3040 
Q 2066 3103 1784 3103 
Q 1356 3103 1142 2972 
Q 928 2841 928 2578 
Q 928 2378 1081 2264 
Q 1234 2150 1697 2047 
L 1894 2003 
Q 2506 1872 2764 1633 
Q 3022 1394 3022 966 
Q 3022 478 2636 193 
Q 2250 -91 1575 -91 
Q 1294 -91 989 -36 
Q 684 19 347 128 
L 347 722 
Q 666 556 975 473 
Q 1284 391 1588 391 
Q 1994 391 2212 530 
Q 2431 669 2431 922 
Q 2431 1156 2273 1281 
Q 2116 1406 1581 1522 
L 1381 1569 
Q 847 1681 609 1914 
Q 372 2147 372 2553 
Q 372 3047 722 3315 
Q 1072 3584 1716 3584 
Q 2034 3584 2315 3537 
Q 2597 3491 2834 3397 
z
" transform="scale(0.015625)"/>
      <path id="DejaVuSans-4c" d="M 628 4666 
L 1259 4666 
L 1259 531 
L 3531 531 
L 3531 0 
L 628 0 
L 628 4666 
z
" transform="scale(0.015625)"/>
      <path id="DejaVuSans-32" d="M 1228 531 
L 3431 531 
L 3431 0 
L 469 0 
L 469 531 
Q 828 903 1448 1529 
Q 2069 2156 2228 2338 
Q 2531 2678 2651 2914 
Q 2772 3150 2772 3378 
Q 2772 3750 2511 3984 
Q 2250 4219 1831 4219 
Q 1534 4219 1204 4116 
Q 875 4013 500 3803 
L 500 4441 
Q 881 4594 1212 4672 
Q 1544 4750 1819 4750 
Q 2544 4750 2975 4387 
Q 3406 4025 3406 3419 
Q 3406 3131 3298 2873 
Q 3191 2616 2906 2266 
Q 2828 2175 2409 1742 
Q 1991 1309 1228 531 
z
" transform="scale(0.015625)"/>
      <path id="DejaVuSans-44" d="M 1259 4147 
L 1259 519 
L 2022 519 
Q 2988 519 3436 956 
Q 3884 1394 3884 2338 
Q 3884 3275 3436 3711 
Q 2988 4147 2022 4147 
L 1259 4147 
z
M 628 4666 
L 1925 4666 
Q 3281 4666 3915 4102 
Q 4550 3538 4550 2338 
Q 4550 1131 3912 565 
Q 3275 0 1925 0 
L 628 0 
L 628 4666 
z
" transform="scale(0.015625)"/>
      <path id="DejaVuSans-20" transform="scale(0.015625)"/>
      <path id="DejaVuSans-6a" d="M 603 3500 
L 1178 3500 
L 1178 -63 
Q 1178 -731 923 -1031 
Q 669 -1331 103 -1331 
L -116 -1331 
L -116 -844 
L 38 -844 
Q 366 -844 484 -692 
Q 603 -541 603 -63 
L 603 3500 
z
M 603 4863 
L 1178 4863 
L 1178 4134 
L 603 4134 
L 603 4863 
z
" transform="scale(0.015625)"/>
      <path id="DejaVuSans-31" d="M 794 531 
L 1825 531 
L 1825 4091 
L 703 3866 
L 703 4441 
L 1819 4666 
L 2450 4666 
L 2450 531 
L 3481 531 
L 3481 0 
L 794 0 
L 794 531 
z
" transform="scale(0.015625)"/>
      <path id="DejaVuSans-66" d="M 2375 4863 
L 2375 4384 
L 1825 4384 
Q 1516 4384 1395 4259 
Q 1275 4134 1275 3809 
L 1275 3500 
L 2222 3500 
L 2222 3053 
L 1275 3053 
L 1275 0 
L 697 0 
L 697 3053 
L 147 3053 
L 147 3500 
L 697 3500 
L 697 3744 
Q 697 4328 969 4595 
Q 1241 4863 1831 4863 
L 2375 4863 
z
" transform="scale(0.015625)"/>
      <path id="DejaVuSans-33" d="M 2597 2516 
Q 3050 2419 3304 2112 
Q 3559 1806 3559 1356 
Q 3559 666 3084 287 
Q 2609 -91 1734 -91 
Q 1441 -91 1130 -33 
Q 819 25 488 141 
L 488 750 
Q 750 597 1062 519 
Q 1375 441 1716 441 
Q 2309 441 2620 675 
Q 2931 909 2931 1356 
Q 2931 1769 2642 2001 
Q 2353 2234 1838 2234 
L 1294 2234 
L 1294 2753 
L 1863 2753 
Q 2328 2753 2575 2939 
Q 2822 3125 2822 3475 
Q 2822 3834 2567 4026 
Q 2313 4219 1838 4219 
Q 1578 4219 1281 4162 
Q 984 4106 628 3988 
L 628 4550 
Q 988 4650 1302 4700 
Q 1616 4750 1894 4750 
Q 2613 4750 3031 4423 
Q 3450 4097 3450 3541 
Q 3450 3153 3228 2886 
Q 3006 2619 2597 2516 
z
" transform="scale(0.015625)"/>
      <path id="DejaVuSans-34" d="M 2419 4116 
L 825 1625 
L 2419 1625 
L 2419 4116 
z
M 2253 4666 
L 3047 4666 
L 3047 1625 
L 3713 1625 
L 3713 1100 
L 3047 1100 
L 3047 0 
L 2419 0 
L 2419 1100 
L 313 1100 
L 313 1709 
L 2253 4666 
z
" transform="scale(0.015625)"/>
      <path id="DejaVuSans-3e" d="M 678 3150 
L 678 3719 
L 4684 2266 
L 4684 1747 
L 678 294 
L 678 863 
L 3897 2003 
L 678 3150 
z
" transform="scale(0.015625)"/>
      <path id="DejaVuSans-5d" d="M 1947 4863 
L 1947 -844 
L 622 -844 
L 622 -397 
L 1369 -397 
L 1369 4416 
L 622 4416 
L 622 4863 
L 1947 4863 
z
" transform="scale(0.015625)"/>
     </defs>
     <use xlink:href="#DejaVuSans-5b"/>
     <use xlink:href="#DejaVuSans-3c" x="39.013672"/>
     <use xlink:href="#DejaVuSans-6d" x="122.802734"/>
     <use xlink:href="#DejaVuSans-61" x="220.214844"/>
     <use xlink:href="#DejaVuSans-74" x="281.494141"/>
     <use xlink:href="#DejaVuSans-70" x="320.703125"/>
     <use xlink:href="#DejaVuSans-6c" x="384.179688"/>
     <use xlink:href="#DejaVuSans-6f" x="411.962891"/>
     <use xlink:href="#DejaVuSans-74" x="473.144531"/>
     <use xlink:href="#DejaVuSans-6c" x="512.353516"/>
     <use xlink:href="#DejaVuSans-69" x="540.136719"/>
     <use xlink:href="#DejaVuSans-62" x="567.919922"/>
     <use xlink:href="#DejaVuSans-2e" x="631.396484"/>
     <use xlink:href="#DejaVuSans-6c" x="663.183594"/>
     <use xlink:href="#DejaVuSans-69" x="690.966797"/>
     <use xlink:href="#DejaVuSans-6e" x="718.75"/>
     <use xlink:href="#DejaVuSans-65" x="782.128906"/>
     <use xlink:href="#DejaVuSans-73" x="843.652344"/>
     <use xlink:href="#DejaVuSans-2e" x="895.751953"/>
     <use xlink:href="#DejaVuSans-4c" x="927.539062"/>
     <use xlink:href="#DejaVuSans-69" x="983.251953"/>
     <use xlink:href="#DejaVuSans-6e" x="1011.035156"/>
     <use xlink:href="#DejaVuSans-65" x="1074.414062"/>
     <use xlink:href="#DejaVuSans-32" x="1135.9375"/>
     <use xlink:href="#DejaVuSans-44" x="1199.560547"/>
     <use xlink:href="#DejaVuSans-20" x="1276.5625"/>
     <use xlink:href="#DejaVuSans-6f" x="1308.349609"/>
     <use xlink:href="#DejaVuSans-62" x="1369.53125"/>
     <use xlink:href="#DejaVuSans-6a" x="1433.007812"/>
     <use xlink:href="#DejaVuSans-65" x="1460.791016"/>
     <use xlink:href="#DejaVuSans-63" x="1522.314453"/>
     <use xlink:href="#DejaVuSans-74" x="1577.294922"/>
     <use xlink:href="#DejaVuSans-20" x="1616.503906"/>
     <use xlink:href="#DejaVuSans-61" x="1648.291016"/>
     <use xlink:href="#DejaVuSans-74" x="1709.570312"/>
     <use xlink:href="#DejaVuSans-20" x="1748.779297"/>
     <use xlink:href="#DejaVuSans-30" x="1780.566406"/>
     <use xlink:href="#DejaVuSans-78" x="1844.189453"/>
     <use xlink:href="#DejaVuSans-37" x="1903.369141"/>
     <use xlink:href="#DejaVuSans-32" x="1966.992188"/>
     <use xlink:href="#DejaVuSans-31" x="2030.615234"/>
     <use xlink:href="#DejaVuSans-39" x="2094.238281"/>
     <use xlink:href="#DejaVuSans-32" x="2157.861328"/>
     <use xlink:href="#DejaVuSans-66" x="2221.484375"/>
     <use xlink:href="#DejaVuSans-37" x="2256.689453"/>
     <use xlink:href="#DejaVuSans-37" x="2320.3125"/>
     <use xlink:href="#DejaVuSans-33" x="2383.935547"/>
     <use xlink:href="#DejaVuSans-34" x="2447.558594"/>
     <use xlink:href="#DejaVuSans-64" x="2511.181641"/>
     <use xlink:href="#DejaVuSans-30" x="2574.658203"/>
     <use xlink:href="#DejaVuSans-3e" x="2638.28125"/>
     <use xlink:href="#DejaVuSans-2c" x="2722.070312"/>
     <use xlink:href="#DejaVuSans-20" x="2753.857422"/>
     <use xlink:href="#DejaVuSans-3c" x="2785.644531"/>
     <use xlink:href="#DejaVuSans-6d" x="2869.433594"/>
     <use xlink:href="#DejaVuSans-61" x="2966.845703"/>
     <use xlink:href="#DejaVuSans-74" x="3028.125"/>
     <use xlink:href="#DejaVuSans-70" x="3067.333984"/>
     <use xlink:href="#DejaVuSans-6c" x="3130.810547"/>
     <use xlink:href="#DejaVuSans-6f" x="3158.59375"/>
     <use xlink:href="#DejaVuSans-74" x="3219.775391"/>
     <use xlink:href="#DejaVuSans-6c" x="3258.984375"/>
     <use xlink:href="#DejaVuSans-69" x="3286.767578"/>
     <use xlink:href="#DejaVuSans-62" x="3314.550781"/>
     <use xlink:href="#DejaVuSans-2e" x="3378.027344"/>
     <use xlink:href="#DejaVuSans-6c" x="3409.814453"/>
     <use xlink:href="#DejaVuSans-69" x="3437.597656"/>
     <use xlink:href="#DejaVuSans-6e" x="3465.380859"/>
     <use xlink:href="#DejaVuSans-65" x="3528.759766"/>
     <use xlink:href="#DejaVuSans-73" x="3590.283203"/>
     <use xlink:href="#DejaVuSans-2e" x="3642.382812"/>
     <use xlink:href="#DejaVuSans-4c" x="3674.169922"/>
     <use xlink:href="#DejaVuSans-69" x="3729.882812"/>
     <use xlink:href="#DejaVuSans-6e" x="3757.666016"/>
     <use xlink:href="#DejaVuSans-65" x="3821.044922"/>
     <use xlink:href="#DejaVuSans-32" x="3882.568359"/>
     <use xlink:href="#DejaVuSans-44" x="3946.191406"/>
     <use xlink:href="#DejaVuSans-20" x="4023.193359"/>
     <use xlink:href="#DejaVuSans-6f" x="4054.980469"/>
     <use xlink:href="#DejaVuSans-62" x="4116.162109"/>
     <use xlink:href="#DejaVuSans-6a" x="4179.638672"/>
     <use xlink:href="#DejaVuSans-65" x="4207.421875"/>
     <use xlink:href="#DejaVuSans-63" x="4268.945312"/>
     <use xlink:href="#DejaVuSans-74" x="4323.925781"/>
     <use xlink:href="#DejaVuSans-20" x="4363.134766"/>
     <use xlink:href="#DejaVuSans-61" x="4394.921875"/>
     <use xlink:href="#DejaVuSans-74" x="4456.201172"/>
     <use xlink:href="#DejaVuSans-20" x="4495.410156"/>
     <use xlink:href="#DejaVuSans-30" x="4527.197266"/>
     <use xlink:href="#DejaVuSans-78" x="4590.820312"/>
     <use xlink:href="#DejaVuSans-37" x="4650"/>
     <use xlink:href="#DejaVuSans-32" x="4713.623047"/>
     <use xlink:href="#DejaVuSans-31" x="4777.246094"/>
     <use xlink:href="#DejaVuSans-39" x="4840.869141"/>
     <use xlink:href="#DejaVuSans-32" x="4904.492188"/>
     <use xlink:href="#DejaVuSans-66" x="4968.115234"/>
     <use xlink:href="#DejaVuSans-37" x="5003.320312"/>
     <use xlink:href="#DejaVuSans-34" x="5066.943359"/>
     <use xlink:href="#DejaVuSans-38" x="5130.566406"/>
     <use xlink:href="#DejaVuSans-35" x="5194.189453"/>
     <use xlink:href="#DejaVuSans-64" x="5257.8125"/>
     <use xlink:href="#DejaVuSans-30" x="5321.289062"/>
     <use xlink:href="#DejaVuSans-3e" x="5384.912109"/>
     <use xlink:href="#DejaVuSans-5d" x="5468.701172"/>
    </g>
   </g>
   <g id="line2d_25">
    <path style="fill: none; stroke-dasharray: 7.4,3.2; stroke-dashoffset: 0; stroke: #ff0000; stroke-width: 2"/>
   </g>
   <g id="text_26">
    <!-- ['Exact', 'Prediction'] -->
    <g transform="translate(492.483594 327.638437)scale(0.1 -0.1)">
     <defs>
      <path id="DejaVuSans-27" d="M 1147 4666 
L 1147 2931 
L 616 2931 
L 616 4666 
L 1147 4666 
z
" transform="scale(0.015625)"/>
     </defs>
     <use xlink:href="#DejaVuSans-5b"/>
     <use xlink:href="#DejaVuSans-27" x="39.013672"/>
     <use xlink:href="#DejaVuSans-45" x="66.503906"/>
     <use xlink:href="#DejaVuSans-78" x="129.6875"/>
     <use xlink:href="#DejaVuSans-61" x="188.867188"/>
     <use xlink:href="#DejaVuSans-63" x="250.146484"/>
     <use xlink:href="#DejaVuSans-74" x="305.126953"/>
     <use xlink:href="#DejaVuSans-27" x="344.335938"/>
     <use xlink:href="#DejaVuSans-2c" x="371.826172"/>
     <use xlink:href="#DejaVuSans-20" x="403.613281"/>
     <use xlink:href="#DejaVuSans-27" x="435.400391"/>
     <use xlink:href="#DejaVuSans-50" x="462.890625"/>
     <use xlink:href="#DejaVuSans-72" x="521.443359"/>
     <use xlink:href="#DejaVuSans-65" x="560.306641"/>
     <use xlink:href="#DejaVuSans-64" x="621.830078"/>
     <use xlink:href="#DejaVuSans-69" x="685.306641"/>
     <use xlink:href="#DejaVuSans-63" x="713.089844"/>
     <use xlink:href="#DejaVuSans-74" x="768.070312"/>
     <use xlink:href="#DejaVuSans-69" x="807.279297"/>
     <use xlink:href="#DejaVuSans-6f" x="835.0625"/>
     <use xlink:href="#DejaVuSans-6e" x="896.244141"/>
     <use xlink:href="#DejaVuSans-27" x="959.623047"/>
     <use xlink:href="#DejaVuSans-5d" x="987.113281"/>
    </g>
   </g>
  </g>
 </g>
 <defs>
  <clipPath id="p972db908a7">
   <rect x="46.08" y="110.506667" width="108.8" height="55.466667"/>
  </clipPath>
  <clipPath id="pa266c238a8">
   <rect x="187.52" y="110.506667" width="108.8" height="55.466667"/>
  </clipPath>
  <clipPath id="p9d05ae17eb">
   <rect x="328.96" y="110.506667" width="108.8" height="55.466667"/>
  </clipPath>
 </defs>
</svg>
